<svg width="512" height="512" viewBox="0 0 512 512" fill="none" xmlns="http://www.w3.org/2000/svg">
<g clip-path="url(#clip0_914_4734)">
<path d="M346.272 18.3498C349.263 18.4566 353.001 21.3404 353.749 24.1175C361.332 52.6355 369.77 80.9399 377.995 109.244C387.714 142.569 397.754 175.786 407.688 209.004C418.048 243.503 428.515 278.003 438.769 312.609C447.848 343.156 456.927 373.597 465.471 404.251C468.676 415.786 471.239 427.535 475.832 438.644C477.113 441.741 478.075 444.945 478.929 448.15C479.463 450.606 478.716 452.208 477.648 454.131C477.434 454.451 477.113 454.985 477.007 454.985C473.375 454.024 471.88 457.442 469.423 458.724C466.646 460.219 463.549 460.539 460.772 461.607C456.286 463.21 451.907 465.453 447.527 467.375C429.583 475.386 411.853 483.824 393.696 491.087C389.21 492.902 384.617 494.077 380.024 495.68C377.995 496.32 375.218 494.398 373.081 493.009C369.557 490.553 366.139 487.883 362.828 485.105C353.856 477.736 344.777 470.259 335.912 462.782C327.901 456.053 320.104 449.324 312.093 442.595C303.656 435.439 295.111 428.283 286.673 421.127C280.692 416 274.71 410.766 268.729 405.639C261.252 399.231 253.669 392.929 246.192 386.521C239.891 381.073 233.696 375.626 227.394 370.179C221.092 364.732 214.79 359.391 208.489 354.051C203.469 349.778 198.555 345.399 193.642 341.127C187.02 335.359 180.291 329.698 173.669 323.931C168.542 319.551 163.522 314.959 158.395 310.579C151.453 304.598 144.51 298.617 137.567 292.529C132.227 287.829 126.887 283.023 121.439 278.323C113.856 271.594 106.166 264.972 98.5821 258.243C92.6008 253.009 86.7263 247.669 80.8518 242.328C70.2777 232.716 59.49 223.21 49.1295 213.276C40.7984 205.266 31.9333 197.896 24.5634 188.924C23.3885 187.429 22 185.933 22.8545 183.69C22.9613 183.477 22.7477 183.156 22.7477 182.943C21.5728 178.67 21.5728 178.563 25.7383 176.427C46.4593 165.533 67.1803 154.638 87.9012 143.85C121.76 126.227 155.832 109.244 190.011 92.2617C207.421 83.6101 224.83 74.9586 242.347 66.3071C271.399 51.9947 300.558 38.0027 329.397 23.4766C334.844 20.8064 340.291 19.0975 346.272 18.3498Z" fill="#F5DF4D"/>
<path d="M164.483 410.98C174.63 410.98 184.136 410.98 193.642 410.98C195.885 410.98 195.778 409.805 195.351 408.417C194.817 406.28 194.924 404.251 195.244 402.115C195.672 399.551 197.167 399.017 199.41 399.445C204.109 400.299 208.809 400.299 213.509 399.445C216.82 398.804 219.49 401.367 218.742 404.678C218.315 406.494 217.888 408.31 217.354 410.232C219.704 411.514 222.267 410.98 224.724 410.98C226.646 410.98 228.355 411.407 229.957 412.262C231.559 413.223 232.627 414.505 231.132 416.427C230.812 416.854 230.278 417.388 230.491 417.923C232.841 422.622 231.132 427.642 231.559 432.449C231.88 436.4 231.132 440.352 232.2 444.304C232.307 444.625 232.307 444.945 232.2 445.159C230.384 448.256 231.773 451.567 231.88 454.665C231.987 456.481 232.2 458.403 232.2 460.326C232.2 464.812 229.53 466.948 225.364 465.88C223.335 465.346 221.626 466.414 219.704 466.307C213.829 465.987 207.848 465.773 201.866 465.666C192.788 465.559 183.602 466.093 174.523 465.559C163.736 464.919 153.055 465.666 142.267 465.025C135.965 464.705 133.936 461.821 135.324 456.267C136.179 452.742 135.858 449.111 135.324 445.693C134.897 442.916 135.324 440.246 135.752 437.682C136.713 431.808 135.431 426.147 135.218 420.486C135.111 418.029 134.897 415.68 135.111 413.223C135.218 411.407 136.499 410.232 138.422 410.339C140.024 410.339 141.733 410.339 143.335 410.339C146.539 410.339 147.287 409.164 145.792 406.28C143.442 401.688 144.937 399.231 149.957 399.231C153.696 399.231 157.327 399.338 161.065 399.231C164.804 399.124 166.833 401.474 168.542 404.144C169.29 405.319 168.435 406.601 167.688 407.562C166.833 408.63 165.765 409.591 164.483 410.98Z" fill="#D36480"/>
<path d="M344.884 288.577C350.865 289.111 353.856 291.995 353.428 297.121C353.001 301.928 347.447 306.521 342.641 306.093C338.155 305.666 334.416 300.219 334.844 294.878C335.057 291.033 339.65 288.149 344.884 288.577Z" fill="#D36480"/>
<path d="M214.897 285.693C216.072 285.372 217.354 285.907 218.636 286.334C224.403 287.936 225.899 290.499 223.869 296.053C223.228 297.762 222.374 299.364 221.413 300.967C218.529 305.559 212.975 305.666 210.091 301.18C208.382 298.51 207.421 295.413 207.1 292.315C206.887 287.829 209.343 285.693 214.897 285.693Z" fill="#D36480"/>
<path d="M195.565 58.1896C195.351 62.8892 193.428 66.8411 190.758 70.5794C189.583 72.1816 187.874 72.2884 186.165 71.1135C183.175 69.0841 182.32 65.0254 184.35 61.9279C185.952 59.5781 187.127 57.2283 186.272 54.2376C185.952 52.9559 185.525 51.1402 187.661 50.2857C189.583 49.538 191.292 49.6448 192.788 50.9266C195.031 52.7423 195.671 55.4125 195.565 58.1896Z" fill="#D36480"/>
<path d="M86.7263 465.453C87.6876 464.064 88.9693 464.598 90.0374 464.598C104.029 464.598 118.021 464.491 132.013 464.598C134.363 464.598 135.004 463.744 134.363 461.821C133.936 460.433 133.936 459.151 133.936 457.869C133.936 442.382 133.936 426.788 133.829 411.3C133.829 408.844 134.47 408.523 136.713 408.844C139.063 409.164 141.626 408.844 144.083 408.737C145.578 408.63 144.937 407.455 144.83 406.814C144.51 405.105 144.296 403.29 143.656 401.581C142.908 399.658 143.869 399.017 145.258 398.804C148.996 398.27 152.841 397.949 156.686 397.629C157.861 397.522 158.716 396.988 160.531 396.774C152.521 393.784 145.151 391.007 137.781 388.23C127.634 384.385 117.701 380.219 107.447 377.015C104.457 376.053 103.068 374.558 101.359 372.422C100.291 371.033 98.7957 369.858 97.3004 368.79C91.3191 364.304 88.3285 354.158 92.3872 348.176C94.0961 345.72 96.3391 343.69 98.5821 341.768C101.146 339.738 103.495 337.389 105.204 334.611C107.981 329.912 107.234 325.212 105.525 320.406C104.243 316.774 102.748 313.25 101.786 309.511C99.757 302.035 102.107 295.306 106.272 289.111C110.545 282.809 116.526 278.75 123.362 275.76C129.343 273.196 134.79 269.672 137.14 263.263C139.17 257.709 140.344 252.048 139.17 245.96C138.208 240.94 137.781 235.813 137.354 230.686C136.499 221.18 139.917 212.956 146.005 205.907C152.414 198.43 159.997 192.342 169.503 189.244C176.66 187.001 183.816 185.186 191.399 184.865C193.749 184.758 196.206 184.438 198.555 184.438C199.303 184.438 200.158 184.331 200.798 185.506C193.001 187.215 185.097 186.574 176.873 188.283C181.68 188.924 186.059 189.672 190.438 190.206C204.537 191.808 218.742 191.594 232.841 192.128C256.126 192.983 279.41 192.555 302.587 192.449C312.628 192.342 322.774 191.274 332.814 189.778C337.834 189.031 342.961 188.71 347.981 188.603C351.079 188.497 354.069 187.749 357.915 187.963C347.554 184.224 337.194 184.331 327.154 182.729C327.154 182.302 327.154 181.981 327.26 181.554C330.144 181.554 333.135 181.234 335.912 181.661C343.709 182.836 351.933 183.37 358.876 187.108C364.323 189.992 370.732 191.594 374.684 197.148C377.461 200.993 377.674 205.052 377.14 209.324C376.82 211.354 375.965 213.276 375.645 215.306C375.324 217.442 376.072 219.044 378.208 219.899C382.801 221.607 386.646 224.171 389.637 228.123C392.948 232.395 393.055 237.415 392.307 242.328C391.559 247.455 391.987 249.057 396.686 251.834C400.745 254.184 403.308 257.495 402.988 262.409C402.881 264.331 402.347 266.147 401.065 267.642C399.463 269.565 398.395 271.594 399.356 274.371C400.104 276.507 399.25 278.964 397.114 280.139C395.405 281.207 393.482 282.595 391.239 280.566C389.85 279.178 388.142 280.352 386.646 280.673C385.578 280.887 386.219 281.741 386.433 282.489C387.608 287.081 388.569 291.781 388.355 296.587C388.248 301.394 387.394 305.987 386.005 310.473C385.578 311.861 385.685 312.822 386.646 313.997C388.676 316.668 390.919 319.124 393.482 321.367C395.832 323.503 396.152 326.494 394.657 329.378C391.453 335.252 386.219 338.243 380.238 340.486C379.81 340.7 379.383 340.913 378.956 340.913C374.577 341.127 372.868 343.69 372.761 347.749C372.654 350.099 372.227 352.555 372.227 354.905C372.227 356.828 371.266 358.003 369.557 358.537C359.41 361.634 349.049 363.236 338.475 361.421C334.737 360.78 331.64 358.857 328.862 356.294C326.299 353.944 324.27 351.06 321.279 349.244C320.852 348.924 320.318 348.71 319.784 348.39C318.929 347.856 317.648 347.642 317.113 348.39C316.366 349.244 317.327 350.206 317.754 350.953C323.736 359.071 331.319 364.625 341.146 367.402C345.845 368.684 350.652 369.111 355.458 369.645C359.73 370.072 363.575 368.256 367.314 366.334C369.343 365.266 369.984 365.479 370.091 368.043C370.091 372.636 369.13 377.121 368.382 381.607C368.168 382.996 368.275 384.491 368.275 385.987C368.275 394.531 367.741 402.969 366.032 411.407C365.498 413.864 366.032 416.427 363.896 418.35C361.332 420.7 358.128 421.554 354.924 422.195C347.02 423.797 339.116 424.224 331.105 423.904C319.677 423.477 308.462 422.195 298.956 414.825C298.315 414.291 297.461 414.077 296.713 413.65C291.266 410.98 288.489 412.689 287.848 418.67C287.314 423.37 286.993 428.176 287.421 432.769C288.275 442.916 289.664 453.063 289.13 463.316C289.023 465.239 290.411 464.598 291.373 464.598C303.656 464.598 316.045 464.598 328.328 464.598C339.757 464.598 351.292 464.385 362.721 464.705C376.072 465.132 389.53 465.025 402.881 465.132C403.736 465.132 405.017 464.598 405.124 466.2C405.231 467.696 403.949 467.696 403.095 468.016C402.454 468.23 401.706 468.123 401.065 468.123C372.654 468.016 344.136 468.336 315.725 467.909C277.701 467.375 239.677 467.802 201.653 467.482C197.915 467.482 194.069 467.696 190.331 467.482C169.824 466.307 149.21 467.589 128.702 466.841C116.206 466.307 103.709 466.734 91.2123 466.414C89.3966 466.2 88.008 466.521 86.7263 465.453ZM369.45 329.164C369.77 328.844 370.625 328.63 370.304 328.31C369.77 327.669 369.45 328.31 369.13 328.844C368.702 328.951 367.848 328.844 368.061 329.378C368.382 330.126 368.916 329.271 369.45 329.164ZM376.927 321.367C375.645 321.154 375.538 322.008 375.218 322.969C376.286 322.756 376.606 322.008 376.82 321.26C377.247 320.726 378.208 320.513 377.567 319.445C377.247 320.085 375.965 320.299 376.927 321.367ZM366.566 330.232C361.546 333.437 356.099 335.68 349.69 336.641C354.283 337.282 362.507 334.184 366.887 330.66C367.314 330.553 368.168 330.553 367.848 330.019C367.527 329.271 366.993 330.126 366.566 330.232ZM189.049 357.789C187.127 366.227 185.204 374.665 183.282 383.103C181.893 389.191 180.505 395.172 179.116 401.367C185.311 400.406 191.506 402.115 197.487 399.445C201.653 397.629 206.459 398.376 211.052 397.736C212.12 397.522 212.868 397.308 212.975 396.134C213.402 392.182 213.722 388.23 214.256 384.171C214.363 382.996 214.363 383.316 213.295 383.316C204.537 382.889 195.778 382.248 187.02 382.462C186.379 382.462 185.204 382.996 185.204 381.821C185.204 380.967 186.059 380.753 186.913 380.753C195.778 380.326 204.644 380.326 213.509 379.792C215.004 379.685 215.218 379.151 215.324 378.296C216.072 372.208 216.82 366.12 217.567 359.925C215.324 361.314 213.188 359.712 211.052 359.818C204.644 359.925 198.235 359.818 191.826 359.925C190.118 359.818 189.37 359.071 189.049 357.789C191.933 358.003 194.924 357.575 197.808 357.469C203.789 357.362 209.77 356.294 215.752 356.721C217.567 356.828 218.101 356.401 218.315 354.371C218.742 348.817 219.597 343.263 220.344 337.389C211.907 338.029 203.255 336.748 194.71 336.854C193.963 336.854 193.429 336.748 193.108 337.923C191.933 344.652 190.438 351.167 189.049 357.789ZM326.513 334.505C326.085 334.291 325.765 333.864 325.231 333.65C308.355 327.135 294.47 308.336 296.927 288.363C297.033 287.081 296.82 286.547 295.218 286.227C292.227 285.693 289.023 284.945 287.314 281.741C284.323 285.159 280.585 286.761 275.992 287.081C273.322 287.295 271.506 289.218 270.758 291.674C270.331 293.276 270.011 294.985 270.011 296.694C270.118 301.18 268.729 302.996 264.35 304.385C261.359 305.346 258.368 305.025 255.378 304.705C253.028 304.491 252.708 303.423 252.494 301.501C252.174 298.51 251.533 295.519 250.999 292.636C250.144 288.363 246.833 285.8 244.163 282.702C242.988 281.314 241.813 280.887 239.891 281.527C233.909 283.343 227.928 284.945 221.84 286.761C227.501 291.781 225.899 300.967 220.024 304.598C217.033 306.414 212.761 306.414 210.304 304.491C206.246 301.394 204.216 296.481 205.605 292.315C206.459 289.645 207.314 286.761 210.304 286.013C213.616 285.052 217.033 283.984 220.344 286.013C220.558 286.12 220.558 286.441 220.985 286.227C227.501 283.984 234.123 281.848 240.745 279.712C236.366 275.76 231.132 274.798 225.685 275.439C219.917 276.187 214.043 277.255 210.198 282.061C203.896 289.858 201.226 298.937 203.255 308.977C205.178 318.911 211.373 325.853 219.81 331.087C221.519 332.155 221.519 331.3 221.626 330.126C222.267 325.533 222.587 320.833 223.442 316.24C223.762 314.318 223.335 311.861 225.364 310.366C226.539 311.434 227.18 312.288 226.967 314.211C226.219 319.658 225.471 325.105 224.51 330.66C224.19 332.368 223.976 334.184 226.326 335.252C231.559 337.709 236.686 340.7 242.454 341.661C246.299 342.195 244.911 343.904 244.163 345.613C242.561 349.351 242.561 352.662 245.124 355.973C246.833 358.216 248.863 360.032 250.892 361.955C257.728 368.577 259.864 372.315 254.203 381.073C252.708 383.423 251.212 385.666 249.931 388.123C248.222 391.434 248.542 394.531 250.358 397.522C251.853 399.979 253.562 402.222 255.591 404.251C259.223 407.883 263.175 411.194 265.738 415.573C267.34 418.35 267.554 421.234 265.738 424.224C264.029 427.001 261.573 429.138 259.33 431.487C257.941 432.983 257.3 432.983 255.591 432.342C247.688 429.244 239.677 426.681 231.987 422.943C231.987 426.574 232.307 429.992 232.414 433.303C232.734 443.13 233.055 452.956 233.696 462.782C233.802 464.491 234.23 464.812 235.832 464.812C241.279 464.705 246.726 464.812 252.174 464.812C262.854 464.812 273.535 464.812 284.216 464.812C284.857 464.812 286.352 465.773 286.032 463.637C284.857 457.335 286.246 450.927 285.178 444.625C284.003 437.469 284.537 430.206 284.537 422.943C284.537 419.738 285.178 416.534 286.246 413.543C286.887 411.834 287.848 410.446 289.77 410.232C293.081 409.805 296.393 410.232 299.063 412.262C308.355 419.311 319.143 420.806 330.251 421.234C335.805 421.447 341.466 421.554 347.02 420.7C351.72 419.952 356.633 419.525 360.798 416.641C361.546 416.107 362.507 415.68 362.614 414.611C363.362 409.805 364.537 405.105 364.857 400.299C365.498 390.045 365.391 379.685 367.848 368.897C361.973 372.422 356.206 372.636 350.224 371.781C342.748 370.82 335.698 368.897 329.183 365.159C323.415 361.848 318.929 357.255 315.191 351.808C314.123 350.206 313.589 348.069 314.871 346.467C316.366 344.652 318.502 345.186 320.425 345.933C322.881 346.895 324.804 348.497 326.513 350.633C329.931 355.012 334.31 358.003 339.65 359.284C343.816 360.246 348.088 360.139 352.467 359.605C357.594 358.857 362.721 358.003 367.741 356.614C368.809 356.294 369.664 355.973 369.77 354.371C369.984 350.312 370.518 346.147 370.838 342.088C370.945 341.02 371.373 340.486 372.547 340.166C375.004 339.632 377.354 338.777 379.81 337.923C385.151 336 389.85 333.437 392.628 328.203C393.589 326.387 393.802 325.105 391.987 323.824C388.782 321.581 386.539 318.483 384.403 315.065C381.413 321.367 377.567 326.814 372.12 331.194C362.187 339.204 350.865 342.195 338.262 340.059C337.087 339.845 334.844 339.952 335.378 337.389C335.485 336.854 335.164 336.748 334.737 336.748C331.853 336.32 329.29 334.718 326.513 334.505ZM219.917 333.864C214.897 330.66 210.198 327.135 206.78 322.542C201.012 314.745 198.983 305.987 200.905 296.481C203.255 284.945 208.061 275.546 221.199 273.089C229.21 271.594 236.579 272.021 242.774 277.896C243.522 278.644 243.949 278.537 245.017 278.216C248.649 277.041 252.387 276.08 256.019 274.905C273.642 269.458 291.159 263.904 308.676 258.35C314.016 256.641 319.25 254.932 324.59 253.543C329.61 252.262 334.203 249.057 340.077 250.66C343.175 251.514 346.806 250.66 350.331 251.087C364.75 253.116 375.324 260.7 382.267 273.089C384.296 276.721 386.112 278.964 390.385 278.003C391.132 277.896 391.88 278.109 392.628 278.323C395.405 279.178 397.113 277.896 397.007 275.012C396.9 271.167 397.007 267.535 399.891 264.652C400.318 264.224 400.531 263.37 400.531 262.515C400.959 258.136 398.929 255.359 395.298 253.437C391.132 251.194 389.103 248.096 389.85 243.076C390.278 239.765 390.705 236.24 389.637 233.036C387.928 227.802 384.19 224.491 379.17 222.569C374.684 220.86 372.654 218.83 374.15 213.063C374.897 210.179 376.286 207.188 375.965 204.198C375.218 196.828 366.78 189.672 359.196 189.992C353.856 190.206 348.515 190.74 343.068 191.167C337.514 191.594 331.96 191.594 326.406 192.449C317.434 193.73 308.355 194.371 299.383 194.585C284.109 194.798 268.729 195.119 253.455 194.264C241.706 193.623 229.85 193.517 218.102 193.089C210.625 192.876 203.148 192.235 195.672 191.808C192.361 191.594 189.049 191.274 185.845 190.419C181.359 189.351 176.766 189.458 172.174 189.458C171.746 189.458 171.319 189.778 170.892 189.885C162.24 192.342 155.405 197.575 149.21 203.877C140.131 213.063 136.82 223.85 139.063 236.454C140.131 242.328 141.092 248.096 140.665 254.077C140.344 259.311 138.849 264.224 135.858 268.603C132.441 273.623 127.1 276.08 121.867 278.537C115.992 281.314 111.079 285.159 107.554 290.499C103.282 297.015 100.932 303.85 104.457 311.648C105.632 314.318 106.272 317.095 107.234 319.872C108.515 323.824 109.263 327.669 108.195 331.834C106.7 337.495 102.748 341.234 98.3685 344.545C90.4646 350.526 90.7851 358.75 96.6596 365.373C98.5821 367.402 101.466 368.577 102.748 371.14C104.136 373.917 106.272 375.092 109.156 376.053C129.023 383.103 148.676 390.259 168.435 397.415C170.678 398.27 172.921 399.445 175.378 399.658C176.339 399.765 176.019 400.726 176.66 401.047C176.446 401.154 176.126 401.474 176.019 401.367C175.057 400.619 174.096 401.794 173.028 401.367C171.533 400.833 170.037 400.299 168.542 399.658C167.901 401.367 169.183 402.756 169.183 404.465C169.183 409.057 169.29 409.057 173.883 408.951C174.31 408.951 174.63 408.951 175.057 408.951C175.698 408.951 176.019 408.737 176.126 407.989C176.873 403.824 177.621 399.658 178.475 395.493C180.612 384.278 182.748 372.956 184.991 361.741C187.768 347.963 190.758 334.184 193.642 320.299C194.497 316.454 195.138 312.502 196.099 308.657C196.312 307.696 196.74 306.2 198.021 306.628C198.983 306.948 199.41 308.123 198.983 309.191C198.876 309.405 198.983 309.725 198.983 310.045C197.274 318.27 195.565 326.494 193.749 334.825C202.614 335.573 211.159 334.611 219.917 333.864ZM214.79 464.491C219.597 464.491 224.296 464.385 229.103 464.491C230.705 464.491 231.239 464.171 231.239 462.462C231.132 457.976 230.812 453.597 230.705 449.111C230.598 437.469 230.171 425.826 230.064 414.291C230.064 412.262 229.316 412.048 227.607 412.048C212.334 411.834 196.953 412.262 181.68 411.728C168.649 411.3 155.511 411.514 142.374 411.514C141.199 411.514 140.024 411.514 138.956 411.194C137.247 410.66 136.82 411.194 136.82 412.903C136.82 429.138 137.14 445.373 135.645 461.607C135.431 463.957 136.072 464.705 138.529 464.598C157.434 464.171 176.339 465.239 195.138 463.957C198.021 463.744 200.798 464.705 203.682 464.598C207.314 464.385 211.052 464.491 214.79 464.491ZM342.748 334.077C344.35 334.077 346.379 334.398 348.195 334.077C360.798 331.621 370.838 325.64 377.247 314.211C379.383 310.473 379.917 307.268 377.888 303.103C374.47 296.16 371.479 289.004 371.373 281.1C371.373 280.673 371.479 280.139 370.838 279.925C368.061 279.284 365.605 277.469 362.401 277.469C357.915 277.469 354.069 279.284 350.224 280.887C346.486 282.489 342.641 284.091 338.475 283.77C334.844 283.557 331.533 282.061 328.435 280.246C326.085 278.857 323.736 279.071 321.279 279.605C314.016 281.1 308.035 286.12 300.558 286.868C299.704 286.975 299.917 287.509 299.704 288.043C298.315 291.674 299.17 295.306 299.917 298.83C303.762 319.124 321.92 334.611 342.748 334.077ZM242.668 342.943C236.686 342.195 231.453 339.418 226.112 336.961C224.296 336.107 223.656 336.748 223.549 338.35C223.015 344.545 221.626 350.526 220.665 356.614C218.529 369.324 216.82 382.142 214.256 394.745C213.936 396.561 214.47 397.842 216.286 397.949C217.995 398.056 218.529 398.911 218.315 400.406C217.995 402.969 219.17 405.319 218.956 407.883C218.849 409.271 219.704 409.164 220.558 409.164C223.015 409.164 225.471 409.271 227.821 409.164C230.598 408.951 231.559 410.446 231.666 412.796C231.773 414.505 231.666 416.32 231.666 418.029C231.666 418.991 233.375 421.554 234.23 421.875C240.425 424.117 246.833 425.72 252.708 428.603C257.194 430.74 259.757 429.778 262.641 426.254C266.806 421.02 267.127 418.457 262.641 413.757C258.689 409.485 254.096 405.853 250.678 401.154C246.299 395.172 245.231 391.541 248.756 385.239C250.358 382.462 252.174 379.899 253.776 377.122C255.271 374.451 256.232 371.674 254.31 368.79C252.494 366.013 250.251 363.664 247.581 361.634C245.231 359.818 243.522 357.575 242.134 355.119C239.997 351.167 240.959 347.001 242.668 342.943ZM377.674 279.498C373.402 271.487 367.741 265.72 360.264 261.874C353.215 258.243 345.738 255.573 337.728 254.932C335.271 254.718 332.814 255.466 330.465 256C315.618 259.311 305.578 267.856 300.879 282.489C300.238 284.518 300.772 284.625 302.267 284.518C302.908 284.518 303.549 284.198 304.19 284.091C308.996 282.809 313.055 280.032 317.754 278.537C322.561 276.935 327.047 276.614 331.533 279.498C333.883 280.993 336.66 281.527 339.65 281.634C343.709 281.741 347.234 280.139 350.652 278.537C357.06 275.76 363.362 273.837 370.091 277.469C372.12 278.644 374.684 278.75 377.674 279.498ZM244.59 280.139C251.105 284.945 253.669 291.14 254.31 298.403C254.417 300.219 253.776 302.782 255.485 303.637C256.98 304.384 259.33 304.171 261.252 303.744C265.952 302.676 269.156 301.073 268.302 296.16C268.195 295.733 268.302 295.413 268.302 294.985C268.515 289.111 270.545 286.441 276.312 285.052C279.944 284.091 283.682 283.45 285.925 279.818C286.459 278.964 287.421 279.178 288.061 280.032C289.877 282.595 292.441 283.557 295.431 284.304C297.033 284.732 297.14 284.625 297.567 283.13C299.17 277.148 301.84 271.701 305.899 266.895C307.714 264.758 310.278 263.37 312.2 260.486C289.557 267.001 267.447 273.517 244.59 280.139ZM215.538 286.334C212.013 286.334 207.848 290.927 207.848 294.772C207.848 299.151 211.479 303.21 215.431 303.21C219.383 303.21 223.656 298.83 223.656 294.238C223.656 290.179 219.81 285.586 215.538 286.334ZM158.502 399.872C156.152 400.085 153.055 400.085 150.064 400.513C145.365 401.154 145.365 401.26 146.005 406.067C146.005 406.387 146.005 406.601 146.005 406.921C145.792 408.417 146.539 408.63 147.821 408.63C153.696 408.63 159.57 408.737 165.445 408.951C166.726 408.951 167.047 408.63 167.047 407.348C167.367 401.581 165.765 399.872 160.104 399.872C159.784 399.872 159.463 399.872 158.502 399.872ZM205.712 409.164C208.809 409.164 211.907 409.057 215.004 409.164C216.499 409.164 216.82 408.417 216.393 407.455C215.645 405.853 215.859 404.251 215.965 402.649C216.072 400.94 215.645 400.299 213.722 400.406C209.45 400.513 205.284 400.406 201.012 401.047C195.458 401.901 194.924 402.435 194.817 407.242C194.817 408.951 195.351 409.378 196.953 409.271C199.944 409.057 202.828 409.164 205.712 409.164ZM372.654 280.78C372.868 289.324 377.354 296.587 380.558 304.491C380.879 303.637 381.306 303.103 381.413 302.462C381.947 297.228 381.84 292.101 380.451 286.868C379.49 283.343 378.742 280.352 374.15 280.993C373.722 280.993 373.402 280.246 372.654 280.78ZM178.903 402.542C178.475 404.144 177.941 405.853 177.514 407.562C177.3 408.523 177.407 409.378 178.903 409.271C183.389 409.164 187.981 409.164 192.467 409.271C194.069 409.271 193.856 408.203 193.749 407.348C193.535 406.174 194.817 404.251 192.788 404.037C190.652 403.824 188.515 403.076 186.272 403.29C183.816 403.61 181.359 402.969 178.903 402.542ZM337.941 252.903C358.235 252.155 372.12 262.195 381.519 279.498C379.276 264.652 351.933 248.096 337.941 252.903ZM383.228 308.764C386.433 299.364 386.219 290.179 382.267 281.1C385.044 290.286 385.044 299.471 383.228 308.764ZM381.84 311.434C380.879 313.463 379.917 315.493 378.956 317.522C380.665 315.813 381.84 313.891 381.84 311.434Z" fill="#1A1A1A"/>
<path d="M480.959 134.344C482.561 139.151 484.911 143.637 485.765 148.764C486.833 155.386 485.765 161.581 483.415 167.669C480.318 176 474.657 182.195 466.54 185.613C461.626 187.749 457.995 191.06 454.15 194.478C444.003 203.557 432.147 209.111 418.155 208.15C408.542 207.509 400.104 203.45 392.521 197.575C389.317 195.119 387.18 191.808 384.51 188.924C384.19 188.497 383.549 188.283 384.296 187.642C384.724 187.322 385.151 187.215 385.578 187.642C386.219 188.283 386.967 188.924 387.608 189.672C395.191 197.896 404.59 202.275 415.485 204.198C424.991 205.907 433.215 202.702 441.333 198.537C445.605 196.401 449.664 193.73 453.082 189.885C450.198 189.458 447.421 189.778 444.857 189.031C439.41 187.429 434.817 184.545 432.04 179.525C428.409 173.009 430.438 161.26 438.983 158.59C441.867 157.629 444.75 157.415 447.634 158.163C454.577 160.085 461.306 162.328 463.869 170.232C464.937 173.33 464.724 176.534 463.976 179.738C463.762 180.486 463.869 181.234 463.762 182.088C473.482 177.709 479.357 170.446 481.813 160.406C484.27 150.259 480.638 141.394 475.725 132.636C473.268 134.879 470.812 137.015 468.355 139.365C467.501 140.219 466.539 140.86 465.792 139.899C465.044 139.044 464.297 137.656 465.365 136.587C468.676 133.17 471.987 129.752 475.405 126.547C476.259 125.8 477.541 125.907 478.609 126.654C481.92 129.111 484.911 131.888 488.649 133.597C490.037 134.238 489.503 135.413 489.29 136.267C488.969 137.335 487.901 137.656 486.94 137.015C485.124 135.947 483.415 134.879 481.6 133.704C481.279 133.49 481.066 133.383 480.745 133.17C480.211 133.81 480.425 134.131 480.959 134.344ZM444.216 162.222C439.837 161.794 435.992 164.678 434.71 168.096C433.108 172.475 433.749 176.427 437.06 179.845C440.905 183.797 445.819 185.826 451.159 185.506C457.995 185.186 457.995 185.399 460.024 178.777C461.092 175.252 461.092 171.728 458.636 168.844C454.79 164.465 449.877 162.649 444.216 162.222Z" fill="#1A1A1A"/>
<path d="M240.211 19.2043C240.211 16.4272 242.561 17.0681 244.056 16.7477C245.338 16.4272 246.726 16.6409 248.115 16.6409C256.019 16.9613 263.923 16.1068 271.827 16.1068C272.681 16.1068 273.963 15.7864 273.963 16.9613C273.963 18.0294 273.001 18.5634 271.72 18.5634C269.37 18.4566 267.02 18.6702 264.777 18.4566C262.855 18.3498 263.068 19.5247 263.175 20.6996C263.282 21.7677 262.427 23.3698 264.777 23.263C266.7 23.1562 268.729 23.263 270.758 23.5834C269.156 25.0788 267.234 24.3311 265.525 24.3311C263.816 24.3311 262.961 24.7583 263.282 26.5741C263.389 27.4286 263.389 28.283 263.282 29.1375C263.175 30.4192 263.709 30.8465 264.884 30.7397C266.806 30.6328 268.729 30.7397 270.652 30.7397C271.186 30.7397 272.254 30.4192 271.72 31.7009C269.584 32.4486 267.447 32.5554 265.204 32.5554C264.457 32.5554 263.068 31.9146 263.175 33.7303C263.282 35.2256 262.855 37.3618 264.457 37.6822C266.7 38.1095 269.477 38.3231 271.506 37.3618C272.574 36.8278 271.933 33.8371 271.72 32.0214C271.72 31.9146 271.613 31.9146 271.506 31.8077C272.788 32.235 272.361 31.2737 272.361 30.7397C272.361 28.283 272.361 25.9332 272.361 23.4766C272.361 21.7677 273.108 20.0587 274.604 19.3111C275.778 18.6702 276.953 20.1656 278.021 20.9132C279.837 22.1949 281.012 23.9039 282.401 25.506C283.255 26.4673 283.576 27.215 285.178 26.8945C286.566 26.5741 286.459 27.9626 286.353 28.9239C286.139 32.6622 286.139 36.4005 285.712 40.1389C285.071 45.0521 284.537 50.0721 284.644 54.9853C284.644 56.4806 284.323 56.8011 282.935 56.4806C281.226 56.0534 279.944 57.5487 278.128 57.7623C270.545 58.7236 262.855 57.2283 255.378 58.9373C254.096 59.2577 253.349 58.7236 252.708 57.976C249.183 53.3832 245.872 48.47 240.531 45.0521C242.347 44.518 243.309 45.2657 244.163 46.1202C245.658 47.6155 247.367 47.0814 249.076 46.9746C249.397 46.9746 248.969 46.3338 248.756 46.1202C250.465 46.1202 252.174 46.5474 253.883 46.6542C255.805 46.761 255.912 46.0134 255.698 44.6248C258.155 47.1883 261.146 46.9746 264.243 46.227C266.807 46.1202 269.263 46.1202 271.827 46.0134C275.138 45.7997 275.992 44.0908 274.176 40.6729C274.283 43.984 272.895 42.7023 271.613 41.9546C272.147 39.6048 271.399 38.5367 268.836 38.964C267.447 39.1776 265.952 39.0708 264.457 38.964C263.175 38.8571 262.855 39.2844 262.855 40.5661C262.855 41.8478 263.495 41.9546 264.457 41.8478C266.913 41.8478 269.263 41.8478 271.72 41.8478C271.827 43.4499 271.186 44.4112 269.37 44.1976C268.302 44.0908 267.234 44.3044 266.166 44.1976C264.35 43.8772 264.029 44.7316 264.243 46.227C263.175 45.9065 263.495 44.1976 262.107 44.3044C259.971 44.4112 257.728 43.8772 255.698 44.7316C254.951 45.5861 254.523 44.6248 253.883 44.518C251.106 43.6636 248.863 44.518 248.756 46.3338C247.581 44.4112 245.765 44.3044 243.736 44.4112C241.279 44.518 240.425 43.0227 240.638 40.6729C241.279 35.3324 240.531 30.0988 239.891 24.8652C239.784 23.7971 239.891 22.6222 239.463 21.4473C238.502 21.7677 239.463 22.8358 238.609 23.263C238.182 22.0881 238.288 20.8064 238.502 19.6315C238.929 18.4566 239.677 18.3498 240.211 19.2043C241.172 20.0587 241.279 21.2336 241.6 22.4085C241.813 23.0494 241.066 24.1175 242.347 24.2243C243.736 24.2243 245.231 24.6515 246.62 24.0107C247.26 23.6903 246.726 19.6315 246.192 19.7383C244.056 19.9519 242.24 18.4566 240.211 19.2043ZM282.614 52.6355C282.828 52.8491 283.148 52.9559 283.362 53.1696C283.576 52.7423 283.576 52.3151 283.041 52.1015C283.041 50.8198 282.828 49.5381 282.935 48.3632C283.041 46.6542 282.401 45.6929 280.798 45.4793C280.051 48.1495 279.303 50.9266 282.614 52.6355ZM252.067 49.2176C254.523 50.8198 257.3 50.3925 260.078 50.3925C258.796 47.5087 256.553 47.4019 254.096 47.4019C252.494 47.5087 251.96 47.9359 252.067 49.2176C250.678 48.1495 249.29 46.6542 247.047 47.8291C248.222 49.9653 250.144 50.7129 252.708 50.8198C252.174 50.3925 251.96 49.8585 252.067 49.2176ZM278.342 35.5461C278.021 35.3324 277.381 35.012 277.381 35.012C276.099 36.721 277.487 41.4206 279.41 41.9546C279.09 39.7116 280.371 37.1482 278.021 35.2256C278.342 33.9439 279.837 36.6142 279.944 34.6916C280.051 32.0214 279.624 29.3511 279.837 26.6809C279.837 25.8264 279.09 24.5447 277.808 24.3311C277.274 26.1469 278.449 27.9626 277.915 29.5648C277.274 31.8077 278.128 33.6235 278.342 35.5461ZM266.593 49.2176C269.049 50.2857 271.827 49.6449 274.71 49.9653C272.681 51.1402 269.904 49.004 268.943 52.1015C268.836 51.9947 268.622 51.9947 268.515 51.8878C266.807 50.1789 264.777 51.247 262.321 50.9266C266.272 55.4126 270.865 51.8878 274.71 52.9559C274.497 54.7717 271.399 52.7423 271.613 55.3057C269.797 53.49 267.768 54.8785 265.098 54.4513C267.661 56.5875 269.584 55.5194 271.506 55.1989C274.497 55.1989 277.487 55.3057 280.478 54.3445C279.73 53.3832 279.303 52.2083 278.449 51.5674C276.526 50.0721 275.885 46.5474 273.429 46.5474C271.079 46.5474 268.409 46.227 266.166 47.5087C264.029 46.6542 262 47.2951 259.971 47.6155C262.107 50.6061 263.068 50.8198 266.593 49.2176ZM258.262 31.1669C258.689 31.1669 259.757 31.2737 260.718 30.8465C261.359 30.6328 262.427 30.9533 262.641 29.5648C263.282 25.6128 262.748 24.6515 258.689 24.7583C258.369 24.7583 258.155 24.7583 257.835 24.7583C254.844 24.5447 254.417 26.1469 254.31 28.8171C254.203 31.9146 255.912 31.1669 258.262 31.1669ZM258.903 32.3418C257.621 32.3418 256.553 32.3418 255.485 32.3418C254.844 32.3418 254.523 32.5554 254.31 33.3031C253.562 36.6142 254.417 37.5754 257.621 37.5754C258.155 37.5754 258.796 37.4686 259.33 37.5754C261.786 38.0027 262.534 37.1482 262.534 34.5848C262.641 30.8465 260.078 32.9826 258.903 32.3418ZM256.766 23.5834C258.155 24.0107 259.33 22.8358 260.718 23.0494C262.321 23.263 262.641 22.5154 262.534 21.1268C262.534 18.8838 261.68 17.8158 259.437 18.6702C258.475 18.9907 257.514 19.0975 256.553 18.9907C254.417 18.6702 254.417 19.7383 254.31 21.4473C254.203 23.3698 254.951 24.0107 256.766 23.5834ZM248.222 28.9239C248.542 29.4579 247.047 31.3805 248.969 31.7009C251.96 32.1282 253.242 30.9533 253.242 28.3899C253.242 26.6809 253.669 25.0788 250.785 25.1856C248.329 25.3992 247.474 26.0401 248.222 28.9239ZM253.242 21.2336C253.028 20.3792 253.776 18.3498 251.853 19.0975C250.358 19.7383 247.26 17.9226 247.367 21.7677C247.367 23.9039 248.008 24.4379 249.931 24.2243C251.96 24.1175 253.776 24.0107 253.242 21.2336ZM246.726 28.7103C247.688 25.6128 246.192 24.972 243.736 25.3992C240.531 25.8264 242.881 27.749 242.774 28.9239C242.774 29.2443 242.774 29.4579 242.774 29.7784C242.454 31.4873 243.309 31.7009 244.804 31.8077C247.794 32.0214 246.513 29.8852 246.726 28.7103ZM253.242 35.4393C253.028 33.8371 253.883 31.9146 251.319 32.3418C249.503 32.5554 247.794 32.3418 247.901 35.2256C248.008 37.3618 248.649 37.6822 250.572 37.6822C252.387 37.5754 253.883 37.5754 253.242 35.4393ZM254.203 42.0614C257.087 42.4887 259.33 41.2069 261.786 41.5274C262.641 41.6342 262.534 40.7797 262.534 40.2457C262.534 39.6048 262.961 38.7503 261.893 38.6435C259.757 38.5367 257.621 38.3231 255.485 38.7503C254.203 39.1776 255.592 41.1001 254.203 42.0614ZM251.212 42.3818C252.067 41.741 253.989 43.3431 253.883 40.6729C253.776 38.1095 251.96 38.8571 250.572 38.7503C249.397 38.7503 247.901 38.1095 247.901 40.4593C247.901 43.4499 250.037 41.741 251.212 42.3818ZM242.454 32.769C244.056 34.6916 241.92 38.7503 246.299 37.5754C248.115 37.0414 246.94 35.1188 246.726 34.1575C246.192 31.5941 244.163 33.5167 242.454 32.769ZM242.774 43.0227C244.59 42.275 247.047 43.984 247.26 40.9933C247.367 40.1389 248.008 39.0708 246.086 38.7503C242.454 38.0027 243.629 40.9933 242.774 43.0227ZM275.031 21.6609C275.031 24.972 275.031 28.3899 275.031 32.0214C277.274 29.3511 277.06 22.729 275.031 21.6609ZM263.175 53.9172C260.184 50.4993 259.116 50.1789 255.698 51.781C257.407 54.9853 260.291 53.5968 263.175 53.9172ZM282.721 44.518C283.362 39.498 283.362 39.3912 280.692 38.5367C280.478 43.3431 280.478 43.3431 282.721 44.518ZM278.876 48.8972C278.876 47.0814 278.876 45.5861 278.876 44.1976C278.876 43.2363 278.128 42.9159 277.274 42.8091C275.992 42.7023 276.633 43.6636 276.526 44.1976C276.313 46.0134 276.74 47.5087 278.876 48.8972ZM264.777 56.0534C263.495 54.024 261.893 54.2377 260.184 54.9853C259.757 55.1989 258.796 54.9853 259.116 55.8398C259.33 56.3738 259.864 57.1215 260.612 56.5875C261.893 55.733 263.389 56.5875 264.777 56.0534ZM283.148 38.2163C282.507 36.0801 284.003 33.7303 281.012 32.5554C281.653 34.478 280.158 36.721 283.148 38.2163ZM255.592 54.2377C253.776 51.4606 253.776 51.4606 251.106 51.8878C253.349 54.4513 253.349 54.4513 255.592 54.2377ZM274.817 33.0895C274.817 35.1188 274.817 37.0414 274.817 39.498C276.099 37.1482 276.313 35.1188 274.817 33.0895ZM281.333 28.4967C281.012 30.0988 281.119 31.4873 282.614 32.0214C283.148 32.235 283.362 31.7009 283.469 31.1669C283.789 29.4579 282.721 28.8171 281.333 28.4967Z" fill="#1A1A1A"/>
<path d="M209.343 187.001C205.605 181.875 203.362 176.534 201.973 170.873C200.692 165.853 199.944 160.833 200.158 155.599C200.798 142.355 204.964 130.286 213.188 119.818C222.694 107.642 234.977 99.4179 250.037 95.6796C258.262 93.6502 266.486 93.0093 275.031 93.9706C286.032 95.2523 295.858 98.9907 304.724 105.613C315.298 113.517 322.027 123.984 325.338 136.694C326.619 141.607 327.367 146.628 327.047 151.754C326.406 164.037 323.202 175.573 316.045 185.826C315.618 186.361 315.618 188.176 314.123 186.895C313.055 186.04 313.055 184.972 313.802 183.904C317.327 178.991 319.997 173.65 321.706 167.883C327.474 149.405 324.804 132.315 312.948 116.935C304.403 105.826 292.761 99.5247 279.089 96.9613C259.971 93.3298 242.774 98.1362 227.501 109.565C214.577 119.284 206.459 132.315 203.469 148.443C201.119 161.047 203.255 172.796 208.702 184.224C208.916 184.758 209.13 185.292 209.236 185.826C209.557 185.933 209.45 186.147 209.343 187.001Z" fill="#1A1A1A"/>
<path d="M373.081 42.8091C371.266 40.2457 369.664 38.0027 368.168 35.5461C367.741 34.9052 366.566 33.8371 367.848 33.0895C368.702 32.5554 369.877 32.6622 370.732 33.6235C372.12 35.3324 373.722 36.8278 375.004 38.6435C376.286 40.5661 378.101 42.1682 379.704 43.7704C381.84 45.7997 381.84 47.2951 379.49 49.004C376.82 50.8198 374.043 52.4219 371.479 54.3445C370.198 55.3057 369.664 54.9853 368.916 53.9172C368.382 52.9559 368.061 52.1015 369.343 51.3538C371.479 50.0721 373.402 48.6836 375.538 47.1883C362.507 42.4887 339.864 48.47 335.378 63.6369C338.582 63.9573 341.893 63.4232 345.097 64.2777C350.438 65.773 354.39 70.259 355.031 75.7063C355.351 78.8037 353.108 82.9693 350.117 84.4646C346.166 86.494 342.427 86.0668 339.33 83.1829C335.698 79.765 333.669 75.3858 332.921 70.5794C332.387 66.8411 332.174 66.5207 328.756 67.8024C322.134 70.3658 316.045 73.6769 312.734 80.5127C310.491 85.1055 311.239 89.8051 312.093 94.5047C312.414 96 312.414 97.7089 313.482 98.8839C312.627 99.4179 312.093 98.777 311.987 98.3498C309.423 90.3391 308.142 82.3284 313.696 75.0654C317.754 69.8318 323.308 66.5207 329.824 64.8118C331.105 64.4913 332.174 64.0641 332.494 62.462C334.096 55.1989 339.33 50.8198 345.418 47.2951C353.642 42.3818 362.507 41.3138 371.8 42.7023C372.334 42.9159 372.654 42.8091 373.081 42.8091ZM339.757 66.7343C338.903 66.7343 338.048 66.8411 337.194 66.7343C335.485 66.4139 335.271 67.482 335.485 68.7637C336.125 73.0361 337.621 76.988 340.505 80.1923C343.068 83.1829 346.593 83.2897 350.224 80.7263C352.36 79.231 352.788 76.2403 351.506 73.1429C349.156 67.9092 344.563 66.9479 339.757 66.7343Z" fill="#1A1A1A"/>
<path d="M144.83 142.462C145.044 143.53 146.005 143.103 146.433 142.996C148.355 142.676 150.064 142.782 150.598 145.132C151.132 147.268 150.491 148.123 147.821 149.298C146.967 147.802 149.423 147.162 148.782 145.666C148.569 145.239 149.21 144.705 147.928 144.705C138.422 144.812 129.023 145.239 119.517 144.384C115.138 144.064 110.758 144.064 106.486 144.278C101.466 144.491 96.4459 143.53 91.4259 143.637C87.7944 143.744 87.5808 143.957 89.2897 147.375C89.3965 147.589 89.3965 147.909 89.5033 148.23L89.6101 148.123C87.6876 148.764 86.7263 147.909 86.5127 145.987C86.2991 143.744 87.6876 141.928 89.9306 141.928C93.6689 141.928 97.4072 142.142 101.146 142.248C103.602 142.355 105.525 142.996 106.166 138.937C107.234 132.315 110.117 126.013 111.933 119.498C112.681 116.721 114.603 114.051 113.535 110.846C113.322 110.206 113.963 109.885 114.603 109.885C115.244 109.778 115.992 109.885 116.633 109.885C130.411 109.885 144.19 109.885 157.968 109.885C161.172 109.885 160.959 109.778 159.997 112.876C157.754 119.925 155.725 126.975 153.589 134.131C152.948 136.374 152.307 138.617 151.559 140.86C151.239 141.714 150.812 143.21 149.423 142.569C148.569 142.142 148.142 140.967 148.676 139.685C151.773 131.674 154.657 123.557 157.648 115.439C157.968 114.478 158.288 113.517 158.609 112.449C144.19 112.235 129.877 111.274 115.885 111.915C113.215 122.061 110.545 132.315 107.874 142.462C109.797 143.103 110.545 142.782 111.186 140.219C113.001 132.529 115.351 125.052 117.487 117.469C117.594 116.935 118.128 116.507 119.196 116.507C116.846 125.266 114.497 133.917 112.147 142.676C122.935 142.462 133.936 142.462 144.83 142.462Z" fill="#1A1A1A"/>
<path d="M283.041 155.92C283.148 156.347 282.401 157.415 283.682 157.095C286.032 156.561 287.848 157.949 289.877 158.697C290.945 159.124 291.479 159.765 290.945 160.94C290.304 162.115 289.557 161.474 288.809 161.047C288.275 160.833 287.741 160.619 287.207 160.299C284.11 158.911 282.08 159.658 280.905 162.756C277.915 170.659 274.924 178.563 271.826 186.467C271.506 187.322 270.972 188.176 270.545 189.031C268.622 188.069 268.729 186.788 269.477 185.079C272.788 177.495 275.992 169.912 279.196 162.222C276.74 162.435 274.71 161.901 272.788 160.192C270.865 158.483 268.302 158.911 266.166 160.619C262.214 163.824 256.766 163.61 252.921 159.979C251.533 158.697 250.251 157.415 248.115 158.59C244.163 160.726 244.377 160.299 246.192 163.717C249.717 170.339 253.562 176.961 256.98 183.583C257.514 184.651 259.33 186.574 257.514 187.429C256.019 188.176 255.805 185.72 255.164 184.651C251.212 177.068 247.26 169.485 243.415 161.901C239.57 164.144 238.075 163.717 236.045 159.551C239.891 163.717 241.92 160.085 244.27 158.056L244.163 158.163C244.59 158.056 244.804 157.842 244.804 157.522L244.697 157.629C245.231 157.415 245.872 157.202 245.338 156.347L245.231 156.454C245.765 157.095 246.299 156.454 246.726 156.24C248.969 155.386 251.212 155.172 253.028 157.202C255.271 159.551 258.262 160.299 261.359 160.833C262.748 161.047 263.709 159.872 264.67 158.911C267.661 155.92 270.331 155.706 273.856 158.056C277.487 160.513 278.983 160.192 281.653 156.454C282.187 156.24 282.507 155.706 283.041 155.92Z" fill="#1A1A1A"/>
<path d="M171.746 68.016C172.28 67.5888 172.708 66.9479 173.348 66.8411C175.164 66.3071 174.523 65.239 173.883 64.2777C170.678 59.6849 171.96 53.0627 177.621 50.1789C182.854 47.5087 190.117 50.7129 191.72 55.5193C192.788 58.8304 192.147 63.8505 189.263 66.4139C186.486 68.9773 183.068 70.1522 179.223 68.5501C177.834 68.016 176.98 68.016 176.019 69.1909C172.814 72.7156 168.862 75.3858 166.619 79.6582C166.085 80.6195 165.231 81.474 164.056 80.7263C162.561 79.765 160.638 79.231 160.104 77.3084C159.891 76.6676 160.745 76.3471 161.386 76.0267C165.017 73.5701 168.542 70.8999 171.746 68.016C172.814 69.725 172.814 69.725 174.31 67.9092C173.455 67.2683 172.708 69.4045 171.746 68.016ZM186.166 51.5674C184.243 50.0721 182 50.9266 180.077 51.0334C176.873 51.3538 174.31 54.5581 173.989 57.6555C173.562 61.6075 176.125 65.0254 180.077 66.5207C183.389 67.8024 187.661 65.8798 189.69 62.5687C191.826 58.9372 191.186 55.5193 187.768 52.3151C187.34 51.6742 186.913 51.4606 186.166 51.5674ZM168.969 72.8224C166.619 73.2497 165.445 75.1722 163.842 76.5607C163.095 77.0948 163.629 77.522 163.949 77.9493C164.483 78.4833 164.804 78.4833 165.231 77.7356C166.406 76.0267 167.688 74.4246 168.969 72.8224ZM174.951 66.9479C175.057 67.0547 175.271 67.1615 175.378 67.2683C175.485 67.0547 175.698 66.8411 175.698 66.6275C175.698 66.5207 175.485 66.3071 175.378 66.2003C175.271 66.5207 175.057 66.7343 174.951 66.9479Z" fill="#1A1A1A"/>
<path d="M263.602 112.983C263.282 113.623 262.748 113.944 262 113.944C249.61 114.585 239.784 120.459 231.132 128.79C229.21 130.713 227.501 132.742 225.685 134.772C225.365 135.092 225.044 135.626 224.51 135.413C223.869 135.092 224.19 134.451 224.297 133.917C225.365 128.47 229.637 125.479 233.482 122.168C240.211 116.187 248.329 113.196 257.087 111.701C258.689 111.38 260.398 111.487 262 111.594C262.641 111.701 263.282 112.235 263.602 112.983Z" fill="#1A1A1A"/>
<path d="M89.6102 148.23C106.593 148.764 123.469 147.696 140.451 147.696C142.16 147.696 143.976 147.589 145.685 148.123C146.326 148.336 147.394 147.909 147.18 149.298C146.967 150.366 146.112 149.939 145.578 150.045C141.733 150.152 137.781 150.259 133.936 150.259C119.837 150.259 105.845 150.152 91.7464 150.045C91.2123 150.045 90.5715 150.152 90.0374 150.045C88.4353 149.618 88.6489 148.871 89.6102 148.23C89.717 148.123 89.6102 148.23 89.6102 148.23Z" fill="#1A1A1A"/>
<path d="M83.522 208.897C81.7063 208.897 79.5701 209.431 79.2497 208.79C78.502 207.722 79.7837 206.227 80.2109 204.838C81.0654 202.061 81.8131 199.284 82.7744 196.507C83.0948 195.653 83.2016 194.371 84.6969 194.264C85.9786 194.158 86.5127 194.905 87.0467 195.973C88.5421 198.857 90.3578 201.741 91.7463 204.625C92.8144 206.654 91.8531 207.936 89.5033 208.256C87.2603 208.577 85.231 209.111 83.522 208.897ZM81.4927 205.373C83.2016 205.373 84.6969 205.373 86.0854 205.373C87.1535 205.373 88.1148 205.052 87.474 203.664C86.5127 201.634 85.5514 199.605 84.4833 197.362C83.522 200.139 82.5607 202.702 81.4927 205.373Z" fill="#1A1A1A"/>
<path d="M214.683 81.9012C214.683 85.2123 214.683 88.3097 214.683 91.514C213.188 91.1936 213.615 90.0187 213.615 89.1642C213.722 86.2804 213.188 83.5033 212.547 80.7263C212.334 79.9786 212.334 78.9105 212.761 78.5901C213.295 78.056 214.256 78.2697 215.111 78.9105C217.567 80.7263 220.131 82.3284 222.801 83.6101C224.189 84.251 223.549 85.2123 223.121 86.1735C221.84 88.737 219.169 89.6982 217.247 91.4072C216.606 92.048 216.286 91.1936 215.965 90.8731C215.324 90.3391 215.324 89.6982 215.645 89.0574C215.645 88.9506 215.752 88.9506 215.858 88.9506C217.354 87.8825 219.063 87.2416 220.024 85.5327C220.131 85.4259 219.917 85.1055 219.81 84.9986C218.101 83.9306 216.392 82.9693 214.683 81.9012Z" fill="#1A1A1A"/>
<path d="M369.557 146.093C370.732 146.628 371.693 146.948 372.441 147.696C373.829 148.977 375.004 151.541 377.247 148.55C377.781 147.909 378.956 147.802 379.49 148.55C379.917 149.191 379.17 149.939 378.635 150.579C378.422 150.9 378.101 151.113 377.781 151.434C374.897 154.318 374.897 154.318 371.8 151.434C370.945 150.579 369.877 150.045 368.489 149.939C366.139 149.725 365.178 147.909 366.139 145.666C366.566 144.598 367.421 143.744 367.741 142.676C368.275 140.967 369.557 140.967 370.732 141.501C372.227 142.248 370.945 143.316 370.625 144.278C370.518 144.812 370.091 145.346 369.557 146.093Z" fill="#1A1A1A"/>
<path d="M196.206 102.088C197.594 100.166 199.623 99.4179 201.546 100.059C203.469 100.7 204.537 102.622 204.43 104.865C204.323 106.254 204.43 107.535 204.43 108.924C204.43 111.167 203.148 112.449 201.226 113.089C199.41 113.73 198.128 112.555 197.06 111.381C194.924 108.924 195.244 105.292 197.808 103.37C198.128 105.079 198.449 106.681 198.662 108.283C198.876 109.565 199.623 109.885 200.692 109.778C201.76 109.672 202.187 109.031 202.187 108.069C202.187 107.215 202.187 106.361 202.187 105.506C202.187 101.661 201.439 101.127 197.701 102.409C197.06 102.515 196.74 102.409 196.206 102.088Z" fill="#1A1A1A"/>
<path d="M390.598 128.897C390.598 131.674 388.889 133.704 386.539 133.597C383.762 133.597 382.587 132.208 382.587 128.897C382.587 125.907 383.869 124.198 386.326 124.304C389.103 124.518 390.491 125.907 390.598 128.897Z" fill="#1A1A1A"/>
<path d="M124.537 39.9252C126.139 38.1095 127.314 38.2163 128.489 40.1389C129.45 41.741 130.198 43.4499 131.052 45.2657C132.975 43.5567 133.402 41.2069 135.004 39.498C133.722 39.3912 132.761 38.7503 131.8 38.3231C130.945 37.8959 130.091 37.4686 130.411 36.5073C130.732 35.3324 131.907 35.8665 132.547 36.0801C133.936 36.5073 135.111 37.255 136.499 37.4686C138.315 37.6822 138.208 38.8571 137.674 39.8184C136.072 42.3818 134.256 44.8385 132.547 47.2951C131.373 49.004 130.411 48.2563 129.664 46.8678C128.809 45.1589 128.061 43.4499 127.421 41.741C126.993 40.4593 126.246 39.498 124.537 39.9252Z" fill="#1A1A1A"/>
<path d="M390.919 148.871C391.346 151.114 391.239 152.929 391.773 154.638C392.094 155.706 391.773 156.988 390.278 156.881C387.821 156.774 385.471 157.415 383.122 157.522C381.199 157.629 380.131 156.881 380.131 154.852C380.131 153.357 380.238 151.968 380.131 150.473C380.024 149.298 380.879 148.764 381.733 148.871C382.588 148.871 383.122 149.511 383.122 150.686C383.122 151.754 382.481 153.57 383.549 153.891C385.258 154.318 387.18 154.211 388.996 153.891C389.637 153.784 390.064 152.716 390.064 151.754C390.171 151.007 389.851 150.152 390.919 148.871Z" fill="#1A1A1A"/>
<path d="M154.23 115.653C153.375 116.187 152.521 116.294 151.559 116.294C140.985 115.867 130.518 115.546 119.944 115.119C118.983 115.119 117.915 114.798 118.235 113.837C118.555 112.769 119.303 113.944 119.837 113.944C120.371 113.944 120.798 113.944 121.332 113.944C131.586 113.517 141.84 114.798 152.093 114.585C152.948 114.585 154.443 113.837 154.23 115.76C154.123 115.76 154.23 115.653 154.23 115.653Z" fill="#1A1A1A"/>
<path d="M369.877 117.362C368.595 114.798 367.421 112.662 366.459 110.419C365.925 109.244 366.246 108.497 367.634 107.963C369.557 107.108 371.372 106.04 373.188 105.186C374.577 104.545 375.752 104.652 376.499 106.254C376.927 107.108 377.461 107.963 377.888 108.71C378.422 109.565 379.17 110.312 377.995 111.167C376.713 112.021 376.393 110.633 375.645 110.206C374.897 109.778 375.111 108.069 373.829 108.39C372.013 108.924 370.411 109.778 368.809 110.846C368.595 110.953 369.129 112.555 369.45 113.303C369.877 114.478 370.732 115.546 369.877 117.362Z" fill="#1A1A1A"/>
<path d="M366.673 129.111C366.246 128.79 366.032 128.684 365.925 128.47C364.75 127.295 363.682 125.907 361.653 125.907C361.226 125.907 360.692 125.052 360.371 124.411C359.944 123.343 363.469 116.721 364.644 116.294C365.498 115.973 370.304 119.071 369.984 119.818C369.664 120.78 369.13 122.061 367.634 120.993C365.712 119.605 364.857 120.887 364.003 122.275C363.469 123.13 363.362 123.77 364.537 124.304C365.925 124.945 366.139 126.654 366.993 127.722C367.527 128.577 366.673 128.47 366.673 129.111Z" fill="#1A1A1A"/>
<path d="M120.585 82.4353C118.342 82.4353 115.992 80.0855 115.778 77.6289C115.672 75.8131 118.342 73.1429 120.478 73.1429C122.507 73.1429 124.857 75.7063 124.964 77.9493C125.178 80.2991 123.148 82.4353 120.585 82.4353ZM122.721 77.6289C122.721 75.9199 121.973 74.9586 120.585 74.9586C119.089 74.9586 118.876 76.5608 118.662 77.7357C118.342 79.3378 119.837 79.9787 120.692 79.9787C121.76 79.8719 123.148 79.1242 122.721 77.6289Z" fill="#1A1A1A"/>
<path d="M202.614 34.6916C201.439 34.7984 200.371 34.7984 199.41 34.1576C198.555 33.5167 198.128 32.5554 198.449 31.5941C198.769 30.8465 199.837 31.0601 200.478 31.3805C201.119 31.8078 201.76 31.7009 202.4 31.8078C203.789 32.0214 204.643 31.3805 205.178 30.2056C205.498 29.5648 205.498 28.6035 204.75 28.0694C203.789 27.4286 202.721 27.5354 201.76 27.9626C200.905 28.3899 200.157 28.8171 199.303 29.2443C198.983 29.3511 198.769 29.5648 198.449 29.6716C198.449 29.2443 198.128 28.8171 198.342 28.6035C199.623 27.0013 201.332 26.0401 203.469 25.8264C205.178 25.7196 206.352 26.0401 207.207 27.749C208.061 29.7784 207.741 31.3805 206.566 33.0895C205.605 34.5848 204.109 34.9052 202.614 34.6916Z" fill="#1A1A1A"/>
<path d="M335.378 134.238C335.485 136.801 334.417 138.83 332.067 139.364C329.824 139.899 328.756 137.976 327.688 136.374C327.047 135.413 327.047 134.665 327.794 133.81C328.222 133.383 328.969 133.063 328.756 132.529C327.367 129.858 329.931 130.072 330.999 129.752C332.494 129.218 333.882 129.965 334.737 131.567C335.164 132.422 335.485 133.276 335.378 134.238ZM330.999 131.995C330.144 131.995 329.076 131.888 329.29 133.17C329.503 134.558 329.503 136.374 331.212 136.481C332.28 136.587 333.028 135.306 333.028 133.917C333.028 132.422 332.387 131.781 330.999 131.995Z" fill="#1A1A1A"/>
<path d="M363.682 139.471C365.071 139.471 367.314 137.869 367.741 139.365C368.275 141.18 365.605 140.433 364.43 141.073C362.721 142.035 360.798 142.462 360.905 139.258C360.905 138.724 360.371 138.19 360.371 137.656C360.371 136.267 358.235 135.092 359.41 133.704C360.692 132.208 362.721 132.101 364.43 131.354C364.964 131.14 366.246 130.713 366.673 131.888C366.993 132.849 366.566 133.704 365.605 134.238C362.935 136.053 362.935 136.16 363.682 139.471Z" fill="#1A1A1A"/>
<path d="M380.772 112.021C379.917 109.351 380.665 106.788 381.519 104.224C381.84 103.37 382.694 103.37 383.442 103.37C383.976 103.37 384.617 103.263 385.151 103.37C386.967 103.69 389.85 102.409 390.384 104.011C391.132 106.467 391.346 109.565 389.316 111.915C387.501 110.953 387.394 109.351 388.035 107.749C388.676 106.04 388.355 105.613 386.539 105.506C382.16 105.613 382.16 105.613 380.772 112.021Z" fill="#1A1A1A"/>
<path d="M403.202 144.064C404.163 144.705 405.124 145.132 405.872 145.773C406.406 146.2 406.833 146.841 406.94 147.375C407.154 148.657 402.027 153.997 400.745 153.997C400.425 153.997 399.891 153.784 399.784 153.463C398.822 151.648 397.861 149.725 396.152 148.336C395.618 147.909 395.939 146.948 397.113 146.948C398.502 146.948 399.677 147.268 400.531 148.55C400.959 149.084 401.065 151.007 402.347 149.618C403.095 148.657 405.979 148.23 403.949 145.987C403.522 145.559 402.668 145.239 403.202 144.064Z" fill="#1A1A1A"/>
<path d="M407.688 125.266C407.901 125.052 408.115 124.625 408.328 124.518C411.853 123.557 409.397 120.887 409.824 119.071C409.931 118.43 408.969 118.537 408.435 118.537C407.26 118.537 406.085 118.537 404.911 118.537C404.163 118.537 403.095 119.391 402.988 118.003C402.988 117.148 404.163 116.828 404.911 116.828C406.085 116.721 407.154 116.507 408.222 116.294C409.931 115.866 411.64 116.08 411.96 118.537C412.174 120.246 412.387 121.955 413.242 123.664C414.096 125.373 411.64 126.975 409.29 126.334C408.756 126.12 408.008 126.013 407.688 125.266Z" fill="#1A1A1A"/>
<path d="M409.396 129.538C413.776 130.286 414.096 130.82 413.028 135.092C412.921 135.733 412.814 136.374 412.814 137.122C412.708 141.18 410.251 142.569 406.513 140.753C405.445 140.219 405.017 139.578 405.231 138.51C405.551 137.122 406.833 137.656 407.367 137.869C410.678 139.578 410.571 136.908 411.105 135.092C411.746 132.742 411.319 130.927 408.862 129.965C409.076 129.859 409.183 129.645 409.396 129.538Z" fill="#1A1A1A"/>
<path d="M402.24 115.546C400.745 114.692 400.104 113.73 401.172 112.128C403.095 109.138 400.104 108.39 398.716 107.108C397.113 105.72 395.939 107.215 394.764 108.39C393.909 109.138 393.696 111.381 392.521 110.419C391.559 109.778 393.162 108.283 394.016 107.429C395.191 106.361 395.404 104.118 397.754 104.438C400.318 104.758 401.92 106.681 403.736 108.069C404.804 108.817 404.27 110.633 403.949 111.915C403.522 113.196 402.774 114.371 402.24 115.546Z" fill="#1A1A1A"/>
<path d="M424.457 99.4179C426.166 98.6702 426.7 96.7477 428.409 96.2136C428.302 96.1068 428.302 95.7864 428.195 95.7864C426.806 95.1455 426.7 92.3685 425.098 93.0093C423.923 93.4366 424.136 95.6796 423.709 97.0681C423.389 98.1362 422.961 99.2043 422.534 100.166C422.107 96.8545 423.389 93.757 424.136 90.6595C424.457 89.271 426.059 90.0187 426.913 90.8732C428.302 92.5821 429.477 94.3979 431.72 95.2523C433.001 95.7864 431.826 96.534 431.399 96.9613C429.37 98.777 426.913 99.0975 424.457 99.4179Z" fill="#1A1A1A"/>
<path d="M394.123 73.0361C394.977 69.8318 399.036 68.3365 401.813 70.0454C403.842 71.3271 402.988 73.3565 402.881 75.0654C402.774 76.8812 401.599 78.4833 399.57 78.9106C398.182 79.231 396.793 78.9106 396.152 77.522C395.939 77.0948 395.084 76.5608 395.832 75.8131C396.366 75.3859 396.793 75.4927 397.327 75.8131C398.502 76.6676 399.677 76.454 400.425 75.2791C401.065 74.4246 401.813 73.2497 401.065 72.0748C400.318 71.0067 399.143 71.0067 397.754 71.1135C396.259 71.4339 394.977 71.7544 394.123 73.0361Z" fill="#1A1A1A"/>
<path d="M144.83 142.462C147.18 134.024 150.705 126.013 153.589 117.789C153.802 117.041 154.016 116.401 154.123 115.653L154.016 115.76C154.87 115.866 154.55 113.944 155.618 114.692C156.473 115.226 155.405 115.866 155.298 116.401C152.414 124.625 149.423 132.742 146.646 140.967C146.326 142.035 145.685 142.141 144.83 142.462Z" fill="#1A1A1A"/>
<path d="M283.148 156.027C282.507 155.065 281.012 154.959 280.798 153.784C280.585 152.502 280.158 151.007 281.546 150.045C283.469 148.87 285.391 149.191 287.207 150.152C288.382 150.793 289.023 151.968 288.596 153.25C288.061 154.852 287.1 156.133 285.071 155.92C284.323 155.706 283.682 155.92 283.148 156.027C283.041 155.92 283.148 156.027 283.148 156.027ZM282.294 152.929C283.789 153.89 285.071 153.784 286.78 153.036C285.178 151.861 283.896 151.22 282.294 152.929Z" fill="#1A1A1A"/>
<path d="M284.537 117.896C291.586 117.041 295.965 121.421 295.324 128.47C293.402 123.236 289.129 120.459 284.537 117.896Z" fill="#1A1A1A"/>
<path d="M132.013 198.75C132.013 201.207 130.198 203.664 128.489 203.557C126.886 203.45 124.109 200.459 124.323 198.75C124.643 196.187 126.566 195.653 128.809 195.439C131.266 195.226 132.334 196.401 132.013 198.75ZM130.411 198.75C130.411 197.469 129.984 196.507 128.382 196.614C127.207 196.614 126.139 196.721 126.246 198.216C126.352 199.498 126.886 200.673 128.489 200.78C129.984 200.78 130.304 199.925 130.411 198.75Z" fill="#1A1A1A"/>
<path d="M244.59 158.163C242.24 158.163 240.424 157.308 239.25 155.279C238.288 153.677 239.143 151.968 240.959 151.754C243.949 151.327 245.765 153.143 245.658 156.454L245.765 156.347C245.017 156.454 245.231 157.095 245.124 157.629L245.231 157.522C244.804 157.629 244.163 157.522 244.59 158.163ZM243.522 155.279C241.813 155.279 243.629 152.822 242.027 153.036C241.599 153.036 240.211 153.25 240.531 154.211C240.852 155.172 241.706 156.027 242.988 155.813C243.202 155.813 243.629 155.92 243.522 155.279Z" fill="#1A1A1A"/>
<path d="M200.371 76.3471C202.935 77.9492 201.867 80.1922 201.867 81.9012C201.867 82.9693 201.226 84.1442 199.73 84.251C197.915 84.3578 195.778 85.9599 194.39 83.0761C199.089 83.2897 200.051 80.1922 200.371 76.3471Z" fill="#1A1A1A"/>
<path d="M156.366 49.2176C155.191 47.0815 154.764 44.8385 154.87 42.3819C154.87 41.5274 155.511 40.9933 156.366 40.9933C157.754 40.9933 159.036 40.9933 160.424 40.9933C161.065 40.9933 161.706 41.6342 161.599 41.8478C161.279 42.3819 161.493 43.3431 160.531 43.3431C160.104 43.3431 159.784 43.3431 159.356 43.3431C157.327 43.0227 156.152 43.45 157.113 45.9066C157.434 46.8678 157.22 47.9359 157.22 49.004C156.9 49.2176 156.579 49.2176 156.366 49.2176Z" fill="#1A1A1A"/>
<path d="M155.618 76.7744C156.152 77.4152 156.473 77.6288 156.473 77.7356C156.579 80.9399 158.182 82.4352 161.386 82.4352C162.133 82.4352 162.454 82.7557 162.347 83.5033C162.347 84.1442 161.813 84.251 161.386 84.251C160.211 84.1442 159.143 84.6782 158.075 84.785C156.152 84.9987 154.657 83.8238 154.977 82.008C155.298 80.4059 155.084 78.8037 155.618 76.7744Z" fill="#1A1A1A"/>
<path d="M196.312 42.0614C198.235 41.741 200.264 41.3138 202.187 41.1001C203.682 40.9933 203.041 42.275 203.041 43.0227C203.148 43.984 203.041 44.9453 202.935 45.9066C202.935 46.227 202.507 46.6542 202.294 46.761C202.08 46.8678 201.439 46.3338 201.546 46.227C202.187 41.5274 198.555 43.2363 196.312 42.0614Z" fill="#1A1A1A"/>
<path d="M408.862 129.965C408.649 129.752 408.542 129.431 408.328 129.218C408.756 129.004 409.183 129.111 409.396 129.645C409.183 129.645 409.076 129.859 408.862 129.965Z" fill="#1A1A1A"/>
<path d="M371.052 117.896C370.945 117.896 370.732 117.896 370.518 117.789C370.411 117.789 370.518 117.469 370.518 117.362C370.732 117.362 371.052 117.362 371.266 117.469C371.373 117.469 371.373 117.682 371.052 117.896Z" fill="#1A1A1A"/>
<path d="M326.513 334.505C327.047 336.107 328.756 335.68 329.931 336.32C330.999 336.854 331.639 337.389 331.212 338.457C330.785 339.525 330.037 339.418 328.862 339.097C314.87 335.146 301.092 330.339 287.314 325.746C266.913 319.017 246.619 311.968 226.219 305.025C225.471 304.705 224.617 304.491 223.869 303.744C224.937 303.21 225.578 303.316 226.539 303.637C259.543 313.57 292.547 324.037 325.338 334.718C325.658 334.718 326.192 335.252 326.513 334.505Z" fill="#1A1A1A"/>
<path d="M354.603 296.481C355.031 302.248 349.477 306.734 344.457 306.734C339.33 306.734 334.203 301.287 334.203 295.947C334.203 291.461 338.368 286.227 341.893 286.334C349.904 286.334 354.603 290.072 354.603 296.481ZM352.788 296.053C352.788 291.888 348.943 287.936 344.884 288.043C340.611 288.043 335.698 292.315 336.019 296.053C336.446 300.646 340.505 304.598 344.884 304.385C349.156 304.171 352.788 300.539 352.788 296.053Z" fill="#1A1A1A"/>
<path d="M266.593 49.3244C265.952 48.8972 265.525 48.3631 265.952 47.5087C266.7 47.9359 267.127 48.4699 266.593 49.3244Z" fill="#1A1A1A"/>
<path d="M186.272 51.5674C186.272 52.2083 186.806 52.5287 187.34 52.8492C188.622 56.4807 189.263 60.1122 186.7 63.5301C185.631 65.0254 184.243 65.9867 182 66.2003C184.136 63.7437 186.486 62.0347 187.127 58.8305C187.554 56.3739 186.7 54.4513 185.631 52.5287C185.418 52.2083 184.563 52.5287 184.884 51.7811C185.097 51.4606 185.845 51.5674 186.272 51.5674Z" fill="#1A1A1A"/>
</g>
<defs>
<clipPath id="clip0_914_4734">
<rect width="467.29" height="480" fill="white" transform="translate(22 16)"/>
</clipPath>
</defs>
</svg>
