<svg width="512" height="512" viewBox="0 0 512 512" fill="none" xmlns="http://www.w3.org/2000/svg">
<g clip-path="url(#clip0_1478_5738)">
<path d="M437.237 406.295C436.676 409.662 435.461 412.655 433.777 415.554C433.029 416.77 431.72 416.77 430.597 416.302C428.072 415.273 425.36 414.432 423.209 412.561C419.468 409.194 414.604 408.165 410.115 406.389C395.245 400.683 380.748 394.23 366.065 388.058C353.252 382.633 340.532 377.115 327.72 371.691C315 366.266 302.374 360.748 289.748 355.324C275.72 349.338 261.784 343.353 247.755 337.367C235.13 331.942 222.504 326.518 209.971 321.094C196.223 315.108 182.475 309.216 168.727 303.23C157.223 298.18 145.719 293.223 134.309 288.079C116.82 280.223 99.331 272.46 82.1224 264.23C79.7842 263.108 77.7267 261.518 75.295 260.676C73.0504 259.928 72.7699 256.935 74.3598 254.691C81.9353 244.122 89.6044 233.647 97.1799 223.079C110.086 205.216 122.899 187.446 135.806 169.583C152.079 147.043 168.446 124.597 184.532 101.964C194.072 88.5899 203.986 75.4964 213.058 61.8417C215.302 58.5683 221.007 58.9424 223.439 62.4964C226.058 66.3309 228.676 70.1655 231.202 74C250.655 103.554 270.202 133.108 289.655 162.755C301.532 180.806 313.504 198.669 324.914 217C336.791 235.986 348.108 255.439 359.612 274.612C369.993 292.007 380.468 309.309 390.849 326.705C402.914 347 414.978 367.295 427.043 387.59C430.223 392.921 433.309 398.158 436.489 403.489C436.957 404.237 437.425 405.173 437.237 406.295Z" fill="#F5DF4D"/>
<path d="M259.446 211.669C258.885 211.856 258.324 212.043 257.763 212.23C256.453 212.791 255.331 212.417 254.77 211.201C254.209 209.986 254.863 209.237 256.079 208.676C258.043 207.647 259.54 205.683 262.439 205.964C261.317 204.655 260.194 204.374 259.072 204.374C258.137 204.374 257.295 204 256.36 203.813C255.799 203.719 255.331 203.532 255.331 202.971C255.331 202.597 255.799 202.317 256.266 202.317C259.072 202.41 257.95 201.194 257.108 199.978C256.827 199.604 256.547 199.137 256.36 198.669C255.799 197.36 255.892 196.424 257.669 196.611C259.072 196.705 260.101 196.705 259.259 194.835C259.072 194.367 259.259 193.619 259.165 193.058C259.165 192.309 259.072 191.468 260.101 191.281C260.849 191.187 261.597 191.468 261.784 192.403C262.158 193.899 263.187 194.367 264.777 194.741C264.496 193.151 264.309 191.468 263.935 189.971C263.561 188.662 263.935 187.914 265.338 188.007C267.022 188.007 269.173 187.165 269.734 190.439C270.856 187.54 273.007 188.568 274.691 188.568C276.187 188.568 275.532 190.252 275.345 191C274.878 192.683 274.223 194.367 274.597 196.331C275.813 195.583 276.842 193.338 278.432 194.835C280.022 196.424 277.683 197.734 277.309 199.511C278.619 199.885 280.489 199.043 281.424 200.914C281.612 201.381 282.64 201.381 282.266 202.129C281.986 202.691 281.424 203.065 280.676 203.158C279.647 203.252 278.151 202.504 277.871 203.906C277.683 205.122 278.993 205.777 280.022 206.432C281.892 207.741 282.173 210.547 280.676 212.324C279.741 213.446 279.086 212.324 278.338 212.043C277.777 213.165 278.712 215.129 277.029 215.317C275.065 215.504 274.504 213.165 273.007 211.763C273.381 213.259 273.662 214.288 273.942 215.41C274.691 218.309 274.036 220.18 271.604 221.676C270.014 222.612 269.734 220.928 269.547 220.086C269.266 218.964 269.453 217.748 268.799 216.719C267.957 217.561 268.237 219.899 266.647 219.245C265.245 218.683 264.216 217 264.683 215.036C264.777 214.475 264.871 213.914 264.777 213.072C263.468 214.849 261.504 215.223 259.633 215.784C258.978 215.971 258.23 216.439 257.856 215.504C257.576 214.849 257.576 214.101 258.324 213.633C258.978 213.165 259.914 212.978 259.82 211.856C260.194 211.763 260.381 211.388 260.101 211.201C259.727 211.014 259.633 211.576 259.446 211.669Z" fill="#D36480"/>
<path d="M259.54 76.3381C256.64 76.8993 253.086 75.777 249.439 76.1511C248.223 76.3381 246.633 75.4964 245.511 74.7482C243.64 73.4388 241.676 73.9065 239.619 73.8129C239.058 73.8129 238.496 73.6259 238.216 74.5611C237.187 78.3022 233.914 78.5827 231.014 78.7698C228.863 78.9568 226.432 79.7986 224.561 77.741C224 77.1799 223.532 77.9281 222.971 78.0216C220.352 78.7698 218.014 80.4532 215.022 79.3309C213.712 78.8633 213.058 78.1151 213.245 76.7122C213.432 75.1223 214.647 75.777 215.396 75.777C217.36 75.5899 219.23 75.777 220.259 73.2518C220.727 72.1295 222.878 71.6619 224.281 71.0072C226.151 70.1655 227.273 71.0072 228.209 72.5971C228.77 73.4388 229.611 72.6906 230.266 72.5036C232.511 71.7554 234.662 70.9137 236.813 69.9784C240.367 68.482 243.827 68.9496 247.381 70.259C252.619 72.223 257.856 72.5036 263.093 70.446C264.683 69.7914 268.518 70.8201 269.36 72.036C269.921 72.7842 269.36 73.5324 269.079 74.187C268.611 75.4964 267.676 76.2446 266.18 76.2446C266.086 76.2446 265.993 76.2446 265.899 76.2446C264.122 76.3381 262.158 76.3381 259.54 76.3381Z" fill="#D36480"/>
<path d="M147.309 400.777C143.288 399.748 139.453 398.626 135.899 396.942C133.374 395.727 130.662 394.698 128.511 392.734C127.482 391.799 126.173 390.583 126.921 389.086C127.763 387.59 129.54 387.87 130.942 388.525C135.712 390.676 140.669 392.079 145.626 393.669C147.029 394.137 148.619 394.604 149.367 396.101C149.928 397.129 150.863 398.158 150.302 399.374C149.835 400.777 148.058 399.842 147.309 400.777Z" fill="#D36480"/>
<path d="M163.583 460.54C161.806 460.072 160.122 459.417 158.065 459.604C156.849 459.791 156.007 457.734 156.288 456.424C157.036 452.871 159.561 450.626 162.928 449.41C165.827 448.381 168.633 448.475 171.065 450.906C173.029 452.964 173.122 455.022 170.971 457.079C168.82 459.043 166.295 459.791 163.583 460.54Z" fill="#D36480"/>
<path d="M248.784 121.137C246.633 117.676 245.885 113.935 244.576 110.475C242.238 103.928 239.151 98.036 233.446 93.7338C232.792 93.2662 231.576 92.4245 232.324 91.4892C232.885 90.741 234.288 90.9281 235.13 91.3957C238.59 93.1727 241.676 95.4173 243.547 98.8777C246.259 103.928 249.065 108.885 249.626 114.777C249.907 116.835 249.626 118.892 248.784 121.137Z" fill="#D36480"/>
<path d="M278.338 447.165C278.993 447.165 279.554 447.072 280.022 447.165C281.892 447.446 283.389 448.288 284.137 450.065C284.885 451.655 284.043 453.151 283.108 454.46C282.079 455.863 280.77 457.079 279.18 458.014C277.496 458.95 275.907 459.604 274.13 458.014C272.353 456.424 270.95 454.741 272.633 452.216C273.007 451.655 273.101 451 273.288 450.345C274.317 447.82 276 446.885 278.338 447.165Z" fill="#D36480"/>
<path d="M306.957 177.813C309.763 177.719 312.194 178.093 314.626 178.748C315 178.842 315.561 178.655 315.655 179.216C315.748 179.683 315.374 180.058 315 180.151C310.417 182.209 305.835 183.799 300.691 182.209C299.475 181.834 298.446 180.806 298.54 179.683C298.633 178.468 299.942 178.187 301.158 178.187C303.309 178.374 305.18 177.345 306.957 177.813Z" fill="#D36480"/>
<path d="M302 147.511C301.813 149.007 300.971 150.784 300.223 152.561C298.633 156.115 297.137 159.576 294.986 162.849C294.612 163.41 294.425 164.252 293.583 163.878C292.835 163.597 292.741 162.849 292.928 162.194C294.425 157.705 295.64 153.029 297.791 148.727C298.353 147.604 299.194 146.669 300.41 146.014C301.626 145.453 302.094 145.64 302 147.511Z" fill="#D36480"/>
<path d="M310.137 161.446C309.482 163.41 308.173 165.094 306.489 166.309C305.086 167.245 303.309 167.806 301.719 168.46C300.317 169.022 299.568 167.993 298.82 166.964C297.978 165.842 298.914 165.187 299.568 164.626C302.187 162.381 304.899 160.23 308.734 160.417C310.043 160.511 310.137 160.604 310.137 161.446Z" fill="#D36480"/>
<path d="M137.396 405.36C134.59 407.417 131.971 406.482 129.259 405.827C127.576 405.453 125.799 405.079 124.115 404.799C123.086 404.612 122.151 404.144 122.151 403.209C122.151 402.18 123.367 401.806 124.209 401.712C128.885 401.619 133.561 401.619 137.396 405.36Z" fill="#D36480"/>
<path d="M132.065 408.353C129.82 411.532 127.763 413.777 124.489 414.712C122.806 415.18 121.871 414.619 121.216 413.309C120.561 411.719 121.964 411.626 122.899 411.252C125.612 409.942 128.324 408.54 132.065 408.353Z" fill="#D36480"/>
<path d="M250 134.604C250 132.547 250 130.396 250 128.338C250 127.871 249.158 127.216 250.187 126.935C251.309 126.655 251.777 127.496 251.964 128.245C252.338 130.583 251.964 132.734 250 134.604Z" fill="#D36480"/>
<path d="M278.058 211.014C276.655 212.043 278.058 213.353 277.683 214.662C277.122 216.719 276.281 215.784 275.532 215.129C274.784 214.475 274.41 213.54 273.568 212.511C273.288 215.129 273.849 217.561 272.914 219.806C272.446 220.835 272.072 222.237 270.669 222.237C269.453 222.144 268.986 221.209 268.799 219.993C268.611 218.496 266.554 219.712 266.086 218.403C265.712 218.87 265.432 219.432 265.245 220.086C263.468 226.914 260.662 233.367 257.388 239.54C256.64 240.942 256.734 241.878 257.669 243C266.741 254.036 275.065 265.727 284.043 276.856C288.532 282.468 292.835 288.173 296.95 293.971C297.417 294.626 297.698 295.374 298.165 296.403C295.734 295.561 294.986 293.691 293.77 292.288C287.223 284.525 280.957 276.576 274.317 268.906C265.993 259.367 259.072 248.705 249.906 239.82C249.158 239.072 248.41 238.417 247.475 237.95C246.446 237.388 245.23 237.295 244.388 237.856C243.453 238.511 243.734 239.633 244.014 240.662C247.288 251.604 251.309 262.079 257.95 271.619C263.655 279.755 267.957 288.64 273.007 297.151C276.561 303.137 279.741 309.309 284.511 314.453C285.54 315.482 286.381 315.856 287.971 315.295C291.619 314.079 294.892 312.396 298.259 310.432C301.065 308.748 302.374 306.223 302.842 303.324C303.403 299.115 303.029 294.906 302.561 290.698C302 285.46 301.252 280.223 300.41 275.079C298.914 266.101 297.324 257.216 295.921 248.237C293.77 235.331 290.59 222.611 288.065 209.705C286.475 201.662 285.353 193.338 281.986 185.669C277.964 176.41 271.791 169.396 261.691 165.935C253.46 163.129 245.324 160.417 237 157.892C236.532 157.705 235.971 157.612 235.597 157.331C235.129 156.957 234.101 157.144 234.101 156.302C234.101 155.46 235.036 155.367 235.597 155.086C238.309 153.964 241.115 153.964 243.921 154.806C253.367 157.892 263.187 160.417 271.511 166.029C277.777 170.237 282.079 176.41 284.978 183.424C288.345 191.468 289.374 200.072 291.151 208.396C293.209 218.029 295.079 227.755 297.043 237.482C298.54 244.777 299.849 252.072 300.878 259.367C301.906 266.101 303.216 272.835 304.245 279.568C305.46 287.424 306.489 295.281 305.928 303.23C305.647 307.345 303.683 310.806 300.036 313.144C295.827 315.856 291.525 318.288 286.475 319.036C285.82 319.129 285.727 319.41 285.633 319.971C284.791 327.827 280.115 333.532 274.504 338.489C270.95 341.576 266.554 341.108 262.345 339.144C264.122 350.928 267.396 362.432 269.173 374.122C270.763 384.597 272.727 394.885 274.317 405.36C275.345 412 275.813 418.734 274.878 425.468C274.878 425.748 274.878 426.029 274.784 426.216C274.036 428.18 273.755 430.892 271.23 431.173C268.986 431.36 267.302 429.583 266.273 427.525C264.683 424.252 263.093 420.978 261.504 417.705C261.129 416.957 260.849 416.115 259.446 416.77C257.763 417.611 255.892 417.518 254.022 417.518C234.194 417.518 214.367 417.518 194.633 417.424C193.885 417.424 192.295 418.36 192.295 416.583C192.295 415.18 193.698 415.46 194.633 415.46C209.223 414.525 223.906 414.151 238.59 413.777C244.388 413.59 250.281 413.964 256.173 413.122C257.014 413.029 257.95 413.309 259.165 413.403C244.388 382.727 231.576 351.583 218.856 319.971C220.82 322.029 222.036 324.367 223.345 326.705C227.835 334.935 230.734 343.914 235.036 352.331C242.611 367.388 249.532 382.82 256.453 398.158C260.568 407.23 265.432 415.928 269.266 425C269.64 425.748 269.921 427.151 270.95 426.964C272.259 426.683 271.791 425.374 271.791 424.345C272.352 413.309 270.108 402.554 267.957 391.892C266.928 386.842 266.367 381.698 265.712 376.554C265.058 371.036 263.842 365.612 262.906 360.094C261.784 354.108 260.755 348.122 260.101 342.137C260.007 340.827 259.633 339.611 259.914 338.209C260.288 336.712 258.23 336.151 257.388 335.122C252.619 329.698 249.719 323.151 245.885 317.165C244.576 315.201 243.173 313.237 243.173 310.619C243.173 309.029 243.547 309.122 244.669 309.777C246.633 310.806 247.662 312.676 248.784 314.453C252.058 319.504 255.237 324.647 258.604 329.698C259.914 331.662 261.597 333.532 263.748 334.842C267.302 336.899 271.043 336.338 273.942 333.532C277.964 329.511 281.331 325.115 283.295 319.784C283.669 318.849 283.669 318.288 282.921 317.54C276.842 311.647 273.007 304.072 268.799 296.87C263.374 287.705 258.324 278.353 252.619 269.374C251.777 268.065 250.655 269 249.906 268.345C248.597 267.13 246.914 266.381 245.511 265.072C242.518 262.079 239.432 259.273 235.878 256.935C234.942 256.374 234.101 255.065 232.885 255.906C231.763 256.748 231.576 258.245 231.669 259.554C232.137 265.54 233.353 271.432 234.475 277.324C234.755 279.101 236.158 279.568 237.281 280.223C243.36 283.496 249.532 286.77 255.331 290.604C257.576 292.101 259.727 293.878 260.568 296.777C261.223 299.022 260.568 300.331 258.698 301.266C250 305.381 240.835 306.971 231.201 305.381C229.986 305.194 228.676 305.568 227.46 305.007C226.525 304.633 226.619 305.849 226.338 306.317C225.122 308.748 223.719 310.993 220.727 312.115C220.914 309.777 222.317 308.187 223.252 306.41C224 304.82 223.906 304.353 221.942 304.259C212.683 303.511 203.986 300.799 197.158 294.252C193.324 290.604 190.424 286.115 187.245 281.813C183.317 276.388 179.108 271.151 176.115 265.072C175.086 262.921 174.058 260.676 174.338 257.964C178.266 261.05 181.165 264.978 183.971 268.906C189.022 276.201 194.259 283.403 200.245 289.95C204.173 294.252 209.504 296.964 215.115 297.993C224.655 299.863 234.194 301.734 244.014 301.173C248.223 300.986 252.151 299.583 256.173 298.554C257.295 298.273 257.201 297.338 256.547 296.309C255.331 294.439 253.273 293.597 251.403 292.568C245.791 289.482 240.086 286.77 234.568 283.59C227.086 279.194 222.317 272.647 219.23 264.604C216.05 256.281 212.87 247.957 210.906 239.259C210.906 239.072 210.719 238.978 210.719 238.791C210.719 237.669 210.065 235.892 211.374 235.612C212.59 235.331 212.216 237.201 212.496 238.043C216.331 249.266 221.007 260.115 226.712 270.403C227.928 272.647 229.237 274.986 232.23 276.108C231.388 272.367 230.36 268.906 229.799 265.353C229.237 261.986 227.928 258.712 229.05 255.252C230.173 251.885 232.791 250.95 235.878 252.54C238.403 253.849 240.46 255.813 242.799 257.496C243.36 257.87 243.827 259.367 244.669 258.525C245.324 257.777 246.072 256.935 245.511 255.252C243.734 250.669 241.77 246.086 240.741 241.223C240.273 238.978 239.619 236.64 241.583 234.957C243.734 232.993 246.727 232.899 249.439 234.583C251.964 236.079 253.647 238.511 255.986 240.475C258.791 232.338 261.036 224.108 263.281 215.691C261.691 215.878 260.942 217.187 259.633 217.655C257.669 218.309 257.108 218.029 257.108 215.878C257.108 214.381 258.137 213.446 258.698 212.324C258.043 211.856 257.295 211.856 256.734 212.137C255.705 212.604 254.676 212.23 254.209 211.482C253.647 210.453 254.583 209.518 255.424 208.957C257.295 207.741 259.165 206.525 261.129 205.403C261.691 205.122 262.252 204.842 262.719 204.468C260.194 204.842 257.763 205.216 255.237 204.468C254.209 204.094 253.086 203.719 253.273 202.597C253.367 201.568 254.583 201.849 255.424 201.755C256.36 201.662 257.201 201.381 258.137 201.194C258.043 201.007 258.043 200.82 257.95 200.82C256.36 199.978 255.611 198.201 256.453 197.079C257.388 195.957 259.259 196.705 260.568 197.64C260.755 197.827 261.036 197.921 261.223 198.108C261.41 197.64 261.317 197.36 260.849 197.173C260.194 195.77 259.54 194.367 258.978 192.964C258.604 192.029 258.604 191.187 259.54 190.532C260.568 189.784 261.317 190.532 261.878 191C262.813 191.748 263.655 192.683 264.87 193.806C264.87 191.748 264.87 190.065 264.87 188.381C264.87 187.54 264.87 186.791 265.712 186.511C266.554 186.23 267.396 186.511 267.957 187.259C269.36 189.036 269.827 191.094 270.108 193.619C270.856 191.935 271.511 190.439 272.259 189.036C272.633 188.288 272.914 187.165 274.129 187.446C275.345 187.82 275.065 188.849 275.065 189.784C275.065 191.748 274.41 193.899 274.784 195.676C275.158 197.827 273.755 198.576 273.007 199.791C272.82 200.072 272.633 199.885 272.446 199.698C275.065 191.655 275.158 190.532 273.475 188.381C271.698 190.626 271.043 193.338 270.576 196.05C270.295 197.453 270.108 199.417 272.446 199.698C273.194 201.381 273.381 202.971 272.259 204.561C271.604 204.281 272.353 203.252 271.417 203.252C271.417 202.878 271.417 202.41 271.417 202.036C271.417 200.914 270.669 201.101 269.921 200.914C268.986 200.727 268.237 201.101 267.957 201.755C267.583 202.597 268.05 203.345 268.799 203.906C269.827 204.842 269.827 203.719 270.295 203.345C270.576 203.158 271.137 203.252 271.511 203.252C271.604 204.655 270.95 205.496 269.64 205.309C267.863 204.935 267.022 206.058 265.899 206.993C263 209.237 261.036 212.23 259.072 215.223C258.978 215.41 258.885 215.597 258.791 215.878C262.252 215.129 264.777 212.604 264.964 209.892C268.144 210.827 266.367 206.245 268.799 206.432C269.173 207.367 268.611 208.396 268.237 208.863C266.086 211.014 267.489 213.914 266.554 216.345C266.367 216.906 266.835 217.374 267.302 217.561C268.144 217.842 267.957 217 268.237 216.719C268.892 215.691 268.424 214.568 268.611 213.54C268.705 212.978 268.237 212.043 269.453 212.137C270.482 212.23 270.576 213.165 270.576 213.727C270.669 214.475 270.388 215.504 270.014 216.158C268.986 218.122 270.201 219.432 270.763 221.115C273.755 217.468 271.885 213.259 272.259 209.144C274.317 210.64 274.971 212.978 276.655 214.849C277.216 211.388 275.532 209.05 273.662 206.525C276.655 206.806 276.561 210.173 278.712 210.921C278.338 210.827 278.151 210.921 278.058 211.014ZM265.806 202.784C267.302 199.417 263.748 193.151 259.727 192.029C260.288 194.741 261.41 197.079 263.374 199.137C263.842 199.604 264.122 200.165 263.842 200.82C263.374 200.072 262.439 201.288 261.784 200.165C260.942 198.669 259.259 198.014 257.108 197.64C258.511 199.885 259.165 202.504 262.532 201.849C263.094 201.755 263.842 202.41 264.496 202.691C264.964 203.065 265.338 203.906 265.806 202.784ZM266.273 186.791C264.59 191.561 266.086 195.115 267.396 198.763C267.77 199.698 268.518 199.137 269.079 199.23C270.014 199.324 269.921 198.576 269.827 198.014C269.547 194.273 268.331 190.813 266.273 186.791ZM263.468 206.151C260.381 207.46 257.95 208.77 255.892 210.827C258.885 210.36 261.504 209.331 263.468 206.151ZM261.317 203.719C259.259 202.504 257.201 202.784 254.676 202.971C257.014 204.468 259.259 203.532 261.317 203.719ZM247.194 259.18C245.791 261.705 248.223 262.173 248.784 263.388C248.784 261.986 247.755 260.957 247.194 259.18Z" fill="#1A1A1A"/>
<path d="M283.95 416.302C291.432 415.273 298.633 415.46 305.834 416.396C311.072 417.05 316.216 417.705 321.079 419.576C324.914 421.072 328.748 422.849 331.554 426.029C335.856 430.799 335.295 433.698 331.554 438.561C327.813 443.424 322.201 444.921 316.496 446.137C306.676 448.101 296.669 448.662 286.662 448.849C282.173 448.942 277.59 449.13 272.914 449.41C275.813 449.317 276.655 450.906 276.374 453.432C276.281 453.806 276.468 454.273 276.561 454.647C277.029 455.77 276.935 457.547 278.245 457.734C279.554 457.827 280.863 456.799 281.798 455.77C282.453 455.022 282.734 454.367 281.892 453.619C281.331 453.058 280.209 452.122 281.05 451.561C282.079 450.813 283.201 449.691 284.885 450.345C287.597 451.468 289 454.367 287.784 457.173C286.194 460.82 282.734 464.842 276.468 463.252C272.914 462.317 269.827 461.288 268.05 457.921C266.18 454.273 266.834 451.748 271.137 449.036C236.719 449.036 203.05 449.036 169.662 449.036C169.849 449.129 170.504 449.41 171.065 449.784C174.525 452.122 175.086 454.928 172.748 459.043C170.597 462.784 167.23 464.281 162.834 464C159.093 463.719 156.475 461.942 155.352 458.482C154.23 455.022 154.417 451.655 157.691 448.662C152.921 448.662 148.525 449.036 144.316 448.568C136.273 447.82 128.137 447.259 120.468 444.079C116.914 442.583 114.762 440.058 114.575 436.129C114.388 431.173 115.511 426.59 120.187 423.878C124.77 421.165 130.007 420.604 135.245 420.043C144.971 419.014 154.791 418.64 164.611 418.266C166.482 418.173 168.352 418.36 170.223 418.453C171.065 418.453 172.187 418.734 172.187 419.482C172.187 420.324 171.345 420.978 170.223 420.978C167.698 420.978 165.173 421.072 162.647 421.353C155.727 422.101 148.619 422.288 141.698 423.036C135.057 423.784 128.23 424.345 121.964 427.058C118.504 428.554 118.036 431.547 117.755 434.82C117.568 438 119.345 439.683 121.964 440.899C126.266 442.863 130.942 443.331 135.525 443.892C142.165 444.734 148.806 445.669 155.446 447.165C157.129 447.54 158.906 448.381 160.683 447.54C161.432 447.165 162.18 447.727 162.834 448.101C163.957 448.662 164.705 449.317 164.331 447.165C164.237 446.23 165.734 446.137 166.669 446.23C171.252 446.791 175.928 446.791 180.511 446.137C180.885 446.043 181.352 446.043 181.82 446.043C197.158 445.669 212.496 445.201 227.834 444.827C244.295 444.453 260.755 444.827 277.309 444.36C285.54 444.173 293.77 444.079 301.906 443.331C309.669 442.583 317.525 441.741 324.82 438.281C325.849 437.813 326.784 437.065 327.813 436.41C331.086 434.072 331.18 430.611 328.093 427.993C323.23 423.971 317.525 421.914 311.446 420.885C302.935 419.482 294.331 419.295 285.914 417.331C285.352 417.424 284.698 417.144 283.95 416.302ZM164.144 459.324C165.734 459.324 167.698 458.576 169.007 457.36C170.971 455.676 170.971 453.806 169.007 452.029C166.201 449.504 165.079 449.597 161.525 451.935C159.842 452.964 158.532 454.086 159.374 456.144C160.216 458.108 161.712 459.511 164.144 459.324Z" fill="#1A1A1A"/>
<path d="M185.561 431.266C186.403 425.842 186.683 420.978 187.244 416.209C188.273 408.259 188.273 400.309 189.115 392.36C189.676 387.683 189.957 383.101 190.705 378.424C191.453 373.468 191.921 368.511 192.856 363.647C194.165 356.072 195.381 348.403 197.439 341.014C199.309 334.093 201.273 327.173 205.575 321.187C207.072 319.036 208.942 317.259 211.842 317.072C213.057 316.978 213.993 317.54 214.18 318.568C214.46 319.691 213.806 320.813 212.683 321.093C209.878 321.748 208.755 324.086 207.539 326.144C203.705 332.41 202.115 339.518 200.619 346.626C198.842 355.324 197.345 364.022 196.036 372.813C195.007 379.921 194.072 387.029 193.324 394.137C192.388 403.396 191.921 412.655 190.424 421.82C189.77 425.842 189.489 429.957 188.834 433.978C188.741 434.446 188.554 434.914 188.367 435.381C187.338 437.906 186.403 438.187 184.719 436.129C181.446 432.014 179.856 427.058 178.64 422.101C176.957 415.18 176.115 408.072 174.993 400.964C173.122 389.273 171.813 377.583 169.568 365.986C168.352 360.093 168.165 354.014 167.417 348.122C166.669 342.324 165.734 336.619 164.986 330.82C164.518 327.36 164.237 323.806 163.863 320.345C163.209 314.36 162.741 308.374 161.899 302.388C161.338 298.18 161.244 293.878 160.777 289.576C160.216 283.777 159.655 277.978 158.906 272.18C158.439 268.813 158.065 265.352 157.878 261.986C157.223 251.791 156.381 241.597 156.849 231.309C157.223 222.986 157.036 214.662 158.345 206.338C158.532 205.309 158.906 204.561 159.935 203.252C159.187 207.18 159 210.453 158.813 213.727C158.532 220.647 159 227.568 158.906 234.489C158.813 244.777 159.748 254.971 160.87 265.165C161.525 271.525 162.554 277.978 163.115 284.338C163.676 290.885 164.237 297.525 165.173 304.072C166.295 312.396 166.95 320.813 168.072 329.137C169.101 336.619 170.129 344.007 170.784 351.489C171.626 359.719 173.029 367.95 174.712 376.086C175.741 381.23 176.021 386.468 176.863 391.705C177.798 397.504 178.734 403.302 179.762 409.101C180.791 414.525 181.539 420.043 183.503 425.187C183.878 427.058 184.626 428.834 185.561 431.266Z" fill="#1A1A1A"/>
<path d="M345.583 402.46C347.64 401.338 349.698 402.367 351.662 402.18C360.921 401.525 370.18 401.712 379.439 400.777C382.993 400.403 386.64 400.496 390.288 400.309C394.964 400.122 399.734 399.842 404.41 399.561C416.194 398.906 427.978 398.065 439.856 398.158C441.259 398.158 443.691 397.41 443.691 399.561C443.784 402.273 441.166 401.151 439.763 401.151C427.698 400.871 415.633 401.619 403.662 401.806C393.374 401.993 382.993 402.367 372.705 402.835C365.971 403.115 359.331 403.115 352.597 403.115C350.259 403.209 347.921 402.741 345.583 402.46Z" fill="#1A1A1A"/>
<path d="M225.683 157.05C214.554 159.389 203.05 160.137 192.295 164.158C185.281 166.777 177.892 168.554 171.626 173.137C167.604 176.13 164.144 179.496 162.46 184.36C161.806 186.324 160.683 188.101 159.468 189.878C159.374 182.489 162.46 176.597 168.259 172.295C177.986 165 189.209 160.978 201.086 158.921C208.288 157.612 215.583 156.583 222.878 156.396C224 156.396 225.122 156.209 225.683 157.05Z" fill="#1A1A1A"/>
<path d="M68 173.23C86.705 173.23 105.223 173.23 123.741 173.23C125.518 173.23 127.295 174.165 129.165 173.23C129.82 172.856 130.475 173.417 130.662 174.165C130.755 174.914 130.381 175.475 129.633 175.662C129.072 175.755 128.417 175.755 127.856 175.662C124.209 174.82 120.468 175.194 116.727 175.194C106.345 175.288 96.0576 174.633 85.6763 174.54C80.6259 174.446 75.5755 174.353 70.4317 174.165C69.5899 174.259 68.7482 174.353 68 173.23Z" fill="#1A1A1A"/>
<path d="M106.626 186.978C111.77 187.165 116.727 186.885 121.777 187.352C127.482 187.82 133.187 187.54 138.799 187.54C142.259 187.54 145.813 187.54 149.273 187.54C149.928 187.54 151.144 186.978 151.05 188.475C151.05 189.691 150.396 190.158 149.273 190.065C143.568 189.41 137.77 189.784 131.971 189.317C129.446 189.129 126.921 188.942 124.396 189.036C119.065 189.317 113.734 188.288 108.403 188.475C107.561 188.568 106.907 188.381 106.626 186.978Z" fill="#1A1A1A"/>
<path d="M235.317 223.36C237.468 206.151 243.079 190.719 257.95 179.964C255.986 183.611 252.899 186.511 250.187 189.691C247.475 192.87 245.324 196.424 243.453 200.072C241.583 203.813 240.18 207.741 238.777 211.763C237.468 215.597 236.626 219.525 235.317 223.36Z" fill="#1A1A1A"/>
<path d="M360.827 415.928C365.223 416.489 369.245 415.273 373.36 415.554C374.014 415.554 374.95 415.086 375.043 416.396C375.043 417.424 374.763 417.986 373.64 418.079C369.806 418.266 365.878 417.892 362.043 417.518C361.389 417.424 361.108 416.77 360.827 415.928Z" fill="#1A1A1A"/>
<path d="M279.273 195.209C277.496 195.209 276.748 196.518 274.971 196.892C276.281 195.022 277.777 193.338 279.273 194.46C281.612 196.237 278.338 197.64 278.245 199.698C279.18 200.165 280.583 199.511 281.612 200.82C279.273 200.633 277.029 200.072 275.252 201.849C275.158 201.942 274.691 201.755 274.597 201.568C274.41 201.007 274.878 200.54 275.345 200.352C277.403 199.324 278.151 197.36 279.273 195.209Z" fill="#1A1A1A"/>
<path d="M276.748 204.281C276.281 203.813 275.439 204 275.158 203.065C277.216 203.065 279.273 203.065 281.518 203.065C280.022 204 278.338 202.784 277.029 203.906C277.029 203.906 276.842 204.093 276.748 204.281Z" fill="#1A1A1A"/>
<path d="M281.612 211.482C281.892 210.079 281.331 208.863 280.583 206.993C283.014 209.799 283.014 210.173 281.892 211.95C281.799 211.763 281.705 211.576 281.612 211.482Z" fill="#1A1A1A"/>
<path d="M278.432 210.64C279.367 211.201 280.396 211.669 281.612 211.388C281.705 211.576 281.799 211.669 281.986 211.856C280.209 213.54 279.367 211.576 278.058 211.014C278.151 210.921 278.338 210.827 278.432 210.64Z" fill="#1A1A1A"/>
<path d="M280.676 207.273C279.648 206.806 278.993 206.432 278.899 205.403C280.115 205.309 280.583 205.871 280.676 207.273Z" fill="#1A1A1A"/>
<path d="M277.122 203.813C277.59 203.813 278.151 203.813 278.245 204.468C278.245 204.561 278.058 204.935 277.964 204.935C277.403 205.029 277.122 204.655 276.842 204.281C276.842 204.094 277.029 203.906 277.122 203.813Z" fill="#1A1A1A"/>
<path d="M265.899 202.878C265.525 202.691 265.245 202.504 264.87 202.317C264.683 202.036 264.683 201.568 265.057 201.662C265.806 201.662 265.899 202.223 265.899 202.878Z" fill="#1A1A1A"/>
<path d="M239.806 67.8273C244.669 68.3885 248.784 69.5108 252.899 70.446C256.827 71.2878 260.568 69.8849 264.216 68.2949C266.46 67.3597 270.482 69.1367 271.23 71.2878C271.604 72.4101 271.604 73.6259 270.576 74.7482C267.022 78.3957 262.719 77.8345 258.324 77.4604C253.273 76.9928 248.597 74.5611 243.453 74.6547C240.18 74.6547 237.374 76.3381 234.475 77.3669C233.82 77.5539 233.914 77.928 234.288 78.6762C235.878 81.669 237.935 84.1007 240.46 86.2518C250.655 95.1367 257.763 105.892 261.878 118.799C265.525 130.209 262.345 139.561 253.741 147.417C250.842 150.036 247.662 152 243.921 152.935C243.079 153.122 242.331 153.122 240.928 153.216C243.734 151.252 246.446 150.504 248.691 148.82C253.928 144.799 258.043 139.748 260.288 133.669C261.784 129.741 261.036 125.345 260.007 121.23C257.763 112.532 252.806 105.331 247.381 98.3165C243.64 93.5467 238.87 89.8057 234.942 85.3165C233.259 83.446 231.388 81.3885 232.511 78.2086C229.331 79.2374 226.151 79.3309 222.971 79.2374C221.007 79.1439 219.137 79.4244 217.453 80.4532C216.237 81.2014 215.022 81.1079 213.993 80.1726C212.59 78.8633 213.245 77.0863 213.338 75.5899C213.432 74.4676 214.647 73.9065 215.863 74.0935C217.921 74.4676 219.23 73.6259 220.446 71.8489C222.129 69.3237 225.87 68.669 228.863 70.1655C230.36 71.0072 231.669 71.0072 233.072 70.259C239.058 67.2662 243.64 62.6834 247.755 57.6331C248.597 56.6043 249.065 55.2014 248.971 53.4244C247.101 54.2662 245.511 54.9208 243.827 55.669C241.115 56.8849 239.245 55.8561 239.432 52.8633C239.525 50.8057 238.496 50.7122 237.187 51.0863C235.784 51.4604 234.381 51.928 233.072 52.6762C227.647 55.669 226.245 54.0791 223.345 50.1511C221.662 51.2734 221.194 53.0503 220.54 54.7338C219.324 57.7266 218.014 58.0072 215.77 55.669C213.806 53.518 211.655 52.1151 208.475 52.5827C205.856 52.9568 204.921 54.2662 206.043 56.6978C207.446 59.7842 209.691 62.4029 211.842 65.0216C213.058 66.6115 214.18 68.2014 215.209 69.8849C215.489 70.446 215.676 70.9137 214.928 71.5683C211.468 66.705 206.698 63.0575 203.986 57.7266C201.741 53.2374 203.986 49.8705 208.942 49.4964C213.432 49.1223 215.583 52.1151 218.295 54.7338C219.043 53.1439 219.698 51.5539 220.446 50.1511C222.036 47.3453 223.813 47.2518 225.683 49.8705C227.46 52.3957 228.489 52.6762 231.295 51.2734C233.165 50.2446 235.036 49.4029 237 48.7482C239.899 47.9065 241.489 48.8417 241.489 51.8345C241.489 53.7985 242.05 53.8921 243.734 53.2374C245.23 52.6762 246.54 51.4604 248.317 51.5539C250.561 51.6475 251.122 52.3957 250.842 54.6403C250.561 57.6331 249.065 59.9712 247.101 62.0288C244.856 64.1798 242.892 66.1439 239.806 67.8273ZM262.065 76.0575C262.813 76.0575 263.842 76.3381 264.309 75.964C265.151 75.3093 266.086 75.777 266.928 75.2158C268.237 74.3741 270.295 74.0935 269.921 71.9424C269.734 70.6331 266.367 69.7913 264.777 70.7266C259.633 73.7194 254.489 73.0647 249.065 71.4748C243.734 69.8849 238.403 69.5108 233.352 72.5036C231.763 73.4388 229.892 73.2518 228.302 72.4101C225.216 70.8201 223.906 71.2878 221.475 73.8129C219.791 75.5899 218.295 76.2446 216.05 76.0575C215.489 76.0575 214.367 75.4964 214.18 76.6187C214.086 77.2734 213.899 78.1151 214.647 78.7698C215.583 79.6115 216.424 78.8633 216.892 78.4892C218.482 77.2734 220.165 76.8993 222.036 77.0863C227.367 77.5539 232.417 76.5252 237.281 74.187C240.554 72.5971 244.201 72.6906 247.755 73.4388C252.619 74.4676 257.201 76.0575 262.065 76.0575Z" fill="#1A1A1A"/>
<path d="M203.611 116.367C206.511 117.209 209.504 117.022 212.403 117.863C215.77 118.892 217.64 121.324 217.734 124.597C217.827 127.403 216.892 130.022 214.086 131.705C207.727 135.727 203.611 134.885 198.748 128.151C198.187 127.309 197.813 126.655 197.065 127.777C196.41 128.806 194.633 128.806 194.82 130.489C195.194 133.201 196.036 135.727 198.374 137.41C200.058 138.626 201.834 139.935 204.173 139C204.734 138.813 204.921 138.906 205.014 139.468C205.108 140.122 204.64 140.216 204.266 140.496C203.424 141.245 201.928 140.309 201.647 141.619C201.367 142.647 200.338 143.957 201.086 144.612C201.928 145.453 203.424 145.64 204.734 145.921C205.201 146.014 205.482 145.266 205.669 144.612C206.324 141.712 207.914 140.309 211.187 140.309C214.273 140.216 216.237 137.597 218.388 135.727C220.727 133.669 222.129 130.863 223.345 128.058C224.935 124.41 223.439 119.173 219.137 116.928C217.36 115.993 215.489 115.058 213.338 114.871C212.496 114.777 211.561 114.59 210.813 113.935C209.316 112.532 207.259 111.036 208.194 108.978C209.036 107.108 211.093 105.986 213.525 106.266C214.741 106.36 216.05 106.827 217.173 106.64C218.201 106.547 217.734 104.583 219.137 103.835C219.885 105.986 218.95 108.137 219.511 111.129C216.892 108.604 214.46 108.791 211.935 109.353C211.187 109.54 210.345 109.633 210.158 110.381C209.971 111.036 210.813 111.597 211.374 111.878C213.245 112.626 215.209 113.281 217.079 114.029C227.273 117.676 226.058 128.619 221.568 134.324C218.669 138.065 214.928 140.777 210.065 141.619C208.662 141.806 207.54 142.46 207.352 144.331C207.072 146.669 204.827 147.978 202.676 146.95C201.46 146.389 199.59 146.763 199.122 145.547C198.655 144.518 199.777 143.209 200.245 142.086C200.619 141.245 200.338 140.59 199.309 140.029C196.129 138.345 193.978 136.007 193.417 132.173C193.043 129.367 195.381 125.626 198 125.252C198.748 125.158 199.029 125.532 199.216 126.187C199.964 128.525 201.741 130.022 203.611 131.424C205.388 132.827 207.446 132.734 209.317 131.799C212.122 130.489 215.209 129.554 215.583 125.532C215.957 121.137 212.216 118.892 208.194 118.05C206.791 117.583 204.734 118.144 203.611 116.367Z" fill="#1A1A1A"/>
<path d="M203.424 154.806C199.216 154.899 195.849 153.122 193.23 150.223C186.496 142.834 184.719 133.763 185.748 124.129C186.964 113.655 191.547 104.489 198 96.0719C201.647 91.3956 205.388 87 210.719 84.1007C211.842 83.446 213.058 83.0719 214.367 82.7913C212.59 84.8489 210.065 85.7841 208.101 87.4676C201.554 93.3597 196.878 100.748 192.856 108.417C188.835 116.18 186.777 124.597 187.806 133.201C188.741 141.151 191.734 148.259 199.403 152.281C200.806 153.122 202.115 153.964 203.424 154.806Z" fill="#1A1A1A"/>
<path d="M203.705 116.273C200.058 116.273 197.626 112.813 198.935 109.54C200.712 105.05 204.079 102.525 208.849 102.712C210.719 102.806 211.561 101.964 212.029 100.468C212.122 100.093 212.216 99.6259 212.309 99.2518C214.741 93.1726 216.331 92.3309 224.655 93.1726C222.784 95.3237 222.129 97.8489 221.381 100.374C221.194 100.842 221.288 101.496 220.54 101.122C220.165 100.935 219.791 100.561 219.978 99.9064C220.633 98.223 221.194 96.5395 221.849 94.8561C221.662 94.7626 221.475 94.5755 221.381 94.5755C214.928 94.3885 214.928 94.2949 212.777 101.403C212.309 102.993 211.935 103.741 209.878 103.835C205.669 103.928 202.209 105.799 200.058 109.54C198.842 111.597 199.59 113.187 201.18 114.309C202.115 114.87 202.863 115.525 203.705 116.273Z" fill="#1A1A1A"/>
<path d="M215.676 82.0432C215.489 82.1367 215.302 82.3237 215.115 82.4173C215.022 82.4173 214.928 82.2302 214.741 82.2302C214.928 82.1367 215.022 81.9496 215.209 81.8561C215.302 81.7626 215.489 81.9496 215.676 82.0432Z" fill="#1A1A1A"/>
</g>
<defs>
<clipPath id="clip0_1478_5738">
<rect width="375.691" height="416" fill="white" transform="translate(68 48)"/>
</clipPath>
</defs>
</svg>
