<svg width="278" height="48" viewBox="0 0 278 48" fill="none" xmlns="http://www.w3.org/2000/svg">
<path d="M2.55475 47C2.08542 47 1.70142 46.8507 1.40275 46.552C1.10408 46.2533 0.95475 45.8693 0.95475 45.4V3.8C0.95475 3.33066 1.10408 2.94666 1.40275 2.648C1.70142 2.34933 2.08542 2.2 2.55475 2.2H21.5628C25.1041 2.2 28.0054 2.712 30.2668 3.736C32.5281 4.76 34.1921 6.21067 35.2588 8.088C36.3681 9.96533 36.9228 12.1627 36.9228 14.68C36.9228 16.2587 36.6241 17.6453 36.0268 18.84C35.4721 20.0347 34.7681 21.016 33.9148 21.784C33.1041 22.552 32.3148 23.128 31.5468 23.512C33.2108 24.28 34.6614 25.56 35.8988 27.352C37.1788 29.1013 37.8188 31.192 37.8188 33.624C37.8188 36.312 37.2214 38.6587 36.0268 40.664C34.8321 42.6693 33.0614 44.2267 30.7148 45.336C28.3681 46.4453 25.5094 47 22.1388 47H2.55475ZM11.1308 39.512H20.9228C23.0134 39.512 24.5921 38.936 25.6588 37.784C26.7254 36.5893 27.2588 35.1813 27.2588 33.56C27.2588 31.896 26.7041 30.5093 25.5948 29.4C24.5281 28.248 22.9708 27.672 20.9228 27.672H11.1308V39.512ZM11.1308 20.312H20.3468C22.3521 20.312 23.8454 19.8213 24.8268 18.84C25.8508 17.816 26.3628 16.5147 26.3628 14.936C26.3628 13.3573 25.8508 12.0987 24.8268 11.16C23.8454 10.1787 22.3521 9.688 20.3468 9.688H11.1308V20.312ZM46.5993 47C46.1726 47 45.8099 46.8507 45.5113 46.552C45.2126 46.2533 45.0633 45.8693 45.0633 45.4V15.32C45.0633 14.8507 45.2126 14.4667 45.5113 14.168C45.8099 13.8693 46.1726 13.72 46.5993 13.72H52.9993C53.4686 13.72 53.8526 13.8693 54.1513 14.168C54.4499 14.4667 54.5993 14.8507 54.5993 15.32V45.4C54.5993 45.8693 54.4499 46.2533 54.1513 46.552C53.8526 46.8507 53.4686 47 52.9993 47H46.5993ZM46.4073 8.6C45.9806 8.6 45.6179 8.45066 45.3193 8.152C45.0206 7.85333 44.8713 7.46933 44.8713 7V1.88C44.8713 1.41066 45.0206 1.02666 45.3193 0.727997C45.6179 0.386665 45.9806 0.216 46.4073 0.216H53.1273C53.5966 0.216 53.9806 0.386665 54.2793 0.727997C54.6206 1.02666 54.7913 1.41066 54.7913 1.88V7C54.7913 7.46933 54.6206 7.85333 54.2793 8.152C53.9806 8.45066 53.5966 8.6 53.1273 8.6H46.4073ZM65.8493 47C65.4226 47 65.0599 46.8507 64.7613 46.552C64.4626 46.2533 64.3133 45.8693 64.3133 45.4V15.32C64.3133 14.8507 64.4626 14.4667 64.7613 14.168C65.0599 13.8693 65.4226 13.72 65.8493 13.72H72.1213C72.5906 13.72 72.9746 13.8693 73.2733 14.168C73.5719 14.4667 73.7213 14.8507 73.7213 15.32V17.816C74.8306 16.4507 76.2599 15.32 78.0093 14.424C79.7586 13.528 81.8919 13.08 84.4093 13.08C86.9266 13.08 89.1239 13.656 91.0013 14.808C92.9213 15.9173 94.4146 17.56 95.4813 19.736C96.5906 21.8693 97.1453 24.472 97.1453 27.544V45.4C97.1453 45.8693 96.9746 46.2533 96.6333 46.552C96.3346 46.8507 95.9719 47 95.5452 47H88.7613C88.2919 47 87.9079 46.8507 87.6093 46.552C87.3106 46.2533 87.1613 45.8693 87.1613 45.4V27.928C87.1613 25.6667 86.6066 23.9173 85.4973 22.68C84.4306 21.4 82.8519 20.76 80.7613 20.76C78.7559 20.76 77.1559 21.4 75.9613 22.68C74.7666 23.9173 74.1693 25.6667 74.1693 27.928V45.4C74.1693 45.8693 74.0199 46.2533 73.7213 46.552C73.4226 46.8507 73.0599 47 72.6333 47H65.8493ZM114.605 47.64C112.344 47.64 110.317 47.2133 108.525 46.36C106.733 45.464 105.304 44.2693 104.237 42.776C103.171 41.2827 102.637 39.6187 102.637 37.784C102.637 34.7547 103.853 32.3653 106.285 30.616C108.76 28.8667 112.003 27.672 116.013 27.032L124.397 25.816V24.664C124.397 23 124.013 21.72 123.245 20.824C122.477 19.928 121.133 19.48 119.213 19.48C117.805 19.48 116.675 19.7573 115.821 20.312C114.968 20.8667 114.307 21.592 113.837 22.488C113.496 23.0427 113.005 23.32 112.365 23.32H106.285C105.816 23.32 105.453 23.192 105.197 22.936C104.941 22.6373 104.835 22.296 104.877 21.912C104.877 21.1867 105.155 20.3333 105.709 19.352C106.264 18.3707 107.117 17.4107 108.269 16.472C109.421 15.4907 110.893 14.68 112.685 14.04C114.477 13.4 116.675 13.08 119.277 13.08C121.965 13.08 124.269 13.4 126.189 14.04C128.109 14.68 129.645 15.576 130.797 16.728C131.949 17.88 132.803 19.224 133.357 20.76C133.912 22.2533 134.189 23.8747 134.189 25.624V45.4C134.189 45.8693 134.04 46.2533 133.741 46.552C133.443 46.8507 133.059 47 132.589 47H126.317C125.891 47 125.528 46.8507 125.229 46.552C124.931 46.2533 124.781 45.8693 124.781 45.4V43.032C124.227 43.8427 123.48 44.6107 122.541 45.336C121.603 46.0187 120.472 46.5733 119.149 47C117.869 47.4267 116.355 47.64 114.605 47.64ZM117.165 40.984C118.573 40.984 119.832 40.6853 120.941 40.088C122.051 39.4907 122.925 38.5733 123.565 37.336C124.205 36.0987 124.525 34.5413 124.525 32.664V31.576L118.573 32.536C116.269 32.92 114.584 33.496 113.517 34.264C112.451 35.032 111.917 35.9707 111.917 37.08C111.917 37.8907 112.152 38.5947 112.621 39.192C113.133 39.7893 113.795 40.2373 114.605 40.536C115.416 40.8347 116.269 40.984 117.165 40.984ZM143.474 47C143.048 47 142.685 46.8507 142.386 46.552C142.088 46.2533 141.938 45.8693 141.938 45.4V15.32C141.938 14.8507 142.088 14.4667 142.386 14.168C142.685 13.8693 143.048 13.72 143.474 13.72H149.426C149.853 13.72 150.216 13.8693 150.514 14.168C150.856 14.4667 151.026 14.8507 151.026 15.32V17.496C151.88 16.3013 153.053 15.2773 154.546 14.424C156.082 13.5707 157.896 13.1227 159.986 13.08C164.936 12.9947 168.328 14.872 170.162 18.712C171.144 17.048 172.552 15.704 174.386 14.68C176.264 13.6133 178.312 13.08 180.53 13.08C182.749 13.08 184.754 13.592 186.546 14.616C188.338 15.5973 189.746 17.1333 190.77 19.224C191.837 21.272 192.37 23.9173 192.37 27.16V45.4C192.37 45.8693 192.221 46.2533 191.922 46.552C191.624 46.8507 191.261 47 190.834 47H184.498C184.072 47 183.709 46.8507 183.41 46.552C183.112 46.2533 182.962 45.8693 182.962 45.4V27.672C182.962 25.9227 182.706 24.5573 182.194 23.576C181.682 22.552 181 21.8267 180.146 21.4C179.336 20.9733 178.418 20.76 177.394 20.76C176.498 20.76 175.624 20.9733 174.77 21.4C173.96 21.8267 173.277 22.552 172.722 23.576C172.21 24.5573 171.954 25.9227 171.954 27.672V45.4C171.954 45.8693 171.805 46.2533 171.506 46.552C171.208 46.8507 170.824 47 170.354 47H164.082C163.613 47 163.229 46.8507 162.93 46.552C162.632 46.2533 162.482 45.8693 162.482 45.4V27.672C162.482 25.9227 162.226 24.5573 161.714 23.576C161.202 22.552 160.52 21.8267 159.666 21.4C158.856 20.9733 157.96 20.76 156.978 20.76C156.082 20.76 155.208 20.9947 154.354 21.464C153.501 21.8907 152.797 22.5947 152.242 23.576C151.73 24.5573 151.474 25.9013 151.474 27.608V45.4C151.474 45.8693 151.325 46.2533 151.026 46.552C150.728 46.8507 150.365 47 149.938 47H143.474ZM201.662 47C201.235 47 200.872 46.8507 200.574 46.552C200.275 46.2533 200.126 45.8693 200.126 45.4V15.32C200.126 14.8507 200.275 14.4667 200.574 14.168C200.872 13.8693 201.235 13.72 201.662 13.72H208.062C208.531 13.72 208.915 13.8693 209.214 14.168C209.512 14.4667 209.662 14.8507 209.662 15.32V45.4C209.662 45.8693 209.512 46.2533 209.214 46.552C208.915 46.8507 208.531 47 208.062 47H201.662ZM201.47 8.6C201.043 8.6 200.68 8.45066 200.382 8.152C200.083 7.85333 199.934 7.46933 199.934 7V1.88C199.934 1.41066 200.083 1.02666 200.382 0.727997C200.68 0.386665 201.043 0.216 201.47 0.216H208.19C208.659 0.216 209.043 0.386665 209.342 0.727997C209.683 1.02666 209.854 1.41066 209.854 1.88V7C209.854 7.46933 209.683 7.85333 209.342 8.152C209.043 8.45066 208.659 8.6 208.19 8.6H201.47ZM233.688 47C231.043 47 228.782 46.5733 226.904 45.72C225.027 44.824 223.598 43.4587 222.616 41.624C221.678 39.7893 221.208 37.4853 221.208 34.712V21.272H216.216C215.747 21.272 215.363 21.1227 215.064 20.824C214.766 20.5253 214.616 20.1413 214.616 19.672V15.32C214.616 14.8507 214.766 14.4667 215.064 14.168C215.363 13.8693 215.747 13.72 216.216 13.72H221.208V3.16C221.208 2.69066 221.358 2.30666 221.656 2.008C221.998 1.70933 222.382 1.56 222.808 1.56H229.08C229.55 1.56 229.934 1.70933 230.232 2.008C230.531 2.30666 230.68 2.69066 230.68 3.16V13.72H238.68C239.107 13.72 239.47 13.8693 239.768 14.168C240.067 14.4667 240.216 14.8507 240.216 15.32V19.672C240.216 20.1413 240.067 20.5253 239.768 20.824C239.47 21.1227 239.107 21.272 238.68 21.272H230.68V33.944C230.68 35.5653 230.958 36.8453 231.512 37.784C232.11 38.68 233.134 39.128 234.584 39.128H239.256C239.683 39.128 240.046 39.2773 240.344 39.576C240.643 39.8747 240.792 40.2373 240.792 40.664V45.4C240.792 45.8693 240.643 46.2533 240.344 46.552C240.046 46.8507 239.683 47 239.256 47H233.688ZM261.224 47.64C256.317 47.64 252.413 46.2747 249.512 43.544C246.653 40.8133 245.138 36.8453 244.968 31.64C244.968 31.2987 244.968 30.8507 244.968 30.296C244.968 29.6987 244.968 29.2293 244.968 28.888C245.138 25.6027 245.885 22.7867 247.208 20.44C248.53 18.0507 250.386 16.2373 252.776 15C255.165 13.72 257.96 13.08 261.16 13.08C264.744 13.08 267.73 13.8267 270.12 15.32C272.552 16.7707 274.365 18.776 275.56 21.336C276.797 23.8533 277.416 26.7547 277.416 30.04V31.512C277.416 31.9387 277.245 32.3013 276.904 32.6C276.605 32.8987 276.242 33.048 275.816 33.048H254.888C254.888 33.0907 254.888 33.176 254.888 33.304C254.888 33.3893 254.888 33.4747 254.888 33.56C254.93 34.9253 255.186 36.184 255.656 37.336C256.168 38.4453 256.872 39.3413 257.768 40.024C258.706 40.7067 259.816 41.048 261.096 41.048C262.162 41.048 263.037 40.8987 263.72 40.6C264.402 40.3013 264.957 39.9387 265.384 39.512C265.853 39.0853 266.194 38.7227 266.408 38.424C266.792 37.9973 267.09 37.7413 267.304 37.656C267.56 37.528 267.944 37.464 268.456 37.464H275.112C275.538 37.464 275.88 37.592 276.136 37.848C276.434 38.0613 276.562 38.3813 276.52 38.808C276.477 39.4907 276.114 40.344 275.432 41.368C274.792 42.3493 273.832 43.3307 272.552 44.312C271.272 45.2507 269.672 46.04 267.752 46.68C265.874 47.32 263.698 47.64 261.224 47.64ZM254.888 27.224H267.432V27.096C267.432 25.56 267.176 24.2373 266.664 23.128C266.194 21.976 265.49 21.08 264.552 20.44C263.613 19.8 262.482 19.48 261.16 19.48C259.837 19.48 258.706 19.8 257.768 20.44C256.829 21.08 256.104 21.976 255.592 23.128C255.122 24.2373 254.888 25.56 254.888 27.096V27.224Z" fill="#F5DF4D"/>
</svg>
