<svg width="512" height="512" viewBox="0 0 512 512" fill="none" xmlns="http://www.w3.org/2000/svg">
<g clip-path="url(#clip0_1498_6069)">
<path d="M401.829 338.195C401.921 343.888 401.738 349.674 400.36 355.184C399.809 357.388 398.891 359.408 397.881 361.336C397.054 362.898 395.86 363.449 394.207 362.53C393.748 362.255 393.473 362.071 392.83 362.255C387.412 363.724 381.902 363.081 376.484 363.357C365.005 364 353.434 363.632 341.955 364.091C329.741 364.551 317.436 364.275 305.222 364.642C272.438 365.561 239.654 364.918 206.87 365.01C196.676 365.01 186.391 364.367 176.198 364C168.484 363.724 160.77 363.357 153.056 362.989C146.536 362.714 139.924 362.347 133.404 362.071C126.792 361.796 120.088 361.52 113.66 360.418C110.813 359.959 110.813 361.153 110.262 362.898C109.987 363.816 109.803 365.469 108.609 365.285C107.324 365.102 106.773 363.724 106.956 362.347C107.048 361.612 107.14 360.694 106.313 360.326C105.211 359.867 105.211 360.877 104.752 361.428C103.834 362.53 103.191 362.163 102.456 361.153C100.712 358.673 100.62 355.918 101.079 353.255C102.273 346.276 103.558 339.297 105.028 332.409C107.415 321.298 109.252 310.002 112.466 299.074C117.425 282.361 123.486 266.198 131.751 250.862C137.169 240.761 142.863 230.843 150.117 221.935C155.535 215.323 161.229 209.17 167.657 203.477C177.024 195.12 187.126 187.774 197.595 180.886C211.645 171.703 226.797 165.275 243.235 161.785C249.113 160.499 255.082 159.581 261.143 159.214C269.867 158.663 278.131 159.765 286.58 162.152C291.906 163.713 297.6 163.713 303.11 165.275C317.895 169.407 331.119 176.478 342.873 186.304C356.189 197.416 366.382 211.007 374.739 226.068C384.657 244.067 391.361 263.26 395.952 283.187C397.881 291.636 399.35 300.176 400.268 308.808C400.911 315.053 401.462 321.298 401.829 327.634C401.738 331.124 401.738 334.705 401.829 338.195Z" fill="#F5DF4D"/>
<path d="M455.092 305.87C455.276 306.972 454.909 309.084 452.98 309.543C451.603 309.91 449.674 309.819 448.205 308.992C445.909 307.706 443.521 306.421 441.409 304.951C438.838 303.207 438.562 300.176 438.011 297.513C436.542 289.615 435.348 281.626 433.971 273.637C431.124 257.842 425.981 242.873 417.717 229.006C411.839 219.088 405.411 209.446 398.248 200.355C393.748 194.661 388.514 189.702 382.82 185.11C378.688 181.804 374.555 178.315 370.79 174.642C364.086 168.121 357.015 162.152 348.475 158.112C347.281 157.561 345.445 156.918 346.087 155.173C346.638 153.704 348.475 153.796 349.853 153.979C357.199 155.265 364.362 157.193 370.607 161.418C380.065 167.846 389.708 173.999 399.075 180.611C406.237 185.661 412.023 192.365 417.349 199.253C425.798 210.181 433.144 221.843 439.113 234.332C444.072 244.618 447.195 255.546 449.49 266.749C451.694 277.126 452.796 287.595 454.449 298.064C454.725 300.452 454.817 302.747 455.092 305.87Z" fill="#F5DF4D"/>
<path d="M388.881 196.957C389.248 197.875 388.973 198.702 388.422 199.436C383.922 205.222 386.31 211.925 390.442 215.507C398.615 222.853 410.645 218.445 413.492 211.191C416.339 203.844 413.125 197.6 406.697 194.661C401.646 192.365 396.779 193.283 391.912 195.212C391.636 194.753 391.912 194.477 392.279 194.202C401.462 189.243 414.41 193.467 415.88 205.13C416.523 210.456 413.033 217.435 405.686 219.823C396.87 222.67 387.779 218.354 385.3 209.813C384.014 205.773 384.565 199.712 388.881 196.957Z" fill="#D36480"/>
<path d="M358.117 223.313C365.097 223.772 369.596 228.088 370.515 235.251C370.607 235.618 370.882 236.077 370.331 236.261C369.964 236.445 369.505 236.353 369.321 235.802C369.137 235.251 368.954 234.7 368.77 234.149C367.301 228.272 362.617 224.874 356.556 225.241C354.72 225.333 353.709 226.343 353.158 227.996C352.607 229.557 353.526 230.567 354.536 231.302C355.822 232.312 357.383 233.322 359.036 232.496C359.77 232.128 361.423 231.026 359.036 230.2C358.485 230.016 358.026 229.557 358.209 228.822C358.393 227.996 359.128 228.272 359.587 228.272C360.964 228.18 362.158 228.731 362.066 230.108C361.974 231.945 361.607 233.965 359.403 234.7C357.107 235.434 353.158 233.873 351.781 231.577C350.587 229.741 350.954 226.986 352.516 224.874C354.077 223.129 356.005 223.037 358.117 223.313Z" fill="#D36480"/>
<path d="M379.514 254.168C378.412 253.066 378.688 252.056 379.698 251.23C382.545 248.842 385.391 246.454 388.33 244.067C388.606 243.883 388.881 243.424 389.065 243.424C392.003 243.607 393.656 246.087 396.044 247.281C397.238 247.924 396.962 249.117 396.687 250.128C396.503 250.954 396.228 251.689 396.044 252.515C395.217 255.729 393.197 257.199 390.075 256.189C387.779 255.454 388.422 252.974 388.055 251.321C387.687 249.852 389.248 249.577 390.35 249.301C390.901 249.117 391.636 249.301 391.82 249.944C391.912 250.311 391.636 251.046 391.177 251.138C389.983 251.321 389.799 251.964 390.167 252.883C390.35 253.342 390.442 254.352 391.085 254.168C392.095 253.801 393.381 254.26 394.115 252.974C395.585 250.403 395.217 248.934 392.83 247.189C392.187 246.73 391.728 246.179 391.085 245.811C390.259 245.169 389.616 244.893 388.606 245.72C386.034 247.924 383.279 249.944 380.616 251.964C379.698 252.515 380.065 253.525 379.514 254.168Z" fill="#D36480"/>
<path d="M368.77 202.742C366.474 200.906 365.464 198.334 366.015 195.579C366.566 192.549 367.943 189.977 371.525 189.518C375.198 188.967 379.331 191.722 379.698 196.498C379.973 199.436 379.055 202.283 376.392 204.028C373.27 206.14 371.249 205.773 368.77 202.742C369.688 202.558 370.515 202.742 371.341 203.018C372.627 203.385 373.912 203.477 375.198 202.742C377.586 201.456 378.78 197.691 377.678 194.753C376.667 192.181 373.453 190.528 370.79 191.355C368.127 192.181 367.025 194.753 367.117 198.059C367.3 199.895 369.137 200.906 368.77 202.742Z" fill="#D36480"/>
<path d="M286.213 268.035C285.294 265.188 286.672 263.443 288.233 261.882C291.447 258.576 297.692 257.75 302.375 259.77C305.681 261.239 308.161 263.26 308.712 267.576C300.906 257.933 292.825 258.117 286.213 268.035Z" fill="#D36480"/>
<path d="M224.501 261.331C224.593 259.311 226.246 258.117 228.542 257.291C230.93 256.372 232.95 257.015 234.603 258.76C235.889 260.137 234.787 262.8 232.583 263.719C231.297 264.27 230.011 264.729 228.818 265.372C226.889 266.382 224.593 264.453 224.501 261.331ZM226.797 263.168C227.991 260.321 229.093 259.954 230.93 262.066C231.756 262.984 232.124 262.249 232.491 262.066C233.134 261.607 233.868 261.056 233.501 260.045C232.95 258.76 230.379 258.393 228.358 259.494C226.797 260.229 225.144 261.056 226.797 263.168Z" fill="#D36480"/>
<path d="M357.475 260.137C355.362 256.739 355.73 252.332 358.301 250.862C361.056 249.209 366.474 249.117 368.311 252.883C369.413 255.178 368.954 258.392 366.841 260.596C364.178 263.443 363.26 263.627 359.862 261.882C362.342 261.239 365.188 261.423 366.75 258.392C368.035 255.821 367.668 252.974 365.28 251.689C362.709 250.311 358.577 251.413 357.475 253.617C356.373 255.821 357.291 257.75 357.934 259.77C357.658 259.954 357.566 260.045 357.475 260.137Z" fill="#D36480"/>
<path d="M250.49 265.647C254.531 263.076 258.296 260.596 262.061 258.209C263.438 257.29 264.632 258.209 265.55 259.127C267.112 260.688 268.581 262.433 270.05 264.086C270.785 264.913 270.601 265.464 269.958 266.198C269.04 267.208 268.765 266.29 268.214 265.739C267.295 264.821 266.377 263.994 265.55 263.076C262.704 259.678 262.704 259.678 258.755 261.698C256.826 262.709 254.898 263.902 252.969 265.004C252.418 265.372 251.867 266.106 250.49 265.647Z" fill="#D36480"/>
<path d="M320.191 264.362C323.129 257.382 332.404 254.076 337.914 260.321C340.118 262.8 340.945 265.923 340.761 269.321C340.761 269.78 340.486 270.055 339.935 270.239C339.751 268.402 339.475 266.566 338.924 264.729C336.904 257.933 329.098 256.28 324.048 260.872C322.762 262.066 321.752 263.443 320.558 264.637C320.374 264.545 320.283 264.453 320.191 264.362Z" fill="#D36480"/>
<path d="M407.799 180.794C405.503 180.06 405.136 178.315 405.503 176.294C405.962 173.631 407.982 173.631 410.003 173.631C412.207 173.631 413.309 175.009 413.768 176.937C414.411 179.509 413.217 181.804 411.105 182.723C409.084 183.641 407.982 183.457 406.88 181.988C407.89 181.713 408.809 181.437 409.727 181.253C411.472 180.886 412.298 179.968 412.298 178.223C412.298 176.937 412.115 175.56 410.645 175.284C409.176 175.009 407.431 174.733 406.605 176.294C405.87 177.672 406.054 179.141 407.339 180.335C407.615 180.427 407.707 180.611 407.799 180.794Z" fill="#D36480"/>
<path d="M304.396 268.31C302.926 267.759 302.834 266.657 302.192 266.106C299.712 263.902 296.774 264.178 294.11 266.657C293.468 267.208 292.825 268.861 291.906 268.035C290.804 266.933 291.998 265.831 292.917 264.913C294.937 262.984 297.416 262.249 299.988 263.076C302.192 263.811 303.661 265.555 304.396 268.31Z" fill="#D36480"/>
<path d="M257.745 266.566C260.132 262.892 263.163 262.341 265.183 265.096C265.734 265.831 265.459 266.29 264.908 266.749C264.448 267.208 263.989 267.208 263.714 266.749C262.153 264.178 260.408 265.28 258.571 266.382C258.387 266.566 258.112 266.841 257.745 266.566Z" fill="#D36480"/>
<path d="M320.558 264.637C320.007 265.923 319.548 267.208 318.997 268.586C318.446 266.749 319.364 265.555 320.283 264.27C320.283 264.453 320.374 264.545 320.558 264.637Z" fill="#D36480"/>
<path d="M391.912 195.212C391.361 196.038 390.718 196.773 389.616 196.222C390.259 195.671 390.81 194.845 391.912 195.212Z" fill="#D36480"/>
<path d="M359.77 261.882C359.036 261.974 358.485 261.607 358.209 260.964C358.301 260.872 358.393 260.78 358.577 260.596C359.036 260.964 359.587 261.239 359.77 261.882Z" fill="#D36480"/>
<path d="M358.209 260.872C357.934 260.596 357.658 260.413 357.475 260.137C357.566 260.045 357.658 259.862 357.842 259.77C358.117 260.045 358.393 260.229 358.577 260.505C358.485 260.688 358.393 260.78 358.209 260.872Z" fill="#D36480"/>
<path d="M397.421 201.64C399.258 199.987 401.187 198.702 403.666 199.436C406.513 200.263 408.074 203.201 407.248 206.324C406.146 210.272 403.758 212.844 399.717 214.038C396.595 214.956 393.013 212.017 392.83 208.16C392.83 207.517 393.105 206.966 393.748 206.966C394.483 206.966 394.207 207.701 394.299 208.16C394.758 212.476 397.881 214.129 401.554 211.65C403.942 209.997 405.778 207.885 405.962 204.579C406.146 201.732 403.85 200.263 401.095 200.722C399.809 200.814 398.615 201.365 397.421 201.64Z" fill="#D36480"/>
<path d="M395.401 203.752C395.309 203.844 395.218 203.936 395.126 204.028C395.034 203.936 394.942 203.752 394.942 203.66C394.942 203.569 395.126 203.477 395.218 203.477C395.493 203.385 395.585 203.569 395.401 203.752Z" fill="#D36480"/>
<path d="M233.134 149.571C231.573 150.214 229.92 150.214 228.267 150.214C215.869 149.939 203.839 152.418 191.901 155.724C189.789 156.275 188.32 157.653 186.85 159.305C183.085 163.805 179.688 168.581 176.382 173.356C175.371 174.825 173.627 175.743 171.882 175.743C165.729 175.743 159.668 176.845 153.607 177.396C152.321 177.488 151.22 176.111 149.934 177.396C148.465 178.958 147.638 180.794 147.363 182.815C146.261 191.079 145.159 199.253 145.342 207.609C145.526 215.782 148.373 223.037 153.515 229.373C155.352 231.669 157.372 233.781 159.484 235.71C159.944 236.169 160.219 236.812 161.046 235.618C162.148 234.241 164.168 234.241 165.913 233.781C169.035 233.047 172.065 232.22 175.188 231.853C176.473 231.669 177.392 232.037 178.31 233.047C181.249 236.169 185.106 238.189 188.779 240.393C190.432 241.404 192.36 241.036 194.105 240.853C199.523 240.393 204.85 239.567 210.268 239.016C214.125 238.557 217.982 238.189 221.839 237.914C230.287 237.455 238.736 237.271 247.184 236.812C249.204 236.72 251.225 236.353 253.521 236.353C251.776 232.771 250.49 229.19 252.419 225.425C247.643 225.241 243.052 225.608 238.368 225.884C236.348 225.976 234.511 226.802 232.491 226.343C227.348 225.057 223.216 222.119 221.288 217.252C218.441 210.181 213.114 207.058 206.135 205.864C205.952 205.864 205.768 205.956 205.676 205.864C204.666 205.405 202.737 205.681 203.013 203.936C203.288 202.558 204.941 203.201 205.768 203.385C209.257 204.028 212.839 204.12 216.237 205.589C219.359 206.966 221.379 209.354 222.94 212.201C224.777 215.599 226.706 218.813 230.195 220.925C232.124 222.119 234.052 222.578 235.981 222.211C241.031 221.476 245.99 221.2 251.041 221.292C251.408 221.292 251.684 221.384 252.051 221.292C252.878 221.109 253.337 222.762 254.163 221.843C255.082 220.833 253.796 220.098 253.521 219.18C253.521 218.996 253.429 218.813 253.429 218.721C252.51 214.588 249.572 213.487 245.715 213.303C243.511 213.211 241.399 212.385 239.287 211.742C236.164 210.823 234.787 211.283 232.767 213.762C231.756 215.048 230.471 216.15 229.093 217.068C228.634 217.343 228.175 217.527 227.716 217.343C227.073 216.884 227.716 216.517 227.899 216.15C228.818 213.67 230.195 211.374 232.032 209.538C234.052 207.426 237.174 207.426 239.562 208.16C243.235 209.354 246.909 210.181 250.674 210.823C252.602 211.191 253.429 212.109 254.072 213.762C256.092 219.18 258.847 224.231 262.796 228.639C263.898 229.833 265.091 230.292 266.469 229.833C273.448 227.629 273.632 229.098 273.356 220.558C273.173 214.313 272.346 208.16 271.061 202.007C270.326 198.518 269.959 194.936 268.857 191.447C266.561 184.1 265.551 183.825 257.653 184.651C251.041 185.294 244.521 186.947 237.909 187.498C235.521 187.682 232.95 187.406 230.563 188.324C230.103 188.508 229.552 188.416 229.093 188.324C228.359 188.233 227.44 188.141 227.44 187.222C227.44 186.947 228.45 186.396 229.001 186.304C239.195 184.835 249.113 182.08 259.214 180.427C263.439 179.692 268.03 179.509 270.785 184.008C271.612 185.386 272.254 184.192 272.897 184.008C278.683 181.988 284.652 180.519 290.713 179.876C297.416 179.233 304.12 178.59 311.008 179.141C320.191 179.876 329.099 181.345 337.823 184.376C350.495 188.692 361.974 195.304 372.443 203.752C388.881 216.976 401.371 233.322 410.278 252.332C415.237 262.8 418.727 273.82 420.931 285.299C422.492 293.472 423.318 301.645 424.053 309.91C424.604 316.614 424.237 323.226 423.778 329.746C423.043 339.939 421.39 350.133 417.9 360.051C418.543 360.051 419.094 360.143 419.737 360.143C433.695 360.051 447.746 360.969 461.704 360.694C462.714 360.694 464 360.418 464 362.163C464 363.449 463.725 365.193 462.439 365.01C461.061 364.826 459.776 365.469 458.398 365.193C457.939 365.102 457.388 365.193 456.929 365.193C400.728 365.193 344.526 364.826 288.417 365.377C246.817 365.744 205.125 365.561 163.525 365.653C155.719 365.653 147.822 365.653 140.016 365.102C134.322 364.734 128.721 365.01 123.027 364.734C108.701 363.908 94.2835 363.816 79.8659 363.265C79.4067 363.265 78.8557 363.173 78.3965 362.989C77.4782 362.714 76.1007 362.898 76.2844 361.428C76.4681 360.051 77.6619 360.969 78.3047 360.785C80.7842 359.959 83.4473 360.326 85.9268 360.326C96.5793 360.051 107.232 359.959 117.884 359.683C123.303 359.592 128.721 359.408 134.139 359.408C135.516 359.408 136.067 358.857 136.343 357.755C141.302 333.787 146.903 309.91 152.781 286.218C154.709 278.412 156.546 270.606 158.382 262.8C158.474 262.341 158.842 261.974 159.117 261.331C152.413 260.964 145.985 259.954 139.373 259.678C131.751 259.311 124.129 258.668 116.599 257.382C110.813 256.372 104.844 256.005 99.0588 255.27C85.7431 253.709 73.1621 249.944 62.2341 241.955C59.8464 240.21 58.1016 237.73 56.6323 235.067C53.2345 229.006 50.0204 222.853 48.9184 215.874C47.3573 205.405 46.8063 194.753 52.5917 185.202C57.7343 176.754 65.8155 172.07 75.0906 169.132C78.672 168.03 82.4372 167.479 86.2023 167.57C93.8244 167.754 101.355 166.56 108.885 165.642C114.303 164.999 119.721 164.54 125.139 164.081C133.312 163.346 141.393 162.611 149.567 162.152C152.413 161.969 155.168 161.693 158.015 161.509C162.331 161.234 166.555 161.326 170.872 160.591C173.259 160.224 175.371 160.958 176.657 163.162C177.024 163.805 177.3 164.448 178.035 164.907C180.514 161.693 182.902 158.387 185.473 155.265C187.31 152.877 190.156 152.602 192.911 152.051C201.635 150.398 210.543 149.296 219.359 148.01C223.583 147.367 227.899 147.275 232.124 147.551C233.042 147.643 233.96 147.918 234.236 148.653C234.695 149.112 233.134 148.837 233.134 149.571ZM274.826 237.271C276.02 237.271 277.03 237.363 278.04 237.271C282.448 236.812 286.856 235.985 291.264 235.894C300.171 235.618 309.079 235.251 317.987 235.251C320.65 235.251 323.405 235.067 326.16 234.792C332.129 234.149 338.006 233.965 343.884 235.343C345.996 235.802 347.098 237.179 347.74 239.016C348.842 242.138 348.016 245.077 347.373 248.107C347.006 249.76 345.72 250.311 344.435 250.311C337.363 250.403 330.384 251.872 323.313 251.964C320.007 251.964 316.701 252.24 313.303 252.515C304.028 253.25 294.753 254.352 285.478 254.444C260.959 254.627 236.532 254.627 212.012 256.372C202.095 257.107 192.177 256.923 182.259 256.923C181.249 256.923 180.422 256.648 179.596 256.005C178.953 259.862 178.218 260.413 174.453 261.056C171.331 261.607 168.3 261.423 165.27 261.147C162.974 260.872 161.688 260.596 161.046 263.994C159.301 274.096 156.546 284.105 154.434 294.207C149.934 315.328 144.699 336.266 139.74 357.296C139.189 359.592 140.016 359.224 141.302 359.224C152.321 358.673 163.341 358.673 174.361 358.765C178.769 358.765 183.269 358.765 188.32 358.765C186.759 357.847 185.657 357.388 184.738 356.653C183.177 355.275 180.789 354.541 180.422 352.061C180.147 350.133 179.963 348.296 179.871 346.368C179.688 335.532 179.871 324.695 179.596 313.859C179.045 297.972 179.412 281.993 179.504 266.015C179.504 264.637 180.33 262.984 182.442 263.076C189.514 263.351 196.585 262.8 203.656 263.535C209.257 264.086 214.951 263.719 220.645 263.994C231.114 264.453 241.582 264.453 252.051 265.096C256.827 265.372 261.694 265.28 266.469 265.464C276.387 265.923 286.397 265.923 296.314 266.566C301.09 266.841 305.957 266.749 310.732 266.933C318.079 267.117 325.333 267.668 332.68 267.576C335.802 267.484 338.925 268.127 342.139 268.219C343.884 268.219 346.455 268.127 346.638 271.065C346.914 274.555 347.465 278.136 347.649 281.626C347.924 287.871 348.383 294.023 348.567 300.176C348.934 309.727 349.118 319.277 349.669 328.736C350.036 335.44 349.21 342.235 350.128 348.939C350.312 350.041 350.495 351.419 350.036 352.429C349.577 353.531 350.495 355.643 347.557 355.459C346.455 355.367 345.169 358.306 343.7 360.143C345.077 360.143 345.996 360.143 346.822 360.143C366.933 360.143 387.045 360.143 407.156 360.143C409.084 360.143 411.288 360.694 412.758 359.867C413.676 359.316 413.492 356.745 413.768 355.092L413.86 354.908C415.972 346.276 417.533 337.46 417.992 328.552C418.268 322.675 418.727 316.798 418.268 310.921C417.625 302.38 416.798 293.932 415.145 285.575C411.656 268.586 405.411 252.699 396.044 238.098C388.789 226.71 379.974 216.701 369.413 208.252C360.781 201.456 351.322 195.947 341.129 191.814C328.456 186.672 315.324 184.008 301.641 183.457C292.274 183.09 283.091 184.743 273.907 186.488C272.53 186.763 271.979 187.314 272.53 188.784C273.632 191.906 274.275 195.12 274.826 198.426C275.928 205.13 277.305 211.742 277.489 218.629C277.581 221.935 277.305 225.149 276.754 228.363C276.571 229.19 275.469 229.833 275.836 230.843C276.938 232.955 275.928 234.975 274.826 237.271ZM344.251 284.656C344.251 280.891 344.159 277.585 344.251 274.188C344.343 272.626 343.884 272.259 342.322 272.259C335.986 272.167 329.741 272.443 323.405 271.892C316.518 271.341 309.538 271.157 302.559 270.882C295.488 270.606 288.325 270.147 281.254 269.872C274.183 269.596 267.204 269.229 260.133 268.861C252.786 268.494 245.348 268.127 238.001 267.851C231.114 267.576 224.226 267.208 217.339 266.841C206.043 266.29 194.748 266.015 183.544 264.729C181.983 264.545 181.249 264.913 181.432 266.657C181.983 272.075 182.075 277.585 182.351 283.004C182.718 290.075 183.085 297.238 183.361 304.309C183.728 311.931 184.187 319.553 184.371 327.175C184.555 333.695 185.289 340.123 185.014 346.643C184.922 349.398 186.116 351.419 188.32 352.796C190.524 354.265 192.728 355.643 194.472 357.663C195.115 358.398 195.85 358.398 196.676 358.398C212.38 358.49 227.991 358.214 243.695 358.857C249.572 359.132 255.449 358.306 261.418 358.306C275.193 358.49 288.876 358.214 302.651 358.765C308.804 359.041 314.956 358.765 321.201 358.857C324.874 358.949 328.456 358.581 332.129 359.224C334.517 359.592 336.904 359.408 339.108 357.939C341.404 356.377 343.608 354.633 346.087 353.439C347.098 352.888 346.822 352.061 346.638 351.602C345.445 346.919 346.179 342.235 345.812 337.46C345.169 328.736 344.894 319.828 344.802 311.104C344.71 302.196 344.067 293.289 344.251 284.656ZM173.902 161.785C172.8 161.693 171.974 161.785 170.963 161.969C166.096 162.795 161.229 163.53 156.454 164.173C151.679 164.815 146.812 165.366 141.944 165.826C134.873 166.468 127.802 167.387 120.823 168.213C115.405 168.856 109.895 169.407 104.477 170.325C99.1506 171.244 93.7325 172.162 88.3144 172.07C82.3453 172.07 76.7436 173.172 71.4173 175.743C61.2239 180.794 53.9692 188.233 53.3263 200.263C52.7754 209.079 54.061 217.619 58.2853 225.517C60.2138 229.19 61.6831 233.414 64.989 235.985C74.5396 243.332 85.5595 247.464 97.4977 248.842C102.365 249.393 107.232 250.036 112.007 250.954C118.344 252.148 124.68 253.158 131.108 253.709C138.455 254.444 145.893 254.444 153.332 255.27C158.933 255.913 164.627 255.913 170.229 255.821C175.831 255.729 175.831 255.821 177.575 250.495C177.943 249.393 178.035 249.117 176.657 248.566C167.015 244.709 157.648 240.485 150.852 231.945C144.608 224.139 141.302 215.507 141.026 205.681C140.842 199.344 141.944 193.008 142.404 186.672C143.138 176.478 146.261 172.346 155.995 168.581C161.137 166.56 166.372 164.907 171.606 162.979C172.341 162.887 173.259 162.611 173.902 161.785ZM180.881 254.26C181.524 254.26 181.891 254.352 182.259 254.352C190.34 254.444 198.329 254.168 206.411 253.434C213.482 252.791 220.553 252.148 227.716 251.964C234.971 251.689 242.133 251.046 249.388 250.954C270.326 250.862 291.264 250.679 312.201 249.026C321.385 248.291 330.568 248.015 339.751 247.373C345.445 247.005 345.445 247.005 345.353 241.404C345.353 239.751 344.802 238.649 342.965 238.281C340.853 237.822 338.833 237.363 336.629 237.271C330.843 237.179 325.15 237.914 319.456 238.189C311.834 238.557 304.12 239.108 296.498 238.832C295.212 238.832 294.019 238.924 292.733 239.016C286.948 239.475 281.162 239.934 275.377 240.302C274.642 240.393 273.816 240.577 273.173 240.026C272.254 239.108 272.071 239.659 271.52 240.485C270.234 242.597 268.306 243.056 266.102 242.046C265.642 241.863 265.367 241.495 264.908 242.138C264.173 243.148 263.255 242.597 262.245 242.414C259.765 241.955 257.837 239.659 254.623 241.128C251.868 242.322 248.286 242.23 245.164 242.23C233.685 242.23 222.206 242.23 210.819 243.24C206.87 243.607 202.921 243.883 198.972 244.342C194.105 244.893 189.054 246.73 184.646 242.597C183.82 246.822 182.718 250.587 180.881 254.26ZM161.137 236.812C163.25 238.098 164.719 239.108 166.28 239.842C170.137 241.863 173.902 244.158 178.126 245.169C178.402 245.26 179.137 246.179 179.412 245.077C179.779 243.516 180.33 241.954 180.33 240.393C180.422 238.924 178.586 238.924 177.851 237.914C177.667 237.638 177.3 237.455 177.116 237.179C176.106 235.802 174.82 235.434 173.259 235.71C169.494 236.536 165.637 236.904 161.137 236.812ZM152.23 175.743C152.597 175.652 153.056 175.652 153.423 175.56C158.474 174.182 163.617 173.172 168.759 172.713C171.79 172.438 173.902 171.336 175.739 168.856C177.024 167.111 175.831 166.193 175.188 165.183C174.545 164.081 173.718 165.366 172.984 165.642C171.698 166.101 170.412 166.652 169.127 167.111C163.25 169.591 157.464 172.07 152.23 175.743ZM272.989 232.312C270.326 232.588 268.214 233.23 266.102 233.047C262.428 232.863 260.867 229.557 258.571 227.353C258.112 226.894 257.837 225.7 257.194 225.976C256.459 226.251 256.184 227.353 256.092 228.271C255.816 231.761 258.48 235.434 262.337 236.72C263.438 237.087 264.724 237.363 265.642 238.006C267.387 239.2 269.316 238.924 270.142 236.996C270.877 235.526 271.703 234.057 272.989 232.312Z" fill="#1A1A1A"/>
<path d="M233.042 149.663C236.624 149.388 239.654 149.847 241.123 153.887C242.225 157.01 243.786 160.04 242.409 164.081C249.021 161.509 252.97 164.54 255.908 169.683C257.378 172.346 256.551 175.009 255.633 177.764C253.796 175.743 253.888 173.08 252.419 171.152C249.388 167.019 247.552 166.285 242.776 167.295C232.95 169.315 223.124 171.335 213.298 173.08C211.186 173.448 208.89 174.274 206.043 173.172C210.911 171.886 215.135 170.693 219.359 169.683C226.247 168.03 233.134 165.917 240.113 164.54C240.481 164.448 242.042 164.632 241.215 163.162C239.838 160.775 239.379 158.203 238.736 155.54C238.185 153.336 236.991 151.959 234.695 151.5C233.226 151.5 232.491 150.949 233.042 149.663Z" fill="#1A1A1A"/>
<path d="M152.23 175.743C157.464 172.07 163.341 169.591 169.127 167.203C170.413 166.652 171.698 166.193 172.984 165.734C173.718 165.458 174.545 164.264 175.188 165.275C175.831 166.285 177.024 167.111 175.739 168.948C173.902 171.427 171.79 172.529 168.76 172.805C163.525 173.264 158.474 174.274 153.424 175.652C153.056 175.652 152.597 175.652 152.23 175.743Z" fill="white"/>
</g>
<defs>
<clipPath id="clip0_1498_6069">
<rect width="416" height="218.469" fill="white" transform="translate(48 147)"/>
</clipPath>
</defs>
</svg>
