<svg width="512" height="512" viewBox="0 0 512 512" fill="none" xmlns="http://www.w3.org/2000/svg">
<g clip-path="url(#clip0_902_5563)">
<path d="M105.334 332.898C98.2617 322.026 91.6116 311.681 84.7504 300.914C81.6892 305.77 78.7336 310.415 75.5669 315.376C75.2502 313.687 75.8836 312.631 76.4114 311.576C77.9947 308.409 79.367 305.137 81.267 302.181C83.167 299.226 82.5337 297.009 80.7392 294.37C76.0947 287.72 71.5557 280.964 67.3335 274.103C65.0112 270.409 62.4778 266.82 61.4223 262.492C60.3667 258.058 62.2667 255.208 66.7001 254.575C68.6002 254.258 70.1835 253.519 71.8724 252.358C86.2282 242.647 100.689 233.147 115.045 223.541C118.634 221.219 122.223 218.897 125.601 216.258C128.345 214.147 129.295 210.769 130.879 207.813C142.807 185.857 154.629 163.796 166.557 141.735C173.524 128.751 180.702 115.873 187.668 102.89C191.574 95.6062 195.48 88.3228 199.385 81.0393C200.546 78.8226 206.352 77.1337 208.674 78.4004C216.274 82.5171 223.874 86.6338 231.475 90.7506C236.436 93.4951 241.291 96.134 246.147 98.984C247.519 99.7229 248.469 99.7229 249.63 98.4562C258.603 89.695 267.997 81.2504 276.653 72.2781C280.664 68.0558 285.414 67.0003 290.586 66.2614C291.748 66.0502 292.803 66.1558 293.859 65.5225C295.337 64.678 296.814 64.8891 297.975 66.2614C298.82 67.3169 299.875 68.0558 301.459 67.9503C303.464 67.8447 303.781 69.6392 304.52 70.9059C307.053 75.3393 309.481 79.8782 312.015 84.4172C320.776 100.356 330.17 115.873 339.67 131.39C343.893 138.251 348.432 144.796 352.232 151.763C354.976 156.724 358.776 159.89 363.737 162.529C380.943 171.607 398.149 180.896 415.144 190.291C423.06 194.619 431.083 198.735 438.577 203.802C440.477 205.069 440.688 206.23 439.738 208.024C436.044 215.624 431.505 222.802 427.388 230.191C423.694 236.736 419.894 243.175 416.094 249.614C415.566 250.564 415.566 251.303 416.199 252.253C426.544 268.403 436.572 284.87 447.55 300.703C451.244 306.087 450.4 310.731 448.816 315.587C447.655 319.07 446.072 322.554 444.594 325.931C443.116 329.309 440.477 331.315 437.311 332.793C423.377 339.548 409.338 346.304 395.51 353.271C377.46 362.454 359.621 371.849 341.676 381.138C340.832 381.56 340.409 382.088 339.882 382.932C328.904 402.144 318.031 421.355 307.053 440.566C306.631 441.2 306.209 441.833 305.787 442.466C302.831 447.428 302.831 447.428 297.659 444.683C286.47 438.772 275.281 432.966 264.092 426.949C261.875 425.788 260.292 425.683 257.969 426.949C238.547 438.033 219.019 449.011 199.596 460.094C198.119 460.939 196.746 461.994 195.374 462.944C193.685 464.106 192.418 463.789 190.624 462.628C183.657 458.089 180.702 450.489 176.479 443.944C158.112 415.972 140.168 387.471 122.012 359.076C120.956 357.493 119.69 356.015 118.951 354.221C116.523 348.626 111.667 345.987 106.706 343.348C95.4116 337.332 84.3281 331.209 73.0335 325.193C70.6057 323.926 69.6557 321.604 68.7057 319.387C68.0724 318.015 69.2335 317.381 70.2891 316.854C72.7169 315.692 74.828 316.431 77.0447 317.698C85.8059 322.659 94.6727 327.515 103.54 332.37C103.856 332.476 104.278 332.582 105.334 332.898ZM142.596 203.697C144.285 203.169 144.918 202.219 145.657 201.48C165.924 181.318 186.085 160.946 206.352 140.89C216.697 130.651 227.252 120.518 237.702 110.49C239.18 109.117 238.969 108.695 237.28 107.851C227.991 103.206 218.702 98.4562 209.624 93.6006C207.408 92.4395 206.352 92.7562 205.191 94.8673C202.024 100.567 198.752 106.267 195.374 111.968C187.141 126.323 178.802 140.573 170.463 154.929C163.074 167.702 155.579 180.368 148.296 193.141C146.396 196.413 144.179 199.58 142.596 203.697ZM367.749 175.196C367.643 175.302 367.432 175.513 367.326 175.618C369.121 178.363 370.81 181.213 372.604 183.957C385.377 203.908 398.149 223.858 410.816 243.808C411.977 245.603 412.505 245.708 413.455 243.808C419.471 232.936 425.594 222.063 431.716 211.191C433.194 208.658 432.349 207.813 430.027 206.758C417.044 200.741 404.482 193.985 391.816 187.441C383.899 183.324 375.771 179.313 367.749 175.196ZM333.865 386.31C333.759 386.205 333.548 386.099 333.443 385.888C333.126 386.099 332.809 386.205 332.493 386.416C311.487 397.921 290.481 409.427 269.475 421.038C268.525 421.566 266.836 421.672 266.942 422.938C267.047 423.994 268.631 424.311 269.581 424.838C279.397 430.433 289.32 435.816 299.137 441.516C301.459 442.889 302.303 442.889 303.781 440.355C309.587 429.588 315.709 418.927 321.726 408.266C325.631 400.877 329.748 393.594 333.865 386.31ZM142.279 204.541C142.173 204.435 142.173 204.224 142.068 204.119C141.962 204.224 141.857 204.224 141.857 204.33C141.857 204.541 141.857 204.647 141.962 204.858C142.068 204.752 142.173 204.647 142.279 204.541Z" fill="#F5DF4D"/>
<path d="M333.97 248.453C334.393 247.397 332.915 246.975 332.598 246.342C330.804 242.225 327.109 240.325 324.048 237.58C321.937 235.68 322.887 232.936 323.731 230.614C324.576 228.502 326.265 227.025 328.587 226.602C329.854 226.391 331.12 226.919 331.437 228.291C331.648 229.136 332.281 229.452 332.704 229.98C335.87 234.308 340.937 234.625 345.371 236.102C348.009 237.053 350.332 238.425 352.971 239.269C353.921 239.586 354.554 240.219 355.715 239.797C356.454 239.48 357.721 240.008 357.721 240.853C357.932 243.069 359.621 242.858 360.993 243.069C362.26 243.28 363.632 243.28 364.899 243.597C368.276 244.336 369.015 245.286 367.432 248.453C365.532 252.464 363.632 256.475 361.098 260.064C360.043 261.542 358.882 262.808 356.876 261.331C355.398 260.169 354.026 261.858 352.443 261.436C347.587 259.958 342.943 258.164 337.77 258.164C336.398 258.164 335.237 256.475 335.132 255.525C335.026 253.308 333.759 251.197 333.97 248.453Z" fill="#D36480"/>
<path d="M354.765 278.114C354.66 280.648 353.815 282.231 352.443 283.603C350.543 285.609 348.537 287.509 346.743 289.62C346.215 290.253 345.476 290.464 345.054 290.253C343.154 289.092 341.254 289.937 339.565 290.464C336.82 291.309 335.659 289.514 334.393 288.037C333.548 287.087 333.865 285.925 335.132 285.187C337.243 283.814 337.559 281.809 336.293 279.803C335.343 278.22 335.976 277.375 337.137 276.531C338.615 275.264 339.987 273.997 341.043 272.414C342.098 270.831 343.682 270.409 345.476 271.464C347.904 272.836 350.226 274.209 352.76 275.37C354.132 276.003 354.871 276.953 354.765 278.114Z" fill="#D36480"/>
<path d="M155.051 356.437C154.418 355.699 153.468 354.96 153.151 354.01C150.09 344.932 147.346 335.748 144.179 326.67C135.629 301.653 126.656 276.847 118.423 251.725C113.462 236.63 109.556 221.219 105.228 205.913C105.123 205.597 104.912 205.28 104.806 204.858C108.078 202.641 111.245 204.858 114.412 205.069C120.745 205.702 127.079 206.863 133.412 207.813C140.696 208.974 147.979 210.241 155.262 211.402C162.018 212.458 168.668 213.619 175.424 214.78C183.024 216.152 190.624 217.524 198.224 218.897C206.458 220.375 214.797 221.852 223.03 223.436C234.008 225.441 245.091 227.552 256.069 229.664C262.192 230.825 268.314 231.986 274.436 233.252C275.914 233.569 277.286 234.097 278.342 234.414C278.025 235.997 277.603 237.158 277.603 238.425C277.181 249.192 276.864 259.958 276.442 270.725C276.231 276.742 275.703 282.653 275.281 288.67C275.175 289.725 274.753 290.675 274.436 292.048C286.259 287.931 294.386 294.687 302.514 301.231C302.409 301.442 302.303 301.759 302.198 301.97C295.336 299.226 288.475 296.481 281.614 293.737C281.509 293.948 281.403 294.264 281.297 294.475C285.52 297.853 290.481 300.598 293.859 305.981C276.653 296.164 283.62 296.059 259.658 294.475C263.669 291.52 267.997 290.992 272.431 291.309C272.114 289.62 271.797 288.142 271.375 286.453C270.953 287.298 270.425 288.142 270.003 288.987C269.792 288.987 269.475 288.881 269.264 288.881C268.842 273.997 269.369 259.219 270.003 244.019C216.169 234.941 163.285 220.902 108.712 210.663C109.767 213.83 110.612 216.152 111.351 218.369C115.995 232.197 120.745 245.919 125.284 259.747C130.668 276.214 136.051 292.681 141.329 309.148C145.129 321.181 148.823 333.215 152.412 345.248C153.785 349.154 154.207 352.848 155.051 356.437ZM275.175 243.703C275.492 241.169 275.703 238.636 276.02 235.786C264.725 233.78 253.853 231.88 243.086 229.875C234.641 228.397 226.197 226.708 217.752 225.336C208.358 223.858 198.857 222.802 189.357 221.113C177.007 219.002 164.657 216.68 152.307 214.252C141.646 212.247 131.09 210.03 120.429 207.919C115.89 206.969 111.245 206.124 106.495 205.174C107.867 206.969 107.656 209.713 110.506 210.136C113.145 210.558 115.784 210.874 118.317 211.297C128.029 212.88 137.74 214.147 147.346 216.047C169.407 220.269 191.363 224.808 213.319 229.241C231.158 232.83 248.997 236.419 266.731 240.219C269.792 241.064 272.431 242.647 275.175 243.703C272.642 243.597 271.586 244.547 271.692 247.292C271.903 257.108 271.797 267.031 271.797 276.847C271.797 277.692 271.797 278.431 271.797 279.275C272.536 276.109 272.747 273.047 272.958 269.986C273.17 267.136 273.381 264.286 273.592 261.436C274.12 255.525 274.647 249.614 275.175 243.703Z" fill="#1A1A1A"/>
<path d="M335.976 254.786C335.237 253.625 334.498 252.569 333.759 251.408C330.698 246.447 327.531 241.486 324.576 236.525C324.048 235.68 323.626 234.519 323.731 233.675C324.048 231.036 324.681 228.502 325.315 225.969C325.42 225.336 325.737 224.597 326.265 224.386C329.537 222.486 340.304 223.647 343.998 226.708C338.826 226.391 334.392 226.18 329.853 225.969C329.748 226.18 329.642 226.497 329.537 226.708C341.57 233.991 353.92 240.641 368.487 241.591C368.698 241.38 368.804 241.064 369.015 240.853C365.743 238.53 362.576 236.208 359.198 233.991C357.087 232.619 354.765 231.669 352.654 230.508C350.754 229.452 349.065 227.975 346.954 230.297C346.531 230.825 344.843 230.191 343.787 229.769C347.693 227.341 350.332 224.175 351.915 220.163C353.182 216.786 352.443 214.991 349.593 212.88C345.793 210.135 341.887 207.602 338.404 204.541C333.337 200.108 331.226 194.091 330.487 187.441C329.009 174.563 332.598 163.057 339.459 152.501C344.843 144.268 352.337 139.096 362.154 137.829C368.171 137.09 375.243 139.94 377.882 148.701C381.365 160.207 379.782 171.185 370.704 179.946C366.482 184.063 361.098 185.646 355.187 184.802C351.915 184.38 347.798 180.157 347.587 176.252C347.165 169.391 351.282 163.268 355.715 162.107C358.987 161.263 362.048 161.79 363.421 164.113C365.215 167.174 365.321 170.868 363.421 173.402C362.576 174.563 361.309 175.935 359.726 174.035C359.304 173.507 359.093 172.768 358.776 172.135C359.409 172.029 360.043 171.924 360.676 171.818C360.993 171.713 361.521 171.502 361.521 171.291C361.626 169.391 362.048 167.279 361.415 165.59C360.782 164.007 358.882 164.007 356.982 164.535C352.337 165.802 348.854 172.663 350.437 177.835C351.387 180.896 356.032 182.796 359.937 181.741C368.276 179.418 373.237 173.824 375.454 165.59C376.615 161.052 377.037 156.407 375.876 151.868C373.765 143.212 367.01 139.623 358.143 142.685C348.431 145.957 342.52 153.24 338.298 162.107C335.026 168.968 333.442 176.252 333.442 183.852C333.442 193.88 337.665 201.585 346.215 206.863C347.376 207.602 348.643 208.341 349.804 209.185C357.087 213.83 356.559 219.213 351.915 225.441C351.704 225.758 351.493 225.969 351.07 226.497C353.92 227.975 356.876 229.241 359.515 230.93C362.998 233.252 366.376 235.997 369.543 238.741C371.654 240.536 371.971 242.753 370.493 245.392C367.748 250.247 365.215 255.208 362.682 260.17C360.676 263.97 359.515 264.497 355.398 263.442C349.065 261.753 342.837 259.853 336.081 260.486C333.97 260.697 331.753 261.014 329.642 261.542C328.692 261.753 327.848 262.808 327.003 263.442C327.953 264.603 328.798 266.292 329.959 266.714C332.598 267.558 335.554 267.664 338.298 267.981C342.837 268.508 354.765 273.047 357.298 277.798C356.032 277.798 354.976 278.114 354.448 277.798C347.165 272.836 339.037 270.936 330.381 270.303C325.737 269.986 323.414 267.453 323.52 263.02C323.52 260.908 324.576 259.642 326.265 259.114C328.903 258.269 331.648 257.425 334.498 257.108C343.259 256.369 351.915 257.531 360.254 261.225C362.893 255.947 365.426 250.669 368.171 245.075C352.337 243.597 339.67 235.469 326.898 226.813C326.476 229.558 325.315 232.619 325.737 235.469C326.053 237.369 328.587 238.847 330.065 240.536C333.126 244.125 335.659 247.925 336.715 252.464C336.82 253.097 336.82 253.731 336.82 254.364C336.504 254.575 336.292 254.681 335.976 254.786Z" fill="#1A1A1A"/>
<path d="M329.642 289.514C330.276 292.575 328.376 293.525 326.476 294.37C322.887 295.848 319.403 294.792 316.448 293.103C310.748 289.831 305.364 286.137 300.298 282.97C301.353 286.137 304.098 288.987 307.475 291.203C310.009 292.892 312.648 294.264 315.287 295.637C318.031 297.009 320.881 297.431 323.837 295.953C325.631 295.109 327.742 294.476 329.431 296.587C335.342 304.081 343.576 305.981 352.548 305.876C353.921 305.876 355.187 305.876 356.559 305.876C356.665 305.876 356.876 305.981 356.982 306.087C350.543 309.887 328.059 306.826 327.109 296.692C323.942 299.859 320.037 300.492 316.131 298.909C309.587 296.27 303.148 293.209 299.136 287.087C297.553 284.659 297.236 281.492 296.181 278.642C295.864 277.586 295.547 276.425 294.914 275.581C291.853 271.359 289.953 266.608 289.425 261.436C289.109 258.375 290.27 255.525 292.697 253.308C294.07 252.042 294.703 250.458 295.336 248.558C296.392 245.18 298.186 241.803 300.298 238.953C302.62 235.891 306.209 236.419 309.375 240.325C305.998 238.214 303.253 238.003 301.564 241.064C300.192 243.597 298.82 246.342 298.609 249.192C298.186 254.892 300.825 259.958 304.414 264.181C308.637 269.247 313.176 274.103 317.82 278.748C320.881 281.703 324.365 284.236 329.115 284.025C331.12 283.92 332.915 283.603 333.654 281.386C334.287 279.275 334.92 277.481 332.387 276.003C331.331 275.37 330.909 273.786 330.592 272.097C333.442 275.686 336.292 275.475 339.143 272.414C339.881 275.264 339.248 277.059 336.715 277.903C338.615 282.02 337.876 283.92 333.02 287.298C335.659 287.825 337.665 288.459 339.67 288.564C341.359 288.67 343.048 288.037 344.737 287.931C347.693 287.614 349.382 286.031 350.12 283.075C350.332 282.02 351.176 281.175 352.126 280.225C350.332 284.553 350.648 288.881 352.759 292.575C355.293 296.903 360.359 296.587 364.687 297.431C359.515 301.548 349.487 297.326 348.009 290.887C345.159 290.887 342.415 290.887 339.776 290.887C339.248 290.887 338.509 291.098 338.087 290.887C331.754 286.981 323.309 288.142 317.714 282.548C312.964 277.798 308.425 273.047 303.781 268.192C299.664 263.97 296.814 259.008 295.653 252.992C292.486 256.475 292.17 260.169 293.331 264.603C295.442 272.625 300.509 278.642 306.525 283.814C309.692 286.453 313.492 288.353 317.187 290.359C320.776 292.259 324.47 292.892 327.953 289.937C328.27 289.62 328.903 289.725 329.642 289.514Z" fill="#1A1A1A"/>
<path d="M137.951 370.054C137.107 368.26 135.945 366.571 135.418 364.776C129.823 345.776 124.44 326.67 118.845 307.67C114.306 292.153 109.556 276.742 104.806 261.225C101.745 251.197 98.3671 241.169 95.4116 231.141C93.7226 225.336 92.3504 219.425 91.4004 213.302C92.6671 216.574 94.1449 219.741 95.2004 223.013C100.795 239.903 106.601 256.792 111.878 273.786C120.429 301.337 128.556 328.993 136.895 356.649C137.845 360.026 138.584 363.404 139.323 366.782C139.534 367.732 139.323 368.788 139.323 369.843C138.901 369.738 138.373 369.949 137.951 370.054Z" fill="#1A1A1A"/>
<path d="M259.869 296.587C258.708 299.542 257.547 302.392 256.28 305.348C253.325 312.209 251.53 319.387 250.686 326.776C250.475 328.359 251.108 330.154 251.847 331.632C253.43 334.798 255.33 337.754 256.703 340.287C258.919 334.27 261.453 327.937 263.669 321.498C264.936 317.698 265.675 313.687 266.731 309.887C266.942 309.148 267.575 308.198 268.208 307.881C268.631 307.67 269.475 308.62 270.214 309.042C270.847 309.465 271.586 310.098 272.325 309.992C279.503 309.676 286.786 309.253 293.964 308.937C294.598 308.937 295.231 309.253 295.97 309.359C295.97 309.676 295.97 309.992 295.97 310.309C293.753 310.731 291.537 311.259 289.32 311.576C285.414 312.104 281.614 312.948 277.709 312.737C273.803 312.631 271.481 314.637 269.792 317.381C265.358 324.454 262.297 332.265 260.608 340.393C259.658 344.932 261.981 348.837 264.619 352.426C265.147 353.165 266.625 353.376 267.681 353.693C268.631 354.01 269.686 354.115 270.742 354.221C268.736 358.865 263.669 357.81 261.242 353.799C259.764 351.265 258.919 348.415 257.653 345.776C257.336 345.037 256.808 344.087 256.175 343.665C248.68 338.387 245.83 330.998 248.047 321.709C250.053 313.265 253.114 305.242 257.442 297.748C257.864 297.009 258.708 296.376 259.342 295.742C259.236 296.164 259.553 296.376 259.869 296.587Z" fill="#1A1A1A"/>
<path d="M141.223 340.287C127.712 297.22 112.09 254.892 100.162 211.297C100.373 211.191 100.584 211.086 100.901 210.98C102.062 213.83 103.223 216.68 104.278 219.636C109.873 235.891 115.467 252.147 121.062 268.297C125.706 281.598 130.562 294.898 134.784 308.303C137.845 318.015 139.851 327.937 142.279 337.754C142.49 338.387 142.279 339.232 142.279 339.971C141.857 340.076 141.54 340.182 141.223 340.287Z" fill="#1A1A1A"/>
<path d="M138.479 371.532C142.384 371.954 146.185 372.482 150.09 373.01C155.368 373.643 160.54 374.382 165.818 375.121C172.046 375.965 178.379 376.704 184.607 377.654C190.413 378.499 196.113 379.449 201.919 380.293C210.152 381.56 218.28 382.932 226.513 384.199C233.269 385.254 240.13 386.204 246.886 387.26C247.941 387.366 248.997 387.471 249.947 387.893C250.791 388.316 252.058 389.055 252.058 389.688C252.058 391.482 250.686 392.116 249.103 391.799C243.93 390.955 238.758 390.005 233.691 389.16C224.508 387.682 215.324 386.31 206.141 384.832C197.485 383.46 188.724 381.982 180.068 380.399C169.513 378.499 158.957 376.493 148.401 374.488C145.023 373.854 141.751 373.115 138.373 372.482C138.373 372.165 138.479 371.849 138.479 371.532Z" fill="#1A1A1A"/>
<path d="M354.976 308.303C356.032 311.681 357.087 315.059 358.143 318.437C358.565 320.02 359.515 320.865 361.098 321.709C368.699 325.615 376.193 329.732 383.688 333.954C384.743 334.587 385.588 335.643 386.327 336.593C372.076 328.148 356.454 322.87 341.148 316.959C326.265 311.259 311.909 304.398 298.398 295.848C293.542 292.787 293.436 292.787 292.698 290.992C295.442 289.62 297.764 290.675 300.192 292.048C308.637 296.798 316.87 301.864 325.526 306.192C335.448 311.048 345.687 315.27 356.032 319.809C356.032 315.587 351.598 312.526 353.709 308.515C354.026 308.409 354.554 308.303 354.976 308.303Z" fill="#1A1A1A"/>
<path d="M155.051 356.543C170.885 351.476 186.824 346.41 202.657 341.448C215.324 337.543 228.097 333.743 240.764 329.943C241.925 329.626 243.297 329.626 244.564 329.52C244.669 329.837 244.88 330.259 244.986 330.576C242.769 331.737 240.658 333.426 238.336 334.165C219.863 339.865 201.285 345.143 182.813 350.948C169.513 355.065 156.107 359.182 143.757 365.726C143.018 366.149 142.173 366.254 141.434 366.571C141.223 366.254 141.118 366.043 140.907 365.726C142.912 364.249 144.812 362.665 146.923 361.399C149.562 359.604 152.307 358.021 155.051 356.543C155.051 356.437 155.051 356.543 155.051 356.543Z" fill="#1A1A1A"/>
<path d="M327.531 342.926C322.148 348.521 315.392 349.576 308.214 348.943C297.025 347.887 294.07 344.932 284.358 336.276C281.192 338.915 278.025 341.554 274.964 344.193C274.436 344.615 274.225 345.459 274.014 346.093C273.064 348.626 272.114 351.16 270.531 353.587C270.636 352.637 270.531 351.793 270.742 350.843C272.219 342.609 273.803 334.376 275.281 326.248C275.703 323.82 275.703 323.82 278.975 324.243C277.603 330.576 276.231 336.804 274.858 343.559C277.708 340.498 280.347 337.648 283.197 334.587C282.036 331.948 279.82 329.415 280.242 326.248C280.558 326.143 280.77 326.037 281.086 325.931C281.72 326.987 282.247 327.937 282.881 328.993C289.109 338.598 297.236 345.037 309.375 345.354C314.97 345.46 320.248 344.721 324.998 341.343C326.581 339.759 327.531 341.026 327.531 342.926Z" fill="#1A1A1A"/>
<path d="M327.426 343.032C328.165 343.137 329.115 342.926 329.431 343.348C337.348 353.06 345.265 362.771 352.971 372.588C357.721 378.604 361.837 385.043 366.587 391.06C370.071 395.494 374.188 399.399 377.882 403.727C378.621 404.571 379.36 406.577 379.043 406.894C377.565 408.371 376.088 407.421 375.032 406.049C368.487 398.027 361.732 390.005 355.504 381.771C347.27 371.004 339.354 359.921 331.331 349.048C329.748 347.043 328.692 344.932 327.426 343.032C327.531 342.926 327.426 343.032 327.426 343.032Z" fill="#1A1A1A"/>
<path d="M155.79 361.61C159.801 362.454 163.074 363.193 166.346 363.721C187.352 367.099 207.83 372.904 228.519 377.971C234.536 379.449 240.658 380.61 246.675 382.193C247.625 382.404 249.208 383.777 249.103 384.199C248.68 385.888 247.308 385.466 245.83 385.149C223.663 379.343 201.391 373.538 179.224 367.838C171.835 365.938 164.446 364.249 157.057 362.454C156.846 362.349 156.635 362.138 155.79 361.61Z" fill="#1A1A1A"/>
<path d="M254.697 388.527C256.175 387.049 257.336 385.36 259.025 384.199C270.636 375.543 282.353 366.993 293.964 358.443C296.603 356.543 299.137 354.537 301.775 352.848C303.148 352.004 304.837 351.687 307.159 350.948C305.153 355.593 301.987 358.021 298.714 360.132C290.059 365.832 281.192 371.427 272.642 377.232C267.258 380.821 262.192 384.727 257.019 388.421C256.491 388.738 255.964 388.949 255.33 389.266C255.119 388.949 254.908 388.738 254.697 388.527Z" fill="#1A1A1A"/>
<path d="M367.01 257.847C367.748 258.586 368.804 259.219 369.015 259.958C369.965 263.758 371.232 267.664 371.232 271.57C371.232 276.214 373.765 279.17 376.299 282.336C384.321 292.259 392.132 302.287 398.254 313.476C399.732 316.115 401.21 318.859 402.688 321.498C402.477 321.604 402.266 321.815 402.054 321.92C401.316 321.076 400.471 320.337 399.838 319.493C391.182 307.67 382.843 295.531 373.66 283.92C369.754 279.064 367.96 274.209 367.854 268.192C367.854 264.92 366.693 261.753 366.06 258.481C366.376 258.375 366.693 258.058 367.01 257.847Z" fill="#1A1A1A"/>
<path d="M363.843 208.552C361.943 209.185 360.571 208.024 359.832 206.124C357.298 199.685 361.626 192.296 368.487 191.452C373.449 190.819 377.143 194.513 376.51 199.791C375.982 203.591 374.399 206.758 370.81 207.813C367.432 208.869 364.476 206.758 364.476 203.38C364.476 200.952 366.799 199.263 369.015 200.108C369.543 200.319 370.282 201.374 370.071 201.691C369.86 202.324 369.015 202.747 368.382 203.063C367.96 203.274 367.326 203.274 366.799 203.38C367.432 204.013 368.065 204.963 368.804 205.069C371.021 205.28 374.082 201.585 374.188 198.63C374.293 196.413 372.288 194.935 369.226 194.724C363.632 194.302 360.36 199.052 361.204 204.224C361.415 205.808 362.893 207.074 363.843 208.552Z" fill="#1A1A1A"/>
<path d="M299.453 352.848C284.042 363.088 268.525 373.01 252.797 382.827C252.586 382.616 252.48 382.299 252.269 382.088C253.642 381.138 254.908 380.082 256.28 379.132C257.653 378.182 259.025 377.232 260.397 376.177C272.114 368.154 283.831 360.026 295.653 352.004C296.498 351.476 297.659 351.476 298.714 351.16C299.031 351.793 299.242 352.321 299.453 352.848Z" fill="#1A1A1A"/>
<path d="M324.153 258.481C317.82 254.047 314.126 247.925 313.387 240.641C312.964 236.419 315.287 232.725 318.665 230.191C319.826 229.347 321.726 229.452 323.309 229.241C323.415 229.452 323.52 229.769 323.626 229.98C322.359 231.036 320.987 231.88 319.931 233.041C316.026 237.158 316.553 242.647 319.298 247.819C320.881 250.88 322.465 254.047 323.942 257.214C324.153 257.531 324.048 258.058 324.153 258.481Z" fill="#1A1A1A"/>
<path d="M103.012 204.435C101.323 208.341 98.3672 210.874 94.2504 212.036C93.3004 212.247 92.1393 211.508 91.0837 211.297C91.6115 210.558 92.0338 209.713 92.6671 209.185C94.2504 207.919 95.8338 206.758 97.5227 205.808C99.1061 204.963 100.795 204.33 102.484 203.591C102.695 203.908 102.906 204.224 103.012 204.435Z" fill="#1A1A1A"/>
<path d="M201.919 283.392C207.091 283.709 212.263 282.759 217.33 281.703C218.597 281.386 219.652 280.648 220.813 280.014C221.447 279.592 221.763 279.17 222.502 279.909C223.452 280.859 222.502 281.281 221.974 281.703C218.702 284.553 214.585 285.292 210.574 285.609C205.191 286.031 199.596 286.137 194.213 285.609C187.141 284.975 180.174 283.603 173.313 281.492C170.463 280.542 167.507 279.803 165.29 277.375C175.74 279.592 186.085 282.759 196.852 282.759C198.646 282.548 200.23 283.814 201.919 283.392Z" fill="#1A1A1A"/>
<path d="M215.113 167.596C213.213 162.213 211.63 160.629 208.674 160.946C205.613 161.263 202.869 163.69 202.763 166.224C202.552 169.496 205.613 172.768 210.469 174.352C207.83 175.513 204.874 174.246 202.552 170.868C200.23 167.49 200.546 163.374 203.185 160.735C205.824 158.201 210.68 157.779 213.53 159.89C216.063 161.579 216.591 164.113 215.113 167.596Z" fill="#D36480"/>
<path d="M224.93 192.085C222.502 189.341 223.558 186.913 224.613 184.485C225.669 182.057 227.358 180.791 230.208 180.896C232.53 181.002 233.797 182.374 234.641 184.274C235.38 185.963 234.747 187.335 233.902 188.496C233.269 189.446 232.108 190.924 231.052 190.185C229.997 189.552 231.475 188.496 231.791 187.652C232.213 186.385 233.058 185.224 231.686 184.063C230.313 182.902 228.836 182.902 227.569 183.957C225.036 185.963 224.402 188.707 224.93 192.085Z" fill="#D36480"/>
<path d="M220.813 109.751C219.758 108.906 220.497 107.851 220.708 106.901C221.447 104.895 222.502 102.89 223.136 100.884C223.98 97.9284 225.352 98.3507 227.252 99.8285C228.202 100.567 229.152 101.412 230.208 102.045C231.369 102.784 232.53 103.417 232.213 105.106C231.897 106.795 230.525 107.006 229.258 107.429C229.047 107.534 228.73 107.534 228.519 107.64C228.413 107.429 228.202 107.217 228.202 107.112C228.625 106.162 229.575 104.79 229.363 104.579C228.413 103.417 227.041 102.679 225.774 101.834C225.141 101.306 224.824 101.728 224.508 102.362C223.347 104.79 222.08 107.217 220.813 109.751Z" fill="#D36480"/>
<path d="M179.013 112.39C177.852 110.806 176.69 109.54 174.685 110.173C173.313 110.595 172.363 111.44 172.151 112.918C171.94 115.029 172.679 116.823 174.263 118.195C175.424 119.251 177.324 119.145 178.168 120.834C171.729 120.834 169.513 115.873 170.463 111.018C170.885 108.801 173.946 106.901 175.951 107.323C178.696 107.956 179.013 109.962 179.013 112.39Z" fill="#D36480"/>
<path d="M255.119 54.7556C254.064 54.2279 254.064 53.8056 253.958 53.2778C253.43 51.6945 253.114 49.6889 250.686 50.4278C248.258 51.1667 247.097 53.5945 247.625 55.9168C248.047 57.7112 249.841 58.7668 249.947 60.7724C246.569 58.8724 244.775 54.8612 246.147 51.8001C247.097 49.5834 248.68 48 251.319 48C254.486 48 255.225 48.7389 255.225 51.8001C255.119 52.7501 255.119 53.5945 255.119 54.7556Z" fill="#D36480"/>
<path d="M221.869 218.263C226.302 216.68 222.713 213.619 223.558 210.98C221.235 212.774 219.124 214.252 217.119 215.836C216.908 215.624 216.696 215.308 216.485 215.097C218.808 212.774 221.024 210.452 223.452 208.341C224.085 207.813 224.93 208.024 225.247 209.291C225.88 212.036 225.88 214.78 225.774 217.524C225.563 219.636 224.402 219.847 221.869 218.263Z" fill="#D36480"/>
<path d="M186.402 230.402C183.446 231.564 181.863 229.98 180.385 228.819C178.274 227.13 176.69 224.808 177.007 222.063C177.218 219.424 178.802 217.313 181.44 216.469C183.552 215.73 185.241 216.786 185.874 219.424C184.291 218.897 182.813 217.947 181.018 218.897C179.857 219.53 179.118 220.48 178.696 221.641C177.64 224.702 180.596 228.291 186.402 230.402Z" fill="#D36480"/>
<path d="M207.619 259.536C210.258 258.164 212.58 258.375 213.635 260.169C214.48 261.647 213.53 264.708 211.841 265.87C209.624 267.453 207.408 267.136 205.719 265.342C204.874 264.286 204.874 263.231 205.296 262.175C205.507 261.647 206.141 261.331 206.774 261.542C207.408 261.753 207.302 262.175 207.091 262.597C206.563 263.97 207.724 264.814 208.569 264.708C209.941 264.497 211.63 264.075 211.946 262.175C212.158 260.697 210.891 260.592 209.941 260.381C208.991 260.275 208.041 260.486 207.619 259.536Z" fill="#D36480"/>
<path d="M223.663 308.515C223.98 300.281 224.297 292.153 224.508 284.025C224.508 283.498 224.402 282.864 225.352 282.864C226.408 282.864 226.302 283.603 226.302 284.237C226.408 289.303 225.88 294.37 225.247 299.542C224.93 301.759 224.508 303.976 224.508 306.298C224.613 307.037 224.93 307.987 223.663 308.515Z" fill="#1A1A1A"/>
<path d="M193.474 214.252C193.896 209.924 194.213 206.441 194.741 202.852C194.952 201.48 196.218 202.008 196.957 202.641C199.174 204.33 201.285 206.019 203.502 207.708C204.135 208.235 204.663 208.763 204.241 209.608C203.819 210.452 202.869 210.663 202.024 210.663C200.441 210.452 201.602 209.713 201.813 209.185C202.024 208.552 201.391 208.658 201.18 208.447C199.491 207.074 197.802 205.702 196.007 204.224C194.846 207.285 195.163 210.558 193.474 214.252Z" fill="#D36480"/>
<path d="M201.919 283.392C200.124 283.814 198.646 282.548 196.852 282.759C195.691 279.698 198.224 277.903 198.857 275.159C200.863 276.953 202.552 278.431 204.135 280.014C204.663 280.542 205.824 281.07 205.402 282.02C205.085 282.97 204.03 282.864 203.185 282.864C202.657 282.864 202.235 282.864 201.919 283.392ZM198.119 280.964C199.596 280.964 200.969 280.964 202.657 280.964C201.496 279.592 200.441 278.536 199.491 277.481C198.646 278.431 198.541 279.698 198.119 280.964Z" fill="#D36480"/>
<path d="M258.18 155.14C256.597 156.935 255.436 158.307 254.169 159.574C253.852 159.89 253.325 160.418 252.691 159.785C251.952 159.046 252.797 158.835 253.114 158.413C254.486 156.935 255.964 155.668 257.125 153.979C257.969 152.713 259.236 152.818 260.08 154.296C260.819 155.774 261.453 157.463 262.191 158.94C262.614 159.785 262.508 160.524 261.875 161.052C261.136 161.79 260.186 161.263 259.553 160.84C258.075 159.996 259.869 159.89 259.869 159.468C259.869 158.096 258.814 157.146 258.18 155.14Z" fill="#D36480"/>
<path d="M173.207 304.714C172.046 301.864 170.885 299.014 169.829 296.059C168.985 293.631 168.14 291.203 167.085 288.881C166.874 288.459 165.924 287.192 166.979 286.664C167.929 286.242 168.246 287.403 168.668 287.931C170.568 291.309 171.94 294.898 172.679 298.698C173.101 300.598 173.418 302.498 173.84 304.398C173.735 304.609 173.524 304.609 173.207 304.714Z" fill="#1A1A1A"/>
<path d="M195.585 244.125C195.269 243.597 194.846 243.175 194.846 242.753C194.635 240.958 193.58 240.536 192.102 240.853C190.413 241.275 189.885 242.647 190.202 244.125C190.624 245.708 191.046 247.397 192.418 248.664C192.735 248.98 192.735 249.508 193.052 250.036C188.83 247.819 187.352 242.014 190.307 239.691C191.68 238.636 193.263 237.791 194.952 239.058C196.43 240.219 196.641 241.697 195.585 244.125Z" fill="#D36480"/>
<path d="M176.902 292.892C180.279 295.109 181.124 298.17 181.335 301.231C181.44 302.287 182.813 303.448 181.335 304.503C180.702 303.553 179.963 302.709 179.435 301.653C178.274 299.014 176.479 296.481 176.902 292.892Z" fill="#1A1A1A"/>
<path d="M173.102 173.718C171.624 170.763 172.468 167.913 171.413 165.485C171.413 165.379 171.413 165.274 171.518 165.274C173.418 164.218 175.002 165.485 176.69 165.802C177.852 166.013 178.59 166.54 178.485 167.913C178.379 168.652 178.063 169.285 177.429 169.496C176.268 170.024 177.007 168.652 176.479 168.44C175.424 167.807 174.263 166.857 173.102 167.385C172.257 167.807 172.679 169.074 172.996 170.024C173.524 170.974 173.418 172.029 173.102 173.718Z" fill="#D36480"/>
<path d="M216.697 242.014C215.113 240.958 214.163 240.008 213.53 238.741C212.897 237.686 212.263 236.947 211.208 238.636C210.258 240.114 209.308 241.697 207.302 242.436C208.674 240.114 209.941 237.58 211.63 235.364C212.474 234.308 213.741 235.047 214.48 236.103C215.535 237.791 216.169 239.691 216.697 242.014Z" fill="#D36480"/>
<path d="M178.274 206.335C176.585 204.541 176.479 202.324 175.74 200.424C175.529 199.896 175.529 199.158 176.268 198.946C177.957 198.524 179.224 199.58 180.385 200.424C181.546 201.374 180.913 202.747 179.963 203.38C178.696 204.013 178.59 205.069 178.274 206.335Z" fill="#D36480"/>
<path d="M187.035 263.125C186.613 261.014 186.085 259.008 185.874 256.897C185.768 255.631 186.824 255.631 187.668 256.158C188.724 256.686 189.78 257.425 190.941 257.953C191.68 258.375 192.735 258.586 192.102 259.747C191.574 260.697 190.835 260.169 190.096 259.853C189.357 259.536 188.724 259.219 187.985 258.903C187.246 260.275 188.196 261.647 187.035 263.125Z" fill="#D36480"/>
<path d="M188.83 321.709C187.035 322.237 185.557 323.187 183.763 322.026C183.024 321.604 182.707 320.865 182.813 320.337C182.918 319.704 183.552 319.598 184.396 320.02C185.874 320.654 187.563 320.443 188.83 321.709Z" fill="#1A1A1A"/>
<path d="M192.418 276.003C193.474 276.848 191.891 278.325 193.263 279.064C193.791 279.381 193.157 279.803 192.735 280.014C192.207 280.225 191.785 280.753 191.257 280.225C190.729 279.698 190.096 279.17 190.413 278.325C190.729 277.27 191.257 276.32 192.418 276.003Z" fill="#D36480"/>
<path d="M206.563 274.209C207.513 274.209 208.569 273.997 208.463 275.475C208.463 276.32 208.252 277.692 207.407 277.375C206.352 277.059 205.191 276.003 204.874 274.947C204.557 274.314 205.824 274.314 206.563 274.209Z" fill="#D36480"/>
<path d="M202.235 269.036C202.657 269.036 203.396 269.247 203.185 269.881C202.869 270.725 202.235 271.675 201.496 272.203C201.18 272.414 200.441 271.57 200.441 270.831C200.546 269.881 200.863 269.036 202.235 269.036Z" fill="#D36480"/>
<path d="M197.591 262.808C197.274 263.97 196.43 265.342 199.068 265.87C197.485 266.186 196.324 266.714 195.902 265.553C195.48 264.286 195.902 263.125 197.168 262.386C197.274 262.492 197.38 262.703 197.591 262.808Z" fill="#D36480"/>
<path d="M197.274 273.47C196.641 273.997 196.113 274.736 195.374 274.947C194.846 275.159 194.635 274.314 194.53 273.681C194.424 272.625 194.952 272.309 195.902 272.414C196.641 272.52 197.063 272.731 197.274 273.47Z" fill="#D36480"/>
<path d="M206.669 243.175C206.985 243.808 206.88 244.547 206.352 244.653C205.296 244.758 206.141 244.125 206.141 243.808C206.141 243.703 206.458 243.491 206.669 243.175Z" fill="#D36480"/>
<path d="M193.791 250.88C193.58 250.986 193.474 251.092 193.368 251.092C193.263 251.092 193.157 250.88 193.157 250.669C193.157 250.353 193.368 250.353 193.58 250.564C193.58 250.669 193.685 250.775 193.791 250.88Z" fill="#D36480"/>
<path d="M197.168 262.386C197.38 262.175 197.485 261.542 197.907 261.858C198.224 262.175 198.013 262.492 197.591 262.703C197.38 262.703 197.274 262.492 197.168 262.386Z" fill="#D36480"/>
</g>
<defs>
<clipPath id="clip0_902_5563">
<rect width="389.189" height="416" fill="white" transform="translate(61 48)"/>
</clipPath>
</defs>
</svg>
