<svg width="512" height="512" viewBox="0 0 512 512" fill="none" xmlns="http://www.w3.org/2000/svg">
<g clip-path="url(#clip0_902_5564)">
<path d="M62.2542 82.7585C62.2542 75.1471 63.2229 73.6248 69.0353 73.9015C80.5216 74.4551 92.008 74.7319 103.494 75.9774C107.646 76.3926 111.936 76.2542 116.226 76.6693C125.775 77.6381 135.462 77.6381 145.011 78.33C157.605 79.1604 170.06 80.2675 182.653 81.2362C186.943 81.513 191.095 81.513 195.385 81.9282C205.072 82.7585 214.898 82.8969 224.585 83.5888C235.795 84.5576 247.005 85.1111 258.214 85.9415C269.839 86.6334 281.325 87.4638 292.95 88.1557C304.436 88.8477 315.923 89.678 327.271 90.3699C339.034 91.2003 350.659 91.8922 362.422 92.5842C373.631 93.2761 384.841 93.6913 396.051 94.9368C400.202 95.352 404.769 94.1065 408.782 96.8743C409.751 97.5662 410.305 97.9814 410.305 99.0885C410.166 101.718 410.581 104.486 410.858 107.115C411.55 112.927 411.273 118.878 411.827 124.691C412.934 137.146 412.657 149.601 413.903 162.056C414.456 167.038 414.318 172.02 414.595 177.002C415.148 188.627 415.979 200.113 417.086 211.738C419.023 231.251 422.206 250.625 425.804 269.862C428.157 282.732 430.233 295.879 431.34 308.888C432.032 316.222 433.139 323.419 433.693 330.753C433.969 334.075 435.907 337.258 434.385 340.856C433.277 343.485 431.894 345.146 429.126 345.976C405.046 353.311 380.966 360.645 356.748 367.98C336.404 374.208 315.923 380.574 295.579 386.801C263.473 396.627 231.505 406.452 199.399 416.001C167.015 425.965 134.632 436.345 101.834 444.648C99.2043 445.34 96.1597 445.34 95.0526 448.8C94.499 450.322 93.2535 449.353 92.4231 448.385C90.2089 445.34 90.4857 441.742 90.3473 438.282C89.3786 426.242 88.5482 414.202 87.3027 402.162C86.4724 394.828 86.334 387.493 85.642 380.158C84.6733 369.226 83.5662 358.293 82.7359 347.36C82.4591 343.762 82.1823 340.164 81.9055 336.566C81.0752 324.387 80.1064 312.209 78.8609 300.031C78.0306 291.866 77.8922 283.562 77.2003 275.397C76.3699 264.464 75.2628 253.532 74.2941 242.599C74.0173 239.001 73.8789 235.403 73.6021 231.804C72.495 220.18 72.0798 208.693 71.1111 197.069C70.1424 183.783 69.312 170.359 68.2049 157.074C67.2362 143.788 66.1291 130.503 65.1603 117.079C64.4684 105.039 63.2229 92.9994 62.2542 82.7585Z" fill="#574AE2"/>
<path d="M462.201 296.986C462.893 301.415 460.402 305.151 458.88 308.888C457.634 312.071 455.143 312.209 452.652 309.718C447.393 304.597 446.009 297.955 444.902 291.174C442.826 277.888 440.75 264.603 438.951 251.317C437.706 241.63 436.876 231.943 435.768 222.394C434.523 212.015 433.277 201.635 432.17 191.256C431.202 182.953 430.648 174.649 429.818 166.346C428.987 158.043 427.88 149.739 426.911 141.574C426.22 135.762 425.804 129.949 425.251 124.137C424.836 119.709 424.282 115.28 423.867 110.852C423.867 110.298 423.729 109.883 423.729 109.329C423.867 108.222 423.037 106.7 424.974 106.285C426.773 106.008 427.188 106.977 427.603 108.637C429.264 116.526 431.063 124.414 432.724 132.302C437.014 153.337 441.442 174.234 445.456 195.269C449.331 216.166 453.759 236.925 457.08 257.822C459.018 269.585 460.402 281.348 462.201 293.249C462.478 294.357 462.201 295.602 462.201 296.986Z" fill="#574AE2"/>
<path d="M463.862 325.771C464.554 328.401 463.17 331.168 462.063 333.936C460.54 337.949 457.634 338.503 455.143 334.905C453.206 332.137 451.406 329.092 451.545 325.218C451.822 319.82 456.112 316.914 461.232 319.128C463.862 320.097 463.862 320.097 463.862 325.771Z" fill="#574AE2"/>
<path d="M53.2588 412.68C55.1963 415.863 58.656 413.51 61.7006 414.341C62.9461 414.617 63.9148 415.725 63.3613 417.247C61.4238 423.059 59.4864 428.733 57.4105 434.407C56.9953 435.653 55.6114 436.898 54.0892 435.514C52.1517 433.854 49.9375 432.055 49.5223 429.425C48.9687 425.273 48.1384 420.983 48.692 416.832C48.9687 414.479 49.6607 412.542 53.2588 412.68Z" fill="#D36480"/>
<path d="M435.907 80.5443C435.907 81.7898 436.045 83.0353 435.907 84.2808C435.353 88.1557 433.969 88.8477 430.786 86.495C429.818 85.8031 428.987 85.9415 428.019 86.0799C426.22 86.2183 424.836 85.3879 423.867 84.004C422.898 82.4817 422.76 80.6827 424.005 79.5755C427.742 76.2542 428.019 71.8257 428.572 67.3972C428.711 66.1517 429.126 65.0446 429.541 63.7991C430.095 62.4152 431.202 62.5536 432.447 62.5536C433.831 62.5536 434.523 63.2455 434.661 64.6294C435.215 69.8883 435.768 75.2855 436.322 80.5443C436.045 80.5443 435.907 80.5443 435.907 80.5443Z" fill="#D36480"/>
<path d="M250.188 260.866C250.188 265.572 246.728 270 243.13 270C239.808 270.138 235.933 265.572 235.933 261.697C236.072 257.96 240.224 254.777 244.79 254.915C247.973 255.054 250.326 257.545 250.188 260.866Z" fill="#D36480"/>
<path d="M222.094 261.005C227.353 261.005 229.291 262.942 229.152 268.201C229.014 271.937 226.385 275.397 223.617 275.397C219.465 275.397 214.76 270.415 214.76 265.848C214.76 262.389 216.836 261.005 222.094 261.005Z" fill="#D36480"/>
<path d="M199.952 268.478C204.519 268.478 206.456 270.138 206.318 274.152C206.318 278.303 203.412 282.178 200.506 282.04C197.599 281.902 194.278 277.611 194.278 274.152C194.416 270.277 196.077 268.478 199.952 268.478Z" fill="#D36480"/>
<path d="M133.11 380.02C133.525 377.806 135.601 377.806 137.123 377.252C142.382 374.9 148.194 374.9 153.73 374.208C158.712 373.654 163.694 372.824 167.984 369.779C168.953 369.087 170.198 368.534 170.198 367.426C170.198 366.181 168.676 366.043 167.707 365.489C162.033 362.998 155.806 363.136 149.717 362.86C140.583 362.583 131.311 362.721 122.177 362.721C121.208 362.721 119.963 363.136 119.271 362.583C114.566 359.538 113.182 362.583 111.659 366.319C111.383 360.645 112.075 355.11 112.075 349.713C111.936 344.315 111.521 338.365 106.539 333.936C104.463 340.579 103.633 347.083 102.526 353.587C100.588 366.181 93.5303 367.703 84.1198 368.534C76.2315 369.226 68.3433 366.873 60.7319 365.351C58.7944 364.935 58.3792 365.351 57.8257 366.873C54.7811 376.422 52.7053 386.109 51.5981 396.212C51.183 400.225 51.7365 404.377 50.3526 408.39C49.7991 410.051 50.3526 411.019 52.5669 411.019C59.0712 410.743 65.5755 410.881 72.0798 411.573C75.678 411.988 78.5842 413.51 80.2448 416.001C84.6733 422.367 90.9009 425.412 99.481 422.921C101.003 422.506 103.079 421.399 103.633 423.198C104.186 424.72 101.834 425.55 100.45 426.242C93.9454 429.425 83.9814 426.934 79.6913 421.122C78.8609 420.015 78.169 418.908 77.2003 417.8C75.4012 415.725 73.7405 414.617 70.2808 415.309C64.33 416.417 58.1025 415.171 52.0133 414.341C50.3526 414.064 49.9375 414.202 50.0758 415.725C50.3526 420.568 50.491 425.412 50.9062 430.256C51.183 432.055 52.1517 434.269 53.5356 434.269C54.9195 434.407 55.8882 432.331 56.4418 430.809C58.1025 426.381 59.2096 421.814 62.5309 418.077C63.3613 423.474 60.7319 432.608 57.4105 436.621C54.9195 439.528 50.7678 438.697 49.3839 435.099C48.692 433.162 47.8616 431.086 47.8616 429.148C48 420.291 47.3081 411.434 48.2768 402.439C49.1071 394.689 49.6607 386.939 51.4597 379.328C52.7053 374.208 54.2275 369.226 56.3034 364.52C56.9953 362.86 57.6873 362.444 60.0399 362.583C69.8656 362.998 79.6913 365.351 89.3786 362.168C92.2848 361.199 94.6374 360.092 95.3293 356.217C96.7132 348.467 97.2668 340.579 99.6194 333.106C101.695 326.74 105.709 325.494 110.829 329.784C114.842 333.106 115.673 337.811 117.057 342.516C118.717 348.19 117.472 353.449 115.257 358.985C120.793 358.985 125.914 359.4 130.896 358.846C141.136 357.739 151.239 358.431 161.48 358.293C166.185 358.293 170.337 360.23 173.935 362.998C176.011 364.659 175.734 366.873 174.488 368.949C170.613 375.453 164.109 377.806 157.328 379.19C151.931 380.297 146.257 380.574 140.583 380.85C138.369 380.989 135.601 380.297 133.11 380.02Z" fill="#F5DF4D"/>
<path d="M132.971 380.02C133.248 381.266 134.217 380.85 135.047 380.989C140.168 382.234 141.69 387.216 138.369 391.23C136.708 393.305 135.324 394.274 132.141 395.796C134.494 398.841 138.784 401.194 136.293 406.176C134.355 410.051 130.757 411.435 127.021 412.126C127.021 413.51 127.989 413.372 128.543 413.649C131.034 414.894 132.556 416.693 132.418 419.738C132.279 422.782 130.48 424.858 127.713 425.827C120.101 428.733 112.905 426.657 106.124 422.921C104.325 421.952 104.048 419.738 104.463 417.939C105.017 416.001 106.677 415.448 108.615 415.725C109.722 415.863 110.829 415.448 111.798 416.14C111.936 418.077 109.86 417.939 109.168 419.046C114.289 422.229 120.378 423.613 125.775 422.506C127.159 422.229 128.82 421.952 129.235 420.153C129.512 418.631 128.82 417.385 127.851 416.14C124.806 411.988 120.101 412.818 115.949 411.988C111.106 411.019 108.615 408.528 108.892 404.515C109.168 400.917 113.597 396.904 117.472 396.904C117.887 396.904 118.579 396.765 118.579 397.457C118.579 397.872 118.302 398.287 118.025 398.703C116.78 400.087 115.534 401.47 114.289 402.854C112.905 404.515 113.32 405.899 115.396 406.591C120.655 408.252 125.914 408.39 131.034 406.452C133.663 405.345 133.94 403.269 132.418 400.917C130.619 398.149 128.405 396.765 124.806 396.627C120.931 396.488 116.641 396.488 114.427 392.198C112.628 388.739 115.119 383.757 119.409 382.649C123.838 381.681 128.266 379.882 132.971 380.02C133.11 380.02 132.971 380.02 132.971 380.02ZM125.36 391.506C129.235 391.506 132.556 390.814 134.079 389.431C135.047 388.6 136.708 387.908 136.154 386.248C135.739 384.864 134.632 384.31 133.248 383.757C129.373 382.511 120.655 385.14 118.579 388.323C117.61 389.846 118.579 390.538 119.824 390.676C121.762 390.953 123.561 392.06 125.36 391.506Z" fill="#F5DF4D"/>
<path d="M85.5037 407.144C87.8563 404.93 90.4857 404.1 92.6999 402.716C98.3739 399.533 103.079 395.381 104.463 388.462C104.601 387.493 104.601 386.663 105.847 386.939C107.231 387.216 106.677 388.047 106.539 389.015C105.847 393.167 103.633 396.765 100.865 399.948C99.7578 401.332 99.3426 401.886 101.28 402.578C101.972 402.854 102.802 403.546 102.802 404.515C102.802 405.345 103.079 406.314 102.11 406.868C100.865 407.56 100.588 406.452 100.311 405.76C98.9275 402.716 97.2668 402.716 94.6374 404.515C92.2848 406.452 89.517 407.975 85.5037 407.144Z" fill="#F5DF4D"/>
<path d="M102.526 310.41C95.7445 311.655 90.2089 309.164 84.3965 307.642C83.4278 307.365 82.7358 306.95 82.7358 305.981C82.8742 305.013 83.7046 304.459 84.6733 304.597C90.6241 305.843 97.1284 305.843 102.526 310.41Z" fill="white"/>
<path d="M109.584 307.089C107.508 299.2 109.03 292.004 111.383 284.946C111.521 284.531 111.521 283.977 111.798 283.562C112.351 282.732 112.49 280.933 113.874 281.486C115.119 282.04 113.874 283.147 113.735 283.977C112.351 290.343 111.106 296.709 110.552 303.075C110.414 304.321 109.999 305.566 109.584 307.089Z" fill="white"/>
<path d="M105.432 303.075C100.311 300.723 98.5123 296.294 96.2981 292.142C96.0213 291.589 95.0526 290.758 96.2981 289.928C97.2668 289.375 97.682 289.79 98.2355 290.343C101.557 293.941 104.463 297.678 105.432 303.075Z" fill="white"/>
<path d="M391.345 133.963C393.421 132.717 395.774 131.887 398.265 132.164C399.095 132.856 399.372 132.44 399.649 131.61C402.14 131.195 404.631 131.057 407.122 131.61C407.537 132.717 408.367 132.717 409.198 132.164C410.581 132.025 411.827 131.61 413.072 132.44C413.349 133.132 413.764 133.409 414.456 132.856C417.916 132.579 421.099 133.824 424.42 134.516C424.697 135.347 425.112 135.623 425.804 135.07C428.572 134.101 428.019 131.195 428.987 129.119C429.679 127.874 429.818 126.351 430.233 124.829C431.202 124.414 431.202 123.583 430.925 122.753C432.032 115.972 433.554 109.191 433.969 102.133C434.8 101.856 435.215 101.441 434.523 100.749C434.523 98.2581 434.108 95.6287 434.8 93.1377C435.63 92.8609 435.907 92.4457 435.353 91.7538C435.492 89.5396 434.661 88.7092 432.309 88.986C431.063 89.1244 429.956 88.8476 428.711 88.8476C427.05 88.8476 425.528 88.8476 423.867 88.8476C421.514 89.1244 419.162 89.2628 416.809 88.7092C416.394 87.8789 415.564 87.8789 414.872 88.0173C412.104 88.5708 409.613 88.4324 407.814 85.9414C407.537 85.1111 406.983 84.9727 406.291 84.9727C403.247 81.6513 400.479 77.9148 395.774 76.6693C395.359 75.839 394.528 75.839 393.836 75.9773C392.591 76.3925 391.484 76.3925 390.238 75.9773C389.408 75.9773 388.716 75.9773 388.301 76.6693C387.886 76.8077 387.332 76.9461 386.917 77.0845C385.256 77.4996 382.903 78.8835 382.35 77.0845C381.658 74.8702 384.426 74.0399 386.086 73.3479C388.993 72.2408 392.037 71.8257 395.082 72.7944C395.359 73.4863 395.774 73.7631 396.466 73.3479C402.001 73.9015 405.184 77.638 407.952 81.9281C407.952 83.4504 408.782 84.1423 410.305 84.1423C411.273 84.6959 412.104 85.5262 413.349 85.1111C419.854 83.312 426.358 85.1111 432.862 85.5262C433.139 86.3566 433.554 86.6334 434.246 86.0798C436.599 83.7272 434.8 80.6826 435.492 78.0532C436.045 77.3612 435.768 76.9461 435.076 76.6693C434.246 74.4551 434.661 72.1024 434.8 69.7498C435.353 69.0579 435.076 68.6427 434.246 68.3659C433.831 67.674 433.277 66.982 432.862 66.2901C431.755 64.7678 431.063 65.1829 430.51 66.8436C428.019 70.3034 428.019 74.8702 425.528 78.1916C424.697 78.33 424.559 79.0219 424.559 79.7139C424.282 80.2674 424.005 80.6826 423.729 81.2362C423.452 81.2362 423.037 81.2362 422.76 81.2362C421.791 77.0845 423.313 73.4863 425.112 69.8882C426.081 69.473 426.081 68.6427 425.804 67.8123C425.943 66.4284 426.911 65.5981 427.465 64.6294C428.572 62.6919 430.233 61.7232 432.309 61.8616C434.523 62.1384 435.63 63.799 436.184 65.8749C436.876 68.3659 437.567 70.8569 437.567 73.4863C437.429 81.0978 437.983 88.7092 437.291 96.3207C436.46 96.7358 436.46 97.5662 436.599 98.2581C437.429 102.41 436.045 106.562 435.768 110.575C434.938 110.99 435.076 111.82 435.076 112.512C435.492 113.343 435.492 114.173 435.076 115.003C434.246 115.418 434.246 116.249 434.385 116.941C434.661 119.432 433.416 121.646 432.862 123.999C432.032 124.414 432.032 125.244 432.17 125.936C431.617 129.396 430.371 132.717 428.849 135.9C428.434 136.73 428.157 137.838 426.773 137.561C426.358 136.73 425.528 136.73 424.836 136.869C421.929 137.146 419.162 137.284 416.255 136.869C415.564 135.762 414.456 136.039 413.488 136.177C408.506 136.454 403.524 136.73 398.542 136.869C397.711 136.73 397.019 136.73 396.604 137.561C391.76 138.53 389.823 141.851 389.408 146.418C389.131 148.909 388.716 151.538 388.439 154.029C387.609 154.444 387.609 155.275 387.747 155.967C387.747 160.534 386.778 164.962 384.979 169.252C383.595 172.712 380.966 173.265 377.229 171.605C375.292 170.774 373.631 169.529 372.524 167.591C372.524 166.761 372.386 166.208 371.417 165.931C370.448 165.1 370.31 163.855 370.033 162.748C370.172 161.917 370.31 161.087 369.203 160.672C368.788 159.15 367.681 157.766 368.234 155.967C368.788 155.275 368.373 154.86 367.681 154.583C366.573 149.739 367.819 145.311 369.895 141.021C371.14 140.329 371.417 139.222 371.556 137.838C371.694 136.73 372.247 135.762 373.078 134.931C373.908 135.347 373.908 136.177 374.047 137.007C374.185 140.052 374.6 143.235 373.77 146.279C373.078 146.833 373.078 147.525 373.216 148.217C373.631 149.186 373.631 150.154 373.216 151.123C373.216 151.815 373.078 152.645 373.908 153.061C374.323 153.891 374.323 154.721 374.047 155.552C374.047 156.382 374.047 157.074 374.738 157.489C375.707 160.118 376.399 162.886 378.475 164.824C378.752 165.239 379.029 165.654 379.582 165.377C380.136 164.962 379.997 164.27 379.859 163.717C380.966 157.351 382.073 150.846 383.319 144.48C384.011 141.159 384.979 137.976 387.47 135.485C388.301 135.485 388.854 135.347 389.131 134.378C389.269 134.239 389.546 134.101 389.685 133.963C390.377 134.931 391.068 134.793 391.345 133.963Z" fill="#F5DF4D"/>
<path d="M348.998 141.851C340.003 142.266 330.869 142.266 321.874 141.851C321.458 141.021 320.628 141.021 319.936 141.159C319.659 141.159 319.244 141.159 318.967 141.159C318.552 140.329 317.722 140.329 317.03 140.467C314.816 139.913 313.017 138.806 311.356 137.284C311.079 135.9 310.664 134.516 310.387 132.994C310.802 130.088 312.74 128.289 314.954 126.766C315.784 126.766 316.476 126.628 316.615 125.659C319.659 123.583 322.704 121.923 326.579 121.784C327.409 122.476 327.686 122.061 327.963 121.231C331.561 120.816 335.021 119.709 338.619 120.262C339.311 120.954 339.726 120.539 340.003 119.709C342.494 119.155 345.123 119.017 347.614 119.847C348.86 121.508 350.659 120.262 352.043 120.677C349.69 123.86 346.23 124.275 342.632 124.552C341.802 124.414 341.11 124.552 340.695 125.244C339.172 125.659 337.512 125.659 335.989 125.244C335.159 125.106 334.467 125.106 333.913 125.936C332.53 126.351 331.284 126.351 329.9 125.936C329.07 125.798 328.378 125.936 327.963 126.628C327.409 126.905 326.717 126.905 326.164 126.628C324.641 126.766 323.119 126.905 321.874 128.15C319.798 130.088 316.061 129.949 315.784 133.824C316.476 135.347 317.86 135.623 319.383 135.485C320.213 135.762 321.043 135.9 321.874 136.177C322.15 137.007 322.566 137.422 323.257 136.592C325.333 136.592 327.409 136.177 329.347 137.007C330.592 138.53 332.253 137.976 333.775 137.561C344.846 137.561 356.056 136.869 367.127 137.838C367.542 138.668 368.373 138.668 369.203 138.391L369.48 138.53C369.48 139.36 369.48 140.19 369.48 140.882C364.636 141.297 359.792 141.297 354.949 140.882C352.873 141.297 350.797 140.19 348.998 141.851Z" fill="#F5DF4D"/>
<path d="M358.547 87.3253C358.408 86.6334 358.962 85.803 359.239 85.9414C361.315 88.7092 364.636 86.9101 367.127 88.1556C367.404 88.8476 367.819 89.1244 368.511 88.5708C372.939 88.7092 375.846 90.6467 376.538 93.968C377.091 96.8742 375.43 101.441 371.279 102.41C370.172 102.687 369.064 103.379 367.957 103.794L367.681 103.655L367.404 103.794C366.297 102.548 367.404 101.856 368.096 101.026C369.065 99.9188 370.172 98.8117 371.002 97.7045C372.247 96.0439 371.971 94.5216 369.895 93.8296C364.774 92.169 359.654 92.0306 354.534 93.968C352.734 94.66 351.766 96.0439 352.319 97.8429C353.288 100.611 355.087 103.24 358.132 103.517C361.038 103.794 363.806 104.347 366.712 104.486C367.127 104.624 367.404 104.762 367.819 104.901C369.065 105.87 370.587 106.423 371.002 108.222C370.864 109.053 371.002 109.744 371.694 110.16C371.694 110.575 371.694 111.128 371.694 111.544C370.864 111.959 370.864 112.789 371.002 113.481C370.31 115.142 369.065 116.249 367.404 116.941C366.712 116.802 365.882 116.802 365.605 117.633C363.114 117.356 361.176 120.262 358.547 119.155C357.855 119.155 357.025 119.017 356.609 119.847C355.364 120.4 354.118 120.262 352.873 119.847C351.074 119.155 349.275 118.325 347.476 117.633C344.431 114.727 344.569 112.097 347.891 108.499C348.583 108.499 348.998 108.084 348.998 107.392C349.69 106.146 350.797 105.593 352.181 105.316C352.734 105.316 353.426 105.593 353.842 105.039C354.118 104.486 353.703 104.209 353.288 104.07C350.52 101.856 347.476 99.5036 348.721 95.4903C349.967 91.3386 353.15 89.1244 357.578 88.8476C358.132 88.986 358.824 89.1244 359.239 88.5708C359.516 87.7405 358.962 87.6021 358.547 87.3253ZM359.792 108.914C357.855 108.499 355.917 109.053 353.98 109.744C351.904 110.436 349.275 111.544 349.69 114.173C349.967 116.526 352.734 116.802 354.81 117.079C359.239 117.771 362.422 114.865 365.882 113.066C366.712 112.651 367.542 112.097 367.404 111.128C367.265 109.883 366.158 109.883 365.19 109.606C363.391 108.914 361.591 108.637 359.792 108.914Z" fill="#F5DF4D"/>
<path d="M370.587 78.4684C368.788 78.1916 366.85 77.9148 365.051 77.638C364.082 76.5309 362.975 76.5309 362.007 77.638C360.484 78.1916 358.685 77.7764 357.44 79.0219C355.641 80.6826 356.056 82.3433 357.44 83.8656C357.993 84.5575 358.962 85.1111 357.993 86.0798C357.025 87.0485 356.194 86.2182 355.364 85.6647C351.766 82.8969 352.734 77.0845 357.301 74.8702C362.007 72.656 366.989 72.7944 371.832 74.4551C372.939 75.9774 374.462 75.9774 376.122 75.9774C377.091 76.3925 378.337 76.6693 379.167 77.3613C381.104 78.8835 382.073 81.0978 380.689 83.312C379.167 85.803 376.399 85.1111 374.185 84.5575C373.216 84.2808 373.908 83.312 374.6 83.0352C375.569 83.0352 376.676 82.7585 376.676 81.6513C376.814 80.9594 375.984 80.821 375.43 80.821C374.462 80.4058 373.493 79.8523 372.524 79.4371C372.109 78.33 371.279 78.33 370.587 78.4684Z" fill="#F5DF4D"/>
<path d="M400.202 93.2761C397.85 95.6287 395.359 96.459 393.006 97.7046C387.194 100.749 382.904 104.901 381.243 111.544C380.966 112.512 380.966 113.758 379.582 113.343C378.06 112.789 379.029 111.82 379.167 110.852C379.582 107.115 381.658 104.07 384.011 101.303C385.256 99.7804 386.225 98.6733 383.734 97.5662C383.042 97.2894 382.627 96.5974 382.627 95.7671C382.627 94.7984 382.627 93.8296 383.595 93.5529C384.426 93.2761 384.979 93.968 385.256 94.66C386.64 97.8429 388.439 97.5662 391.069 95.7671C393.421 93.968 396.189 92.169 400.202 93.2761Z" fill="#F5DF4D"/>
<path d="M383.734 189.734C390.238 188.488 395.912 191.118 401.863 192.778C402.555 192.917 403.108 193.609 402.832 194.578C402.693 195.269 402.14 195.546 401.448 195.685C398.265 196.515 386.086 192.64 383.734 189.734Z" fill="white"/>
<path d="M376.122 193.47C378.475 201.774 376.399 209.108 374.185 216.443C373.908 217.55 373.493 219.349 371.832 218.796C370.31 218.242 371.694 216.858 371.971 215.889C373.355 209.8 374.323 203.711 374.877 197.622C375.015 196.238 375.43 195.131 376.122 193.47Z" fill="white"/>
<path d="M380.412 197.484C385.671 199.559 387.332 204.403 389.546 208.832C389.823 209.524 389.961 210.077 389.269 210.492C388.854 210.769 388.301 210.769 387.885 210.631C385.394 209.524 380.274 200.667 380.412 197.484Z" fill="white"/>
<path d="M347.476 117.633C349.275 118.325 351.074 119.155 352.873 119.847C352.596 120.124 352.319 120.4 352.042 120.539C350.52 120.262 348.859 121.369 347.614 119.709C348.859 119.017 347.891 118.325 347.476 117.633Z" fill="#F5DF4D"/>
<path d="M348.998 141.851C350.797 140.329 352.873 141.297 354.81 141.159C353.011 141.989 351.074 141.989 348.998 141.851Z" fill="#F5DF4D"/>
<path d="M333.913 137.561C332.391 137.976 330.869 138.668 329.485 137.007C330.869 137.284 332.391 137.422 333.913 137.561Z" fill="#F5DF4D"/>
<path d="M374.185 137.699C374.047 136.869 374.047 136.177 373.216 135.623C373.355 134.931 373.631 133.824 374.323 134.239C375.846 135.347 374.738 136.592 374.185 137.699Z" fill="#F5DF4D"/>
<path d="M369.48 141.021C369.48 140.19 369.48 139.36 369.48 138.668C370.172 139.083 371.002 139.498 371.694 138.668C371.555 139.913 371.279 141.159 370.033 141.851C369.756 141.436 369.618 141.297 369.48 141.021Z" fill="#F5DF4D"/>
<path d="M310.387 132.856C310.664 134.239 311.079 135.623 311.356 137.146C309.695 136.039 309.28 134.655 310.387 132.856Z" fill="#F5DF4D"/>
<path d="M424.005 88.986C425.666 88.986 427.188 88.986 428.849 88.986C427.188 89.8164 425.666 89.8164 424.005 88.986Z" fill="#F5DF4D"/>
<path d="M375.984 75.9774C374.323 75.9774 372.801 75.839 371.694 74.4551C373.216 74.5935 374.738 75.0086 375.984 75.9774Z" fill="#F5DF4D"/>
<path d="M321.874 128.15C322.981 126.905 324.503 126.766 326.164 126.628C324.918 127.735 323.396 128.012 321.874 128.15Z" fill="#F5DF4D"/>
<path d="M361.868 77.638C362.837 76.5309 363.944 76.5309 364.913 77.638C363.944 77.638 362.975 77.638 361.868 77.638Z" fill="#F5DF4D"/>
<path d="M375.43 80.5442C375.984 80.6826 376.814 80.6826 376.676 81.3745C376.538 82.4816 375.569 82.7584 374.6 82.7584C375.154 82.2049 376.122 81.6513 375.43 80.5442Z" fill="#F5DF4D"/>
<path d="M319.383 135.485C317.86 135.623 316.476 135.347 315.784 133.824C317.03 134.378 318.275 134.931 319.383 135.485Z" fill="#F5DF4D"/>
<path d="M410.305 84.4191C408.782 84.4191 408.09 83.5888 407.952 82.2049C408.782 82.8968 409.474 83.5888 410.305 84.4191Z" fill="#F5DF4D"/>
<path d="M430.51 66.982C430.925 65.3213 431.617 64.9061 432.862 66.4284C432.032 66.0133 431.201 66.4284 430.51 66.982Z" fill="#F5DF4D"/>
<path d="M413.488 136.592C414.456 136.454 415.563 136.177 416.255 137.284C415.287 137.561 414.318 137.146 413.488 136.592Z" fill="#F5DF4D"/>
<path d="M409.336 132.302C408.367 132.856 407.675 132.856 407.26 131.748C407.952 131.472 408.644 131.887 409.336 132.302Z" fill="#F5DF4D"/>
<path d="M425.943 67.9507C426.081 68.7811 426.22 69.6114 425.251 70.0266C425.112 69.1963 425.389 68.6427 425.943 67.9507Z" fill="#F5DF4D"/>
<path d="M434.246 68.5043C434.938 68.7811 435.353 69.1962 434.8 69.8882C434.523 69.473 434.384 68.9194 434.246 68.5043Z" fill="#F5DF4D"/>
<path d="M396.466 73.4863C395.774 74.0399 395.359 73.6247 395.082 72.9327C395.635 73.0711 396.051 73.3479 396.466 73.4863Z" fill="#F5DF4D"/>
<path d="M388.301 76.8077C388.716 75.9774 389.546 76.1158 390.238 76.1158C389.685 76.5309 389.131 77.0845 388.301 76.8077Z" fill="#F5DF4D"/>
<path d="M393.975 76.1157C394.805 75.9773 395.497 75.9773 395.912 76.8077C395.22 76.6693 394.528 76.3925 393.975 76.1157Z" fill="#F5DF4D"/>
<path d="M435.076 76.8077C435.768 77.0845 436.045 77.4996 435.492 78.1916C435.353 77.7764 435.215 77.2228 435.076 76.8077Z" fill="#F5DF4D"/>
<path d="M370.587 78.4684C371.417 78.33 372.109 78.33 372.524 79.1603C371.694 79.4371 371.14 78.8836 370.587 78.4684Z" fill="#F5DF4D"/>
<path d="M424.559 79.8522C424.559 79.1603 424.697 78.4683 425.528 78.33C425.528 79.0219 425.251 79.5755 424.559 79.8522Z" fill="#F5DF4D"/>
<path d="M422.76 81.3746C423.037 81.3746 423.452 81.3746 423.728 81.3746C423.728 81.9281 423.452 82.2049 422.898 82.0665C422.483 81.9281 422.483 81.6514 422.76 81.3746Z" fill="#F5DF4D"/>
<path d="M406.43 85.1111C407.122 85.1111 407.814 85.2495 407.952 86.0798C407.26 86.0798 406.706 85.803 406.43 85.1111Z" fill="#F5DF4D"/>
<path d="M434.246 86.2182C433.554 86.7717 433.139 86.495 432.862 85.6646C433.277 85.9414 433.831 86.0798 434.246 86.2182Z" fill="#F5DF4D"/>
<path d="M358.547 87.3253C358.962 87.6021 359.516 87.8789 359.1 88.4324C358.685 88.986 357.993 88.8476 357.44 88.7092C357.993 88.294 358.962 88.294 358.547 87.3253Z" fill="#F5DF4D"/>
<path d="M368.511 88.5708C367.819 89.1244 367.404 88.8476 367.127 88.1556C367.681 88.294 368.096 88.4324 368.511 88.5708Z" fill="#F5DF4D"/>
<path d="M327.963 121.231C327.686 122.061 327.409 122.476 326.579 121.784C326.994 121.369 327.271 120.954 327.963 121.231Z" fill="#F5DF4D"/>
<path d="M431.063 123.03C431.34 123.86 431.34 124.691 430.371 125.106C430.648 124.414 430.925 123.722 431.063 123.03Z" fill="#F5DF4D"/>
<path d="M340.695 125.244C341.11 124.414 341.94 124.414 342.632 124.552C342.079 124.967 341.525 125.521 340.695 125.244Z" fill="#F5DF4D"/>
<path d="M432.17 126.351C432.032 125.521 432.032 124.829 432.862 124.414C433.139 125.106 432.585 125.798 432.17 126.351Z" fill="#F5DF4D"/>
<path d="M316.615 125.521C316.476 126.49 315.784 126.628 314.954 126.628C315.508 126.213 316.061 125.936 316.615 125.521Z" fill="#F5DF4D"/>
<path d="M333.913 125.936C334.467 125.106 335.159 125.106 335.989 125.244C335.436 125.798 334.744 126.213 333.913 125.936Z" fill="#F5DF4D"/>
<path d="M327.963 126.766C328.378 125.936 329.208 125.936 329.9 126.074C329.347 126.49 328.793 127.043 327.963 126.766Z" fill="#F5DF4D"/>
<path d="M340.003 119.709C339.726 120.401 339.311 120.816 338.619 120.262C339.034 119.985 339.587 119.847 340.003 119.709Z" fill="#F5DF4D"/>
<path d="M399.649 131.748C399.372 132.579 398.957 132.994 398.265 132.302C398.68 131.887 399.095 131.472 399.649 131.748Z" fill="#F5DF4D"/>
<path d="M373.355 149.047C373.355 148.355 373.216 147.663 373.908 147.11C374.185 147.802 373.77 148.355 373.355 149.047Z" fill="#F5DF4D"/>
<path d="M414.595 133.132C413.903 133.686 413.488 133.409 413.211 132.717C413.626 132.717 414.18 132.856 414.595 133.132Z" fill="#F5DF4D"/>
<path d="M365.743 117.633C366.158 116.802 366.85 116.802 367.542 116.941C366.989 117.356 366.435 117.909 365.743 117.633Z" fill="#F5DF4D"/>
<path d="M434.523 117.218C434.384 116.387 434.523 115.695 435.215 115.28C435.353 116.11 434.8 116.664 434.523 117.218Z" fill="#F5DF4D"/>
<path d="M371.14 113.481C371.002 112.651 371.14 111.959 371.832 111.544C372.109 112.374 371.555 112.927 371.14 113.481Z" fill="#F5DF4D"/>
<path d="M391.345 133.963C391.068 134.793 390.377 134.931 389.685 134.931C390.1 134.239 390.515 133.824 391.345 133.963Z" fill="#F5DF4D"/>
<path d="M425.943 135.347C425.112 136.039 424.836 135.623 424.559 134.793C425.112 134.516 425.528 134.931 425.943 135.347Z" fill="#F5DF4D"/>
<path d="M389.131 135.347C388.993 136.315 388.301 136.454 387.47 136.454C387.747 135.762 388.439 135.485 389.131 135.347Z" fill="#F5DF4D"/>
<path d="M323.396 136.73C322.566 137.422 322.289 137.007 322.012 136.315C322.566 136.039 322.981 136.315 323.396 136.73Z" fill="#F5DF4D"/>
<path d="M435.215 112.789C435.215 111.959 435.215 111.267 435.907 110.852C436.045 111.544 435.63 112.097 435.215 112.789Z" fill="#F5DF4D"/>
<path d="M371.832 110.021C371.002 109.606 371.002 108.776 371.14 108.084C371.556 108.637 371.971 109.191 371.832 110.021Z" fill="#F5DF4D"/>
<path d="M349.136 107.392C349.136 108.084 348.721 108.499 348.029 108.499C348.029 107.945 348.444 107.53 349.136 107.392Z" fill="#F5DF4D"/>
<path d="M369.203 138.53C368.372 138.668 367.681 138.806 367.127 137.976C367.957 137.838 368.649 137.976 369.203 138.53Z" fill="#F5DF4D"/>
<path d="M396.604 137.976C397.019 137.146 397.85 137.146 398.541 137.284C397.988 137.561 397.296 137.838 396.604 137.976Z" fill="#F5DF4D"/>
<path d="M424.836 137.284C425.666 137.146 426.358 137.284 426.773 137.976C425.943 138.391 425.389 137.838 424.836 137.284Z" fill="#F5DF4D"/>
<path d="M353.426 103.932C353.842 104.071 354.257 104.486 353.98 104.901C353.565 105.593 352.873 105.316 352.319 105.178C352.596 104.901 353.011 104.486 353.426 103.932Z" fill="#F5DF4D"/>
<path d="M316.891 140.329C317.722 140.19 318.414 140.329 318.829 141.021C318.137 141.297 317.583 140.744 316.891 140.329Z" fill="#F5DF4D"/>
<path d="M319.936 141.021C320.766 140.882 321.458 141.021 321.873 141.713C321.182 141.989 320.49 141.436 319.936 141.021Z" fill="#F5DF4D"/>
<path d="M434.661 101.026C435.353 101.856 434.938 102.133 434.108 102.41C433.969 101.856 434.384 101.441 434.661 101.026Z" fill="#F5DF4D"/>
<path d="M436.737 98.3965C436.737 97.5662 436.737 96.8742 437.429 96.459C437.567 97.2894 437.152 97.8429 436.737 98.3965Z" fill="#F5DF4D"/>
<path d="M356.609 119.847C357.025 119.155 357.855 119.155 358.547 119.155C357.993 119.432 357.301 119.709 356.609 119.847Z" fill="#F5DF4D"/>
<path d="M374.046 153.752C373.354 153.337 373.354 152.507 373.354 151.815C373.77 152.369 374.185 153.061 374.046 153.752Z" fill="#F5DF4D"/>
<path d="M387.609 156.52C387.609 155.69 387.609 154.998 388.301 154.583C388.577 155.413 388.024 155.967 387.609 156.52Z" fill="#F5DF4D"/>
<path d="M367.819 155.275C368.511 155.552 368.926 155.967 368.373 156.659C368.096 156.244 367.957 155.828 367.819 155.275Z" fill="#F5DF4D"/>
<path d="M374.738 158.319C373.908 157.904 373.908 157.074 374.047 156.382C374.462 156.935 375.015 157.489 374.738 158.319Z" fill="#F5DF4D"/>
<path d="M369.203 161.364C370.172 161.779 370.172 162.609 370.033 163.44C369.48 162.748 369.203 162.194 369.203 161.364Z" fill="#F5DF4D"/>
<path d="M379.859 164.685C379.859 165.239 380.136 165.931 379.582 166.346C379.029 166.623 378.752 166.346 378.475 165.792C379.305 165.654 379.444 165.1 379.859 164.685Z" fill="#F5DF4D"/>
<path d="M371.417 166.623C372.247 166.761 372.524 167.453 372.524 168.283C371.694 168.007 371.417 167.315 371.417 166.623Z" fill="#F5DF4D"/>
<path d="M435.492 92.0306C436.045 92.8609 435.768 93.1377 434.938 93.4145C435.076 92.9993 435.353 92.4457 435.492 92.0306Z" fill="#F5DF4D"/>
<path d="M415.01 88.2941C415.84 88.2941 416.532 88.2941 416.947 88.986C416.394 88.7092 415.702 88.4325 415.01 88.2941Z" fill="#F5DF4D"/>
<path d="M291.428 322.588C295.58 319.267 300.008 316.637 303.883 313.178C315.231 303.214 322.427 290.62 326.302 276.366C333.914 248.411 328.932 222.394 311.771 199.283C298.624 181.569 280.772 171.882 258.076 172.712C252.955 172.85 252.955 172.989 253.924 177.971C256.692 191.256 261.812 203.711 264.995 216.858C266.379 222.532 268.455 228.068 268.594 234.019C268.594 235.264 269.285 237.202 267.763 237.617C266.379 238.032 266.103 235.956 265.687 234.987C262.366 227.514 261.536 219.211 258.768 211.461C253.647 196.515 251.018 181.015 246.866 165.792C246.313 163.855 245.621 162.056 242.853 160.672C246.313 159.565 248.389 160.118 249.081 162.886C250.326 168.145 252.955 168.975 258.353 168.837C288.107 167.868 308.173 183.368 321.874 208.416C328.101 219.764 331.007 232.081 331.976 245.09C333.914 269.17 328.516 290.758 312.74 309.441C307.758 315.253 301.807 319.682 294.888 322.727C293.78 323.003 292.812 323.557 291.428 322.588Z" fill="#F5DF4D"/>
<path d="M174.073 288.959C176.426 290.62 176.426 293.249 177.533 295.187C184.452 308.611 195.385 317.745 208.532 324.526C221.264 331.168 234.965 334.628 249.357 334.628C260.982 334.628 272.192 331.86 282.571 326.186C283.678 325.633 285.062 323.972 286.031 325.633C286.999 327.155 284.923 327.847 283.955 328.677C276.758 333.936 268.593 336.842 259.736 337.949C239.255 340.579 220.295 336.15 202.72 325.633C190.542 318.298 180.716 308.472 175.042 295.049C174.35 293.111 173.381 291.312 174.073 288.959Z" fill="#F5DF4D"/>
<path d="M150.547 182.538C151.1 176.864 154.699 174.649 159.957 173.404C181.408 168.699 202.72 163.855 224.17 159.15C228.876 158.181 233.581 156.935 238.424 156.797C239.947 156.797 241.331 157.074 242.576 158.596C241.607 159.703 240.362 160.395 238.84 160.534C220.572 163.163 202.581 167.591 184.591 171.882C175.872 173.957 167.154 175.895 158.435 177.556C155.391 178.109 152.761 178.524 151.931 181.984C151.792 182.538 151.239 182.814 150.547 182.538Z" fill="#F5DF4D"/>
<path d="M150.547 182.399C149.301 183.921 150.547 185.305 150.824 186.551C156.359 212.291 163.694 237.617 168.676 263.496C169.783 269.031 169.921 274.567 170.752 281.21C168.538 278.719 168.399 276.504 167.984 274.567C163.417 250.625 157.328 226.961 152.346 203.019C151.1 197.068 150.27 190.979 148.748 185.167C148.056 182.814 149.025 182.676 150.547 182.399C150.547 182.538 150.547 182.399 150.547 182.399Z" fill="#F5DF4D"/>
<path d="M210.608 320.789C218.22 317.329 225.277 315.669 232.197 313.316C243.683 309.303 255.308 305.981 267.348 303.629C270.669 302.937 273.852 302.106 276.482 299.754C277.035 299.2 278.004 298.231 279.111 299.339C280.357 300.446 279.111 301.276 278.696 301.968C277.312 304.182 274.683 304.736 272.468 305.705C267.348 307.919 261.674 308.611 256.277 309.995C243.13 313.593 230.121 317.744 216.559 320.097C214.898 320.374 213.099 320.512 210.608 320.789Z" fill="#F5DF4D"/>
<path d="M244.375 241.907C244.098 243.291 242.715 243.429 241.607 243.706C236.072 245.09 230.536 246.335 225.001 247.581C210.747 250.625 196.631 253.532 182.377 256.576C181.408 256.715 180.162 257.822 179.886 256.438C179.47 254.915 181.131 255.054 182.1 254.915C199.26 250.625 216.42 246.474 233.581 242.184C236.487 241.492 239.255 240.385 242.299 240.385C243.268 240.385 244.514 240.108 244.375 241.907Z" fill="#F5DF4D"/>
<path d="M217.251 222.809C210.885 228.345 199.122 224.47 194.14 220.18C188.604 215.613 187.497 204.68 191.095 197.207C194.001 191.256 198.568 188.073 202.997 188.904C195.8 191.948 192.617 197.76 191.51 204.957C190.265 212.707 196.492 219.626 205.211 221.148C209.086 221.979 213.238 221.01 217.251 222.809Z" fill="#F5DF4D"/>
<path d="M162.725 184.613C163.002 182.953 164.524 182.814 166.047 183.368C170.89 185.444 175.595 187.658 180.301 190.011C182.93 191.256 183.345 193.609 181.269 195.823C178.64 198.452 175.872 200.943 172.828 203.296C170.752 204.957 168.538 203.988 167.707 201.359C166.047 195.961 164.524 190.564 162.725 184.613ZM169.921 201.22C172.828 198.176 176.011 196.238 178.363 193.194C174.627 191.671 171.167 190.287 167.015 188.488C168.399 192.917 169.23 196.792 169.921 201.22Z" fill="#F5DF4D"/>
<path d="M220.019 218.796C220.295 215.474 221.403 212.707 222.925 210.354C229.152 201.082 220.019 186.551 208.671 188.488C208.256 188.488 207.979 188.488 207.425 188.488C212.546 185.167 221.403 188.073 225.139 194.162C230.675 203.158 228.599 214.091 220.019 218.796Z" fill="#F5DF4D"/>
<path d="M214.898 269.585C218.912 273.045 222.371 273.183 225.416 270.554C227.768 268.478 227.907 265.848 226.385 263.496C224.862 261.005 220.849 261.005 216.697 263.219C217.389 260.451 220.572 258.375 223.478 258.79C228.184 259.621 230.951 262.942 230.675 267.371C230.26 272.353 226.108 276.366 221.126 276.781C216.005 277.058 214.345 275.259 214.898 269.585Z" fill="#F5DF4D"/>
<path d="M237.733 264.603C240.916 267.094 243.683 268.339 247.005 265.71C249.496 263.772 249.911 261.42 249.219 258.652C248.527 255.746 246.451 255.331 238.286 255.331C241.192 252.148 245.898 251.317 249.219 253.532C252.955 256.023 254.063 260.728 251.848 265.433C250.049 269.308 245.206 272.076 241.884 271.107C239.116 270.277 236.902 268.754 237.733 264.603Z" fill="#F5DF4D"/>
<path d="M194.832 269.031C198.015 266.402 204.519 266.817 207.01 269.446C209.501 272.076 208.809 277.888 205.764 280.933C202.166 284.393 198.153 284.531 194.832 281.348C191.925 278.58 191.649 275.674 194.001 273.045C196.077 275.397 195.385 280.656 200.644 279.411C203.827 278.719 206.18 275.536 205.349 272.768C203.689 267.509 198.845 269.862 194.832 269.031Z" fill="#F5DF4D"/>
<path d="M244.652 231.804C242.715 234.019 240.362 235.403 237.871 236.094C229.568 238.447 221.403 240.661 212.822 241.63C211.854 241.768 211.023 241.907 210.608 240.938C210.193 239.831 211.438 239.554 211.854 239.554C222.786 237.202 233.304 232.635 244.652 231.804Z" fill="#F5DF4D"/>
<path d="M207.287 210.769C209.224 204.957 211.438 199.836 216.42 195.269C215.175 202.327 211.577 207.448 210.193 213.399C209.778 214.782 208.809 215.059 207.287 214.229C204.796 212.845 203.273 210.492 201.198 208.693C200.782 208.278 200.506 207.586 201.198 207.033C201.751 206.617 202.443 206.617 202.858 207.033C204.242 208.278 205.488 209.385 207.287 210.769Z" fill="#F5DF4D"/>
<path d="M279.388 295.74C277.174 293.526 276.343 290.897 276.067 288.267C275.513 283.977 274.267 279.826 274.406 275.397C274.406 274.567 273.714 273.183 275.513 273.183C276.897 273.045 276.62 274.152 276.758 274.982C277.866 280.933 279.111 286.745 280.218 292.696C280.357 293.388 279.665 294.495 279.388 295.74Z" fill="#F5DF4D"/>
<path d="M207.979 241.907C203.55 244.536 199.26 244.675 195.247 245.367C194.555 245.505 194.417 245.09 194.14 244.675C193.863 244.121 194.001 243.706 194.555 243.568C198.845 242.599 202.72 240.661 207.979 241.907Z" fill="#F5DF4D"/>
<path d="M305.405 249.38C303.329 249.38 302.222 248.273 301.392 246.75C300.423 245.09 301.254 244.259 302.776 243.568C303.191 243.429 303.468 242.876 303.606 242.46C304.575 238.862 305.405 238.447 309.142 239.693C310.664 240.246 311.909 240.8 312.878 242.045C313.985 243.568 314.124 245.367 312.463 246.335C310.249 247.581 307.758 248.411 305.405 249.38Z" fill="#D36480"/>
<path d="M309.28 230.974C307.619 231.804 306.651 234.157 304.99 235.126C303.329 236.094 298.07 231.112 298.07 229.175C298.07 228.345 302.361 223.363 303.052 223.363C305.405 223.224 309.142 227.653 309.28 230.974Z" fill="#D36480"/>
<path d="M307.343 259.067C305.544 259.344 304.298 258.098 303.883 256.576C303.468 254.915 305.128 254.362 306.374 253.808C309.28 252.701 312.186 251.594 315.369 251.456C316.892 251.317 317.86 251.733 316.753 253.532C314.539 256.991 311.494 258.929 307.343 259.067Z" fill="#D36480"/>
<path d="M303.606 270.692C300.977 270.83 296.548 267.509 295.718 265.018C295.303 263.772 295.579 262.804 296.825 262.25C299.454 261.143 301.669 262.112 303.883 263.496C305.82 264.741 305.959 266.817 306.097 268.754C306.374 270.553 304.99 270.83 303.606 270.692Z" fill="#D36480"/>
<path d="M280.633 305.013C277.45 304.597 275.098 302.798 273.299 300.446C272.053 298.785 273.991 297.54 274.544 296.156C275.098 294.772 276.343 295.879 277.312 296.432C279.249 297.816 282.017 298.37 282.986 300.861C283.401 301.83 284.508 302.798 283.678 303.905C282.986 304.874 281.879 305.013 280.633 305.013Z" fill="#D36480"/>
<path d="M281.049 217.55C280.495 217.55 279.803 217.55 279.111 217.273C276.62 216.305 273.991 214.506 274.959 212.015C275.79 209.385 278.696 210.769 280.772 211.599C281.464 211.876 282.294 212.153 282.709 212.568C283.816 213.537 286.307 213.537 285.754 215.751C285.2 217.689 283.124 217.55 281.049 217.55Z" fill="#D36480"/>
<path d="M316.061 231.112C319.106 231.112 322.012 233.88 322.15 236.371C322.289 238.447 321.043 239.001 319.383 239.001C317.03 239.001 313.57 235.679 313.432 233.603C313.293 231.528 314.401 230.974 316.061 231.112Z" fill="#D36480"/>
<path d="M317.86 222.117C315.923 222.117 314.677 221.148 314.262 219.349C313.709 217.135 315.508 217.412 316.753 216.997C317.86 216.581 318.829 216.028 319.936 215.751C321.182 215.474 322.565 213.398 323.673 216.166C324.503 218.381 324.918 220.18 321.874 221.01C320.351 221.287 319.106 221.702 317.86 222.117Z" fill="#D36480"/>
<path d="M290.597 274.982C290.321 275.951 290.597 277.75 288.66 277.75C286.861 277.75 282.709 272.214 282.571 270C282.571 268.339 283.678 267.924 285.062 267.786C287.276 267.924 290.736 272.214 290.597 274.982Z" fill="#D36480"/>
<path d="M296.271 206.064C292.12 203.85 290.459 197.899 292.535 194.301C292.95 193.47 293.642 192.778 294.611 193.194C295.579 193.47 296.548 193.886 296.548 195.131C296.548 196.792 296.825 198.591 296.133 200.251C295.164 202.189 295.026 204.126 296.271 206.064Z" fill="#D36480"/>
<path d="M270.392 185.859C270.808 185.997 272.192 185.305 272.607 186.551C272.745 187.243 272.053 188.212 271.638 188.904C269.977 191.118 267.486 192.086 264.719 192.086C263.473 192.086 262.643 191.256 262.366 190.011C262.089 188.627 262.643 187.935 263.888 187.381C265.826 186.551 267.763 185.444 270.392 185.859Z" fill="#D36480"/>
<path d="M263.335 311.24C264.58 311.517 266.518 310.548 266.656 312.901C266.794 314.7 263.335 317.468 261.259 317.329C259.321 317.329 258.214 316.222 258.214 314.285C258.353 311.102 260.982 311.379 263.335 311.24Z" fill="#D36480"/>
<path d="M311.771 298.923C313.017 299.062 314.124 300.307 313.432 301.138C311.91 302.937 313.985 306.812 310.249 306.812C307.896 306.812 306.651 305.151 306.789 302.798C307.204 300.031 309.557 299.477 311.771 298.923Z" fill="#D36480"/>
<path d="M280.772 249.38C280.772 251.179 280.495 252.84 279.249 253.393C277.589 253.947 277.312 251.871 276.62 250.902C276.066 250.21 275.79 249.38 275.513 248.55C275.098 247.304 273.575 245.643 275.513 244.675C277.312 243.844 278.557 245.09 279.665 246.335C280.495 247.304 280.91 248.411 280.772 249.38Z" fill="#D36480"/>
<path d="M298.486 239.969C296.963 243.429 295.303 246.197 292.258 247.858C291.428 248.411 290.321 248.826 289.49 247.858C288.66 246.889 289.352 245.92 289.906 245.228C292.258 242.737 294.472 240.385 298.486 239.969Z" fill="#D36480"/>
<path d="M286.723 292.696C286.584 294.772 286.307 297.263 284.093 297.401C281.741 297.54 281.602 294.772 281.325 292.834C281.049 290.758 282.432 289.651 284.508 289.651C286.584 289.513 286.723 291.035 286.723 292.696Z" fill="#D36480"/>
<path d="M324.641 281.763C324.088 283.839 317.86 289.513 316.2 289.513C315.092 289.513 314.401 288.959 315.231 287.852C317.307 284.946 320.074 282.87 323.257 281.21C324.088 280.794 324.641 281.21 324.641 281.763Z" fill="#D36480"/>
<path d="M229.291 323.142C228.322 324.941 227.076 326.878 224.862 327.017C223.478 327.155 221.818 325.494 222.233 323.972C222.925 321.481 225.554 321.896 227.63 321.758C228.46 321.758 229.567 321.619 229.291 323.142Z" fill="#D36480"/>
<path d="M277.174 311.379C279.111 311.102 280.218 311.655 280.218 313.87C280.218 315.53 279.665 317.191 278.004 317.191C275.79 317.329 274.959 315.392 274.544 313.454C274.267 311.655 275.513 311.24 277.174 311.379Z" fill="#D36480"/>
<path d="M272.053 174.926C272.607 177.971 270.116 179.078 269.009 180.738C268.455 181.569 267.486 181.015 267.625 180.047C267.901 178.109 268.178 176.172 268.593 174.234C268.87 172.989 269.977 172.435 271.223 172.712C272.745 173.127 271.638 174.511 272.053 174.926Z" fill="#D36480"/>
<path d="M286.446 234.019C286.446 231.943 285.892 229.729 288.66 229.59C290.321 229.452 290.874 230.697 290.597 232.081C290.182 234.157 289.905 236.925 287.691 237.202C285.615 237.478 286.861 234.987 286.446 234.019Z" fill="#D36480"/>
<path d="M278.004 271.522C278.004 268.893 277.45 266.679 278.281 264.603C278.696 263.496 279.388 262.389 280.633 262.804C282.017 263.219 282.156 264.464 281.602 265.572C280.772 267.509 280.357 269.723 278.004 271.522Z" fill="#D36480"/>
<path d="M246.451 326.601C246.313 328.124 246.728 330.615 244.79 330.615C242.853 330.615 242.023 328.4 241.884 326.325C241.746 324.664 242.438 323.834 244.237 323.695C246.589 323.557 246.589 324.941 246.451 326.601Z" fill="#D36480"/>
<path d="M257.799 328.816C257.661 330.476 257.107 331.583 255.446 331.445C253.232 331.307 252.125 329.508 251.848 327.709C251.571 326.325 253.094 326.048 254.201 326.048C256.415 325.771 257.522 326.878 257.799 328.816Z" fill="#D36480"/>
<path d="M276.343 229.867C277.035 230.282 279.111 229.037 278.696 230.974C278.281 232.635 276.897 234.157 275.098 234.434C273.852 234.572 273.022 233.465 272.884 232.358C272.884 230.005 274.544 229.867 276.343 229.867Z" fill="#D36480"/>
<path d="M271.361 323.418C271.361 322.173 271.361 321.066 272.468 321.343C274.959 322.035 274.959 324.387 275.513 326.325C275.79 327.017 275.513 327.985 274.406 327.57C272.33 326.878 271.915 324.802 271.361 323.418Z" fill="#D36480"/>
<path d="M298.901 300.723C298.347 302.937 297.102 304.044 295.856 305.151C295.026 305.843 294.196 306.535 293.365 305.289C292.673 304.321 293.227 303.352 294.196 302.798C295.579 302.106 296.963 301.553 298.901 300.723Z" fill="#D36480"/>
<path d="M272.745 266.817C273.299 264.464 271.915 262.665 273.437 261.42C273.852 261.005 275.236 261.143 275.375 261.973C275.651 263.634 275.098 265.156 272.745 266.817Z" fill="#D36480"/>
<path d="M317.03 200.667C317.168 201.359 316.891 201.774 316.338 201.774C314.816 201.635 313.985 200.528 313.57 199.144C313.293 198.314 313.985 197.622 314.816 197.76C316.476 197.899 316.2 199.836 317.03 200.667Z" fill="#D36480"/>
</g>
<defs>
<clipPath id="clip0_902_5564">
<rect width="416" height="387.63" fill="white" transform="translate(48 62)"/>
</clipPath>
</defs>
</svg>
