<svg width="512" height="512" viewBox="0 0 512 512" fill="none" xmlns="http://www.w3.org/2000/svg">
<g filter="url(#filter0_d_1478_5780)">
<g clip-path="url(#clip0_1478_5780)">
<path d="M427.338 210.211C427.663 213.864 427.176 219.466 426.77 225.068C425.552 240.981 422.223 256.487 417.433 271.75C409.639 296.269 399.166 319.569 387.151 342.22C379.519 356.671 370.995 370.554 361.171 383.625C357.518 388.497 353.621 393.124 349.561 397.671C343.96 403.922 338.195 409.849 332.025 415.532C321.065 425.599 309.374 434.773 296.303 441.999C280.959 450.523 264.397 455.557 247.347 459.129C239.554 460.753 231.76 462.133 223.803 462.945C216.659 463.675 209.433 464.325 202.289 463.919C191.166 463.269 180.45 461.077 170.545 455.638C163.401 451.66 156.175 447.519 150.817 441.511C143.429 433.23 135.716 425.193 130.195 415.369C127.516 410.66 123.457 406.845 120.209 402.542C114.201 394.586 108.843 386.223 103.972 377.536C98.2889 367.307 93.4989 356.59 90.1703 345.386C87.6535 336.943 86.0298 328.419 84.8931 319.732C83.8377 311.856 83.7565 303.981 84.2437 296.187C85.3803 276.703 91.8752 259.085 104.053 243.741C113.065 232.375 123.944 223.201 136.853 216.543C146.027 211.835 155.85 208.749 165.917 206.314C178.014 203.391 190.354 201.443 202.289 197.87C219.095 192.837 235.413 186.91 249.945 176.762C259.769 169.861 267.725 161.093 274.626 151.351C280.715 142.745 286.073 133.652 292.162 125.046C299.307 114.898 307.182 105.48 316.356 97.1179C324.069 90.0547 332.512 84.0469 342.661 80.8806C349.724 78.6886 356.868 77.3084 364.256 77.9579C370.832 78.5262 376.84 81.1242 382.523 84.3716C393.159 90.4606 400.547 99.4723 406.554 109.864C414.348 123.341 418.976 137.955 422.061 153.137C423.522 160.525 424.659 167.913 425.471 175.382C426.201 182.039 426.689 188.778 427.013 195.516C427.176 199.738 427.176 204.041 427.338 210.211Z" fill="#F5DF4D"/>
<path d="M383.01 136.899C382.198 141.202 382.523 145.505 381.143 149.727C380.493 151.675 381.224 154.192 381.467 156.384C381.63 158.089 382.036 159.713 382.117 161.336C382.198 163.123 381.224 163.772 379.6 163.123C378.788 162.798 378.058 162.229 377.571 161.499C374.485 155.978 370.101 151.432 366.367 146.398C362.47 141.121 358.573 135.844 354.351 130.729C346.963 121.88 340.144 112.543 332.918 103.613C330.239 100.284 327.884 96.7931 325.449 93.3021C324.231 91.5972 323.013 90.0546 321.308 88.7556C319.685 87.5378 318.467 85.6706 319.685 83.3973C320.009 82.829 319.928 82.3419 319.279 82.2607C315.706 81.6924 314.651 78.2826 312.459 76.0905C311.322 74.9539 310.51 73.4114 309.293 72.2748C307.831 70.8946 308.724 69.1085 309.942 68.0531C311.891 66.267 313.677 64.3185 315.706 62.5324C316.599 61.7205 317.574 61.8017 318.791 61.9641C323.257 62.6136 323.581 66.8353 325.855 69.3521C326.991 70.651 327.966 72.1124 328.371 73.8985C328.615 74.7104 329.183 74.7916 330.076 74.9539C332.106 75.441 334.298 75.441 335.922 77.4707C345.502 89.2428 353.783 101.989 362.713 114.248C363.769 115.71 365.555 115.71 366.692 117.009C370.101 120.743 373.186 124.64 375.866 128.943C377.002 130.729 378.951 131.541 380.493 132.84C382.036 133.977 382.685 135.357 383.01 136.899Z" fill="#D36480"/>
<path d="M291.838 397.183C290.62 395.397 289.402 393.692 288.347 391.906C287.941 391.176 287.372 391.176 286.885 391.419C285.18 392.312 283.557 391.176 281.933 391.176C281.608 391.176 280.796 391.013 280.877 390.283C280.959 389.714 281.527 389.552 282.095 389.552C283.475 389.552 284.856 389.552 286.723 389.552C285.099 386.792 283.638 384.356 282.176 381.92C281.446 380.703 280.634 379.566 280.147 378.267C279.903 377.699 279.091 376.887 279.903 376.4C280.715 375.913 281.608 376.237 282.258 377.049C283.638 378.998 285.18 380.946 286.56 382.895C292.487 391.338 297.196 400.512 302.798 409.118C305.558 413.34 308.237 417.561 310.429 422.108C310.835 422.92 312.134 423.082 311.891 424.381C311.81 424.868 311.728 425.518 311.241 425.599C310.916 425.599 310.429 425.112 310.267 424.787C308.562 420.89 305.396 417.886 303.366 414.233C302.879 413.258 302.311 413.421 301.742 414.151C301.012 415.126 300.119 415.694 298.738 415.694C297.764 415.694 297.196 416.181 297.927 417.399C299.063 419.266 299.713 421.458 301.336 423.001C301.905 423.569 302.148 424.462 301.58 424.949C301.012 425.436 300.037 425.03 299.794 424.381C298.17 419.834 294.436 416.749 292.244 412.609C289.24 407.088 285.83 401.649 282.664 396.209C282.258 395.478 281.77 394.829 282.745 394.18C283.719 393.53 284.125 394.261 284.368 394.91C285.749 398.726 288.59 398.239 291.838 397.183ZM301.58 411.635C298.738 407.494 296.222 403.678 293.624 399.863C293.38 399.457 293.137 398.564 292.649 399.132C291.269 400.674 289.402 399.863 287.697 400.431C287.941 400.837 288.103 401.08 288.265 401.324C289.727 404.003 291.107 406.763 295.004 405.059C295.572 404.815 296.303 405.14 296.465 405.708C296.709 406.358 295.978 406.763 295.572 407.088C294.679 407.656 293.543 407.656 292.568 407.819C293.786 413.096 297.845 411.472 301.58 411.635Z" fill="#D36480"/>
<path d="M182.236 121.23C181.18 114.411 181.911 108.322 183.372 102.314C183.616 101.34 184.509 101.258 185.321 101.34C186.133 101.421 186.457 101.989 186.376 102.72C185.321 108.403 185.077 114.248 183.129 119.85C183.048 120.175 182.723 120.418 182.236 121.23Z" fill="#D36480"/>
<path d="M288.022 462.458C286.723 461.564 287.372 460.103 287.21 458.967C286.479 453.527 285.992 448.087 286.885 442.648C286.966 442.08 286.723 441.43 287.697 441.349C288.752 441.268 288.671 441.998 288.834 442.567C289.646 446.87 289.97 451.254 289.402 455.638C289.077 457.911 289.077 460.265 288.022 462.458Z" fill="#D36480"/>
<path d="M163.157 128.212C159.828 124.072 157.311 119.525 156.418 114.248C156.256 113.436 155.688 112.056 157.068 111.569C158.529 111.082 159.016 112.3 159.504 113.355C161.939 117.983 162.589 123.098 163.157 128.212Z" fill="#D36480"/>
<path d="M305.477 451.416C303.366 450.361 301.986 449.143 300.768 447.763C299.388 446.22 298.332 444.515 297.115 442.891C296.709 442.323 295.816 441.674 296.546 440.862C297.277 440.05 298.008 440.537 298.82 441.105C302.473 443.379 304.259 446.87 305.477 451.416Z" fill="#D36480"/>
<path d="M315.138 440.618C312.54 441.836 307.507 440.537 305.883 438.426C305.477 437.858 305.315 437.29 305.639 436.802C305.883 436.315 306.532 436.478 307.019 436.559C309.536 436.965 312.946 438.67 315.138 440.618Z" fill="#D36480"/>
<path d="M152.846 135.357C149.03 136.412 145.864 136.331 142.698 136.25C142.048 136.25 141.318 136.006 141.318 135.113C141.399 134.139 142.211 134.464 142.698 134.545C145.864 134.707 149.112 133.977 152.846 135.357Z" fill="#D36480"/>
<path d="M178.339 423.813C176.796 423.163 175.335 422.351 173.792 421.783C169.408 420.078 168.109 416.425 167.866 412.203C167.46 405.546 167.622 398.97 167.379 392.312C167.054 386.061 166.567 379.891 166.567 373.639C166.567 371.772 167.135 370.148 167.866 368.525C168.921 366.008 171.357 365.115 174.279 367.469C176.147 369.012 177.608 371.041 179.719 372.259C186.539 376.481 200.259 374.532 201.72 362.76C202.208 358.539 201.964 354.723 199.123 351.475C195.388 347.173 187.188 347.091 183.129 351.232C181.18 353.18 179.151 355.048 176.715 356.509C173.062 358.62 169.733 356.428 169.327 352.206C168.921 348.066 169.977 344.087 170.382 340.028C170.626 337.592 170.707 335.076 171.032 332.64C171.438 329.555 172.006 326.551 173.468 323.71C174.685 321.436 176.634 320.462 179.232 320.056C182.479 319.569 185.727 320.137 188.893 320.137C191.491 320.137 194.008 320.056 196.606 319.488C196.2 317.621 195.713 315.753 195.307 313.886C194.576 313.967 194.089 314.536 193.358 314.373C192.628 314.211 192.14 313.724 191.978 313.155C191.816 312.587 192.384 312.343 192.952 312.181C194.495 311.775 194.576 310.801 193.927 309.502C193.277 308.284 193.927 306.336 191.572 306.173C190.679 306.092 190.76 304.468 191.41 303.981C193.521 302.276 191.329 300.734 191.247 299.11C191.166 297.973 189.461 298.379 188.568 298.623C187.838 298.785 187.432 298.867 187.107 298.298C186.701 297.405 187.756 297.486 188.162 297.243C188.974 296.837 190.436 296.918 190.436 295.944C190.517 294.564 189.948 293.102 189.624 291.722C189.461 291.154 188.974 291.397 188.487 291.479C187.432 291.722 186.376 292.047 185.321 292.209C184.915 292.29 184.347 292.372 184.265 291.722C184.265 291.316 184.022 290.667 184.753 290.423C185.321 290.18 185.889 289.774 186.457 289.611C187.269 289.286 188.649 289.449 188.649 288.475C188.649 286.77 188.325 284.902 187.188 283.685C186.376 282.71 184.915 284.172 183.697 284.009C183.372 283.928 182.885 284.659 182.642 284.091C182.398 283.522 182.804 283.116 183.454 283.035C183.616 282.954 183.859 282.792 184.022 282.792C184.996 282.467 186.863 282.548 186.863 281.817C186.945 280.356 186.214 278.813 185.646 277.352C185.321 276.459 184.347 276.865 183.778 277.027C182.642 277.352 181.424 277.677 180.287 277.92C179.8 278.002 179.475 278.083 179.313 277.677C179.232 277.514 179.638 277.109 179.881 276.946C181.018 276.053 182.398 275.647 183.778 275.241C184.753 274.998 185.321 274.592 184.509 273.617C184.509 273.536 184.509 273.455 184.428 273.374C184.103 272.156 184.103 270.532 183.291 269.802C182.804 269.315 181.099 270.208 179.963 270.289C179.313 270.37 178.258 270.614 178.014 269.802C177.77 268.99 178.826 268.99 179.394 268.665C180.45 268.097 182.155 268.016 182.56 267.204C182.966 266.311 181.992 264.931 181.911 263.713C181.83 262.982 181.343 262.251 181.424 261.602C182.073 258.842 180.125 258.679 178.258 258.273C175.254 257.624 172.25 256.974 169.327 256C166.242 255.026 164.781 252.347 164.456 248.774C164.05 242.767 165.755 237.084 166.891 231.4C167.46 228.64 167.947 225.799 167.947 222.957C167.866 217.436 168.109 211.916 168.596 206.395C169.652 193.405 169.084 180.496 169.408 167.507C169.652 158.657 170.22 149.727 170.707 140.877C170.788 139.254 171.194 137.549 171.6 136.006C172.575 132.434 175.741 130.323 179.8 130.242C185.646 130.161 191.41 130.161 197.255 130.729C204.562 131.379 211.95 131.297 219.094 133.408C220.718 133.895 222.342 134.464 223.884 135.194C227.781 137.062 228.431 140.147 226.076 143.8C224.859 145.667 223.397 147.372 221.774 148.996C219.906 150.863 217.958 152.649 216.415 154.76C214.467 157.358 214.792 159.875 217.552 161.742C220.718 163.934 224.29 164.909 227.863 165.639C232.247 166.451 236.712 166.614 241.096 165.315C243.938 164.422 244.425 163.61 243.775 160.849C242.882 156.952 240.934 153.543 240.041 149.646C239.31 146.479 239.31 143.232 239.391 140.066C239.472 138.279 241.177 137.224 243.45 137.549C253.923 139.01 264.315 140.553 274.626 142.826C277.143 143.394 279.903 143.963 280.959 146.966C281.283 147.941 281.77 148.996 281.77 150.052C281.77 154.923 282.014 159.794 281.04 164.665C280.471 167.588 280.228 170.592 280.066 173.514C279.822 178.954 278.767 184.312 279.172 189.752C279.416 192.837 279.578 196.084 281.365 198.845C283.151 201.443 284.206 201.443 286.073 198.845C287.778 196.49 289.646 194.217 291.919 192.35C295.004 189.833 298.495 188.778 302.473 189.183C300.119 188.696 297.196 188.453 296.709 185.774C296.059 182.445 292.487 181.146 292.162 177.817C292.081 177.087 291.756 176.194 292.081 175.706C293.055 173.758 292.325 172.459 291.188 170.916C289.402 168.562 288.753 165.883 289.889 163.041C290.214 162.23 290.295 161.499 290.214 160.687C289.483 154.192 289.564 147.535 288.996 141.04C288.265 133.327 288.265 125.533 287.859 117.739C287.291 107.997 288.347 98.3357 288.184 88.5933C288.103 84.9399 288.996 81.2053 288.996 77.4707C288.996 76.4153 288.753 75.5223 288.347 74.548C284.774 66.3482 289.483 57.7424 297.439 55.8751C301.905 54.8197 304.016 51.491 307.507 49.5426C308.968 48.7307 310.186 47.0258 311.404 49.7861C315.463 51.1663 316.275 55.5504 318.873 58.2295C320.009 59.3661 319.847 60.9087 318.548 62.0453C317.249 63.1819 316.518 64.8056 314.895 65.7799C313.271 66.8353 311.891 68.3779 310.429 69.6768C310.105 70.0016 309.455 70.8134 309.617 70.8134C310.835 70.7323 310.267 72.9243 311.728 72.356C312.459 72.1124 312.703 72.6807 312.946 73.0055C314.895 75.6035 316.762 78.2826 318.629 80.8806C319.035 81.4489 319.522 82.1796 318.873 82.8291C318.142 83.4786 317.411 82.9914 316.762 82.4231C313.758 79.6628 311.485 76.2529 309.13 72.9243C308.643 72.2748 308.968 71.057 308.724 70.164C308.481 72.5184 307.425 74.548 306.37 76.4965C306.045 77.146 305.802 77.7955 305.883 78.5262C306.857 87.2131 305.964 95.9001 306.37 104.506C306.776 112.787 307.344 121.149 308.075 129.43C308.887 138.361 308.562 147.372 308.562 156.384C308.562 159.144 308.806 161.905 308.968 164.746C309.13 167.75 308.075 170.429 305.883 172.54C304.827 173.514 304.909 174.489 305.233 175.706C306.126 179.035 304.746 182.689 301.905 184.556C306.126 185.449 308.562 187.641 308.643 192.106C308.643 193.243 309.78 194.298 310.267 195.354C313.108 201.605 314.57 208.1 313.839 214.92C313.271 220.44 311.809 225.717 307.994 229.939C305.639 232.537 302.717 234.486 299.307 235.46C295.004 236.596 290.701 233.998 289.158 229.208C288.184 226.205 286.56 224.175 283.394 223.444C281.608 223.038 280.39 223.444 279.335 224.987C276.737 228.721 276.006 233.105 274.951 237.408C273.733 242.685 275.194 247.8 275.681 252.996C276.006 256.649 276.737 260.546 273.165 263.307C272.515 263.794 271.947 264.2 271.216 264.362C270.891 264.037 270.973 263.794 271.216 263.55C274.058 259.653 273.408 255.269 272.515 251.048C270.404 241.549 271.379 232.537 275.925 223.931C279.335 217.436 287.291 217.112 291.432 223.282C292.568 224.906 292.974 226.773 294.03 228.478C295.166 230.183 296.222 231.238 298.576 230.589C304.827 228.884 307.588 224.337 309.13 218.654C311.16 211.266 309.942 204.284 307.019 197.221C305.883 198.033 304.909 199.007 303.772 199.657C301.093 201.28 297.521 200.062 296.465 197.302C296.222 196.653 296.14 196.247 296.709 195.76C297.358 195.191 297.602 195.841 298.008 196.165C300.362 197.87 303.041 197.383 304.34 194.785C304.909 193.649 303.853 193.568 303.123 193.324C298.414 191.863 295.004 194.055 291.919 197.221C290.457 198.763 289.158 200.387 287.697 202.011C283.962 206.314 281.527 205.015 278.442 200.468C276.331 197.302 276.087 193.649 275.925 190.077C275.681 183.744 276.493 177.411 277.143 170.998C277.63 165.802 278.523 160.606 278.929 155.41C279.091 153.38 278.767 151.351 278.442 149.321C278.198 147.697 276.737 147.129 275.438 146.885C271.054 145.992 266.67 145.262 262.286 144.531C257.09 143.638 251.894 142.826 246.698 142.014C246.617 142.014 246.535 141.933 246.454 141.933C243.45 141.283 242.72 142.258 243.207 145.343C243.856 149.564 245.561 153.461 246.86 157.44C247.834 160.281 248.971 163.204 246.698 166.045C245.399 167.669 243.856 168.724 241.989 169.212C234.439 171.322 227.051 170.348 219.906 167.425C216.902 166.208 213.98 164.827 212.437 161.58C211.138 158.82 211.463 156.303 213.005 153.786C215.279 150.133 218.688 147.535 221.53 144.368C226.158 139.254 224.696 139.173 219.825 137.711C216.091 136.575 212.194 136.169 208.297 135.925C201.315 135.6 194.414 135.113 187.432 134.626C184.509 134.383 181.749 135.032 178.826 135.194C176.39 135.357 176.147 137.468 176.147 139.173C176.147 142.745 175.66 146.398 175.578 149.97C175.173 162.635 174.685 175.219 174.685 187.884C174.685 194.867 173.955 201.767 173.386 208.749C172.98 213.783 172.818 218.817 172.493 223.85C172.169 228.64 171.194 233.43 170.139 238.139C169.246 242.361 169.165 246.582 169.895 250.885C170.058 251.778 170.626 252.184 171.438 252.509C177.04 254.701 182.723 256.081 188.649 256.893C193.196 257.543 197.661 257.867 202.208 257.786C202.938 257.786 203.75 258.03 204.237 257.218C204.806 256.325 203.994 255.919 203.588 255.35C202.776 254.295 202.045 253.24 201.233 252.184C195.794 244.959 199.528 235.947 208.134 233.836C214.386 232.294 219.987 234.486 225.346 237.327C228.025 238.788 230.461 240.493 232.49 242.848C237.037 248.125 233.87 254.052 229.811 256.974C227.457 258.679 224.615 259.653 221.936 261.439C226.076 262.738 230.055 263.388 234.033 263.875C238.985 264.525 244.019 265.336 248.971 265.58C255.547 265.824 262.286 267.041 268.862 264.931C270.08 264.525 272.353 264.2 272.596 265.255C272.921 266.554 270.81 267.366 269.511 267.772C263.422 269.477 257.171 269.071 251.001 268.584C246.535 268.178 241.989 267.61 237.524 266.96C232.328 266.23 227.132 265.336 222.098 263.875C221.043 263.55 219.906 263.144 219.744 261.683C219.582 260.222 220.312 259.329 221.368 258.598C223.56 257.137 225.914 256.162 228.025 254.62C232.328 251.535 232.815 247.557 229.162 244.228C223.803 239.438 217.795 236.596 210.57 236.921C207.079 237.084 203.831 238.464 202.532 242.036C201.396 245.121 202.126 247.963 204.156 250.561C205.049 251.697 205.78 252.915 206.592 254.133C207.566 255.594 207.566 256.974 206.267 258.192C205.78 258.679 205.78 259.004 206.023 259.653C206.754 261.683 207.322 263.713 207.891 265.742C208.215 266.96 208.865 267.691 210.326 267.366C211.057 267.204 211.869 267.366 213.005 267.366C212.031 268.909 210.083 268.827 209.677 270.208C209.271 271.669 210.326 272.968 210.651 274.348C211.057 276.134 212.762 274.186 213.574 275.16C213.574 275.241 213.655 275.485 213.574 275.566C212.924 276.215 211.463 276.54 211.625 277.433C211.95 279.219 212.599 281.005 213.411 282.71C213.574 283.116 214.142 283.198 213.898 283.928C213.736 284.415 214.223 285.308 215.36 284.984C224.209 282.71 232.815 283.441 240.852 287.825C244.506 289.855 247.753 292.128 248.646 296.756C249.377 300.328 247.997 303.169 245.805 305.767C243.532 308.447 240.447 309.908 237.524 311.775C235.575 312.993 235.575 313.48 237.037 315.104C238.742 317.052 241.096 317.945 243.532 318.27C249.052 319.082 254.654 318.514 260.175 317.945C263.991 317.539 267.725 317.377 271.541 316.971C273.002 316.809 274.464 317.215 275.844 317.621C278.685 318.432 279.903 320.3 279.903 324.116C279.903 334.426 279.416 344.737 279.578 355.048C279.66 361.543 280.309 368.037 281.202 374.451C281.527 376.643 281.527 378.998 281.608 381.19C281.77 388.902 283.881 396.29 285.424 403.76C286.56 409.199 286.723 414.72 285.018 420.078C284.693 421.052 284.044 421.945 283.313 423.163C284.206 423.163 285.018 423.163 285.749 423.163C311.485 423.001 337.221 422.838 362.957 422.757C363.363 422.757 363.85 422.676 364.256 422.757C365.23 422.92 366.529 422.92 366.448 424.137C366.367 425.355 365.636 426.248 364.012 426.329C355.001 426.817 345.989 426.492 337.059 426.817C329.671 427.06 322.283 426.817 314.976 427.304C308.887 427.71 302.879 427.385 296.871 427.628C279.822 428.359 262.692 428.197 245.561 428.603C226.807 429.09 208.053 428.44 189.38 429.09C179.475 429.414 169.652 429.252 159.747 429.414C141.399 429.739 123.051 430.064 104.621 429.739C100.806 429.658 96.9898 429.577 93.1741 429.009C91.8751 428.846 91.388 428.034 91.388 427.222C91.3068 426.248 92.3622 425.923 93.2552 425.842C98.4512 425.518 103.647 425.112 108.843 424.949C127.841 424.462 146.92 424.462 165.917 424.381C170.058 424.381 174.117 423.975 178.339 423.813ZM259.201 423.244C259.201 423.163 259.201 423.163 259.201 423.244C265.127 423.244 270.973 423.244 276.899 423.244C279.822 423.244 281.689 422.027 282.42 419.104C283.638 414.476 283.394 409.767 282.176 405.14C280.471 398.564 278.361 392.15 277.955 385.33C277.792 382.083 277.468 378.754 277.062 375.507C276.169 368.362 275.519 361.299 275.357 354.155C275.194 348.553 275.438 342.951 275.844 337.43C276.169 332.721 276.656 328.094 276.656 323.385C276.656 321.599 276.006 320.3 274.139 320.137C271.947 319.975 269.674 319.894 267.482 320.219C260.175 321.193 252.949 322.086 245.561 321.842C241.827 321.761 238.336 320.706 235.413 318.351C232.328 315.916 230.948 311.532 235.819 308.528C237.524 307.553 239.148 306.498 240.771 305.443C246.048 301.87 246.779 296.918 242.233 293.508C237.443 289.936 231.922 287.744 225.833 287.744C221.774 287.744 217.714 288.231 213.736 289.692C211.138 290.667 208.459 291.316 206.023 292.778C204.481 293.671 203.669 294.807 203.994 296.431C204.318 297.892 204.075 300.003 206.51 300.084C206.835 300.084 207.16 300.409 206.998 300.653C206.023 301.952 207.404 302.276 207.891 302.926C209.514 304.712 211.301 306.336 212.843 308.284C215.928 312.181 215.603 315.591 211.463 318.27C204.806 322.573 197.418 323.791 189.705 323.466C186.457 323.304 183.21 323.222 179.963 323.222C176.553 323.141 175.01 324.278 174.279 327.688C172.737 334.995 172.656 342.383 172.087 349.771C172.006 350.988 171.519 352.693 173.062 353.262C174.523 353.83 175.822 352.693 176.959 351.8C177.202 351.638 177.365 351.394 177.608 351.151C181.749 347.091 186.133 343.6 192.546 344.412C197.174 345.062 201.071 346.685 203.344 351.069C205.536 355.291 205.78 359.756 204.887 364.384C203.182 372.665 197.093 378.267 188.487 378.511C182.398 378.673 177.283 376.643 173.305 372.016C172.656 371.204 172.006 369.824 170.788 370.229C169.652 370.635 170.139 372.097 169.814 373.071C169.246 374.857 169.246 376.643 169.489 378.267C170.22 383.544 170.382 388.902 170.626 394.18C170.87 399.781 171.357 405.383 171.194 410.985C171.113 414.395 172.412 416.912 175.822 418.454C180.45 420.484 184.996 422.757 190.111 422.595C193.683 422.514 196.687 424.462 200.178 424.056C205.13 423.407 210.164 423.569 215.197 423.65C216.415 423.65 217.065 423.326 217.552 422.189C218.039 420.971 217.065 420.646 216.415 420.159C213.005 417.805 210.002 415.044 209.433 410.66C208.946 406.845 209.027 402.379 213.005 400.025C222.423 394.504 232.084 393.692 241.989 398.482C246.211 400.593 249.783 406.114 246.535 412.041C244.749 415.126 242.314 417.642 239.878 420.159C239.31 420.809 238.254 421.458 238.66 422.514C239.066 423.488 240.203 423.082 241.096 423.082C247.266 423.244 253.274 423.244 259.201 423.244ZM291.269 159.875C297.196 153.867 301.905 154.03 306.776 157.764C305.477 144.693 305.558 131.541 304.259 118.47C302.96 105.318 304.259 92.0843 304.259 78.6885C300.037 81.6113 295.897 82.6667 291.594 79.5004C289.24 106.454 290.782 133.246 291.269 159.875ZM219.663 423.65C224.372 423.65 228.837 423.65 233.383 423.65C234.845 423.65 236.387 424.056 236.225 421.621C236.144 420.89 236.955 420.078 237.443 419.429C239.148 417.318 240.934 415.288 242.72 413.258C246.779 408.387 245.074 404.328 240.446 401.811C237.118 400.025 233.302 399.051 229.405 399.375C224.372 399.781 219.5 400.918 215.035 403.597C213.736 404.409 213.168 405.383 213.005 406.682C212.599 410.579 213.898 413.827 217.065 416.181C220.069 418.454 220.718 420.078 219.663 423.65ZM189.786 281.005C194.982 279.463 200.259 277.92 205.455 276.378C208.459 275.485 208.459 275.404 207.728 272.4C207.728 272.318 207.728 272.237 207.728 272.156C207.322 271.507 207.322 270.776 205.942 271.182C201.802 272.481 197.58 273.374 193.358 274.348C188 275.566 188 275.485 189.543 280.6C189.624 280.762 189.705 280.843 189.786 281.005ZM204.806 262.495C200.097 265.661 194.576 266.473 189.218 267.772C185.646 268.665 185.727 268.503 186.782 272.156C187.269 273.78 187.838 273.455 188.893 273.13C193.115 271.75 197.336 270.451 201.639 269.233C206.998 267.61 206.998 267.691 204.806 262.495ZM192.546 287.663C192.546 287.663 192.628 287.663 192.709 287.663C198.229 286.039 203.75 284.496 209.19 282.71C210.976 282.142 209.514 280.518 209.433 279.463C209.433 278.408 208.784 278.489 207.728 278.732C203.588 279.788 199.528 280.924 195.307 281.574C193.845 281.817 192.059 281.817 190.923 282.548C189.38 283.603 191.41 285.065 191.329 286.445C191.329 286.689 191.329 286.932 191.41 287.094C191.572 287.419 191.897 287.744 192.546 287.663ZM182.885 259.085C183.454 261.034 184.022 262.82 184.428 264.687C184.753 266.067 185.158 266.148 186.539 265.742C192.465 264.037 198.148 261.196 204.481 261.521C203.913 259.085 203.669 259.085 201.639 259.41C195.55 260.303 189.299 259.897 182.885 259.085ZM199.853 319.001C200.259 318.838 200.584 318.757 200.909 318.676C204.237 317.783 207.566 316.809 210.407 314.617C211.138 314.048 212.031 313.318 211.301 312.343C210.489 311.207 210.002 309.177 207.972 309.746C205.049 310.557 202.208 311.532 199.366 312.425C198.798 312.587 198.311 312.831 198.554 313.642C198.96 315.51 199.447 317.296 199.853 319.001ZM315.706 61.1522C312.621 59.3661 311.16 56.0375 308.4 54.0078C307.588 54.6573 306.938 55.4692 306.045 55.9563C305.396 56.2811 304.909 56.8494 305.315 57.9048C306.614 61.2334 308.643 64.2373 308.724 67.9719C311.16 65.6175 313.433 63.4255 315.706 61.1522ZM207.079 287.094C203.75 287.906 200.422 288.718 197.093 289.449C192.303 290.423 192.303 290.423 193.764 295.051C195.875 294.401 197.905 293.589 200.016 293.021C200.665 292.859 201.315 292.778 201.639 292.128C202.776 289.936 204.968 288.799 207.079 287.094ZM205.699 306.66C204.318 303.738 202.37 303.332 199.366 304.387C195.875 305.686 195.713 305.361 197.093 308.852C197.093 308.934 197.174 309.015 197.174 309.015C197.499 309.583 197.661 309.908 198.473 309.502C200.909 308.447 203.425 307.635 205.699 306.66ZM194.251 297.973C194.414 301.87 195.144 302.439 198.717 301.383C198.96 301.302 199.285 301.14 199.528 301.14C201.315 301.059 201.558 300.084 200.746 298.785C200.178 297.811 201.315 296.106 200.016 295.781C199.041 295.538 197.742 296.431 196.606 296.756C195.956 296.918 195.307 296.999 194.738 297.324C194.657 297.405 193.683 297.162 194.251 297.973Z" fill="#1A1A1A"/>
<path d="M326.585 73.5738C324.312 70.4888 321.795 67.4037 319.847 63.9126C319.684 63.5879 318.954 63.0196 319.766 62.4513C320.415 61.9642 320.659 62.6137 321.065 62.9384C324.231 65.374 326.504 68.7026 328.777 71.8689C329.183 72.4372 329.833 73.0055 330.482 73.0867C333.649 73.7362 335.759 75.9283 337.627 78.2015C344.365 86.4013 350.941 94.7635 357.68 103.045C364.256 111.163 370.67 119.363 377.489 127.319C379.681 129.836 381.63 132.515 383.578 135.194C384.065 135.844 384.715 136.493 384.228 137.468C383.416 137.549 383.172 136.981 382.766 136.575C376.434 129.593 369.858 122.773 363.769 115.547C355.569 105.724 347.937 95.413 339.981 85.4271C337.464 82.2608 335.11 78.9322 331.862 76.3342C330.401 75.1976 329.589 75.9283 328.615 76.7401C328.371 76.9837 328.209 77.3084 328.047 77.6332C326.748 80.3123 324.069 81.7737 322.201 83.8845C321.389 84.7776 321.065 85.1835 321.958 86.4825C330.401 99.3912 340.144 111.326 349.236 123.666C353.864 129.998 359.141 135.844 363.931 142.014C369.208 148.834 375.135 155.085 380.087 162.148C380.656 162.879 380.899 163.853 380.899 164.99C379.275 163.447 377.571 161.986 375.947 160.443C370.183 154.517 364.987 148.103 359.872 141.608C355.001 135.438 349.967 129.349 345.339 122.935C340.549 116.44 335.922 109.864 331.213 103.288C328.453 99.3912 326.017 95.413 323.094 91.5973C321.958 90.0547 320.253 88.9181 319.035 87.3756C317.817 85.9954 317.492 85.0211 318.791 83.3974C321.552 80.4747 324.069 76.9837 326.585 73.5738Z" fill="#1A1A1A"/>
</g>
</g>
<defs>
<filter id="filter0_d_1478_5780" x="-4" y="0" width="520" height="520" filterUnits="userSpaceOnUse" color-interpolation-filters="sRGB">
<feFlood flood-opacity="0" result="BackgroundImageFix"/>
<feColorMatrix in="SourceAlpha" type="matrix" values="0 0 0 0 0 0 0 0 0 0 0 0 0 0 0 0 0 0 127 0" result="hardAlpha"/>
<feOffset dy="4"/>
<feGaussianBlur stdDeviation="2"/>
<feComposite in2="hardAlpha" operator="out"/>
<feColorMatrix type="matrix" values="0 0 0 0 0 0 0 0 0 0 0 0 0 0 0 0 0 0 0.25 0"/>
<feBlend mode="normal" in2="BackgroundImageFix" result="effect1_dropShadow_1478_5780"/>
<feBlend mode="normal" in="SourceGraphic" in2="effect1_dropShadow_1478_5780" result="shape"/>
</filter>
<clipPath id="clip0_1478_5780">
<rect width="343.5" height="416" fill="white" transform="translate(84 48)"/>
</clipPath>
</defs>
</svg>
