<svg width="68" height="68" viewBox="0 0 68 68" fill="none" xmlns="http://www.w3.org/2000/svg">
<rect width="68" height="68" rx="16" fill="#F5DF4D"/>
<path d="M56.5 20.2656C54.812 20.9991 53.026 21.4823 51.1984 21.7C53.1191 20.5754 54.5634 18.7887 55.2606 16.675C53.4448 17.7368 51.4615 18.4818 49.3956 18.8781C48.5257 17.9664 47.4795 17.2412 46.3206 16.7464C45.1616 16.2516 43.9142 15.9977 42.6541 16C37.5522 16 33.4234 20.0687 33.4234 25.0844C33.4198 25.782 33.4998 26.4776 33.6616 27.1562C30.0031 26.9847 26.4208 26.0515 23.1437 24.4162C19.8667 22.7809 16.967 20.4795 14.6303 17.6594C13.8105 19.0414 13.377 20.6182 13.375 22.225C13.375 25.375 15.0184 28.1594 17.5 29.7906C16.0297 29.7557 14.5896 29.3666 13.3019 28.6562V28.7687C13.3019 33.175 16.4894 36.8406 20.7081 37.675C19.9148 37.8865 19.0973 37.9936 18.2762 37.9937C17.6937 37.9947 17.1124 37.9382 16.5409 37.825C17.7137 41.4343 21.1272 44.0593 25.1706 44.1343C21.885 46.6665 17.8512 48.035 13.7031 48.025C12.9668 48.0239 12.2312 47.98 11.5 47.8937C15.7199 50.5883 20.6251 52.0136 25.6319 52C42.6344 52 51.9231 38.1531 51.9231 26.1437C51.9231 25.75 51.9128 25.3562 51.8941 24.9719C53.697 23.6894 55.2567 22.0957 56.5 20.2656Z" fill="#1A1A1A"/>
</svg>
