<svg width="68" height="68" viewBox="0 0 68 68" fill="none" xmlns="http://www.w3.org/2000/svg">
<rect width="68" height="68" rx="16" fill="#F5DF4D"/>
<path d="M50.925 18.6047C50.9147 17.5358 50.4835 16.5139 49.7249 15.7607C48.9662 15.0076 47.9413 14.5838 46.8722 14.5812L21.1582 14.5C20.0903 14.5002 19.066 14.9239 18.31 15.6781C17.5539 16.4323 17.1278 17.4556 17.125 18.5235V45.05C17.125 47.2681 18.9352 48.95 21.1582 48.95H43.125L42.0687 45.375L50.925 53.5V18.6047ZM39.6028 39.9971C39.6028 39.9971 38.8943 39.1529 38.3028 38.4273C40.8817 37.7009 41.8656 36.1125 41.8656 36.1125C41.1573 36.5824 40.3982 36.9708 39.6028 37.2703C38.6844 37.6516 37.7282 37.9346 36.7501 38.1145C35.0649 38.424 33.3369 38.4174 31.6541 38.095C30.6643 37.9112 29.6955 37.6281 28.7624 37.25C28.2688 37.0609 27.7889 36.8381 27.3259 36.5829C27.2666 36.5439 27.2081 36.5244 27.1488 36.4846C27.109 36.4651 27.0895 36.4456 27.0676 36.4456C26.7133 36.249 26.5167 36.1117 26.5167 36.1117C26.5167 36.1117 27.4608 37.6627 29.9601 38.4078C29.3694 39.1537 28.6414 40.0174 28.6414 40.0174C24.2937 39.8801 22.6411 37.0542 22.6411 37.0542C22.6411 30.7931 25.4742 25.7101 25.4742 25.7101C28.3074 23.6097 30.983 23.6691 30.983 23.6691L31.1796 23.9047C27.6379 24.9057 26.0251 26.4559 26.0251 26.4559C26.0251 26.4559 26.4574 26.2203 27.1854 25.9059C29.2906 24.9837 30.9635 24.7481 31.6541 24.6701C31.7643 24.6472 31.8764 24.6338 31.9889 24.6302C33.3073 24.4592 34.6413 24.4461 35.9628 24.5912C38.0377 24.8296 40.0479 25.4625 41.8851 26.4559C41.8851 26.4559 40.3308 24.9812 36.9858 23.9819L37.2612 23.6682C37.2612 23.6682 39.9563 23.6089 42.7708 25.7125C42.7708 25.7125 45.6039 30.7955 45.6039 37.0566C45.6039 37.0339 43.9505 39.8597 39.6028 39.9971Z" fill="#1A1A1A"/>
<path d="M30.4541 30.9125C29.3329 30.9125 28.4473 31.8745 28.4473 33.0713C28.4473 34.2681 29.3524 35.2301 30.4541 35.2301C31.5754 35.2301 32.461 34.2689 32.461 33.0713C32.4813 31.8721 31.5754 30.9125 30.4541 30.9125ZM37.635 30.9125C36.5138 30.9125 35.6281 31.8745 35.6281 33.0713C35.6281 34.2681 36.5333 35.2301 37.635 35.2301C38.7571 35.2301 39.6419 34.2689 39.6419 33.0713C39.6419 31.8737 38.7376 30.9125 37.635 30.9125Z" fill="#1A1A1A"/>
</svg>
