<svg width="416" height="416" viewBox="0 0 416 416" fill="none" xmlns="http://www.w3.org/2000/svg">
<path d="M315.579 383.131C314.22 388.737 312.861 394.087 311.502 399.523C311.417 400.033 311.247 400.457 311.162 400.967C310.228 404.619 308.53 405.723 304.793 404.789C299.612 403.515 294.346 402.156 289.165 400.882C254.597 392.389 220.03 383.895 185.462 375.487C184.613 375.232 183.679 375.232 182.744 375.232C158.454 375.232 134.163 375.232 109.957 375.232C108.598 375.232 107.579 375.572 106.645 376.591C102.058 381.517 96.7076 385.339 90.6774 388.312C89.4034 388.906 88.9787 389.671 88.9787 391.115C89.0637 397.655 88.9787 404.109 88.9787 410.649C88.9787 414.556 87.5349 416 83.628 416C57.7235 416 31.8191 416 5.91463 416C1.4132 416 0.0542765 414.641 0.0542765 410.14C0.0542765 374.128 0.0542765 338.117 0.0542765 302.105C0.0542765 294.886 -0.200521 287.667 0.394007 280.448C1.49813 267.453 7.52835 257.176 18.6545 250.212C22.8162 247.579 27.2327 245.285 31.4793 242.737C32.3287 242.228 33.178 241.209 33.4328 240.274C40.0575 213.945 46.5124 187.531 52.9673 161.117C53.307 159.588 53.392 157.89 53.392 156.276C53.4769 151.265 53.392 146.254 53.392 141.243C53.392 140.648 53.307 139.969 53.307 139.205C48.5508 140.224 43.9644 141.413 39.2931 142.177C24.1751 144.64 9.99139 135.213 6.25436 120.434C2.17759 104.297 12.3695 88.1601 28.8464 84.5929C36.4054 82.9792 43.8795 81.1107 51.3536 79.5819C53.0522 79.2421 53.392 78.4777 53.392 76.864C53.307 53.2528 53.392 29.5566 53.392 5.94528C53.392 1.27399 54.666 0 59.3372 0C157.689 0 256.041 0 354.478 0C355.158 0 355.752 0 356.347 0C359.999 0 361.528 1.52879 361.528 5.18089C361.528 18.5153 361.528 31.7648 361.528 45.0992C361.528 52.0637 361.612 59.1131 361.528 66.0776C361.528 67.6913 362.037 68.2858 363.481 68.6256C371.04 70.4091 378.599 72.2777 386.073 74.1462C389.64 74.9955 390.659 76.7791 389.81 80.4312C385.309 98.8616 380.722 117.292 376.221 135.807C371.465 155.257 366.624 174.791 361.952 194.241C361.697 195.26 361.612 196.364 361.612 197.383C361.612 207.066 361.612 216.748 361.528 226.43C361.528 227.959 361.952 228.808 363.311 229.658C373.673 235.943 383.865 242.398 394.227 248.683C405.438 255.562 412.147 265.499 414.441 278.409C414.865 280.617 415.035 282.911 415.035 285.119C415.035 326.906 415.035 368.608 415.035 410.394C415.035 414.556 413.676 416 409.43 416C383.44 416 357.451 416 331.546 416C327.554 416 326.111 414.556 326.111 410.479C326.111 404.024 326.111 397.57 326.111 391.2C326.111 389.841 325.771 389.076 324.497 388.397C321.524 386.698 318.721 384.915 315.579 383.131ZM353.204 280.617C353.204 189.824 353.204 99.1164 353.204 8.3234C256.041 8.3234 159.048 8.3234 62.0551 8.3234C62.0551 36.0964 62.0551 63.7844 62.0551 91.6423C68.1702 90.2834 74.1155 88.9245 79.9759 87.5655C84.817 86.3765 89.6582 85.697 94.5843 87.2258C104.267 90.1984 110.637 99.0314 110.382 109.138C110.042 119.415 103.247 127.739 92.8856 130.117C83.3732 132.325 73.7758 134.448 64.1784 136.572C62.4798 136.911 61.8003 137.591 61.8003 139.459C61.8852 185.748 61.8852 232.036 61.8852 278.324C61.8852 279.089 61.8852 279.853 61.8852 280.787C63.3291 280.448 64.5181 279.938 65.7072 279.938C67.8305 279.853 68.0853 278.749 68.0853 276.965C68.0004 260.149 68.0004 243.247 68.0853 226.43C68.0853 223.713 68.51 220.91 69.5292 218.362C72.6717 210.123 81.2499 205.197 91.187 205.452C103.247 205.877 111.911 214.71 111.911 226.685C111.911 243.672 111.911 260.658 111.911 277.645C111.911 280.532 112.165 283.165 113.694 285.798C114.628 287.412 115.223 289.281 115.902 291.064C121.423 306.607 122.782 322.659 122.102 338.881C121.678 348.394 119.47 357.481 114.798 365.89C114.713 366.145 114.628 366.399 114.543 366.739C176.714 366.739 238.715 366.739 300.971 366.739C300.631 365.975 300.376 365.465 300.121 364.871C295.96 357.057 294.006 348.733 293.412 339.9C292.817 330.728 293.242 321.64 294.431 312.552C295.705 302.87 298.083 293.442 302.245 284.524C303.009 282.911 303.519 280.872 303.519 279.089C303.603 261.338 303.603 243.587 303.603 225.836C303.603 217.597 307.51 211.907 314.475 208C318.467 205.792 322.713 205.197 327.215 205.452C337.492 206.047 347.514 214.115 347.429 226.176C347.174 242.907 347.344 259.724 347.344 276.456C347.344 277.135 347.259 277.73 347.429 278.324C347.514 278.749 347.938 279.428 348.363 279.513C349.807 279.938 351.421 280.278 353.204 280.617ZM406.797 407.507C406.797 406.233 406.797 405.129 406.797 404.109C406.797 364.786 406.797 325.462 406.797 286.053C406.797 272.973 401.191 262.951 390.235 255.902C383.355 251.485 376.476 247.324 369.511 242.992C367.048 241.463 364.5 239.935 361.697 238.236C361.697 251.146 361.697 263.716 361.697 276.456C363.056 276.031 364.245 275.606 365.434 275.267C366.624 274.927 367.897 274.757 369.171 274.502C372.059 273.993 374.182 275.352 374.607 277.9C375.032 280.278 373.333 282.146 370.361 282.656C367.643 283.08 365.01 283.76 362.717 285.543C362.971 285.883 363.141 286.138 363.396 286.308C370.955 292.338 374.692 300.407 376.221 309.749C376.561 311.958 375.711 313.656 373.928 314.505C371.295 315.695 368.747 314.081 368.152 310.853C365.434 296.5 357.875 289.196 344.116 287.497C339.87 286.987 338.935 285.883 338.935 281.637C338.935 263.036 338.935 244.436 338.935 225.836C338.935 223.033 338.171 220.57 336.387 218.447C333.67 215.304 330.102 213.86 326.111 213.69C318.891 213.351 311.417 218.022 311.587 226.855C311.842 244.436 311.587 261.932 311.672 279.513C311.672 282.656 311.417 285.628 309.634 288.431C308.615 290.045 307.935 291.998 307.341 293.867C301.82 309.41 300.546 325.462 301.82 341.769C302.924 355.783 308.869 367.334 320.165 375.997C327.3 381.517 335.453 384.66 344.201 386.528C347.004 387.123 348.533 389.161 348.023 391.454C347.429 394.002 345.305 395.191 342.503 394.512C339.955 393.918 337.407 393.323 334.689 392.728C334.689 397.824 334.689 402.666 334.689 407.677C358.64 407.507 382.591 407.507 406.797 407.507ZM53.392 240.02C52.7125 240.274 52.2878 240.444 51.8632 240.699C42.4357 246.05 32.9232 251.231 23.6655 256.751C13.4736 262.866 8.46261 272.294 8.37767 283.93C8.20781 324.358 8.29274 364.701 8.29274 405.129C8.29274 405.893 8.29274 406.657 8.29274 407.422C32.5835 407.422 56.6194 407.422 80.5704 407.422C80.5704 402.411 80.5704 397.57 80.5704 392.559C77.8526 393.238 75.3046 393.833 72.7566 394.342C69.9538 394.937 67.8305 393.833 67.4059 391.37C66.8963 388.822 68.3401 387.123 71.2278 386.274C76.2388 384.745 81.3348 383.556 86.0061 381.263C104.012 372.599 113.1 357.821 113.694 338.032C113.949 330.303 113.609 322.489 112.845 314.76C111.911 304.908 109.363 295.311 104.776 286.393C104.097 285.034 103.587 283.335 103.587 281.806C103.502 263.206 103.502 244.606 103.502 226.006C103.502 224.987 103.502 224.052 103.247 223.033C102.058 217.767 97.3871 214.03 90.8473 213.521C83.2882 212.926 75.8991 218.022 76.069 226.6C76.4087 244.521 76.1539 262.442 76.1539 280.278C76.1539 286.393 75.6443 286.817 69.5292 287.582C60.951 288.686 54.1564 292.763 50.2495 300.746C48.7207 303.974 48.0412 307.541 46.8521 310.938C46.5124 312.042 45.9179 313.147 45.0686 313.911C43.7946 315.015 42.1809 314.93 40.737 314.081C39.1233 313.147 38.6137 311.703 38.8685 309.919C40.1425 300.831 43.7096 293.018 50.7591 286.902C51.2687 286.393 51.8632 285.968 52.9673 284.949C49.7399 284.015 47.1069 283.08 44.474 282.571C41.7562 281.976 40.2274 280.278 40.5671 277.73C40.9069 275.352 43.0302 273.908 45.748 274.417C48.2111 274.927 50.6741 275.521 53.2221 276.116C53.392 264.225 53.392 252.25 53.392 240.02ZM303.943 395.956C305.387 390.096 306.746 384.575 308.105 379.054C308.869 375.827 308.275 375.147 305.047 375.147C277.784 375.147 250.436 375.147 223.172 375.147C222.408 375.147 221.728 375.147 220.964 375.147C220.964 375.317 220.964 375.487 220.879 375.657C248.482 382.367 276.085 389.161 303.943 395.956ZM361.697 159.164C361.867 159.164 361.952 159.164 362.122 159.164C368.492 133.259 374.862 107.44 381.232 81.4504C374.607 79.8367 368.237 78.223 361.782 76.6092C361.697 104.297 361.697 131.73 361.697 159.164ZM61.8852 112.026C66.8963 110.922 71.5675 109.818 76.2388 108.799C80.1457 107.949 84.0526 106.93 88.0445 106.166C90.5925 105.656 92.7158 106.845 93.2254 108.969C93.8199 111.347 92.6308 113.385 89.9979 114.065C88.9787 114.319 87.9595 114.574 86.9404 114.829C79.2115 116.528 71.4826 118.311 63.8387 120.095C63.0743 120.265 61.9702 120.944 61.9702 121.539C61.8003 123.832 61.8852 126.125 61.8852 128.843C72.5867 126.295 83.2033 124.256 93.4802 121.284C100.19 119.33 103.672 111.517 101.719 104.722C99.6802 97.6725 92.8856 93.4259 85.6664 94.8697C82.8636 95.3793 80.1457 96.0588 77.4279 96.6533C72.247 97.8424 67.151 99.0314 62.0551 100.136C61.8852 104.127 61.8852 107.949 61.8852 112.026ZM53.392 122.473C49.6549 123.322 46.2576 124.256 42.7754 124.851C39.6329 125.361 36.4054 126.125 33.3479 125.615C26.5533 124.596 21.9669 118.651 21.9669 112.026C21.9669 105.316 26.5533 99.7109 33.3479 98.0972C39.3781 96.7383 45.4932 95.2944 51.5234 94.0204C52.9673 93.6807 53.5618 93.0862 53.392 91.6423C53.2221 90.3683 53.392 89.0094 53.392 87.2258C44.2192 89.4341 35.2164 91.0478 26.6382 93.9355C17.3805 96.9931 12.1996 107.355 13.8983 116.612C15.8517 126.889 24.0053 134.363 34.2821 134.024C40.6521 133.769 47.022 131.985 53.307 130.881C53.392 127.824 53.392 125.276 53.392 122.473ZM53.4769 102.004C47.107 103.448 41.0767 104.722 35.1315 106.166C31.5643 107.015 29.6958 109.903 30.3752 113.215C31.0547 116.273 33.9424 118.226 37.5945 117.462C42.5206 116.528 47.3617 115.339 52.2029 114.149C52.7125 114.065 53.392 113.3 53.392 112.875C53.5618 109.308 53.4769 105.826 53.4769 102.004ZM42.9453 236.198C46.2576 234.329 48.8905 232.8 51.6933 231.356C53.0522 230.677 53.5618 229.828 53.5618 228.214C53.4769 217.852 53.5618 207.575 53.4769 197.214C53.4769 196.619 53.392 195.94 53.392 195.345C53.307 195.345 53.1372 195.345 53.0522 195.345C49.7399 208.849 46.4275 222.184 42.9453 236.198Z" fill="black"/>
<path d="M353.204 280.617C351.421 280.278 349.807 279.938 348.193 279.513C347.768 279.428 347.429 278.749 347.259 278.324C347.089 277.73 347.174 277.05 347.174 276.456C347.174 259.639 347.004 242.907 347.259 226.176C347.429 214.115 337.407 205.962 327.045 205.452C322.544 205.197 318.297 205.877 314.305 208C307.341 211.822 303.434 217.597 303.434 225.836C303.519 243.587 303.519 261.338 303.349 279.089C303.349 280.872 302.839 282.826 302.075 284.524C297.913 293.442 295.535 302.87 294.261 312.552C293.072 321.64 292.732 330.728 293.242 339.9C293.751 348.733 295.79 357.057 299.951 364.871C300.206 365.38 300.461 365.975 300.801 366.739C238.545 366.739 176.544 366.739 114.374 366.739C114.459 366.399 114.544 366.06 114.628 365.89C119.3 357.482 121.508 348.394 121.933 338.881C122.612 322.574 121.253 306.522 115.733 291.064C115.053 289.281 114.459 287.412 113.524 285.798C111.996 283.25 111.741 280.533 111.741 277.645C111.826 260.658 111.741 243.672 111.741 226.685C111.741 214.71 103.078 205.792 91.0172 205.452C81.0801 205.112 72.4169 210.123 69.3594 218.362C68.4251 220.91 68.0004 223.713 67.9155 226.43C67.8306 243.247 67.8306 260.149 67.9155 276.965C67.9155 278.834 67.6607 279.938 65.5374 279.938C64.3483 279.938 63.2442 280.448 61.7154 280.787C61.7154 279.853 61.7154 279.089 61.7154 278.324C61.7154 232.036 61.7154 185.748 61.6305 139.459C61.6305 137.591 62.31 136.911 64.0086 136.572C73.606 134.448 83.2034 132.325 92.7158 130.117C103.078 127.654 109.872 119.415 110.212 109.139C110.552 99.0315 104.182 90.1985 94.4145 87.2259C89.4884 85.6971 84.6472 86.4615 79.8061 87.5656C73.9457 89.0095 68.0004 90.2835 61.8853 91.6424C61.8853 63.7845 61.8853 36.0965 61.8853 8.32349C158.963 8.32349 255.956 8.32349 353.034 8.32349C353.204 99.1165 353.204 189.825 353.204 280.617ZM207.969 225.666C207.969 225.921 207.969 226.261 207.969 226.515C234.723 226.515 261.477 226.515 288.231 226.515C292.138 226.515 293.666 225.072 293.666 221.165C293.666 212.077 293.666 203.074 293.666 193.986C293.666 187.361 292.477 180.907 290.014 174.707C285.003 162.306 276.595 152.539 266.233 144.386C264.789 143.281 264.704 142.517 265.469 140.903C268.611 134.873 270.65 128.418 271.584 121.624C271.754 120.435 272.263 119.925 273.368 119.67C280.842 117.547 284.918 112.536 285.938 104.892C286.957 97.2479 283.559 89.5191 276.85 86.8862C272.858 85.3574 272.009 83.1491 271.414 79.3272C265.554 40.8527 226.06 16.562 188.775 28.1977C164.059 35.9266 146.478 57.4995 143.845 83.2341C143.76 83.9135 143.081 85.0176 142.486 85.1875C134.927 87.3958 130.851 92.4068 130.086 100.136C129.152 109.054 132.719 117.377 142.741 119.925C143.336 120.095 144.185 120.859 144.27 121.454C145.374 128.503 147.497 135.213 150.81 141.498C151.489 142.772 150.98 143.281 150.045 144.046C146.138 147.528 142.062 150.925 138.579 154.747C127.793 166.553 121.763 180.227 122.187 196.449C122.357 204.348 122.187 212.332 122.187 220.23C122.187 224.052 123.716 225.496 127.453 225.581C154.377 225.666 181.216 225.666 207.969 225.666ZM193.361 321.64C211.197 321.64 229.033 321.64 246.869 321.64C247.718 321.64 248.567 321.64 249.417 321.47C251.37 320.96 252.559 319.432 252.559 317.478C252.559 315.525 251.37 313.996 249.332 313.486C248.482 313.317 247.633 313.317 246.784 313.317C211.112 313.317 175.525 313.317 139.853 313.317C139.259 313.317 138.749 313.317 138.155 313.317C135.947 313.571 134.248 315.27 134.248 317.308C134.163 319.432 135.862 321.3 138.24 321.47C138.834 321.555 139.514 321.47 140.108 321.47C157.859 321.64 175.61 321.64 193.361 321.64ZM193.106 276.201C211.027 276.201 229.033 276.201 246.953 276.201C247.548 276.201 248.058 276.201 248.652 276.201C250.775 276.031 252.389 274.417 252.474 272.379C252.559 270.341 251.285 268.642 249.332 268.217C248.482 268.047 247.548 267.963 246.614 267.963C211.197 267.963 175.78 267.963 140.363 267.963C139.344 267.963 138.41 267.963 137.39 268.217C135.522 268.642 134.163 270.426 134.248 272.209C134.333 274.163 135.862 275.861 137.815 276.116C138.495 276.201 139.259 276.201 139.938 276.201C157.604 276.201 175.355 276.201 193.106 276.201ZM193.446 290.724C184.103 290.724 174.761 290.724 165.418 290.724C156.415 290.724 147.412 290.724 138.495 290.724C136.116 290.724 134.333 292.423 134.248 294.631C134.163 296.755 135.777 298.538 138.155 298.793C138.919 298.878 139.684 298.878 140.448 298.878C175.78 298.878 211.112 298.878 246.359 298.878C247.293 298.878 248.227 298.878 249.077 298.708C250.945 298.453 251.965 297.264 252.304 295.566C252.644 293.697 251.965 292.083 250.266 291.319C249.332 290.894 248.227 290.809 247.208 290.809C229.372 290.724 211.452 290.724 193.446 290.724ZM211.197 245.37C201.854 245.37 192.512 245.37 183.169 245.37C180.027 245.37 176.969 245.286 173.826 245.37C171.279 245.455 169.58 247.154 169.665 249.532C169.665 251.825 171.363 253.524 173.911 253.694C174.506 253.694 175.016 253.694 175.61 253.694C187.501 253.694 199.391 253.694 211.282 253.694C223.087 253.694 234.893 253.694 246.699 253.694C247.208 253.694 247.718 253.694 248.143 253.694C250.945 253.609 252.899 251.995 252.899 249.617C252.984 247.154 251.03 245.37 248.058 245.37C235.742 245.37 223.512 245.37 211.197 245.37ZM271.159 276.201C272.518 276.201 273.877 276.286 275.151 276.201C277.359 276.116 279.058 274.417 279.143 272.294C279.228 270.341 277.784 268.302 275.661 268.217C272.688 268.047 269.63 268.047 266.573 268.217C264.45 268.387 263.006 270.426 263.176 272.379C263.345 274.417 264.959 276.031 266.998 276.201C268.526 276.286 269.885 276.201 271.159 276.201ZM271.159 321.64C272.518 321.64 273.877 321.725 275.151 321.64C277.444 321.47 279.228 319.686 279.228 317.563C279.228 315.44 277.529 313.571 275.236 313.486C272.603 313.401 270.055 313.401 267.422 313.486C265.044 313.571 263.345 315.44 263.345 317.563C263.345 319.686 265.044 321.47 267.337 321.725C268.611 321.725 269.885 321.64 271.159 321.64ZM271.159 298.793C272.603 298.793 274.132 298.878 275.576 298.793C277.699 298.623 279.228 296.84 279.228 294.801C279.228 292.678 277.529 290.894 275.406 290.809C272.773 290.724 270.055 290.724 267.337 290.809C265.129 290.894 263.43 292.508 263.345 294.631C263.261 296.67 264.789 298.538 266.998 298.793C268.356 298.963 269.8 298.793 271.159 298.793ZM86.0911 27.9429C83.5431 27.9429 81.5897 29.7265 81.5897 32.0197C81.5047 34.3978 83.5431 36.2663 86.176 36.2663C88.724 36.2663 90.6774 34.4827 90.6774 32.1896C90.6774 29.8114 88.6391 27.9429 86.0911 27.9429ZM104.012 36.2663C106.56 36.2663 108.513 34.4827 108.513 32.1896C108.513 29.8114 106.475 27.9429 103.927 28.0279C101.379 28.0279 99.4255 29.8114 99.4255 32.1046C99.3406 34.3978 101.379 36.2663 104.012 36.2663ZM279.737 348.818C282.285 348.818 284.239 347.035 284.239 344.742C284.324 342.363 282.285 340.495 279.653 340.495C277.105 340.495 275.151 342.279 275.151 344.572C275.151 346.95 277.189 348.818 279.737 348.818ZM261.902 348.818C264.535 348.818 266.573 346.95 266.488 344.572C266.488 342.279 264.45 340.495 261.987 340.495C259.354 340.495 257.315 342.363 257.4 344.742C257.4 347.035 259.354 348.818 261.902 348.818ZM243.896 348.818C246.529 348.903 248.567 347.12 248.652 344.742C248.737 342.448 246.784 340.58 244.236 340.495C241.603 340.41 239.564 342.194 239.479 344.572C239.479 346.865 241.433 348.733 243.896 348.818ZM226.23 348.818C228.693 348.818 230.731 347.035 230.816 344.742C230.901 342.363 228.863 340.495 226.23 340.495C223.682 340.495 221.728 342.279 221.644 344.572C221.644 346.865 223.682 348.818 226.23 348.818ZM208.479 348.818C210.942 348.818 212.896 346.95 212.896 344.657C212.896 342.279 210.857 340.41 208.224 340.495C205.676 340.58 203.808 342.363 203.808 344.657C203.893 347.035 205.931 348.818 208.479 348.818ZM190.558 348.818C193.106 348.818 195.06 347.035 195.145 344.742C195.23 342.363 193.191 340.495 190.558 340.495C188.01 340.495 186.057 342.279 185.972 344.572C185.972 346.865 188.01 348.818 190.558 348.818ZM172.807 348.818C175.355 348.818 177.224 346.95 177.309 344.657C177.309 342.279 175.27 340.41 172.637 340.495C170.089 340.495 168.221 342.363 168.136 344.657C168.136 347.035 170.259 348.818 172.807 348.818ZM154.971 348.818C157.434 348.818 159.388 347.035 159.473 344.742C159.473 342.363 157.434 340.495 154.887 340.58C152.339 340.58 150.47 342.363 150.385 344.657C150.3 346.95 152.339 348.818 154.971 348.818ZM136.966 348.818C139.599 348.818 141.637 347.035 141.637 344.657C141.637 342.363 139.684 340.58 137.136 340.495C134.503 340.495 132.464 342.279 132.464 344.657C132.549 346.95 134.503 348.733 136.966 348.818ZM139.599 36.2663C142.147 36.2663 144.27 34.3978 144.185 32.0197C144.1 29.7265 142.147 27.9429 139.684 27.9429C137.051 27.9429 135.012 29.8114 135.097 32.1896C135.097 34.4827 137.051 36.2663 139.599 36.2663ZM121.763 36.2663C124.311 36.2663 126.264 34.4827 126.349 32.1896C126.434 29.8114 124.396 27.9429 121.763 27.9429C119.215 27.9429 117.261 29.7265 117.176 32.0197C117.176 34.3129 119.215 36.2663 121.763 36.2663Z" fill="white"/>
<path d="M406.797 407.507C382.591 407.507 358.64 407.507 334.519 407.507C334.519 402.581 334.519 397.739 334.519 392.559C337.152 393.153 339.7 393.833 342.333 394.342C345.22 394.937 347.344 393.748 347.853 391.285C348.363 388.991 346.834 386.953 344.031 386.358C335.283 384.49 327.13 381.347 319.995 375.827C308.784 367.164 302.754 355.613 301.65 341.599C300.376 325.292 301.65 309.24 307.171 293.697C307.85 291.828 308.445 289.875 309.464 288.261C311.247 285.459 311.502 282.571 311.502 279.343C311.417 261.762 311.672 244.266 311.417 226.685C311.247 217.852 318.721 213.096 325.941 213.521C329.933 213.69 333.5 215.219 336.218 218.277C338.086 220.4 338.766 222.863 338.766 225.666C338.766 244.266 338.766 262.866 338.766 281.467C338.766 285.713 339.7 286.817 343.946 287.327C357.79 289.026 365.265 296.245 367.982 310.683C368.577 313.911 371.125 315.525 373.758 314.336C375.541 313.486 376.391 311.873 376.051 309.579C374.607 300.237 370.785 292.168 363.226 286.138C363.056 285.968 362.886 285.713 362.547 285.374C364.84 283.59 367.473 282.911 370.191 282.486C373.163 281.976 374.862 280.108 374.437 277.73C374.013 275.182 371.889 273.908 369.002 274.332C367.728 274.502 366.454 274.757 365.265 275.097C364.075 275.436 362.886 275.861 361.527 276.286C361.527 263.546 361.527 250.976 361.527 238.066C364.33 239.765 366.878 241.294 369.341 242.822C376.221 247.069 383.185 251.316 390.065 255.732C401.021 262.782 406.627 272.804 406.627 285.883C406.627 325.207 406.627 364.531 406.627 403.94C406.797 405.129 406.797 406.148 406.797 407.507Z" fill="white"/>
<path d="M53.392 240.02C53.392 252.25 53.392 264.225 53.392 276.201C50.844 275.606 48.381 274.927 45.9179 274.502C43.2001 273.993 40.9918 275.436 40.737 277.815C40.3973 280.447 41.8412 282.061 44.6439 282.656C47.2768 283.25 49.9098 284.1 53.1372 285.034C52.0331 286.053 51.5235 286.563 50.929 286.987C43.8795 293.102 40.3124 300.916 39.0384 310.004C38.7836 311.788 39.3781 313.231 40.9069 314.166C42.3508 315.015 43.9645 315.1 45.2385 313.996C46.0878 313.231 46.6823 312.127 47.022 311.023C48.2111 307.626 48.8906 303.974 50.4194 300.831C54.2413 292.848 61.0359 288.771 69.6991 287.667C75.8142 286.902 76.3238 286.478 76.3238 280.363C76.3238 262.442 76.5786 244.521 76.2389 226.685C76.069 218.107 83.5431 213.011 91.0172 213.605C97.557 214.115 102.228 217.767 103.417 223.118C103.587 224.052 103.672 225.071 103.672 226.091C103.672 244.691 103.672 263.291 103.757 281.891C103.757 283.42 104.182 285.119 104.946 286.478C109.532 295.396 111.996 304.993 113.015 314.845C113.779 322.574 114.119 330.388 113.864 338.117C113.185 357.906 104.182 372.684 86.176 381.347C81.5047 383.556 76.4087 384.83 71.3977 386.358C68.51 387.208 67.0662 388.906 67.5757 391.454C68.0853 393.833 70.1237 395.022 72.9265 394.427C75.4745 393.833 78.0225 393.238 80.7403 392.643C80.7403 397.654 80.7403 402.496 80.7403 407.507C56.7893 407.507 32.7534 407.507 8.46264 407.507C8.46264 406.742 8.46264 405.978 8.46264 405.214C8.46264 364.786 8.37771 324.443 8.54757 284.015C8.6325 272.379 13.6435 262.866 23.8354 256.836C33.0931 251.316 42.6056 246.135 52.0331 240.784C52.2879 240.444 52.7125 240.274 53.392 240.02Z" fill="white"/>
<path d="M303.943 395.956C276.085 389.076 248.482 382.367 220.964 375.572C220.964 375.402 220.964 375.232 221.049 375.062C221.813 375.062 222.493 375.062 223.257 375.062C250.521 375.062 277.869 375.062 305.132 375.062C308.445 375.062 308.954 375.827 308.19 378.969C306.746 384.575 305.387 390.18 303.943 395.956Z" fill="white"/>
<path d="M361.697 159.164C361.697 131.73 361.697 104.297 361.697 76.6091C368.152 78.2229 374.522 79.7516 381.147 81.4503C374.777 107.44 368.407 133.344 362.037 159.164C361.952 159.164 361.867 159.164 361.697 159.164Z" fill="white"/>
<path d="M61.8852 112.026C61.8852 107.949 61.8852 104.127 61.8852 100.051C66.9812 98.8616 72.162 97.6726 77.258 96.5685C79.9758 95.9739 82.7786 95.2945 85.4965 94.7849C92.7157 93.341 99.5103 97.5877 101.549 104.637C103.502 111.432 100.02 119.245 93.3103 121.199C83.0334 124.172 72.5018 126.21 61.7153 128.758C61.7153 126.125 61.6304 123.747 61.8003 121.454C61.8852 120.944 62.9893 120.18 63.6688 120.01C71.3976 118.226 79.1265 116.528 86.7705 114.744C87.7896 114.489 88.8088 114.319 89.828 113.98C92.376 113.215 93.65 111.262 93.0555 108.884C92.5459 106.76 90.3376 105.486 87.8746 106.081C83.9677 106.93 80.0608 107.865 76.0689 108.714C71.5675 109.903 66.8962 110.922 61.8852 112.026Z" fill="white"/>
<path d="M53.3919 122.473C53.3919 125.361 53.3919 127.824 53.3919 130.966C47.1069 132.07 40.7369 133.854 34.367 134.109C24.0901 134.448 15.8517 126.974 13.9831 116.697C12.2845 107.355 17.4654 97.078 26.723 94.0205C35.3012 91.1328 44.3041 89.604 53.4768 87.3108C53.4768 89.0094 53.3919 90.3684 53.4768 91.7273C53.6467 93.2561 53.0521 93.8506 51.6083 94.1054C45.4931 95.3794 39.4629 96.8232 33.4327 98.1822C26.5532 99.711 21.9668 105.317 22.0517 112.111C22.0517 118.736 26.6381 124.681 33.4327 125.7C36.4903 126.21 39.7177 125.446 42.8602 124.936C46.2575 124.172 49.7398 123.237 53.3919 122.473Z" fill="white"/>
<path d="M53.4768 102.004C53.4768 105.826 53.5618 109.393 53.3919 112.876C53.3919 113.3 52.7124 114.065 52.2028 114.15C47.3617 115.339 42.4356 116.528 37.5944 117.462C34.0273 118.141 31.0546 116.273 30.3752 113.215C29.6957 109.903 31.5642 107.015 35.1314 106.166C41.1616 104.722 47.1069 103.448 53.4768 102.004Z" fill="white"/>
<path d="M42.9453 236.198C46.4276 222.184 49.7399 208.85 53.0523 195.43C53.1372 195.43 53.3071 195.43 53.392 195.43C53.477 196.025 53.477 196.704 53.477 197.299C53.477 207.66 53.477 217.937 53.5619 228.299C53.5619 229.828 53.0523 230.677 51.6934 231.442C48.8906 232.801 46.2577 234.329 42.9453 236.198Z" fill="white"/>
<path d="M207.969 225.666C181.131 225.666 154.377 225.666 127.538 225.666C123.801 225.666 122.272 224.137 122.272 220.315C122.272 212.417 122.442 204.433 122.272 196.534C121.848 180.312 127.878 166.553 138.664 154.832C142.147 151.01 146.223 147.613 150.13 144.131C150.98 143.366 151.574 142.857 150.895 141.583C147.582 135.298 145.459 128.588 144.355 121.539C144.27 120.944 143.421 120.18 142.826 120.01C132.804 117.462 129.237 109.139 130.171 100.221C130.935 92.4917 135.012 87.4807 142.571 85.2725C143.166 85.1026 143.845 83.9985 143.93 83.319C146.563 57.5844 164.144 36.0115 188.859 28.2827C226.145 16.562 265.724 40.9376 271.499 79.4121C272.093 83.2341 272.943 85.4423 276.935 86.9711C283.644 89.604 287.042 97.2479 286.022 104.977C285.003 112.621 280.926 117.717 273.452 119.755C272.348 120.095 271.839 120.519 271.669 121.709C270.735 128.503 268.696 134.958 265.554 140.988C264.704 142.517 264.874 143.281 266.318 144.47C276.765 152.624 285.173 162.391 290.099 174.791C292.562 180.992 293.751 187.361 293.751 194.071C293.751 203.159 293.751 212.162 293.751 221.25C293.751 225.156 292.222 226.6 288.316 226.6C261.562 226.6 234.808 226.6 208.054 226.6C207.969 226.176 207.969 225.921 207.969 225.666ZM223.512 74.0613C219.945 77.034 216.802 80.0066 213.235 82.3847C198.287 92.6616 181.47 94.7849 163.974 93.426C159.982 93.0863 156.075 92.4068 151.999 91.8972C151.914 92.3219 151.914 92.5767 151.914 92.8315C151.914 99.9658 151.914 107.1 151.914 114.234C151.914 119.925 152.763 125.531 154.632 130.881C155.991 134.788 156.925 138.95 160.407 141.753C160.832 142.092 161.002 142.857 161.171 143.451C161.681 144.555 161.936 145.829 162.7 146.849C170.174 156.956 179.942 163.92 191.917 167.487C192.681 167.742 193.701 167.402 194.55 167.487C195.824 167.572 197.523 167.317 198.287 167.997C199.816 169.356 201.514 169.695 203.298 169.78C206.441 169.865 209.498 169.95 212.641 169.78C215.189 169.611 217.906 169.695 220.03 167.742C220.539 167.317 221.643 167.402 222.493 167.317C223.767 167.148 225.211 167.232 226.4 166.808C232.685 164.684 238.545 161.627 243.471 157.21C248.227 153.049 253.238 149.057 255.192 142.602C255.362 141.923 256.126 141.413 256.636 140.818C257.06 140.309 257.655 139.799 257.995 139.205C261.647 131.985 263.855 124.341 264.025 116.273C264.195 108.799 264.025 101.24 264.025 93.7657C264.025 93.2561 263.94 92.6616 263.855 91.9821C246.104 95.5493 232.94 88.8396 223.512 74.0613ZM263.855 83.319C263.43 81.1108 263.176 79.0724 262.666 77.034C255.617 47.987 228.098 29.7265 198.627 34.5677C174.846 38.4746 155.736 57.9241 152.338 81.4505C152.169 82.7245 152.423 83.319 153.782 83.6587C162.106 85.2724 170.429 86.0368 178.922 85.3574C195.824 84.0834 210.178 78.0532 220.539 64.1242C223.002 60.8968 226.4 61.4064 228.183 65.0585C229.542 67.8613 230.986 70.664 232.855 73.1271C240.838 83.9135 252.729 86.6314 263.855 83.319ZM155.991 149.991C148.771 155.597 142.656 161.882 137.9 169.441C133.653 176.235 130.85 183.54 130.681 191.523C130.511 199.677 130.596 207.83 130.596 215.899C130.596 216.324 130.681 216.663 130.766 217.258C137.305 217.258 143.675 217.258 150.3 217.258C150.3 216.408 150.3 215.644 150.3 214.88C150.3 208.255 150.3 201.545 150.3 194.92C150.3 192.118 151.999 190.164 154.377 190.164C156.84 190.079 158.623 192.118 158.623 195.005C158.623 200.186 158.623 205.367 158.623 210.463C158.623 212.756 158.623 214.965 158.623 217.343C159.388 217.428 159.897 217.597 160.492 217.597C170.174 217.682 179.857 217.682 189.539 217.767C190.813 217.767 191.238 217.343 191.492 216.154C193.021 209.444 194.72 202.819 196.164 196.194C196.503 194.496 196.588 192.542 196.249 190.844C195.399 186.172 194.125 181.671 193.191 177C192.851 175.216 192.087 174.367 190.303 173.942C183.254 172.074 176.799 168.931 170.854 164.684C165.248 160.693 160.407 155.767 155.991 149.991ZM259.014 218.107C259.014 217.088 259.014 216.324 259.014 215.559C259.014 209.104 259.014 202.649 259.014 196.279C259.014 195.855 259.014 195.43 259.014 195.005C259.099 192.118 260.797 190.079 263.26 190.164C265.639 190.249 267.337 192.118 267.337 194.92C267.337 201.885 267.337 208.764 267.337 215.729C267.337 216.493 267.337 217.258 267.337 218.022C273.452 218.022 279.313 218.022 285.258 218.022C285.258 217.258 285.343 216.663 285.343 216.069C285.343 208.255 285.428 200.526 285.258 192.712C285.173 189.74 284.748 186.682 284.069 183.709C281.521 172.923 275.406 164.345 267.677 156.701C265.299 154.323 262.666 152.199 260.118 149.906C259.608 150.416 259.269 150.756 259.014 151.095C250.605 161.882 239.904 169.441 226.824 173.517C225.465 173.942 225.126 174.876 224.871 175.98C223.682 181.416 222.408 186.852 221.219 192.288C221.049 192.967 220.964 193.731 221.134 194.411C222.917 201.8 224.701 209.189 226.654 216.578C226.824 217.173 227.844 217.937 228.523 218.022C231.071 218.192 233.619 218.107 236.167 218.107C243.726 218.107 251.2 218.107 259.014 218.107ZM218.246 217.767C218.246 217.343 218.331 217.088 218.246 216.833C216.802 210.803 215.358 204.773 213.745 198.827C213.575 198.318 212.726 197.723 212.131 197.723C210.178 197.553 208.139 197.723 206.186 197.638C204.827 197.553 204.232 197.978 203.893 199.422C202.619 205.027 201.26 210.548 199.901 216.069C199.816 216.578 199.816 217.088 199.731 217.937C205.591 217.937 211.197 217.937 216.802 217.937C217.397 217.852 217.737 217.767 218.246 217.767ZM201.514 176.235C202.449 180.397 203.298 184.304 204.232 188.211C204.317 188.72 205.167 189.23 205.676 189.315C207.969 189.4 210.178 189.4 212.471 189.315C212.895 189.315 213.575 188.89 213.66 188.466C214.679 184.389 215.613 180.312 216.548 176.235C211.367 176.235 206.525 176.235 201.514 176.235ZM143.421 93.8506C139.683 94.9548 137.985 98.2671 138.24 103.873C138.409 107.78 140.448 110.667 143.421 111.092C143.421 105.401 143.421 99.6261 143.421 93.8506ZM272.518 111.177C275.915 110.667 277.954 105.741 277.699 101.834C277.444 97.8425 275.746 95.1246 272.518 94.1904C272.518 99.7959 272.518 105.401 272.518 111.177Z" fill="black"/>
<path d="M193.361 321.64C175.61 321.64 157.859 321.64 140.108 321.64C139.514 321.64 138.834 321.64 138.24 321.64C135.946 321.385 134.248 319.602 134.248 317.478C134.333 315.44 135.946 313.656 138.155 313.486C138.749 313.402 139.259 313.486 139.853 313.486C175.525 313.486 211.112 313.486 246.784 313.486C247.633 313.486 248.482 313.486 249.332 313.656C251.285 314.081 252.559 315.695 252.559 317.648C252.559 319.602 251.37 321.13 249.416 321.64C248.567 321.81 247.718 321.81 246.868 321.81C229.033 321.64 211.197 321.64 193.361 321.64Z" fill="black"/>
<path d="M193.106 276.201C175.355 276.201 157.604 276.201 139.853 276.201C139.174 276.201 138.41 276.286 137.73 276.116C135.777 275.861 134.248 274.078 134.163 272.209C134.078 270.341 135.437 268.642 137.305 268.217C138.24 268.047 139.259 267.962 140.278 267.962C175.695 267.962 211.112 267.962 246.529 267.962C247.463 267.962 248.397 267.962 249.247 268.217C251.285 268.642 252.559 270.341 252.389 272.379C252.304 274.417 250.69 276.031 248.567 276.201C247.973 276.286 247.463 276.201 246.868 276.201C229.033 276.201 211.112 276.201 193.106 276.201Z" fill="black"/>
<path d="M193.446 290.724C211.452 290.724 229.372 290.724 247.378 290.724C248.397 290.724 249.586 290.809 250.436 291.234C252.134 292.083 252.814 293.697 252.474 295.481C252.134 297.179 251.03 298.368 249.247 298.623C248.312 298.708 247.378 298.793 246.529 298.793C211.197 298.793 175.865 298.793 140.618 298.793C139.853 298.793 139.089 298.793 138.325 298.708C135.946 298.453 134.333 296.67 134.418 294.546C134.503 292.338 136.286 290.639 138.664 290.639C147.667 290.639 156.67 290.639 165.588 290.639C174.761 290.724 184.103 290.724 193.446 290.724Z" fill="black"/>
<path d="M211.197 245.37C223.512 245.37 235.827 245.37 248.142 245.37C251.03 245.37 252.984 247.154 252.984 249.617C252.899 251.995 251.03 253.609 248.227 253.694C247.718 253.694 247.208 253.694 246.784 253.694C234.978 253.694 223.172 253.694 211.367 253.694C199.476 253.694 187.585 253.694 175.695 253.694C175.1 253.694 174.591 253.694 173.996 253.694C171.448 253.524 169.75 251.91 169.75 249.532C169.75 247.239 171.363 245.455 173.911 245.37C177.054 245.285 180.111 245.37 183.254 245.37C192.512 245.37 201.854 245.37 211.197 245.37Z" fill="black"/>
<path d="M271.159 276.201C269.8 276.201 268.441 276.286 267.167 276.201C265.044 276.116 263.43 274.417 263.345 272.379C263.176 270.425 264.619 268.387 266.743 268.217C269.715 267.962 272.773 267.962 275.831 268.217C277.954 268.387 279.398 270.341 279.313 272.294C279.228 274.417 277.529 276.031 275.321 276.201C273.877 276.286 272.518 276.201 271.159 276.201Z" fill="black"/>
<path d="M271.159 321.64C269.885 321.64 268.611 321.725 267.337 321.64C264.959 321.47 263.345 319.686 263.345 317.478C263.345 315.355 265.044 313.486 267.422 313.401C270.055 313.316 272.603 313.316 275.236 313.401C277.614 313.486 279.228 315.355 279.228 317.478C279.228 319.601 277.529 321.385 275.151 321.555C273.792 321.725 272.518 321.64 271.159 321.64Z" fill="black"/>
<path d="M271.159 298.793C269.715 298.793 268.356 298.878 266.913 298.793C264.704 298.538 263.176 296.67 263.261 294.631C263.345 292.508 265.044 290.809 267.252 290.809C269.97 290.724 272.603 290.724 275.321 290.809C277.444 290.894 279.143 292.678 279.143 294.801C279.143 296.84 277.614 298.623 275.491 298.793C274.132 298.963 272.688 298.793 271.159 298.793Z" fill="black"/>
<path d="M86.091 27.9429C88.7239 27.9429 90.7623 29.8114 90.6774 32.1895C90.5925 34.4827 88.639 36.2663 86.176 36.2663C83.543 36.2663 81.5047 34.3977 81.5896 32.0196C81.5896 29.7265 83.543 27.9429 86.091 27.9429Z" fill="black"/>
<path d="M104.012 36.2663C101.379 36.2663 99.3405 34.3978 99.4255 32.1046C99.4255 29.8114 101.379 28.0278 103.927 28.0278C106.56 28.0278 108.598 29.8114 108.513 32.1895C108.513 34.3978 106.475 36.1814 104.012 36.2663Z" fill="black"/>
<path d="M279.737 348.818C277.104 348.818 275.151 346.95 275.151 344.572C275.236 342.278 277.189 340.495 279.652 340.495C282.285 340.495 284.324 342.363 284.239 344.742C284.239 347.035 282.285 348.818 279.737 348.818Z" fill="black"/>
<path d="M261.902 348.818C259.439 348.818 257.485 347.035 257.4 344.742C257.315 342.363 259.354 340.495 261.986 340.495C264.534 340.495 266.488 342.278 266.488 344.572C266.488 346.95 264.45 348.818 261.902 348.818Z" fill="black"/>
<path d="M243.896 348.818C241.433 348.733 239.479 346.865 239.479 344.572C239.479 342.193 241.603 340.41 244.236 340.495C246.699 340.58 248.652 342.448 248.652 344.741C248.567 347.035 246.529 348.903 243.896 348.818Z" fill="black"/>
<path d="M226.23 348.818C223.597 348.818 221.559 346.95 221.643 344.572C221.728 342.278 223.682 340.495 226.23 340.495C228.778 340.495 230.816 342.363 230.816 344.742C230.731 347.035 228.778 348.818 226.23 348.818Z" fill="black"/>
<path d="M208.479 348.818C205.846 348.818 203.808 347.035 203.808 344.657C203.808 342.363 205.761 340.58 208.224 340.495C210.857 340.41 212.895 342.279 212.895 344.657C212.98 346.95 211.027 348.733 208.479 348.818Z" fill="black"/>
<path d="M190.558 348.818C187.925 348.818 185.972 346.95 185.972 344.572C186.057 342.278 188.01 340.495 190.558 340.495C193.191 340.495 195.145 342.363 195.145 344.742C195.06 347.035 193.106 348.818 190.558 348.818Z" fill="black"/>
<path d="M172.807 348.818C170.174 348.818 168.136 347.035 168.136 344.657C168.136 342.363 170.089 340.58 172.637 340.495C175.27 340.495 177.309 342.278 177.309 344.657C177.309 346.95 175.355 348.733 172.807 348.818Z" fill="black"/>
<path d="M154.971 348.818C152.339 348.818 150.3 347.035 150.385 344.657C150.385 342.363 152.339 340.58 154.886 340.58C157.519 340.58 159.558 342.363 159.473 344.742C159.473 346.95 157.519 348.733 154.971 348.818Z" fill="black"/>
<path d="M136.966 348.818C134.418 348.818 132.549 346.95 132.464 344.657C132.464 342.279 134.503 340.41 137.136 340.495C139.684 340.495 141.552 342.279 141.637 344.657C141.637 346.95 139.599 348.818 136.966 348.818Z" fill="black"/>
<path d="M139.599 36.2663C137.136 36.2663 135.097 34.4827 135.097 32.1895C135.097 29.8114 137.136 27.9429 139.684 27.9429C142.147 27.9429 144.185 29.7265 144.185 32.0196C144.185 34.3977 142.147 36.2663 139.599 36.2663Z" fill="black"/>
<path d="M121.763 36.2663C119.13 36.2663 117.091 34.3977 117.176 32.0196C117.261 29.7265 119.215 27.9429 121.763 27.9429C124.396 27.9429 126.349 29.8114 126.349 32.1895C126.264 34.4827 124.311 36.2663 121.763 36.2663Z" fill="black"/>
<path d="M223.512 74.0613C232.94 88.8396 246.104 95.6342 263.94 91.9821C264.025 92.6615 264.11 93.1711 264.11 93.7656C264.11 101.24 264.28 108.799 264.11 116.273C263.94 124.341 261.732 131.985 258.08 139.205C257.74 139.799 257.23 140.309 256.721 140.818C256.211 141.413 255.447 141.922 255.277 142.602C253.323 149.057 248.312 153.049 243.556 157.21C238.545 161.542 232.77 164.684 226.485 166.808C225.296 167.232 223.937 167.147 222.578 167.317C221.728 167.402 220.709 167.232 220.115 167.742C217.906 169.695 215.274 169.61 212.726 169.78C209.668 170.035 206.525 169.95 203.383 169.78C201.599 169.695 199.901 169.356 198.372 167.997C197.608 167.317 195.909 167.572 194.635 167.487C193.786 167.402 192.766 167.742 192.002 167.487C179.942 163.835 170.259 156.871 162.785 146.849C162.106 145.914 161.766 144.555 161.256 143.451C161.002 142.857 160.917 142.092 160.492 141.753C157.01 138.95 156.075 134.788 154.717 130.881C152.848 125.53 151.999 119.925 151.999 114.234C151.999 107.1 151.999 99.9657 151.999 92.8314C151.999 92.5766 152.084 92.3218 152.084 91.8971C156.16 92.4067 160.067 93.0862 164.059 93.4259C181.555 94.7848 198.372 92.6615 213.32 82.3847C216.717 79.9216 219.86 76.949 223.512 74.0613ZM180.281 106.76C182.914 106.76 184.953 104.977 184.953 102.599C184.953 100.305 182.999 98.5219 180.451 98.4369C177.818 98.4369 175.78 100.221 175.78 102.599C175.865 104.892 177.818 106.675 180.281 106.76ZM234.808 106.76C237.271 106.76 239.225 104.892 239.309 102.599C239.309 100.221 237.271 98.352 234.638 98.4369C232.09 98.4369 230.222 100.305 230.137 102.599C230.137 104.977 232.26 106.76 234.808 106.76Z" fill="white"/>
<path d="M263.855 83.3187C252.814 86.7161 240.923 83.9133 232.94 73.1268C231.071 70.6638 229.627 67.861 228.268 65.0582C226.485 61.4061 223.002 60.8116 220.624 64.124C210.263 78.0529 195.909 84.1681 179.007 85.3571C170.514 85.9517 162.191 85.2722 153.867 83.6585C152.423 83.4037 152.169 82.7242 152.423 81.4502C155.736 57.839 174.846 38.4743 198.712 34.5674C228.098 29.7263 255.617 47.9868 262.751 77.0337C263.091 78.9872 263.43 81.1105 263.855 83.3187Z" fill="white"/>
<path d="M155.991 149.991C160.407 155.767 165.248 160.608 170.939 164.685C176.884 168.846 183.339 172.074 190.388 173.942C192.087 174.367 192.936 175.216 193.276 177C194.21 181.671 195.399 186.173 196.334 190.844C196.673 192.542 196.673 194.496 196.249 196.195C194.805 202.904 193.106 209.529 191.577 216.154C191.323 217.343 190.813 217.767 189.624 217.767C179.942 217.683 170.259 217.683 160.577 217.598C160.067 217.598 159.473 217.428 158.708 217.343C158.708 214.965 158.708 212.756 158.708 210.463C158.708 205.282 158.708 200.101 158.708 195.006C158.708 192.118 156.925 190.079 154.462 190.164C152.084 190.249 150.385 192.118 150.385 194.921C150.385 201.545 150.385 208.255 150.385 214.88C150.385 215.644 150.385 216.409 150.385 217.258C143.76 217.258 137.305 217.258 130.851 217.258C130.766 216.748 130.681 216.324 130.681 215.899C130.681 207.745 130.511 199.592 130.766 191.523C130.935 183.455 133.738 176.15 137.985 169.441C142.656 161.882 148.771 155.597 155.991 149.991Z" fill="white"/>
<path d="M259.014 218.107C251.2 218.107 243.726 218.107 236.252 218.107C233.704 218.107 231.156 218.192 228.608 218.022C227.928 217.937 226.909 217.173 226.739 216.578C224.786 209.189 223.002 201.8 221.219 194.411C221.049 193.731 221.134 192.967 221.304 192.287C222.493 186.852 223.767 181.416 224.956 175.98C225.211 174.876 225.55 173.942 226.909 173.517C239.989 169.525 250.69 161.966 259.099 151.095C259.354 150.755 259.693 150.501 260.203 149.906C262.751 152.199 265.384 154.323 267.762 156.701C275.491 164.345 281.606 172.923 284.154 183.709C284.833 186.682 285.258 189.739 285.343 192.712C285.513 200.526 285.428 208.255 285.428 216.069C285.428 216.663 285.343 217.342 285.343 218.022C279.398 218.022 273.537 218.022 267.422 218.022C267.422 217.258 267.422 216.493 267.422 215.729C267.422 208.764 267.422 201.885 267.422 194.92C267.422 192.118 265.724 190.164 263.345 190.164C260.882 190.079 259.184 192.118 259.099 195.005C259.099 195.43 259.099 195.855 259.099 196.279C259.099 202.734 259.099 209.189 259.099 215.559C259.014 216.408 259.014 217.173 259.014 218.107Z" fill="white"/>
<path d="M218.246 217.767C217.737 217.852 217.312 217.852 216.887 217.852C211.282 217.852 205.591 217.852 199.816 217.852C199.901 217.003 199.816 216.493 199.986 215.984C201.345 210.463 202.704 204.942 203.978 199.337C204.317 197.893 204.912 197.468 206.271 197.553C208.224 197.638 210.263 197.468 212.216 197.638C212.81 197.638 213.66 198.233 213.83 198.742C215.358 204.773 216.802 210.803 218.331 216.748C218.331 217.088 218.246 217.343 218.246 217.767Z" fill="white"/>
<path d="M201.514 176.235C206.525 176.235 211.367 176.235 216.548 176.235C215.613 180.312 214.679 184.389 213.66 188.465C213.575 188.805 212.895 189.315 212.471 189.315C210.178 189.4 207.969 189.4 205.676 189.315C205.167 189.315 204.317 188.72 204.232 188.211C203.298 184.304 202.449 180.397 201.514 176.235Z" fill="white"/>
<path d="M143.421 93.8506C143.421 99.626 143.421 105.401 143.421 111.177C140.448 110.667 138.409 107.864 138.24 103.958C137.985 98.2671 139.683 94.8698 143.421 93.8506Z" fill="white"/>
<path d="M272.518 111.177C272.518 105.401 272.518 99.7957 272.518 94.1902C275.83 95.1244 277.529 97.8423 277.699 101.834C277.954 105.741 275.915 110.582 272.518 111.177Z" fill="white"/>
<path d="M180.281 106.76C177.818 106.76 175.865 104.892 175.78 102.599C175.78 100.22 177.818 98.3519 180.451 98.4369C182.914 98.4369 184.868 100.305 184.953 102.599C184.953 104.892 182.914 106.76 180.281 106.76Z" fill="black"/>
<path d="M234.808 106.76C232.175 106.76 230.137 104.977 230.137 102.598C230.137 100.305 232.09 98.5217 234.638 98.4368C237.271 98.4368 239.309 100.22 239.309 102.598C239.309 104.892 237.356 106.675 234.808 106.76Z" fill="black"/>
</svg>
