<svg width="415" height="416" viewBox="0 0 415 416" fill="none" xmlns="http://www.w3.org/2000/svg">
<path d="M245.759 358.983C245.759 368.387 245.759 377.536 245.759 386.855C246.776 386.939 247.623 386.939 248.555 386.939C263.041 386.939 277.527 386.939 291.929 387.024C293.962 387.024 296.08 387.194 297.944 387.871C303.111 389.566 306.5 394.479 306.585 399.986C306.585 402.358 306.585 404.814 306.585 407.441C307.432 407.525 308.194 407.525 308.957 407.525C314.463 407.525 319.97 407.441 325.476 407.61C326.832 407.695 328.611 408.372 329.458 409.474C331.576 412.015 329.627 415.573 326.154 415.827C324.205 415.997 322.172 415.827 320.224 415.827C244.065 415.827 167.906 415.827 91.7466 415.827C91.1536 415.827 90.6453 415.827 90.0523 415.827C87.5956 415.658 85.7318 413.964 85.7318 411.761C85.7318 409.474 87.5956 407.61 90.137 407.61C95.7282 407.525 101.319 407.61 106.826 407.61C107.588 407.61 108.351 407.61 109.367 407.61C109.367 405.238 109.367 403.035 109.367 400.917C109.367 392.785 114.789 387.194 123.007 387.194C137.493 387.109 151.979 387.194 166.381 387.194C167.313 387.194 168.329 387.109 169.346 387.024C169.346 377.705 169.346 368.641 169.346 359.407C146.812 359.407 124.362 359.407 101.658 359.407C101.574 361.694 101.658 364.151 101.235 366.438C99.964 374.571 95.22 380.332 88.2733 384.229C80.3948 388.634 71.6691 389.989 62.774 390.159C55.1496 390.328 47.5253 390.497 40.0703 392.277C35.4957 393.378 31.1752 394.903 27.2783 397.698C22.619 401.087 19.8234 405.492 20.0775 411.507C20.1622 414.048 18.5526 415.912 16.2653 415.997C13.978 416.081 12.1143 414.472 11.9449 412.015C11.5213 406.424 13.0462 401.426 16.4348 396.936C21.7718 389.82 29.3962 386.516 37.6983 384.398C46.8475 382.026 56.3357 382.365 65.6543 381.857C71.8385 381.518 77.8533 380.501 83.3598 377.536C89.2052 374.486 93.1021 369.912 93.2715 362.965C93.2715 361.779 93.2715 360.593 93.2715 359.238C92.0008 359.238 91.0689 359.238 90.2218 359.238C70.1442 359.238 49.982 359.238 29.9045 359.238C16.1806 359.238 4.57462 350.512 1.1013 337.466C0.423576 334.84 0 332.044 0 329.333C0.169431 247.413 0.169431 165.748 0.169431 84.1671C0.169431 67.3088 13.2156 54.2626 30.0739 54.1779C37.4441 54.1779 44.8991 54.1779 52.2693 54.1779C53.0318 54.1779 53.7942 54.1779 54.7261 54.1779C55.1496 52.3142 55.4038 50.4504 55.9121 48.7561C60.0631 32.4061 70.0595 20.3765 84.207 11.7355C101.489 1.23085 120.211 -1.98833 140.119 1.14613C158.248 4.02645 173.751 11.8203 185.781 25.883C192.388 33.5921 196.709 42.4025 198.234 52.5683C198.488 54.3473 199.589 54.1779 200.775 54.1779C221.361 54.1779 242.032 54.1779 262.617 54.1779C303.365 54.1779 344.113 54.1779 384.777 54.1779C399.517 54.1779 411.377 63.666 414.342 77.9829C414.766 80.1008 414.935 82.3034 414.935 84.506C414.935 165.833 414.935 247.159 414.935 328.486C414.935 341.363 407.989 352.46 396.383 356.611C391.639 358.306 386.302 358.814 381.219 358.899C336.997 359.068 292.691 358.983 248.47 358.983C247.707 358.983 246.776 358.983 245.759 358.983ZM53.8789 62.3953C53.5401 62.3953 52.8623 62.3953 52.0999 62.3953C44.7297 62.3953 37.4441 62.3953 30.0739 62.3953C28.8879 62.3953 27.7019 62.3953 26.5159 62.6494C15.5029 64.6826 8.47153 73.0694 8.47153 84.3365C8.47153 150.584 8.47153 216.746 8.47153 282.994C8.47153 283.756 8.47153 284.519 8.47153 285.281C71.9233 285.281 135.036 285.281 198.403 285.281C198.403 284.434 198.403 283.672 198.403 282.909C198.403 276.725 198.403 270.456 198.403 264.272C198.403 260.29 198.742 261.222 195.353 260.205C173.327 253.682 155.876 241.144 144.778 220.643C138.001 208.021 133.511 194.721 134.782 179.98C135.544 171.593 141.22 164.562 149.607 162.02C157.486 159.648 165.957 162.275 170.786 169.137C173.073 172.356 174.598 176.168 176.038 179.895C177.987 184.809 180.105 189.638 183.409 193.789C191.033 203.277 201.368 208.021 213.059 210.308C215.854 210.816 218.82 211.071 222.123 211.494C218.565 205.056 216.193 198.956 214.923 192.433C214.668 190.993 214.075 190.654 212.72 190.569C205.265 190.146 200.097 186.249 197.895 179.387C196.624 175.236 196.116 170.916 196.794 166.595C197.217 163.969 197.98 161.343 198.234 158.717C199.166 148.212 201.368 137.961 205.435 128.219C214.16 107.04 228.901 92.0456 251.011 85.1837C265.498 80.6938 280.323 80.1008 295.148 82.6422C311.329 85.3531 325.307 92.2998 336.235 104.753C347.502 117.63 353.178 133.048 355.635 149.737C356.058 152.702 356.228 155.751 356.736 158.717C357.329 162.275 358.6 165.663 358.769 169.221C359.108 175.744 357.922 181.844 352.839 186.673C352.246 187.181 352.077 188.282 351.992 189.129C351.568 199.041 347.502 207.089 339.878 213.273C339.454 213.612 338.946 214.036 338.692 214.374C341.487 217.339 344.283 220.05 346.824 222.931C357.075 234.452 362.751 247.752 362.412 263.34C362.242 269.863 362.412 276.471 362.412 282.994C362.412 283.756 362.412 284.519 362.412 285.196C377.322 285.196 391.893 285.196 406.633 285.196C406.633 284.349 406.633 283.672 406.633 282.994C406.633 216.746 406.633 150.584 406.633 84.3365C406.633 71.4598 397.484 62.3106 384.607 62.3106C323.443 62.3106 262.363 62.3106 201.199 62.3106C200.436 62.3106 199.674 62.3106 198.996 62.3106C198.911 62.9036 198.827 63.1577 198.827 63.4119C197.81 77.5593 192.049 89.4194 182.307 99.5853C181.714 100.178 181.46 101.364 181.545 102.211C181.63 109.921 181.799 117.63 181.968 125.254C182.053 127.287 181.799 129.066 179.935 130.252C177.987 131.438 176.292 130.591 174.598 129.574C168.414 125.932 162.23 122.289 156.046 118.561C154.351 117.545 152.911 117.375 150.963 117.884C128.767 124.237 107.25 122.458 86.8331 111.361C72.6857 103.652 62.0963 92.4692 56.9287 76.8816C55.5732 72.4764 54.9802 67.4782 53.8789 62.3953ZM8.47153 293.837C8.47153 305.952 8.47153 317.812 8.47153 329.672C8.47153 335.687 10.8436 340.77 15.164 344.921C19.4845 348.987 24.6521 350.681 30.5822 350.681C124.786 350.681 218.904 350.681 313.108 350.681C335.981 350.681 358.854 350.766 381.727 350.597C385.963 350.597 390.537 350.258 394.35 348.648C402.398 345.175 406.633 338.482 406.803 329.672C406.972 318.405 406.887 307.053 406.803 295.786C406.803 295.193 406.718 294.6 406.633 293.922C273.884 293.837 141.305 293.837 8.47153 293.837ZM173.412 119.324C173.412 113.902 173.666 108.735 173.327 103.567C172.989 99.077 174.513 95.9425 177.563 92.5539C190.016 79.1689 194.252 63.4966 188.153 45.8758C183.832 33.5074 175.191 24.5275 164.009 18.0045C149.014 9.2788 132.834 6.56791 115.721 8.93994C100.303 11.1425 86.8331 17.3267 75.9896 28.6786C59.216 46.2147 58.1994 71.1209 73.2787 89.843C80.3948 98.6534 89.544 104.838 100.133 108.735C117.076 115.003 134.189 115.173 151.301 109.412C153.589 108.65 155.452 108.735 157.486 110.005C162.06 112.886 166.72 115.512 171.294 118.223C171.972 118.562 172.65 118.9 173.412 119.324ZM222.123 152.278C222.039 153.379 221.954 154.311 221.954 155.243C221.954 164.138 221.869 173.033 221.954 181.929C222.039 192.179 224.834 201.667 230.171 210.393C230.595 210.986 231.273 211.494 231.696 212.087C232.459 213.019 233.052 214.12 233.814 215.052C234.577 216.069 235.424 217.001 236.271 218.017C237.203 219.034 238.219 220.05 239.151 221.067C239.575 221.575 239.829 222.338 240.337 222.761C247.369 229.03 255.332 233.435 264.566 235.553C265.243 235.723 266.091 235.723 266.768 235.469C268.463 234.791 269.903 235.13 271.258 236.316C272.614 237.417 273.969 237.586 275.494 236.4C277.019 235.214 278.544 235.384 280.238 236.231C281.17 236.739 282.356 237.078 283.288 236.909C285.067 236.655 286.761 235.807 288.455 235.469C289.896 235.214 291.421 235.469 292.776 235.13C301.84 232.673 309.804 228.183 316.581 221.575C316.92 221.236 317.089 220.898 317.767 219.966C315.734 219.966 314.209 220.135 312.684 219.966C309.719 219.627 306.669 219.288 303.704 218.695C301.756 218.271 300.739 216.831 300.739 214.798C300.739 212.765 301.84 211.409 303.704 210.901C304.636 210.647 305.653 210.901 306.669 210.986C311.413 211.24 316.242 211.409 320.986 211.748C324.121 212.002 325.815 210.054 327.086 207.767C331.067 200.651 333.439 192.941 333.693 184.809C334.032 174.558 333.693 164.308 333.778 154.142C333.778 152.109 333.1 151.516 331.067 151.516C320.478 151.346 310.99 148.297 302.688 141.604C299.638 139.147 296.588 136.521 293.284 133.81C272.868 148.466 249.063 156.006 222.123 152.278ZM247.284 285.366C247.284 280.622 247.284 276.132 247.284 271.642C247.284 271.218 246.945 270.71 246.606 270.456C241.184 266.305 237.626 260.798 234.831 254.699C230.426 245.211 229.409 235.214 230.595 224.964C230.934 222.168 228.816 220.135 226.105 219.881C220.26 219.288 214.245 219.034 208.484 217.848C193.913 214.713 181.968 207.428 173.836 194.551C173.073 193.365 172.396 193.365 171.294 193.789C163.5 196.754 155.707 199.549 147.913 202.43C147.32 202.684 146.642 202.938 146.049 203.277C148.167 211.833 155.876 224.879 162.823 232.08C173.412 243.008 186.374 249.87 201.114 253.343C205.943 254.529 206.621 255.292 206.621 260.205C206.621 267.83 206.621 275.454 206.621 283.079C206.621 283.841 206.621 284.603 206.621 285.366C220.344 285.366 233.645 285.366 247.284 285.366ZM331.914 143.468C327.594 123.136 306.5 99.7547 274.393 101.534C259.991 102.381 247.707 108.142 237.626 118.477C230.68 125.593 226.02 134.064 223.564 143.807C224.241 143.976 224.58 144.146 225.004 144.23C233.136 145.162 241.354 145.077 249.486 143.637C265.328 140.842 279.391 134.149 292.014 124.492C295.572 121.781 297.52 122.12 299.892 125.932C302.857 130.676 306.669 134.573 311.413 137.538C317.682 141.519 324.459 143.214 331.914 143.468ZM117.754 407.271C178.071 407.271 238.135 407.271 298.452 407.271C298.452 405.323 298.452 403.544 298.452 401.68C298.452 396.597 296.842 394.987 291.759 394.987C236.271 394.987 180.782 394.987 125.379 394.987C124.362 394.987 123.43 394.903 122.414 395.072C119.872 395.411 118.008 397.105 117.839 399.308C117.669 401.934 117.754 404.56 117.754 407.271ZM354.279 285.366C354.279 276.725 354.364 268.338 354.195 259.951C354.11 256.986 353.771 254.021 353.093 251.141C349.874 237.671 341.572 227.675 331.067 219.203C330.559 218.78 329.204 218.61 328.865 218.949C328.187 219.712 327.594 220.813 327.594 221.745C327.763 224.964 328.441 228.183 328.441 231.402C328.695 245.126 324.629 257.325 315.225 267.576C313.87 269.1 312.006 270.117 310.143 271.557C310.143 275.708 310.143 280.452 310.143 285.196C324.883 285.366 339.454 285.366 354.279 285.366ZM237.203 386.77C237.203 377.451 237.203 368.217 237.203 359.153C217.379 359.153 197.725 359.153 178.071 359.153C178.071 368.471 178.071 377.621 178.071 386.77C197.895 386.77 217.464 386.77 237.203 386.77ZM282.102 243.686C282.102 244.618 282.102 245.38 282.102 246.143C282.102 251.903 282.102 257.749 282.102 263.509C282.102 266.305 280.408 268.253 278.036 268.253C275.579 268.338 273.884 266.305 273.8 263.425C273.8 258.596 273.8 253.682 273.8 248.854C273.8 247.159 273.8 245.55 273.8 243.94C271.682 243.008 270.411 243.347 269.14 245.211C265.159 250.887 260.923 256.309 256.941 261.984C256.094 263.17 255.586 264.949 255.501 266.39C255.332 271.811 255.417 277.233 255.417 282.655C255.417 283.502 255.417 284.265 255.417 285.281C270.919 285.281 286.253 285.281 301.586 285.281C301.671 284.942 301.756 284.688 301.756 284.349C301.756 277.233 301.756 270.117 301.756 263.001C301.756 262.408 301.586 261.73 301.247 261.222C297.096 255.461 292.861 249.701 288.625 244.025C288.286 243.601 287.608 243.178 287.1 243.178C285.49 243.262 283.881 243.517 282.102 243.686ZM347.417 150.16C347.417 149.567 347.502 149.228 347.417 148.89C346.231 141.858 344.368 134.996 341.572 128.388C334.202 110.937 322.003 98.6534 303.704 92.8928C290.828 88.9111 277.612 88.4876 264.312 90.436C251.774 92.2998 240.422 96.9591 230.849 105.515C219.413 115.681 213.059 128.812 209.247 143.298C208.654 145.586 208.23 147.873 207.722 150.414C208.738 150.245 209.416 149.906 210.009 149.991C213.652 150.245 214.33 148.127 214.923 144.993C223.733 97.3827 281.17 76.6274 318.614 107.379C331.321 117.884 338.861 131.354 341.487 147.619C341.572 148.297 342.25 149.313 342.843 149.483C344.283 150.076 345.808 150.076 347.417 150.16ZM143.847 195.144C152.487 191.925 160.874 188.79 169.346 185.656C168.075 181.505 166.974 177.439 164.348 174.135C161.383 170.323 157.401 168.713 152.742 169.814C147.743 170.916 144.355 174.135 143.254 179.218C142.152 184.47 142.83 189.638 143.847 195.144ZM319.715 228.352C312.853 234.113 305.229 238.264 296.588 241.144C301.417 247.668 305.992 253.936 310.651 260.29C318.445 252.157 321.749 235.723 319.715 228.352ZM238.473 230.216C237.965 241.568 240.846 251.395 247.877 260.29C252.536 253.936 256.941 247.922 261.601 241.653C252.96 239.281 245.59 235.553 238.473 230.216ZM213.567 158.039C210.179 158.124 207.722 159.394 206.536 162.275C204.249 167.696 204.333 173.288 206.705 178.709C207.891 181.42 210.433 182.606 213.567 182.267C213.567 174.219 213.567 166.256 213.567 158.039ZM342.334 182.267C345.977 182.183 348.434 180.658 349.62 177.439C351.399 172.61 351.399 167.612 349.535 162.783C348.264 159.394 345.892 157.954 342.25 158.208C342.334 166.171 342.334 174.135 342.334 182.267ZM343.944 190.4C342.673 190.824 341.318 190.993 341.148 191.501C339.793 195.737 338.776 200.058 337.506 204.632C341.233 200.566 343.097 196.161 343.944 190.4Z" fill="black"/>
<path d="M53.8789 62.3953C54.9802 67.4782 55.5732 72.3917 57.0981 77.051C62.2658 92.6386 72.7705 103.821 87.0026 111.53C107.419 122.628 128.852 124.407 151.132 118.053C153.081 117.46 154.521 117.63 156.215 118.731C162.314 122.458 168.583 126.101 174.768 129.744C176.462 130.76 178.156 131.608 180.105 130.422C181.968 129.236 182.223 127.457 182.138 125.423C181.968 117.714 181.799 110.005 181.714 102.381C181.714 101.449 181.968 100.348 182.477 99.7547C192.219 89.5889 197.98 77.7287 198.996 63.5813C198.996 63.3271 199.081 62.9883 199.166 62.48C199.928 62.48 200.691 62.48 201.368 62.48C262.533 62.48 323.612 62.48 384.777 62.48C397.654 62.48 406.718 71.6292 406.803 84.506C406.803 150.753 406.803 216.916 406.803 283.163C406.803 283.841 406.803 284.519 406.803 285.366C392.062 285.366 377.491 285.366 362.581 285.366C362.581 284.603 362.581 283.841 362.581 283.163C362.581 276.64 362.497 270.032 362.581 263.509C362.92 247.922 357.244 234.621 346.994 223.1C344.452 220.22 341.657 217.509 338.861 214.544C339.2 214.29 339.624 213.866 340.047 213.443C347.756 207.258 351.738 199.21 352.161 189.299C352.161 188.452 352.416 187.35 353.009 186.842C358.091 182.013 359.277 175.914 358.939 169.391C358.769 165.833 357.498 162.444 356.905 158.886C356.397 155.921 356.228 152.871 355.804 149.906C353.432 133.133 347.756 117.799 336.404 104.922C325.476 92.4692 311.498 85.4378 295.317 82.8116C280.408 80.3549 265.582 80.8632 251.181 85.3531C228.985 92.2998 214.33 107.21 205.604 128.388C201.538 138.215 199.335 148.381 198.403 158.886C198.149 161.512 197.302 164.138 196.963 166.764C196.37 171.085 196.794 175.405 198.064 179.556C200.267 186.418 205.435 190.315 212.89 190.739C214.245 190.824 214.753 191.162 215.092 192.603C216.363 199.126 218.735 205.31 222.293 211.664C218.904 211.24 216.024 210.986 213.228 210.478C201.538 208.275 191.202 203.446 183.578 193.958C180.189 189.807 178.072 184.978 176.208 180.065C174.768 176.337 173.158 172.525 170.955 169.306C166.127 162.359 157.655 159.818 149.777 162.19C141.39 164.731 135.629 171.763 134.951 180.149C133.681 194.89 138.171 208.19 144.948 220.813C155.961 241.399 173.412 253.852 195.523 260.375C198.911 261.391 198.573 260.375 198.573 264.441C198.573 270.625 198.573 276.894 198.573 283.079C198.573 283.841 198.573 284.603 198.573 285.451C135.206 285.451 72.0927 285.451 8.64099 285.451C8.64099 284.603 8.64099 283.926 8.64099 283.163C8.64099 216.916 8.64099 150.753 8.64099 84.506C8.64099 73.2388 15.6724 64.852 26.6853 62.8188C27.8714 62.5647 29.0574 62.5647 30.2434 62.5647C37.6136 62.5647 44.8991 62.5647 52.2694 62.5647C52.8624 62.3953 53.5401 62.3953 53.8789 62.3953ZM71.2456 171.763C83.7834 171.763 96.3213 171.763 108.944 171.763C112.925 171.763 114.366 170.323 114.366 166.426C114.366 157.615 114.366 148.805 114.366 139.994C114.366 136.182 112.841 134.657 109.113 134.657C83.9529 134.657 58.7077 134.657 33.5473 134.657C29.5657 134.657 28.1255 136.098 28.1255 140.164C28.1255 148.805 28.1255 157.531 28.1255 166.171C28.1255 170.238 29.5657 171.678 33.5473 171.678C46.1699 171.763 58.7077 171.678 71.2456 171.763ZM71.2456 192.857C83.8682 192.857 96.4907 192.857 109.113 192.857C110.977 192.857 112.841 192.603 113.603 190.739C114.111 189.553 114.112 187.943 113.688 186.757C113.01 184.894 111.146 184.47 109.283 184.47C95.5589 184.47 81.9197 184.47 68.1958 184.47C56.5898 184.47 44.8991 184.47 33.2931 184.47C31.4294 184.47 29.5657 184.724 28.8032 186.588C28.2949 187.774 28.2949 189.383 28.7185 190.569C29.3962 192.433 31.26 192.857 33.1237 192.772C45.831 192.857 58.5383 192.941 71.2456 192.857ZM71.2456 224.794C58.7924 224.794 46.2546 224.794 33.8014 224.794C33.1237 224.794 32.3613 224.794 31.6835 224.879C29.7351 225.133 28.2102 226.912 28.2102 228.776C28.1255 230.725 29.6504 232.504 31.5988 232.758C32.5307 232.927 33.4626 232.927 34.3097 232.927C52.4388 232.927 70.5679 232.927 88.6969 232.927C95.22 232.927 101.828 232.927 108.351 232.927C108.944 232.927 109.622 232.927 110.215 232.927C112.756 232.758 114.45 230.979 114.366 228.776C114.281 226.489 112.502 224.879 109.96 224.879C96.999 224.794 84.1223 224.794 71.2456 224.794ZM70.9914 212.85C83.3599 212.85 95.6436 212.85 108.012 212.85C108.944 212.85 109.876 212.934 110.723 212.765C112.671 212.511 114.196 210.816 114.281 208.868C114.366 206.92 112.925 205.14 110.977 204.802C109.876 204.632 108.69 204.632 107.588 204.632C90.7301 204.632 73.8717 204.632 57.0134 204.632C49.3043 204.632 41.6799 204.632 33.9709 204.632C33.4626 204.632 32.9543 204.632 32.5307 204.632C29.9045 204.802 28.0408 206.496 28.1255 208.783C28.2102 211.071 29.9892 212.765 32.7001 212.765C45.4921 212.85 58.2841 212.85 70.9914 212.85ZM54.5567 253.089C61.9269 253.089 69.3818 253.089 76.7521 253.089C79.6324 253.089 81.3267 251.395 81.3267 248.938C81.3267 246.482 79.5477 244.872 76.6674 244.787C76.4132 244.787 76.0743 244.787 75.8202 244.787C63.9601 244.787 52.0999 244.787 40.2398 244.787C37.6136 244.787 34.9874 244.703 32.446 244.787C29.9892 244.872 28.1255 246.566 28.1255 248.854C28.0408 251.141 29.9045 252.92 32.5307 253.089C33.039 253.089 33.5473 253.089 33.9709 253.089C40.8328 253.089 47.6947 253.089 54.5567 253.089Z" fill="white"/>
<path d="M8.47156 293.837C141.305 293.837 273.884 293.837 406.633 293.837C406.718 294.515 406.803 295.108 406.803 295.701C406.803 306.968 406.972 318.32 406.803 329.587C406.633 338.482 402.482 345.175 394.35 348.563C390.537 350.173 385.963 350.512 381.727 350.512C358.854 350.681 335.981 350.596 313.108 350.596C218.904 350.596 124.786 350.596 30.5822 350.596C24.6522 350.596 19.4845 348.902 15.1641 344.836C10.7589 340.685 8.47156 335.602 8.47156 329.587C8.47156 317.812 8.47156 305.951 8.47156 293.837ZM207.637 339.922C217.718 339.922 226.105 331.62 226.19 321.539C226.275 311.373 217.803 302.902 207.637 302.902C197.556 302.902 189.169 311.204 189.085 321.37C189 331.451 197.387 339.838 207.637 339.922Z" fill="white"/>
<path d="M173.412 119.324C172.65 118.9 171.972 118.561 171.379 118.138C166.804 115.427 162.06 112.801 157.57 109.92C155.537 108.65 153.674 108.565 151.386 109.327C134.274 115.088 117.161 114.834 100.218 108.65C89.6288 104.753 80.4796 98.6532 73.3635 89.7581C58.1994 71.1208 59.216 46.2145 75.9049 28.8479C86.7485 17.496 100.218 11.3118 115.636 9.1092C132.749 6.65246 148.929 9.36335 163.924 18.1737C175.107 24.6968 183.747 33.6766 188.068 46.0451C194.167 63.6658 189.932 79.3382 177.479 92.7232C174.344 96.0271 172.904 99.1615 173.243 103.736C173.666 108.734 173.412 113.902 173.412 119.324ZM158.418 61.2938C158.418 58.8371 156.639 56.8039 154.436 56.7192C152.064 56.6345 150.2 58.6676 150.2 61.2091C150.2 63.7506 151.979 65.699 154.182 65.7837C156.469 65.8684 158.418 63.8353 158.418 61.2938ZM130.462 61.2091C130.462 58.6676 128.683 56.7192 126.395 56.7192C124.023 56.6345 122.159 58.6676 122.159 61.2938C122.159 63.8353 123.938 65.7837 126.226 65.7837C128.598 65.8684 130.462 63.8353 130.462 61.2091ZM104.2 61.2938C104.2 58.6676 102.336 56.6345 99.9641 56.7192C97.6768 56.7192 95.8977 58.7523 95.8977 61.2091C95.8977 63.8353 97.7615 65.8684 100.133 65.7837C102.421 65.7837 104.2 63.8353 104.2 61.2938Z" fill="white"/>
<path d="M222.123 152.278C249.063 156.09 272.868 148.466 293.454 133.81C296.758 136.606 299.807 139.147 302.857 141.604C311.159 148.297 320.732 151.431 331.237 151.516C333.27 151.516 333.948 152.109 333.948 154.142C333.863 164.393 334.202 174.643 333.863 184.809C333.609 192.942 331.237 200.651 327.255 207.767C325.984 210.054 324.29 212.002 321.156 211.748C316.412 211.409 311.583 211.24 306.839 210.986C305.822 210.901 304.806 210.647 303.874 210.901C302.01 211.409 300.909 212.765 300.909 214.798C300.909 216.831 301.925 218.271 303.874 218.695C306.839 219.288 309.888 219.627 312.854 219.966C314.378 220.135 315.903 219.966 317.936 219.966C317.259 220.813 317.089 221.236 316.75 221.575C309.973 228.098 302.01 232.673 292.945 235.13C291.59 235.469 290.065 235.214 288.625 235.469C286.846 235.807 285.152 236.655 283.457 236.909C282.441 237.078 281.255 236.739 280.408 236.231C278.713 235.299 277.188 235.214 275.664 236.4C274.139 237.587 272.783 237.332 271.428 236.316C270.072 235.214 268.632 234.876 266.938 235.469C266.26 235.723 265.413 235.723 264.735 235.553C255.586 233.435 247.538 229.03 240.507 222.761C239.998 222.338 239.829 221.575 239.321 221.067C238.389 220.05 237.372 219.034 236.44 218.017C235.593 217.085 234.746 216.069 233.984 215.052C233.221 214.12 232.628 213.019 231.866 212.087C231.442 211.494 230.68 211.071 230.341 210.393C225.004 201.667 222.208 192.179 222.123 181.929C222.039 173.033 222.123 164.138 222.123 155.243C221.954 154.311 222.039 153.38 222.123 152.278ZM309.211 162.02C309.211 159.479 307.432 157.531 305.144 157.531C302.772 157.446 300.909 159.479 300.909 162.105C300.909 164.731 302.772 166.68 305.144 166.595C307.432 166.51 309.211 164.562 309.211 162.02ZM254.146 162.02C254.146 159.564 252.282 157.615 249.995 157.531C247.623 157.531 245.759 159.564 245.844 162.19C245.844 164.731 247.707 166.595 249.995 166.68C252.282 166.595 254.146 164.562 254.146 162.02Z" fill="white"/>
<path d="M247.284 285.366C233.645 285.366 220.26 285.366 206.705 285.366C206.705 284.519 206.705 283.841 206.705 283.079C206.705 275.454 206.705 267.83 206.705 260.205C206.705 255.292 206.028 254.445 201.199 253.343C186.458 249.87 173.582 243.008 162.907 232.08C155.876 224.879 148.252 211.833 146.134 203.277C146.727 203.023 147.32 202.684 147.998 202.43C155.791 199.549 163.585 196.669 171.379 193.789C172.565 193.365 173.243 193.365 173.92 194.551C181.968 207.428 193.998 214.713 208.569 217.848C214.33 219.119 220.26 219.373 226.19 219.881C228.901 220.135 231.019 222.168 230.68 224.964C229.494 235.214 230.51 245.211 234.915 254.699C237.711 260.798 241.269 266.305 246.691 270.456C247.03 270.71 247.369 271.218 247.369 271.642C247.284 276.132 247.284 280.622 247.284 285.366Z" fill="white"/>
<path d="M331.914 143.468C324.46 143.298 317.682 141.519 311.498 137.707C306.754 134.742 302.942 130.761 299.977 126.101C297.52 122.289 295.572 121.95 292.098 124.661C279.391 134.403 265.328 141.096 249.571 143.807C241.439 145.247 233.306 145.332 225.088 144.4C224.665 144.315 224.326 144.146 223.648 143.976C226.02 134.234 230.764 125.762 237.711 118.646C247.792 108.311 260.076 102.466 274.477 101.703C306.5 99.67 327.594 123.051 331.914 143.468Z" fill="white"/>
<path d="M117.754 407.271C117.754 404.56 117.669 401.934 117.754 399.308C117.924 397.02 119.787 395.326 122.329 395.072C123.345 394.987 124.277 394.987 125.294 394.987C180.782 394.987 236.271 394.987 291.675 394.987C296.758 394.987 298.367 396.597 298.367 401.68C298.367 403.459 298.367 405.323 298.367 407.271C238.135 407.271 178.156 407.271 117.754 407.271Z" fill="white"/>
<path d="M354.279 285.366C339.454 285.366 324.883 285.366 310.143 285.366C310.143 280.537 310.143 275.878 310.143 271.727C312.006 270.286 313.87 269.185 315.226 267.745C324.629 257.495 328.695 245.296 328.441 231.572C328.356 228.352 327.679 225.133 327.594 221.914C327.594 220.982 328.187 219.796 328.865 219.119C329.204 218.78 330.559 218.949 331.067 219.373C341.572 227.844 349.874 237.841 353.093 251.31C353.771 254.191 354.11 257.156 354.195 260.121C354.364 268.338 354.279 276.725 354.279 285.366Z" fill="white"/>
<path d="M237.203 386.77C217.549 386.77 197.895 386.77 178.072 386.77C178.072 377.536 178.072 368.387 178.072 359.153C197.725 359.153 217.379 359.153 237.203 359.153C237.203 368.217 237.203 377.367 237.203 386.77Z" fill="white"/>
<path d="M282.102 243.686C283.881 243.517 285.491 243.178 287.1 243.178C287.608 243.178 288.286 243.601 288.625 244.025C292.861 249.701 297.096 255.461 301.248 261.222C301.586 261.73 301.756 262.408 301.756 263.001C301.756 270.117 301.756 277.233 301.756 284.349C301.756 284.604 301.671 284.858 301.586 285.281C286.253 285.281 271.004 285.281 255.417 285.281C255.417 284.349 255.417 283.502 255.417 282.655C255.417 277.233 255.332 271.811 255.501 266.39C255.586 264.865 256.094 263.171 256.941 261.985C260.923 256.309 265.159 250.887 269.14 245.211C270.411 243.432 271.682 243.008 273.8 243.94C273.8 245.465 273.8 247.159 273.8 248.854C273.8 253.682 273.8 258.596 273.8 263.425C273.8 266.305 275.579 268.338 278.036 268.253C280.408 268.169 282.102 266.305 282.102 263.509C282.102 257.749 282.102 251.903 282.102 246.143C282.102 245.38 282.102 244.618 282.102 243.686Z" fill="white"/>
<path d="M347.417 150.16C345.808 149.991 344.283 150.076 342.927 149.652C342.334 149.483 341.657 148.466 341.572 147.788C338.946 131.523 331.406 118.053 318.699 107.549C281.255 76.7121 223.818 97.5521 215.007 145.162C214.414 148.297 213.737 150.414 210.094 150.16C209.501 150.076 208.908 150.414 207.807 150.584C208.315 148.042 208.738 145.755 209.331 143.468C213.144 128.897 219.497 115.851 230.934 105.685C240.507 97.1285 251.858 92.4692 264.396 90.6054C277.697 88.657 290.827 88.9959 303.789 93.0622C322.087 98.7381 334.371 111.022 341.657 128.558C344.452 135.166 346.316 141.943 347.502 149.059C347.417 149.313 347.417 149.652 347.417 150.16Z" fill="white"/>
<path d="M143.847 195.144C142.745 189.638 142.152 184.385 143.254 179.218C144.355 174.05 147.743 170.916 152.742 169.814C157.401 168.713 161.383 170.323 164.348 174.135C166.974 177.523 168.075 181.505 169.346 185.656C160.874 188.875 152.572 191.925 143.847 195.144Z" fill="white"/>
<path d="M319.715 228.353C321.749 235.723 318.445 252.158 310.651 260.205C305.992 253.937 301.417 247.668 296.588 241.06C305.229 238.264 312.938 234.113 319.715 228.353Z" fill="white"/>
<path d="M238.473 230.216C245.59 235.553 252.96 239.281 261.601 241.653C257.026 247.922 252.536 253.937 247.877 260.29C240.93 251.395 238.05 241.568 238.473 230.216Z" fill="white"/>
<path d="M213.567 158.039C213.567 166.256 213.567 174.219 213.567 182.267C210.433 182.606 207.891 181.42 206.705 178.709C204.249 173.288 204.249 167.781 206.536 162.275C207.722 159.394 210.179 158.124 213.567 158.039Z" fill="white"/>
<path d="M342.334 182.268C342.334 174.135 342.334 166.087 342.334 158.124C345.977 157.954 348.349 159.31 349.62 162.698C351.399 167.527 351.484 172.525 349.705 177.354C348.434 180.658 345.977 182.183 342.334 182.268Z" fill="white"/>
<path d="M343.944 190.4C343.097 196.161 341.233 200.651 337.421 204.632C338.692 199.973 339.793 195.737 341.064 191.501C341.318 190.908 342.673 190.824 343.944 190.4Z" fill="white"/>
<path d="M71.2456 171.678C58.7077 171.678 46.1698 171.678 33.5473 171.678C29.4809 171.678 28.1255 170.238 28.1255 166.172C28.1255 157.531 28.1255 148.805 28.1255 140.164C28.1255 136.098 29.5656 134.657 33.5473 134.657C58.7077 134.657 83.9529 134.657 109.113 134.657C112.841 134.657 114.366 136.182 114.366 139.995C114.366 148.805 114.366 157.615 114.366 166.426C114.366 170.323 112.925 171.763 108.944 171.763C96.406 171.763 83.7834 171.763 71.2456 171.678ZM105.979 143.044C82.6821 143.044 59.6396 143.044 36.597 143.044C36.597 149.906 36.597 156.599 36.597 163.291C59.809 163.291 82.8516 163.291 105.979 163.291C105.979 156.514 105.979 149.821 105.979 143.044Z" fill="black"/>
<path d="M71.2455 192.942C58.5382 192.942 45.8309 192.942 33.1237 192.942C31.2599 192.942 29.3962 192.518 28.7185 190.739C28.2949 189.553 28.2949 187.943 28.8032 186.757C29.5656 184.978 31.4293 184.639 33.2931 184.639C44.8991 184.639 56.5898 184.639 68.1958 184.639C81.9197 184.639 95.5588 184.639 109.283 184.639C111.146 184.639 113.01 185.063 113.688 186.927C114.111 188.113 114.111 189.722 113.603 190.908C112.841 192.687 110.977 193.026 109.113 193.026C96.4907 192.857 83.8681 192.857 71.2455 192.942Z" fill="black"/>
<path d="M71.2456 224.794C84.1223 224.794 97.0837 224.794 109.96 224.794C112.502 224.794 114.281 226.404 114.366 228.691C114.45 230.894 112.756 232.673 110.215 232.842C109.622 232.927 108.944 232.842 108.351 232.842C101.828 232.842 95.22 232.842 88.6969 232.842C70.5678 232.842 52.4388 232.842 34.3097 232.842C33.3778 232.842 32.446 232.842 31.5988 232.673C29.6504 232.334 28.2102 230.555 28.2102 228.691C28.2949 226.743 29.8198 225.049 31.6835 224.794C32.3613 224.71 33.1237 224.71 33.8014 224.71C46.2546 224.794 58.7077 224.794 71.2456 224.794Z" fill="black"/>
<path d="M70.9914 212.849C58.1994 212.849 45.4921 212.849 32.7001 212.849C29.9892 212.849 28.2102 211.24 28.1255 208.868C28.0407 206.581 29.8198 204.886 32.5307 204.717C33.0389 204.717 33.5472 204.717 33.9708 204.717C41.6799 204.717 49.3043 204.717 57.0134 204.717C73.8717 204.717 90.73 204.717 107.588 204.717C108.69 204.717 109.876 204.717 110.977 204.886C112.925 205.14 114.366 207.004 114.281 208.953C114.196 210.901 112.671 212.595 110.723 212.849C109.791 212.934 108.859 212.934 108.012 212.934C95.7282 212.849 83.3598 212.849 70.9914 212.849Z" fill="black"/>
<path d="M54.5567 253.089C47.6947 253.089 40.8328 253.089 34.0556 253.089C33.5473 253.089 33.039 253.089 32.6154 253.089C29.9892 252.92 28.2102 251.141 28.2102 248.853C28.2949 246.651 30.0739 244.872 32.5307 244.787C35.1569 244.702 37.783 244.787 40.3245 244.787C52.1846 244.787 64.0448 244.787 75.9049 244.787C76.159 244.787 76.4979 244.787 76.7521 244.787C79.6324 244.872 81.4114 246.397 81.4114 248.938C81.4114 251.395 79.6324 253.089 76.8368 253.089C69.3818 253.089 62.0116 253.089 54.5567 253.089Z" fill="black"/>
<path d="M207.637 339.922C197.387 339.922 189.084 331.536 189.084 321.285C189.169 311.204 197.556 302.817 207.637 302.817C217.803 302.817 226.19 311.289 226.19 321.454C226.105 331.62 217.718 339.922 207.637 339.922ZM207.637 331.705C213.398 331.705 217.972 327.215 217.888 321.37C217.888 315.779 213.228 311.119 207.637 311.119C201.961 311.119 197.302 315.779 197.387 321.539C197.387 327.215 201.961 331.705 207.637 331.705Z" fill="black"/>
<path d="M158.418 61.2938C158.418 63.92 156.469 65.8685 154.182 65.7837C151.894 65.699 150.2 63.7506 150.2 61.2091C150.2 58.583 152.149 56.6345 154.436 56.7192C156.639 56.8039 158.418 58.7524 158.418 61.2938Z" fill="black"/>
<path d="M130.462 61.2093C130.462 63.8354 128.598 65.8686 126.226 65.7839C123.938 65.6992 122.159 63.7507 122.159 61.294C122.159 58.6678 124.023 56.6346 126.395 56.7194C128.682 56.8041 130.462 58.7525 130.462 61.2093Z" fill="black"/>
<path d="M104.2 61.2939C104.2 63.8353 102.421 65.7838 100.133 65.7838C97.7614 65.8685 95.8977 63.8353 95.8977 61.2092C95.8977 58.6677 97.6767 56.7193 99.964 56.7193C102.336 56.6345 104.2 58.7524 104.2 61.2939Z" fill="black"/>
<path d="M309.211 162.021C309.211 164.562 307.516 166.51 305.229 166.595C302.857 166.68 300.993 164.647 300.993 162.105C300.993 159.479 302.857 157.446 305.229 157.531C307.432 157.615 309.211 159.564 309.211 162.021Z" fill="black"/>
<path d="M254.146 162.02C254.146 164.647 252.367 166.68 249.995 166.68C247.707 166.68 245.928 164.731 245.844 162.19C245.844 159.564 247.623 157.531 249.995 157.531C252.282 157.531 254.061 159.479 254.146 162.02Z" fill="black"/>
<path d="M105.979 143.044C105.979 149.821 105.979 156.514 105.979 163.291C82.8515 163.291 59.809 163.291 36.597 163.291C36.597 156.599 36.597 149.906 36.597 143.044C59.6395 143.044 82.6821 143.044 105.979 143.044Z" fill="white"/>
<path d="M207.637 331.705C201.961 331.705 197.387 327.215 197.387 321.539C197.387 315.779 201.961 311.119 207.637 311.119C213.228 311.119 217.888 315.694 217.888 321.37C217.888 327.131 213.398 331.705 207.637 331.705Z" fill="white"/>
</svg>
