<svg width="416" height="416" viewBox="0 0 416 416" fill="none" xmlns="http://www.w3.org/2000/svg">
<path d="M395.497 139.246C390.062 145.531 384.286 150.967 377.746 155.553C363.053 166 346.661 172.454 328.825 175.257C309.036 178.4 289.671 176.871 270.646 170.756C269.712 170.416 268.268 170.671 267.334 171.18C256.972 177.211 246.61 183.326 236.249 189.526C234.55 190.545 232.851 191.055 231.068 190.036C229.114 188.931 228.944 187.063 228.944 185.024C229.199 172.624 229.454 160.224 229.624 147.909C229.624 146.89 228.859 145.701 228.095 144.936C218.158 134.744 210.599 123.024 206.777 109.265C199.982 84.7191 204.824 62.2119 219.687 41.8281C228.01 30.4471 238.627 21.699 250.942 14.8195C251.537 14.4798 252.131 14.14 253.32 13.4606C249.668 12.6962 246.61 12.0167 243.553 11.4222C228.944 8.78929 214.251 7.68516 199.388 8.44956C166.434 10.0633 135.603 18.8963 107.236 35.7979C60.3532 63.9106 29.6076 104.508 15.2539 157.421C9.47853 178.655 7.52508 200.227 9.22373 222.14C13.5553 277.091 36.4871 322.87 77.8493 359.136C104.773 382.748 136.113 397.526 171.275 404.321C191.404 408.143 211.618 408.822 231.917 406.444C255.274 403.641 277.441 397.016 297.4 384.361C309.121 376.972 319.143 367.799 325.683 355.314C329.844 347.331 331.203 339.007 327.891 330.344C327.636 329.665 327.296 329.07 327.042 328.391C326.872 328.051 326.702 327.796 326.362 327.287C325.683 327.796 325.173 328.306 324.494 328.73C318.209 332.977 312.263 337.648 305.724 341.385C297.485 346.142 288.312 347.416 278.885 346.566C260.794 345.038 244.827 337.818 229.964 327.796C174.757 290.511 128.979 243.798 90.7591 189.356C82.011 176.956 75.3013 163.537 72.0739 148.588C68.5916 132.706 70.5451 117.758 79.9726 103.999C86.0878 94.9959 92.9673 86.5876 101.036 79.3683C104.093 76.5655 107.831 74.2723 111.652 72.5737C120.316 68.6668 128.894 70.3654 135.264 77.4148C141.804 84.5492 148.089 92.0233 154.034 99.5823C161.848 109.519 169.407 119.541 176.711 129.818C180.703 135.424 182.147 141.879 180.958 148.758C180.448 151.816 178.834 154.194 176.796 156.487C173.144 160.479 169.492 164.386 166.264 168.632C164.566 170.841 163.292 173.474 162.357 176.107C160.744 180.693 161.678 184.94 165.16 188.422C186.308 209.57 207.456 230.803 228.69 251.951C232.681 255.943 237.353 256.623 242.534 254.499C247.884 252.291 252.131 248.639 256.378 244.817C257.397 243.883 258.501 242.949 259.435 241.844C264.786 235.644 271.581 234.71 278.97 236.918C282.452 238.022 286.019 239.551 288.992 241.675C305.384 253.48 321.606 265.456 336.724 278.79C340.546 282.187 344.198 285.755 345.727 290.851C347.935 298.155 346.151 304.779 342.075 310.81C339.782 314.207 336.724 317.18 334.006 320.322C333.581 320.832 333.242 321.936 333.412 322.361C340.886 335.95 338.847 349.029 331.373 361.854C324.409 373.83 314.641 383.002 303.091 390.392C284.575 402.282 264.191 409.332 242.534 412.984C226.566 415.702 210.514 416.551 194.292 415.447C165.33 413.493 137.897 406.019 112.247 392.43C61.1176 365.252 26.8048 323.974 9.22373 268.768C2.42912 247.195 -0.713384 225.028 0.135943 202.521C2.59899 140.775 27.0596 89.3054 74.0273 49.0474C101.97 25.1813 134.329 10.3181 170.341 3.52346C189.875 -0.12864 209.495 -0.977966 229.284 1.14535C240.92 2.41934 252.301 4.45772 263.597 7.5153C264.616 7.77009 265.89 7.85503 266.824 7.5153C278.12 3.43853 289.756 1.06042 301.732 0.296023C323.135 -0.977966 343.603 2.75907 362.798 12.3565C382.333 22.1237 397.96 36.0527 407.303 56.1817C418.514 80.4724 416.985 104.338 403.651 127.44C402.037 130.328 401.697 132.451 402.886 135.594C409.766 153.684 413.758 172.37 415.287 191.649C418.344 231.313 410.615 268.683 392.525 304.015C391.336 306.393 389.637 307.497 387.768 307.158C384.796 306.648 383.607 303.76 384.966 300.703C388.448 292.804 392.27 285.075 395.412 277.091C401.782 260.53 405.434 243.288 407.048 225.537C409.596 196.66 406.029 168.548 396.432 141.199C396.092 140.69 395.922 140.18 395.497 139.246ZM237.608 179.164C238.712 178.57 239.391 178.145 239.986 177.805C248.309 172.879 256.717 167.953 264.956 162.942C267.164 161.583 269.118 161.413 271.581 162.263C291.285 169.142 311.499 170.501 331.968 166.424C353.031 162.263 371.546 153.09 386.325 137.207C399.489 123.109 406.793 106.462 406.369 86.9273C406.114 71.7244 400.933 58.0502 391.675 46.1596C374.434 24.0772 351.162 12.951 323.899 9.21395C308.356 7.09063 292.984 8.27969 277.866 12.6113C257.312 18.4716 239.731 29.0882 226.736 46.3295C214.251 62.8914 209.41 81.5765 213.572 102.13C216.629 117.333 224.528 130.073 235.654 140.69C237.353 142.303 238.117 144.087 238.117 146.465C237.862 156.147 237.693 165.83 237.523 175.512C237.608 176.616 237.608 177.635 237.608 179.164ZM282.452 338.498C290.351 338.498 297.4 336.884 304.025 333.062C314.726 326.862 324.069 319.048 332.392 309.96C334.516 307.667 336.044 304.779 337.318 301.892C339.527 296.711 338.423 291.955 334.346 287.878C333.072 286.604 331.798 285.245 330.354 284.141C315.066 272.165 299.778 260.36 284.49 248.384C281.773 246.261 278.63 244.987 275.318 244.307C271.666 243.543 268.608 244.138 265.89 246.94C261.304 251.866 256.208 256.283 250.347 259.68C239.561 265.795 230.133 265.286 221.216 256.113C208.051 242.524 194.462 229.274 181.042 215.855C173.993 208.806 166.944 201.756 159.894 194.707C155.393 190.205 152.93 184.94 153.524 178.485C153.949 173.813 155.648 169.482 158.365 165.745C162.187 160.649 166.434 155.808 170.681 150.966C172.209 149.183 173.229 147.399 173.144 145.106C173.059 141.284 172.294 137.547 169.916 134.49C159.3 120.391 148.513 106.377 137.642 92.363C135.094 89.0506 132.206 86.078 129.318 83.0204C125.157 78.6888 120.146 77.5847 114.795 80.1327C111.737 81.5765 108.68 83.4451 106.217 85.8232C101.97 89.815 97.9783 94.2315 94.2413 98.7329C89.3152 104.508 84.8987 110.708 81.9261 117.673C77.8493 127.44 78.1041 137.547 80.3973 147.654C83.5398 161.328 89.7399 173.474 97.7235 184.94C131.357 233.096 171.445 274.968 218.753 309.875C228.35 316.925 238.032 324.059 248.819 329.325C259.605 334.506 270.731 338.243 282.452 338.498Z" fill="black"/>
<path d="M237.608 179.164C237.608 177.635 237.608 176.616 237.608 175.597C237.777 165.915 237.947 156.232 238.202 146.55C238.287 144.172 237.523 142.388 235.739 140.775C224.528 130.073 216.714 117.418 213.657 102.215C209.495 81.6616 214.251 63.0613 226.821 46.4145C239.816 29.1732 257.397 18.6415 277.951 12.6963C292.984 8.36469 308.441 7.17563 323.984 9.29895C351.247 12.9511 374.604 24.0772 391.76 46.2446C401.018 58.2201 406.199 71.8094 406.454 87.0123C406.793 106.547 399.574 123.194 386.41 137.292C371.631 153.175 353.116 162.263 332.053 166.509C311.584 170.586 291.37 169.227 271.666 162.348C269.287 161.498 267.249 161.668 265.041 163.027C256.802 168.038 248.394 172.964 240.071 177.89C239.391 178.145 238.712 178.57 237.608 179.164ZM305.808 89.0507C305.808 91.8535 307.337 93.722 309.885 93.722C312.348 93.8069 314.047 91.9384 314.132 89.2206C314.217 86.3328 312.518 84.3794 309.97 84.4643C307.422 84.4643 305.808 86.2479 305.808 89.0507ZM272.515 89.0507C272.515 86.163 270.986 84.4643 268.438 84.3794C265.89 84.3794 264.191 86.2479 264.276 89.1356C264.361 91.9384 265.975 93.722 268.523 93.722C270.986 93.722 272.515 91.9384 272.515 89.0507ZM348.954 84.4643C346.406 84.4643 344.877 86.163 344.877 89.0507C344.877 91.9384 346.321 93.722 348.784 93.8069C351.417 93.8918 353.116 92.0233 353.116 89.1356C353.116 86.2479 351.502 84.4643 348.954 84.4643Z" fill="white"/>
<path d="M282.452 338.498C270.731 338.243 259.605 334.506 248.819 329.325C238.032 324.059 228.35 317.01 218.753 309.875C171.445 274.968 131.357 233.096 97.7235 184.939C89.7399 173.558 83.5398 161.328 80.3973 147.654C78.1041 137.547 77.7644 127.44 81.9261 117.673C84.8987 110.623 89.3152 104.508 94.2413 98.7328C98.0633 94.2314 101.97 89.8999 106.217 85.8231C108.68 83.5299 111.737 81.5765 114.795 80.1326C120.146 77.5846 125.157 78.6887 129.318 83.0203C132.206 85.993 135.094 89.0505 137.642 92.3629C148.513 106.377 159.215 120.391 169.916 134.489C172.209 137.547 172.974 141.284 173.144 145.106C173.229 147.399 172.209 149.268 170.681 150.966C166.434 155.808 162.187 160.649 158.365 165.745C155.563 169.397 153.949 173.813 153.524 178.485C152.845 184.939 155.393 190.205 159.894 194.707C166.944 201.756 173.993 208.806 181.042 215.855C194.462 229.274 208.051 242.524 221.216 256.113C230.134 265.371 239.561 265.88 250.348 259.68C256.208 256.283 261.304 251.866 265.89 246.94C268.608 244.053 271.751 243.543 275.318 244.307C278.715 244.987 281.773 246.261 284.49 248.384C299.778 260.36 315.066 272.165 330.354 284.141C331.798 285.245 333.072 286.604 334.346 287.878C338.338 291.87 339.527 296.626 337.319 301.892C336.045 304.779 334.516 307.667 332.392 309.96C324.069 319.048 314.726 326.862 304.025 333.062C297.485 336.799 290.351 338.413 282.452 338.498Z" fill="white"/>
<path d="M305.808 89.0507C305.808 86.2479 307.422 84.4644 309.885 84.4644C312.433 84.4644 314.132 86.3329 314.047 89.2206C313.962 92.0234 312.348 93.8069 309.8 93.722C307.422 93.722 305.808 91.8535 305.808 89.0507Z" fill="black"/>
<path d="M272.515 89.0507C272.515 91.9384 270.986 93.722 268.523 93.722C266.06 93.722 264.361 91.9384 264.276 89.1356C264.191 86.2479 265.89 84.3794 268.438 84.3794C270.986 84.4643 272.515 86.2479 272.515 89.0507Z" fill="black"/>
<path d="M348.954 84.4644C351.417 84.4644 353.031 86.3329 353.031 89.1356C353.031 92.0234 351.332 93.8919 348.699 93.8069C346.236 93.722 344.793 91.9384 344.793 89.0507C344.877 86.163 346.406 84.4644 348.954 84.4644Z" fill="black"/>
</svg>
