<svg width="415" height="416" viewBox="0 0 415 416" fill="none" xmlns="http://www.w3.org/2000/svg">
<path d="M169.326 332.724C169.326 323.237 169.326 314.173 169.326 304.94C146.795 304.94 124.348 304.94 101.647 304.94C101.562 307.312 101.647 309.684 101.223 312.055C99.9526 320.187 95.2091 325.862 88.1785 329.844C80.8938 333.909 72.8468 335.434 64.6304 335.688C56.4139 336.027 48.1128 335.942 40.0657 337.891C35.2375 339.076 30.5787 340.686 26.5976 343.82C22.3623 347.124 19.9058 351.359 20.0752 356.949C20.1599 359.575 18.4658 361.439 16.1788 361.608C13.8917 361.693 12.0282 359.999 11.9435 357.288C11.6047 350.088 14.3152 344.074 19.4823 339.161C25.1576 333.825 32.1881 331.284 39.6422 329.589C48.2822 327.641 57.1763 328.065 65.9857 327.472C72.7621 327.048 79.4538 325.778 85.2985 322.051C91.5667 318.154 94.362 311.801 92.922 304.855C92.1597 304.855 91.3126 304.855 90.4656 304.855C70.2209 304.855 49.9763 304.855 29.7317 304.855C16.6023 304.855 5.42116 296.808 1.5247 284.526C0.592939 281.561 0 278.343 0 275.208C0 193.383 0 111.642 0 29.9011C0 12.8752 13.1294 0 30.4093 0C118.673 0 206.851 0 295.114 0C325.015 0 355.001 0 384.902 0C399.387 0 411.161 9.57173 414.21 23.6329C414.634 25.7505 414.888 27.9528 414.888 30.1552C414.888 111.642 414.888 193.044 414.888 274.531C414.888 287.152 407.773 298.418 396.253 302.399C391.509 304.093 386.173 304.601 381.09 304.601C337.298 304.771 293.59 304.686 249.797 304.686C248.441 304.686 247.171 304.686 245.646 304.686C245.646 314.004 245.646 323.067 245.646 332.469C246.493 332.554 247.34 332.639 248.272 332.639C262.587 332.639 276.903 332.639 291.218 332.639C293.166 332.639 295.199 332.724 297.063 333.232C302.568 334.757 306.295 339.754 306.465 345.429C306.55 347.886 306.465 350.342 306.465 352.968C307.397 352.968 308.159 353.053 308.921 353.053C313.834 353.053 318.832 353.053 323.745 353.053C328.065 353.053 330.098 354.323 330.182 357.119C330.267 359.914 328.149 361.354 323.829 361.354C286.813 361.354 249.712 361.354 212.696 361.354C172.291 361.354 131.971 361.354 91.5667 361.354C87.6703 361.354 85.6374 359.914 85.6374 357.203C85.6374 354.493 87.6703 353.053 91.6514 353.053C97.4114 353.053 103.256 353.053 109.355 353.053C109.355 350.512 109.355 348.055 109.355 345.599C109.44 339.5 113.421 334.418 119.35 332.978C120.875 332.554 122.569 332.554 124.178 332.554C138.324 332.554 152.555 332.554 166.701 332.554C167.463 332.724 168.31 332.724 169.326 332.724ZM406.587 231.162C406.587 230.23 406.587 229.552 406.587 228.79C406.587 162.55 406.587 96.395 406.587 30.1552C406.587 28.8846 406.587 27.614 406.333 26.3434C404.3 15.1623 395.914 8.21644 384.225 8.21644C266.23 8.21644 148.15 8.21644 30.1552 8.21644C17.4494 8.21644 8.21644 17.4494 8.21644 30.0705C8.21644 96.3103 8.21644 162.465 8.21644 228.705C8.21644 229.467 8.21644 230.23 8.21644 231.077C141.12 231.162 273.768 231.162 406.587 231.162ZM406.502 239.632C273.684 239.632 141.035 239.632 8.30115 239.632C8.30115 240.479 8.30115 241.157 8.30115 241.834C8.30115 252.592 8.30115 263.434 8.30115 274.192C8.30115 287.406 17.3646 296.47 30.494 296.47C146.541 296.47 262.587 296.47 378.549 296.47C381.683 296.47 384.733 296.215 387.867 296.046C400.065 295.199 406.672 284.018 406.587 275.547C406.502 264.112 406.587 252.677 406.587 241.242C406.587 240.733 406.502 240.31 406.502 239.632ZM117.571 353.138C177.882 353.138 237.938 353.138 298.079 353.138C298.079 350.342 298.248 347.716 297.994 345.006C297.825 343.142 296.639 341.787 294.775 341.194C293.674 340.855 292.573 340.855 291.472 340.855C235.82 340.855 180.084 340.855 124.433 340.855C123.331 340.855 122.145 340.94 121.044 341.194C119.096 341.702 117.741 343.058 117.571 345.006C117.402 347.632 117.571 350.258 117.571 353.138ZM177.797 332.554C197.618 332.554 217.27 332.554 237.091 332.554C237.091 323.237 237.091 314.088 237.091 304.94C217.27 304.94 197.533 304.94 177.797 304.94C177.797 314.173 177.797 323.321 177.797 332.554Z" fill="black"/>
<path d="M26.2587 387.104C26.2587 382.954 26.2587 379.227 26.2587 375.415C26.2587 371.688 27.7834 370.163 31.5952 370.163C121.468 370.163 211.256 370.163 301.128 370.163C305.025 370.163 306.465 371.603 306.465 375.584C306.465 379.312 306.465 383.039 306.465 387.104C308.752 387.104 310.87 387.104 313.072 387.104C316.799 387.104 318.324 388.629 318.324 392.356C318.324 398.031 318.324 403.791 318.324 409.467C318.324 413.617 317.053 414.888 312.902 414.888C263.604 414.973 214.39 415.142 165.091 415.227C136.545 415.311 107.915 415.311 79.3691 415.396C59.0398 415.481 38.7105 415.566 18.3811 415.566C14.0611 415.566 12.7058 414.21 12.7058 409.806C12.7058 403.961 12.7058 398.116 12.7058 392.271C12.7058 388.46 14.2305 386.935 17.9576 386.935C20.5835 387.104 23.294 387.104 26.2587 387.104ZM309.938 395.49C213.543 395.49 117.402 395.49 21.1764 395.49C21.1764 399.556 21.1764 403.368 21.1764 407.01C117.487 407.01 213.712 407.01 309.938 407.01C309.938 402.944 309.938 399.302 309.938 395.49ZM34.6446 386.935C39.4728 386.935 44.1316 386.935 48.8751 386.935C48.8751 384.055 48.8751 381.344 48.8751 378.634C44.0469 378.634 39.3881 378.634 34.6446 378.634C34.6446 381.429 34.6446 384.055 34.6446 386.935ZM71.4068 387.02C71.4068 384.055 71.4068 381.344 71.4068 378.634C66.5786 378.634 61.9198 378.634 57.261 378.634C57.261 381.514 57.261 384.224 57.261 387.02C62.0892 387.02 66.6633 387.02 71.4068 387.02ZM79.9621 378.549C79.9621 381.514 79.9621 384.224 79.9621 386.935C84.7903 386.935 89.4491 386.935 94.1079 386.935C94.1079 384.055 94.1079 381.344 94.1079 378.549C89.3644 378.549 84.7903 378.549 79.9621 378.549ZM116.809 378.549C111.981 378.549 107.322 378.549 102.494 378.549C102.494 381.09 102.494 383.547 102.578 386.003C102.578 386.342 103.171 387.02 103.51 387.02C107.915 387.104 112.32 387.104 116.809 387.104C116.809 384.14 116.809 381.429 116.809 378.549ZM139.51 387.02C139.51 384.14 139.51 381.429 139.51 378.634C134.682 378.634 130.023 378.634 125.364 378.634C125.364 381.514 125.364 384.224 125.364 387.02C130.108 387.02 134.682 387.02 139.51 387.02ZM147.896 378.549C147.896 381.429 147.896 384.14 147.896 386.935C152.724 386.935 157.298 386.935 162.042 386.935C162.042 384.055 162.042 381.26 162.042 378.549C157.298 378.549 152.639 378.549 147.896 378.549ZM170.682 378.549C170.682 381.514 170.682 384.224 170.682 386.935C175.51 386.935 180.169 386.935 184.828 386.935C184.828 384.055 184.828 381.344 184.828 378.549C179.999 378.549 175.341 378.549 170.682 378.549ZM207.444 378.549C202.616 378.549 197.957 378.549 193.298 378.549C193.298 381.429 193.298 384.224 193.298 386.935C198.126 386.935 202.7 386.935 207.444 386.935C207.444 384.14 207.444 381.429 207.444 378.549ZM230.23 378.549C225.317 378.549 220.658 378.549 215.999 378.549C215.999 381.429 215.999 384.224 215.999 387.104C220.404 387.104 224.639 387.104 228.79 387.02C229.298 387.02 230.145 386.342 230.145 386.003C230.314 383.632 230.23 381.175 230.23 378.549ZM252.677 387.02C252.677 384.055 252.677 381.344 252.677 378.634C247.849 378.634 243.19 378.634 238.531 378.634C238.531 381.514 238.531 384.224 238.531 387.02C243.359 387.02 247.933 387.02 252.677 387.02ZM275.463 387.02C275.463 384.055 275.463 381.344 275.463 378.634C270.634 378.634 265.976 378.634 261.317 378.634C261.317 381.514 261.317 384.224 261.317 387.02C266.06 387.02 270.634 387.02 275.463 387.02ZM298.079 378.634C293.251 378.634 288.592 378.634 283.848 378.634C283.848 381.514 283.848 384.224 283.848 386.935C288.677 386.935 293.335 386.935 298.079 386.935C298.079 384.14 298.079 381.429 298.079 378.634Z" fill="black"/>
<path d="M412.855 370.587C412.855 377.109 413.363 383.716 412.77 390.239C411.669 402.945 400.573 414.041 387.867 415.227C378.719 416.074 369.401 416.582 360.253 414.803C347.123 412.177 337.467 400.319 337.298 386.935C337.128 376.008 337.128 365.081 337.298 354.154C337.552 338.738 349.749 326.032 365.25 325.354C372.789 325.015 380.413 325.1 387.867 325.693C400.488 326.794 411.754 338.06 412.77 350.681C413.279 357.288 412.77 363.98 412.855 370.587ZM404.554 368.469C384.987 368.469 365.335 368.469 345.429 368.469C345.429 374.653 345.345 380.752 345.429 386.766C345.599 397.947 354.916 407.349 366.182 407.434C372.196 407.519 378.21 407.519 384.14 407.434C394.135 407.349 403.199 400.064 404.384 390.069C405.147 382.954 404.554 375.754 404.554 368.469ZM370.841 359.914C370.841 351.02 370.841 342.38 370.841 333.74C354.154 331.538 342.804 345.091 345.768 359.914C354.069 359.914 362.455 359.914 370.841 359.914ZM379.396 359.829C387.952 359.829 396.337 359.829 404.639 359.829C407.01 342.126 393.542 331.538 379.396 333.74C379.396 342.465 379.396 351.105 379.396 359.829Z" fill="black"/>
<path d="M406.587 231.162C273.768 231.162 141.12 231.162 8.30115 231.162C8.30115 230.315 8.30115 229.552 8.30115 228.79C8.30115 162.55 8.30115 96.3951 8.30115 30.1553C8.30115 17.4495 17.5341 8.30127 30.2399 8.30127C148.235 8.30127 266.314 8.30127 384.309 8.30127C395.999 8.30127 404.384 15.1624 406.417 26.4283C406.672 27.6989 406.672 28.9694 406.672 30.24C406.672 96.4798 406.672 162.635 406.672 228.875C406.587 229.468 406.587 230.23 406.587 231.162ZM109.185 32.6118C86.4844 32.6118 63.7833 32.6118 40.9975 32.6118C36.9316 32.6118 35.5763 34.0518 35.5763 38.1176C35.5763 45.7411 35.5763 53.3646 35.5763 60.9881C35.5763 64.7999 37.101 66.3246 40.8281 66.3246C86.3997 66.3246 131.971 66.3246 177.543 66.3246C181.27 66.3246 182.795 64.7999 182.795 60.9881C182.795 53.7035 182.795 46.4188 182.795 39.2188C182.795 33.6282 181.778 32.6118 176.272 32.6118C153.91 32.6118 131.548 32.6118 109.185 32.6118ZM325.693 63.1058C325.608 60.6493 324.677 59.3787 322.813 58.7011C320.441 57.9387 318.832 58.9552 317.392 62.0893C300.281 97.9198 283.086 133.835 265.976 169.665C262.926 175.934 259.961 182.287 256.912 188.555C256.065 190.334 256.15 191.943 257.42 193.468C258.606 194.823 260.3 195.247 261.825 194.484C262.926 193.891 264.027 192.705 264.536 191.519C284.695 149.421 304.771 107.407 324.931 65.3081C325.269 64.4611 325.524 63.614 325.693 63.1058ZM102.833 91.7363C123.331 91.7363 143.745 91.7363 164.244 91.7363C164.922 91.7363 165.684 91.821 166.362 91.6516C168.564 91.3127 170.174 89.5339 170.089 87.4163C170.004 85.3833 168.31 83.6892 166.108 83.4351C165.515 83.3504 165.006 83.4351 164.414 83.4351C128.752 83.4351 93.0067 83.4351 57.3457 83.4351C51.6704 83.4351 45.9104 83.4351 40.2352 83.4351C37.6093 83.4351 35.7458 85.1292 35.661 87.4163C35.5763 89.788 37.5246 91.5669 40.2352 91.6516C40.6587 91.6516 41.0822 91.6516 41.5057 91.6516C61.9198 91.7363 82.4185 91.7363 102.833 91.7363ZM375.33 126.381C375.33 126.72 375.33 127.059 375.415 127.313C374.738 127.821 373.975 128.16 373.382 128.753C361.608 140.527 349.834 152.301 338.06 164.075C337.552 164.583 336.959 165.176 336.451 165.769C335.349 167.294 335.604 169.496 336.789 170.851C338.145 172.291 340.347 172.63 341.956 171.529C342.634 171.105 343.142 170.512 343.651 170.004C356.695 156.96 369.825 143.83 382.869 130.786C385.919 127.736 385.919 125.873 382.869 122.739C369.825 109.694 356.865 96.7339 343.82 83.6892C343.312 83.181 342.719 82.5881 342.126 82.1645C340.347 80.894 338.145 81.1481 336.789 82.6728C335.519 84.0281 335.349 86.3998 336.535 87.9245C337.044 88.6022 337.636 89.1951 338.314 89.788C350.003 101.477 361.778 113.251 373.467 124.941C373.975 125.534 374.653 125.957 375.33 126.381ZM210.07 126.635C210.917 125.957 211.679 125.364 212.272 124.771C223.962 113.082 235.651 101.477 247.256 89.788C247.849 89.1951 248.526 88.6022 248.95 87.9245C250.559 85.5528 249.458 82.5034 246.663 81.6563C244.545 81.0634 243.19 82.1645 241.834 83.5198C228.705 96.6492 215.576 109.779 202.446 122.908C199.312 126.042 199.228 127.736 202.362 130.87C215.491 144 228.62 157.129 241.75 170.258C242.258 170.767 242.766 171.275 243.359 171.698C244.969 172.715 247.086 172.545 248.441 171.19C249.797 169.835 250.136 167.632 248.95 165.938C248.441 165.261 247.849 164.668 247.256 164.075C235.482 152.301 223.707 140.527 211.933 128.753C211.425 128.075 210.917 127.482 210.07 126.635ZM91.9903 182.456C107.661 182.456 123.331 182.456 139.002 182.456C140.95 182.456 142.983 182.541 144.931 182.371C147.049 182.202 148.489 180.508 148.574 178.39C148.574 176.272 147.218 174.663 145.016 174.324C144.423 174.24 143.915 174.24 143.322 174.24C109.355 174.24 75.4727 174.24 41.5057 174.24C40.8281 174.24 40.0657 174.24 39.3881 174.324C37.1858 174.578 35.5763 176.272 35.5763 178.39C35.5763 180.508 37.2705 182.202 39.4728 182.371C40.1504 182.456 40.9128 182.371 41.5904 182.371C58.4469 182.456 75.2186 182.456 91.9903 182.456ZM84.0279 137.054C98.3432 137.054 112.658 137.054 126.974 137.054C127.651 137.054 128.414 137.054 129.091 137.054C131.124 136.8 132.649 135.275 132.818 133.327C132.988 131.463 131.632 129.6 129.684 129.091C128.837 128.922 127.905 128.837 126.974 128.837C98.5126 128.837 69.9668 128.837 41.5057 128.837C40.574 128.837 39.6422 128.837 38.7952 129.091C36.8469 129.6 35.4916 131.463 35.7458 133.327C35.9152 135.275 37.5246 136.884 39.4728 137.054C40.1504 137.138 40.9128 137.054 41.5904 137.054C55.6516 137.054 69.7974 137.054 84.0279 137.054ZM71.068 151.623C60.7339 151.623 50.4845 151.623 40.1504 151.623C37.5246 151.623 35.6611 153.317 35.5763 155.604C35.4916 157.807 37.2705 159.501 39.7269 159.84C40.3199 159.924 40.9975 159.84 41.5904 159.84C49.3834 159.84 57.261 159.84 65.0539 159.84C76.7433 159.84 88.4326 159.84 100.207 159.84C100.969 159.84 101.731 159.84 102.494 159.755C104.866 159.416 106.475 157.637 106.39 155.52C106.306 153.233 104.527 151.623 101.986 151.623C91.7361 151.623 81.4021 151.623 71.068 151.623ZM71.3221 196.941C61.0727 196.941 50.9081 196.941 40.6587 196.941C38.8799 196.941 37.2705 197.364 36.254 198.974C34.4752 201.854 36.5928 205.157 40.4046 205.242C47.5198 205.326 54.6351 205.242 61.7504 205.242C74.9644 205.242 88.0938 205.242 101.308 205.242C103.171 205.242 105.035 204.988 105.797 203.124C106.306 201.938 106.306 200.329 105.882 199.143C105.289 197.364 103.51 196.856 101.731 196.856C91.5667 196.941 81.4868 196.941 71.3221 196.941ZM71.068 106.221C62.6821 106.221 54.2963 106.221 45.9104 106.221C43.7081 106.221 41.5057 106.136 39.3881 106.306C37.3552 106.39 35.7458 108.169 35.661 110.202C35.5763 112.235 37.1858 114.014 39.2187 114.268C39.8963 114.353 40.6587 114.353 41.5057 114.353C50.4845 114.353 59.3786 114.353 68.3574 114.353C79.2844 114.353 90.2114 114.353 101.138 114.268C102.494 114.268 104.103 113.844 105.204 113.082C106.56 112.15 106.898 110.541 106.221 108.932C105.458 107.068 104.103 106.221 102.155 106.221C91.7361 106.221 81.4021 106.221 71.068 106.221ZM150.098 159.924C155.35 159.924 160.686 159.924 165.938 159.924C168.903 159.924 170.851 158.315 170.851 155.858C170.851 153.487 168.988 151.708 166.192 151.708C155.435 151.623 144.677 151.623 133.835 151.708C131.04 151.708 129.176 153.571 129.261 155.943C129.345 158.315 131.209 159.924 134.004 159.924C139.425 159.924 144.762 159.924 150.098 159.924ZM125.873 196.941C124.009 196.941 122.061 196.856 120.197 196.941C117.656 197.025 115.962 198.635 115.877 200.922C115.793 203.294 117.402 205.072 119.943 205.157C123.924 205.242 127.821 205.242 131.802 205.157C134.343 205.072 135.952 203.294 135.868 200.922C135.868 198.635 134.174 196.941 131.632 196.856C129.684 196.856 127.736 196.941 125.873 196.941ZM125.957 114.353C127.99 114.353 130.023 114.437 132.056 114.268C134.428 114.099 135.952 112.404 135.868 110.117C135.783 107.915 134.258 106.306 131.971 106.306C127.99 106.221 123.924 106.221 119.943 106.306C117.571 106.306 115.962 108 115.877 110.287C115.877 112.574 117.402 114.183 119.774 114.353C121.807 114.353 123.84 114.353 125.957 114.353Z" fill="white"/>
<path d="M406.502 239.632C406.502 240.225 406.587 240.733 406.587 241.157C406.587 252.592 406.502 264.027 406.587 275.463C406.672 283.933 400.064 295.114 387.867 295.961C384.733 296.215 381.683 296.385 378.549 296.385C262.503 296.385 146.456 296.385 30.494 296.385C17.3646 296.385 8.30115 287.321 8.30115 274.192C8.30115 263.434 8.30115 252.592 8.30115 241.834C8.30115 241.157 8.30115 240.479 8.30115 239.632C141.035 239.632 273.684 239.632 406.502 239.632ZM207.359 285.712C217.609 285.712 225.995 277.326 225.995 267.161C225.995 257.081 217.693 248.78 207.529 248.696C197.533 248.611 188.978 256.997 188.893 267.077C188.809 277.241 197.195 285.712 207.359 285.712Z" fill="white"/>
<path d="M117.571 353.138C117.571 350.342 117.402 347.632 117.656 345.006C117.825 343.058 119.181 341.702 121.129 341.194C122.23 340.94 123.331 340.855 124.517 340.855C180.169 340.855 235.905 340.855 291.557 340.855C292.658 340.855 293.844 340.94 294.86 341.194C296.724 341.702 297.994 343.058 298.079 345.006C298.248 347.632 298.164 350.342 298.164 353.138C237.938 353.138 177.966 353.138 117.571 353.138Z" fill="white"/>
<path d="M177.797 332.554C177.797 323.321 177.797 314.173 177.797 304.94C197.533 304.94 217.185 304.94 237.091 304.94C237.091 314.088 237.091 323.237 237.091 332.554C217.27 332.554 197.618 332.554 177.797 332.554Z" fill="white"/>
<path d="M309.938 395.49C309.938 399.302 309.938 402.944 309.938 407.01C213.712 407.01 117.487 407.01 21.1764 407.01C21.1764 403.453 21.1764 399.556 21.1764 395.49C117.402 395.49 213.543 395.49 309.938 395.49Z" fill="white"/>
<path d="M34.6446 386.935C34.6446 384.055 34.6446 381.429 34.6446 378.634C39.3881 378.634 44.0469 378.634 48.8751 378.634C48.8751 381.345 48.8751 384.055 48.8751 386.935C44.1316 386.935 39.4728 386.935 34.6446 386.935Z" fill="white"/>
<path d="M71.4068 387.02C66.6633 387.02 62.0045 387.02 57.261 387.02C57.261 384.225 57.261 381.514 57.261 378.634C61.9198 378.634 66.5786 378.634 71.4068 378.634C71.4068 381.345 71.4068 384.055 71.4068 387.02Z" fill="white"/>
<path d="M79.9621 378.549C84.7056 378.549 89.3644 378.549 94.1079 378.549C94.1079 381.345 94.1079 384.055 94.1079 386.935C89.3644 386.935 84.7056 386.935 79.9621 386.935C79.9621 384.225 79.9621 381.514 79.9621 378.549Z" fill="white"/>
<path d="M116.809 378.549C116.809 381.429 116.809 384.14 116.809 387.02C112.32 387.02 107.915 387.02 103.51 386.935C103.171 386.935 102.578 386.258 102.578 385.919C102.494 383.462 102.494 381.006 102.494 378.465C107.322 378.549 111.896 378.549 116.809 378.549Z" fill="white"/>
<path d="M139.51 387.02C134.767 387.02 130.108 387.02 125.364 387.02C125.364 384.225 125.364 381.599 125.364 378.634C129.938 378.634 134.682 378.634 139.51 378.634C139.51 381.345 139.51 384.14 139.51 387.02Z" fill="white"/>
<path d="M147.896 378.549C152.639 378.549 157.214 378.549 162.042 378.549C162.042 381.345 162.042 384.055 162.042 386.935C157.383 386.935 152.724 386.935 147.896 386.935C147.896 384.225 147.896 381.429 147.896 378.549Z" fill="white"/>
<path d="M170.682 378.549C175.425 378.549 179.999 378.549 184.828 378.549C184.828 381.345 184.828 384.055 184.828 386.935C180.169 386.935 175.51 386.935 170.682 386.935C170.682 384.225 170.682 381.514 170.682 378.549Z" fill="white"/>
<path d="M207.444 378.549C207.444 381.429 207.444 384.14 207.444 386.935C202.7 386.935 198.126 386.935 193.298 386.935C193.298 384.14 193.298 381.429 193.298 378.549C197.957 378.549 202.616 378.549 207.444 378.549Z" fill="white"/>
<path d="M230.23 378.549C230.23 381.09 230.315 383.547 230.145 386.003C230.145 386.342 229.298 387.02 228.79 387.02C224.555 387.105 220.319 387.105 215.999 387.105C215.999 384.225 215.999 381.514 215.999 378.549C220.658 378.549 225.317 378.549 230.23 378.549Z" fill="white"/>
<path d="M252.677 387.02C247.933 387.02 243.359 387.02 238.531 387.02C238.531 384.225 238.531 381.514 238.531 378.634C243.19 378.634 247.849 378.634 252.677 378.634C252.677 381.345 252.677 384.055 252.677 387.02Z" fill="white"/>
<path d="M275.463 387.02C270.719 387.02 266.06 387.02 261.317 387.02C261.317 384.225 261.317 381.514 261.317 378.634C265.976 378.634 270.634 378.634 275.463 378.634C275.463 381.345 275.463 384.055 275.463 387.02Z" fill="white"/>
<path d="M298.079 378.634C298.079 381.514 298.079 384.14 298.079 386.935C293.335 386.935 288.677 386.935 283.848 386.935C283.848 384.225 283.848 381.514 283.848 378.634C288.592 378.634 293.251 378.634 298.079 378.634Z" fill="white"/>
<path d="M404.554 368.469C404.554 375.754 405.232 383.039 404.384 390.069C403.199 399.98 394.135 407.264 384.14 407.434C378.126 407.519 372.112 407.519 366.182 407.434C355.001 407.264 345.599 397.947 345.429 386.766C345.345 380.752 345.429 374.653 345.429 368.469C365.25 368.469 384.902 368.469 404.554 368.469Z" fill="white"/>
<path d="M370.841 359.914C362.37 359.914 354.069 359.914 345.768 359.914C342.888 345.175 354.154 331.538 370.841 333.74C370.841 342.38 370.841 351.02 370.841 359.914Z" fill="white"/>
<path d="M379.396 359.829C379.396 351.02 379.396 342.38 379.396 333.74C393.542 331.538 407.01 342.041 404.639 359.829C396.337 359.829 388.036 359.829 379.396 359.829Z" fill="white"/>
<path d="M109.185 32.6116C131.548 32.6116 153.91 32.6116 176.272 32.6116C181.778 32.6116 182.795 33.628 182.795 39.2186C182.795 46.5033 182.795 53.788 182.795 60.9879C182.795 64.7997 181.27 66.3244 177.543 66.3244C131.971 66.3244 86.3997 66.3244 40.8281 66.3244C37.101 66.3244 35.6611 64.7997 35.5763 60.9879C35.5763 53.3644 35.5763 45.7409 35.5763 38.1174C35.5763 34.0516 37.0163 32.6116 40.9975 32.6116C63.7833 32.6116 86.4844 32.6116 109.185 32.6116ZM43.9622 40.9974C43.9622 46.7574 43.9622 52.2633 43.9622 57.8538C87.5009 57.8538 130.87 57.8538 174.324 57.8538C174.324 52.1786 174.324 46.588 174.324 40.9974C130.87 40.9974 87.5009 40.9974 43.9622 40.9974Z" fill="black"/>
<path d="M325.693 63.1057C325.524 63.614 325.269 64.461 324.931 65.3081C304.855 107.407 284.695 149.505 264.536 191.519C263.943 192.705 262.926 193.891 261.825 194.484C260.3 195.246 258.606 194.908 257.42 193.468C256.15 191.943 256.065 190.334 256.912 188.555C259.961 182.286 262.926 175.934 265.976 169.665C283.086 133.835 300.281 97.9197 317.392 62.0893C318.917 58.9552 320.526 57.9387 322.813 58.701C324.677 59.3787 325.608 60.6493 325.693 63.1057Z" fill="black"/>
<path d="M102.833 91.7363C82.3338 91.7363 61.9198 91.7363 41.421 91.7363C40.9975 91.7363 40.574 91.7363 40.1505 91.7363C37.4399 91.6516 35.4916 89.8727 35.5763 87.501C35.6611 85.2139 37.5246 83.5198 40.1505 83.5198C45.8257 83.4351 51.5857 83.5198 57.261 83.5198C92.922 83.5198 128.668 83.5198 164.329 83.5198C164.922 83.5198 165.43 83.5198 166.023 83.5198C168.225 83.7739 169.919 85.4681 170.004 87.501C170.089 89.5339 168.479 91.3974 166.277 91.7363C165.599 91.821 164.837 91.821 164.159 91.821C143.745 91.7363 123.331 91.7363 102.833 91.7363Z" fill="black"/>
<path d="M375.33 126.381C374.738 125.957 373.975 125.534 373.467 125.025C361.693 113.336 350.004 101.562 338.314 89.8726C337.721 89.2796 337.128 88.6867 336.535 88.0091C335.349 86.4844 335.434 84.1126 336.789 82.7573C338.229 81.2326 340.432 80.9785 342.126 82.2491C342.719 82.6726 343.312 83.2655 343.82 83.7738C356.865 96.8184 369.825 109.778 382.869 122.823C385.919 125.872 385.919 127.736 382.869 130.87C369.825 143.915 356.695 157.044 343.651 170.089C343.142 170.597 342.549 171.19 341.956 171.613C340.262 172.715 338.06 172.376 336.789 170.936C335.604 169.581 335.349 167.378 336.451 165.853C336.874 165.261 337.467 164.668 338.06 164.159C349.834 152.385 361.608 140.611 373.382 128.837C373.975 128.244 374.738 127.821 375.415 127.397C375.33 127.058 375.33 126.72 375.33 126.381Z" fill="black"/>
<path d="M210.07 126.635C210.917 127.482 211.51 128.16 212.103 128.753C223.877 140.527 235.651 152.301 247.425 164.075C248.018 164.668 248.611 165.261 249.119 165.938C250.22 167.548 249.966 169.835 248.611 171.19C247.256 172.461 245.138 172.715 243.529 171.698C242.936 171.275 242.427 170.767 241.919 170.258C228.79 157.129 215.66 144 202.531 130.87C199.397 127.736 199.397 126.042 202.616 122.908C215.745 109.779 228.875 96.6492 242.004 83.5198C243.359 82.1646 244.714 81.0634 246.832 81.6563C249.627 82.5034 250.729 85.5528 249.119 87.9245C248.611 88.6022 248.018 89.1951 247.425 89.7881C235.736 101.477 224.046 113.167 212.442 124.771C211.679 125.364 210.917 125.957 210.07 126.635Z" fill="black"/>
<path d="M91.9903 182.456C75.2186 182.456 58.3621 182.456 41.5904 182.456C40.9128 182.456 40.1504 182.456 39.4728 182.456C37.2705 182.287 35.5763 180.592 35.5763 178.475C35.5763 176.357 37.1858 174.663 39.3881 174.409C40.0657 174.324 40.8281 174.324 41.5057 174.324C75.4727 174.324 109.355 174.324 143.322 174.324C143.915 174.324 144.423 174.324 145.016 174.409C147.134 174.663 148.574 176.272 148.574 178.475C148.574 180.592 147.049 182.287 144.931 182.456C142.983 182.541 140.95 182.541 139.002 182.541C123.331 182.456 107.661 182.456 91.9903 182.456Z" fill="black"/>
<path d="M84.0279 137.054C69.8821 137.054 55.6516 137.054 41.5057 137.054C40.8281 137.054 40.0657 137.054 39.3881 137.054C37.4399 136.884 35.8305 135.275 35.6611 133.327C35.4916 131.463 36.7622 129.6 38.7105 129.092C39.5575 128.922 40.4893 128.837 41.421 128.837C69.8821 128.837 98.4279 128.837 126.889 128.837C127.821 128.837 128.752 128.837 129.6 129.092C131.548 129.515 132.903 131.379 132.734 133.327C132.564 135.275 131.04 136.884 129.007 137.054C128.329 137.139 127.567 137.054 126.889 137.054C112.658 137.054 98.3432 137.054 84.0279 137.054Z" fill="black"/>
<path d="M71.068 151.623C81.4021 151.623 91.8209 151.623 102.155 151.623C104.696 151.623 106.475 153.317 106.56 155.52C106.644 157.637 105.035 159.416 102.663 159.755C101.901 159.839 101.138 159.839 100.376 159.839C88.6868 159.839 76.9974 159.839 65.2233 159.839C57.4304 159.839 49.5528 159.839 41.7599 159.839C41.1669 159.839 40.4893 159.839 39.8963 159.839C37.3552 159.585 35.6611 157.807 35.7458 155.604C35.8305 153.317 37.694 151.623 40.3199 151.623C50.4845 151.623 60.7339 151.623 71.068 151.623Z" fill="black"/>
<path d="M71.3221 196.94C81.4868 196.94 91.6514 196.94 101.816 196.94C103.68 196.94 105.374 197.449 105.967 199.227C106.39 200.413 106.306 202.023 105.882 203.209C105.12 204.987 103.256 205.326 101.393 205.326C88.1785 205.326 75.0492 205.326 61.8351 205.326C54.7198 205.326 47.6045 205.326 40.4893 205.326C36.6775 205.326 34.5599 202.023 36.3387 199.058C37.3552 197.449 38.8799 197.025 40.7434 197.025C50.8234 196.94 61.0727 196.94 71.3221 196.94Z" fill="black"/>
<path d="M71.068 106.221C81.4021 106.221 91.8209 106.221 102.155 106.221C104.103 106.221 105.543 107.068 106.221 108.931C106.898 110.625 106.475 112.235 105.204 113.082C104.103 113.844 102.494 114.268 101.138 114.268C90.2115 114.352 79.2844 114.352 68.3574 114.352C59.3786 114.352 50.4845 114.352 41.5057 114.352C40.7434 114.352 39.981 114.352 39.2187 114.268C37.1858 114.014 35.5763 112.235 35.6611 110.202C35.7458 108.169 37.3552 106.39 39.3881 106.305C41.5904 106.221 43.7928 106.221 45.9104 106.221C54.2963 106.221 62.6821 106.221 71.068 106.221Z" fill="black"/>
<path d="M150.098 159.924C144.762 159.924 139.425 159.924 134.004 159.924C131.209 159.924 129.345 158.315 129.261 155.943C129.176 153.571 131.04 151.708 133.835 151.708C144.592 151.623 155.35 151.623 166.192 151.708C168.988 151.708 170.851 153.486 170.851 155.858C170.851 158.315 168.903 159.924 165.938 159.924C160.686 159.924 155.35 159.924 150.098 159.924Z" fill="black"/>
<path d="M125.873 196.94C127.736 196.94 129.684 196.856 131.548 196.94C134.089 197.025 135.783 198.635 135.783 201.006C135.783 203.378 134.258 205.157 131.717 205.242C127.736 205.326 123.84 205.326 119.858 205.242C117.317 205.157 115.708 203.378 115.793 201.006C115.877 198.719 117.487 197.11 120.113 197.025C122.061 196.94 124.009 196.94 125.873 196.94Z" fill="black"/>
<path d="M125.957 114.353C123.924 114.353 121.891 114.437 119.858 114.353C117.402 114.268 115.877 112.574 115.962 110.287C115.962 108 117.571 106.39 120.028 106.305C124.009 106.221 128.075 106.221 132.056 106.305C134.343 106.305 135.868 107.915 135.952 110.117C136.037 112.489 134.597 114.183 132.141 114.268C130.023 114.352 127.99 114.268 125.957 114.353Z" fill="black"/>
<path d="M207.359 285.712C197.195 285.712 188.809 277.241 188.893 266.992C188.978 256.912 197.449 248.526 207.529 248.611C217.693 248.696 225.994 256.997 225.994 267.077C225.994 277.326 217.609 285.712 207.359 285.712ZM217.693 267.162C217.693 261.571 213.035 256.912 207.444 256.912C201.769 256.912 197.195 261.571 197.195 267.331C197.195 273.006 201.769 277.496 207.444 277.496C213.204 277.496 217.693 272.921 217.693 267.162Z" fill="black"/>
<path d="M43.9622 40.9973C87.5009 40.9973 130.785 40.9973 174.324 40.9973C174.324 46.5879 174.324 52.1785 174.324 57.8537C130.955 57.8537 87.5009 57.8537 43.9622 57.8537C43.9622 52.2632 43.9622 46.7573 43.9622 40.9973Z" fill="white"/>
<path d="M217.693 267.161C217.693 272.921 213.204 277.496 207.444 277.496C201.769 277.496 197.195 273.006 197.195 267.331C197.195 261.571 201.769 256.912 207.444 256.912C213.035 256.912 217.693 261.571 217.693 267.161Z" fill="white"/>
</svg>
