<svg width="416" height="416" viewBox="0 0 416 416" fill="none" xmlns="http://www.w3.org/2000/svg">
<path d="M400.286 373.427C400.812 373.673 401.135 373.851 401.441 373.962C412.929 377.808 416.724 388.124 415.671 398.169C414.457 409.615 406.527 416 394.291 416H305.774C214.004 416 122.235 416 30.4656 416C15.5046 416 3.62589 406.473 0.62861 392.081C0.201707 390 -0.00885402 387.88 0.000285161 385.755C0.000285161 276.438 0.000285161 167.118 0.000285161 57.7953C0.000285161 42.8259 9.52705 30.9132 23.8936 27.9414C26.1124 27.5165 28.3678 27.3117 30.6269 27.33C42.8707 27.2791 55.1146 27.33 67.3499 27.33H70.3727C70.3727 26.4809 70.4661 25.7677 70.4746 25.0205C70.4746 21.0553 70.4746 17.0985 70.4746 13.1333C70.551 6.34056 74.9493 1.06773 81.6656 0.396946C86.029 -0.0657856 90.4291 -0.0657856 94.7925 0.396946C101.526 1.13565 105.831 6.43396 105.932 13.2182C105.932 17.8117 105.932 22.4053 105.932 27.1772H179.158C179.158 22.7025 179.107 18.2702 179.158 13.838C179.139 12.2155 179.359 10.599 179.812 9.04066C181.484 3.93764 185.101 0.838471 190.315 0.33751C194.682 -0.099789 199.083 -0.099789 203.45 0.33751C210.175 1.05923 214.548 6.34905 214.624 13.1333C214.675 17.0985 214.624 21.0553 214.624 25.0205C214.624 25.7083 214.692 26.4045 214.726 27.1942H287.841C287.841 24.1799 287.841 21.2505 287.841 18.2872C287.739 15.8853 287.807 13.4792 288.045 11.087C288.945 5.06693 293.139 0.897908 299.159 0.312037C303.46 -0.104012 307.791 -0.104012 312.091 0.312037C318.773 0.991307 323.214 6.3066 323.29 13.0484C323.35 17.7014 323.29 22.3883 323.29 27.2621H325.965C338.566 27.2621 351.158 27.2621 363.75 27.2621C378.345 27.3215 390.199 36.9587 393.136 51.1979C393.571 53.4897 393.773 55.8195 393.739 58.1519C393.739 140.23 393.739 222.309 393.739 304.387C393.739 306.476 394.291 307.554 396.244 308.556C407.834 314.5 414.16 324.103 415.527 337.069C416.423 344.397 415.408 351.833 412.581 358.653C410.366 363.818 406.856 368.324 402.392 371.737C401.746 372.306 401.084 372.807 400.286 373.427ZM178.173 334.53V337.374C178.173 350.184 178.173 362.991 178.173 375.796C178.173 380.041 176.942 381.264 172.781 381.264H35.662C32.1128 381.264 30.5674 379.778 30.5674 376.28C30.5674 373.868 30.5674 371.465 30.5674 369.062V192.843C30.5674 188.538 31.8156 187.281 36.112 187.281H83.6609C111.602 187.281 139.548 187.298 167.5 187.332C169.453 187.332 170.005 186.772 169.996 184.836C169.928 171.955 169.996 159.083 169.996 146.202C169.996 142.084 171.38 140.726 175.473 140.717C190.547 140.717 205.618 140.717 220.687 140.717C266.47 140.717 312.25 140.717 358.027 140.717C362.816 140.717 364.081 141.965 364.081 146.729V265.049C367.18 265.049 370.024 265.049 372.818 265.049C373.778 264.981 374.734 265.22 375.549 265.731C376.364 266.242 376.996 267 377.352 267.894C381.317 276.656 382.956 285.792 381.597 295.362C381.207 298.053 380.477 300.694 379.899 303.487L385.367 304.472V117.282H8.30436V119.711C8.30436 208.361 8.30436 297.02 8.30436 385.688C8.30436 398.424 17.517 407.67 30.2193 407.67H204.707C205.361 407.67 206.023 407.586 207.178 407.518C196.641 399.417 192.743 388.761 192.913 376.365C193.083 363.968 197.625 353.558 207.959 346.188C207.713 345.865 207.653 345.695 207.543 345.67C201.82 344.031 197.354 340.822 194.807 335.294C194.667 335.072 194.478 334.885 194.254 334.748C194.03 334.611 193.777 334.527 193.516 334.505C188.498 334.471 183.505 334.53 178.173 334.53ZM8.30436 108.673H385.393C385.393 108.01 385.478 107.458 385.478 106.915C385.478 90.2899 385.529 73.6647 385.478 57.0396C385.478 44.8722 376.078 35.6171 363.894 35.6001C351.158 35.6001 338.421 35.6001 325.685 35.6001H323.316V38.4531C323.316 46.443 323.316 54.4414 323.316 62.4313C323.274 69.9712 317.839 75.4054 310.333 75.4988C307.362 75.4988 304.39 75.4988 301.418 75.4988C293.241 75.4988 287.884 70.124 287.833 61.9134C287.833 53.9263 287.833 45.9335 287.833 37.9351V35.753H214.633V38.1983C214.633 46.3326 214.675 54.4669 214.633 62.6011C214.657 64.3045 214.339 65.9953 213.698 67.5736C213.057 69.1519 212.106 70.5855 210.901 71.7897C209.696 72.9939 208.261 73.9441 206.683 74.5841C205.104 75.2241 203.413 75.5409 201.71 75.5157C198.67 75.5157 195.63 75.5157 192.582 75.5157C184.541 75.4733 179.158 70.0731 179.158 61.9728C179.158 53.8725 179.158 45.9845 179.158 37.9946V35.736H105.949V38.1304C105.949 46.1288 105.949 54.1187 105.949 62.1171C105.949 70.1155 100.515 75.4733 92.6443 75.5582C89.7517 75.5582 86.8507 75.5582 83.9411 75.5582C75.8748 75.4733 70.4746 70.1071 70.4746 62.0662C70.4746 54.0253 70.4746 46.0779 70.4746 38.0795V35.6511H30.3722C17.517 35.6511 8.29587 44.8467 8.29587 57.7274V108.673H8.30436ZM295.313 311.605C268.142 311.605 240.971 311.605 213.801 311.605C206.473 311.605 202.278 315.094 201.243 322.116C201.023 323.729 200.995 325.362 201.158 326.982C201.693 333.265 204.877 336.916 210.752 338.02C212.434 338.316 214.139 338.467 215.847 338.47C222.207 338.521 228.583 338.47 234.943 338.47H356.957C363.257 338.47 369.557 338.47 375.849 338.47C376.814 338.407 377.767 338.71 378.518 339.319C379.269 339.928 379.762 340.799 379.899 341.756C380.222 343.717 379.279 345.704 377.547 346.247C376.519 346.513 375.457 346.622 374.397 346.57C351.259 346.57 328.122 346.57 304.993 346.57C280.301 346.57 255.61 346.502 230.918 346.85C214.701 347.08 203.06 357.761 201.311 373.851C199.96 386.358 204.452 398.033 217.579 404.13C222.581 406.493 228.044 407.722 233.576 407.73C285.653 407.696 337.731 407.696 389.808 407.73C391.931 407.73 394.053 407.798 396.168 407.73C402.459 407.416 406.535 404.096 407.401 398.492C407.623 396.879 407.655 395.246 407.495 393.627C406.892 386.358 402.706 381.739 395.438 381.213C388.169 380.686 381.003 380.95 373.811 380.95C327.536 380.95 281.261 380.95 234.985 380.95C234.068 380.978 233.149 380.955 232.234 380.882C231.278 380.742 230.404 380.262 229.772 379.531C229.14 378.8 228.793 377.866 228.793 376.899C228.793 375.933 229.14 374.999 229.772 374.268C230.404 373.537 231.278 373.057 232.234 372.917C233.081 372.84 233.932 372.815 234.782 372.841C279.002 372.841 323.225 372.841 367.452 372.841C371.264 372.841 375.093 372.892 378.897 372.518C386.607 371.771 393.629 369.122 399.275 363.662C406.679 356.521 408.344 347.479 407.333 337.714C406.484 329.826 403.088 323.229 396.592 318.499C390.63 314.089 383.41 311.708 375.993 311.707C349.086 311.52 322.204 311.605 295.313 311.605ZM123.5 233.573V231.238C123.5 220.073 123.449 208.899 123.543 197.733C123.543 195.772 122.863 195.398 121.097 195.407C110 195.475 98.902 195.492 87.813 195.407C85.8006 195.407 85.3336 196.078 85.3421 197.954C85.4185 209.052 85.3421 220.141 85.3421 231.238C85.3421 231.994 85.4185 232.758 85.4695 233.582L123.5 233.573ZM85.5204 326.455C86.3695 326.506 86.8875 326.566 87.4394 326.566C98.6813 326.566 109.923 326.566 121.157 326.608C123.016 326.608 123.56 326.124 123.543 324.239C123.458 313.076 123.458 301.908 123.543 290.734C123.543 288.815 122.931 288.365 121.131 288.374C110.036 288.442 98.9388 288.442 87.8384 288.374C85.894 288.374 85.2912 288.934 85.3421 290.87C85.427 301.967 85.3421 313.065 85.3421 324.163C85.3931 324.859 85.4695 325.555 85.5204 326.455ZM123.5 335.082H85.5968V372.798C85.874 372.883 86.1582 372.942 86.4459 372.977C98.2482 372.977 110.051 372.977 121.853 373.028C123.619 373.028 123.551 372.051 123.551 370.854C123.551 361.174 123.551 351.492 123.551 341.807L123.5 335.082ZM224.881 187.009H262.598V149.14H224.881V187.009ZM76.7324 326.438V288.552H38.9989V326.438H76.7324ZM85.5374 242.047V279.781H123.356V242.047H85.5374ZM271.301 195.721V233.539H309.068V195.721H271.301ZM132.05 334.972V372.815H169.818V335.005L132.05 334.972ZM38.9904 279.781H76.7239V242.073H38.9734L38.9904 279.781ZM224.941 195.67V233.489H262.666V195.713L224.941 195.67ZM317.899 195.67V233.489H355.624V195.721L317.899 195.67ZM169.75 242.03H132.016V279.764H169.741L169.75 242.03ZM262.708 264.998V242.047H225.009C224.898 242.294 224.788 242.421 224.788 242.548C224.788 254.628 224.76 266.711 224.703 278.796C224.703 279.985 225.357 280.163 226.325 280.163C232.048 280.163 237.779 280.163 243.502 280.163C244.809 280.163 245.2 279.636 245.582 278.388C246.516 275.068 247.671 271.816 248.792 268.547C249.641 266 251.441 264.905 254.149 265.007C256.858 265.109 259.736 265.049 262.7 265.049L262.708 264.998ZM313.178 303.207C317.481 303.217 321.691 301.95 325.274 299.567C328.856 297.183 331.651 293.79 333.305 289.817C334.958 285.844 335.396 281.47 334.562 277.248C333.728 273.026 331.66 269.147 328.62 266.101C325.58 263.055 321.705 260.98 317.485 260.137C313.265 259.295 308.889 259.724 304.913 261.37C300.937 263.015 297.538 265.804 295.148 269.382C292.757 272.96 291.482 277.167 291.484 281.471C291.475 284.326 292.029 287.154 293.114 289.795C294.2 292.436 295.795 294.837 297.809 296.861C299.823 298.884 302.217 300.491 304.852 301.589C307.488 302.686 310.314 303.254 313.169 303.258L313.178 303.207ZM216.314 280.036V242.064H178.394C178.334 242.786 178.241 243.406 178.241 244.017C178.241 255.259 178.283 266.493 178.19 277.726C178.19 279.747 178.878 280.214 180.737 280.197C191.835 280.129 202.924 280.197 214.021 280.154C214.735 280.188 215.422 280.086 216.314 280.036ZM178.309 186.976C179.064 187.043 179.744 187.154 180.431 187.154C191.673 187.154 202.915 187.154 214.157 187.154C215.855 187.154 216.475 186.67 216.467 184.887C216.399 173.645 216.467 162.394 216.467 151.153C216.467 150.473 216.365 149.794 216.314 149.115H178.309V186.976ZM309.162 149.123H271.25C271.25 149.972 271.148 150.643 271.148 151.331C271.148 162.437 271.19 173.534 271.089 184.641C271.089 186.755 271.776 187.188 273.746 187.188C284.779 187.103 295.817 187.103 306.861 187.188C308.881 187.188 309.323 186.509 309.306 184.641C309.238 173.602 309.306 162.564 309.306 151.526C309.255 150.796 309.179 150.032 309.136 149.123H309.162ZM169.818 326.455C169.869 325.657 169.954 324.961 169.954 324.273C169.954 313.167 169.903 302.061 170.013 290.955C170.013 288.858 169.368 288.357 167.372 288.408C156.266 288.492 145.152 288.45 134.046 288.458C133.358 288.458 132.679 288.543 132.008 288.586V326.489L169.818 326.455ZM131.991 195.577V233.489H169.716V195.577H131.991ZM178.411 195.721V233.531H216.229V195.721H178.411ZM76.7748 195.594H38.9989V233.489H76.7748V195.594ZM317.916 149.098V187.009H355.649V149.098H317.916ZM38.9734 372.858H76.7663V335.073H38.9734V372.858ZM78.7787 37.8332C78.7787 46.0354 78.7787 54.2376 78.7787 62.4568C78.7787 65.522 80.4768 67.1862 83.4911 67.2202C86.5054 67.2541 89.7149 67.2202 92.8311 67.2202C95.9472 67.2202 97.6284 65.522 97.6284 62.5502C97.6284 46.0722 97.6284 29.5942 97.6284 13.1163C97.6284 10.1105 95.9302 8.48875 92.8141 8.46328C89.6979 8.43781 86.8705 8.46328 83.9072 8.46328C80.3155 8.46328 78.8126 10.0256 78.8126 13.6597C78.7787 21.7147 78.7673 29.7726 78.7787 37.8332ZM206.329 37.9266C206.329 29.648 206.329 21.3779 206.329 13.0993C206.329 10.1784 204.63 8.48026 201.71 8.48026C198.534 8.42932 195.35 8.43781 192.166 8.48026C189.143 8.48026 187.47 10.1784 187.47 13.2521C187.47 29.6678 187.47 46.0835 187.47 62.4992C187.47 65.556 189.169 67.2287 192.174 67.2626C195.18 67.2966 198.118 67.2626 201.09 67.2626C204.809 67.2626 206.32 65.7173 206.329 61.9473C206.329 53.9263 206.329 45.9194 206.329 37.9266ZM315.012 37.8247C315.012 29.6226 315.012 21.4204 315.012 13.2012C315.012 10.1784 313.314 8.48026 310.299 8.48026C307.115 8.48026 303.931 8.43781 300.747 8.48026C297.852 8.48026 296.162 10.1784 296.154 13.1418C296.154 29.6141 296.154 46.092 296.154 62.5756C296.154 65.4965 297.852 67.1947 300.747 67.2371C303.787 67.2371 306.835 67.2371 309.875 67.2371C313.458 67.2371 314.969 65.6578 315.012 62.0407C315.012 53.9574 315.012 45.8854 315.012 37.8247ZM192.743 326.039C192.905 319.535 193.915 313.413 198.908 308.735C203.9 304.056 209.946 303.224 216.458 303.131C216.458 298.698 216.382 294.538 216.501 290.394C216.552 288.696 215.915 288.255 214.293 288.263C202.975 288.314 191.656 288.331 180.33 288.263C178.47 288.263 178.113 288.942 178.122 290.615C178.181 301.789 178.122 312.972 178.122 324.154C178.122 324.766 178.215 325.377 178.275 326.073L192.743 326.039ZM284.156 273.65C283.893 273.515 283.774 273.387 283.647 273.387C274.68 273.387 265.705 273.328 256.739 273.387C256.426 273.445 256.132 273.576 255.879 273.769C255.627 273.962 255.424 274.213 255.287 274.499C252.111 283.406 251.381 292.33 254.871 301.39C255.011 301.995 255.372 302.525 255.882 302.878C256.392 303.232 257.015 303.382 257.631 303.301C268.439 303.233 279.248 303.301 290.057 303.258C290.652 303.258 291.254 303.182 292.256 303.114C284.249 294.521 281.575 284.748 284.165 273.676L284.156 273.65ZM334.201 303.114C334.881 303.216 335.05 303.275 335.305 303.275C346.615 303.275 357.933 303.275 369.269 303.318C370.661 303.318 371.077 302.596 371.485 301.543C375.025 292.526 374.338 283.568 371.247 274.601C370.797 273.311 369.948 273.353 368.937 273.353C362.009 273.353 355.078 273.353 348.143 273.353H342.2C344.866 284.723 342.183 294.512 334.201 303.114ZM355.675 242.073H317.848V251.684C318.125 251.801 318.408 251.9 318.697 251.982C326.358 253.455 333.165 257.802 337.725 264.132C338.292 264.701 339.061 265.022 339.865 265.024C343.966 265.1 348.075 265.024 352.176 265.024H355.666L355.675 242.073ZM309.102 242.073H271.258V264.998C276.353 264.998 281.286 264.956 286.219 264.998C286.803 265.052 287.391 264.944 287.917 264.685C288.443 264.425 288.887 264.025 289.2 263.529C292.406 259.08 296.828 255.651 301.936 253.654C304.22 252.754 306.631 252.194 309.094 251.447L309.102 242.073ZM246.117 303.156C245.506 298.529 244.86 294.147 244.376 289.749C244.215 288.323 243.468 288.255 242.381 288.255C237.006 288.255 231.64 288.255 226.248 288.255C225.771 288.289 225.297 288.36 224.83 288.467V303.131L246.117 303.156Z" fill="black"/>
<path d="M178.173 334.53C183.505 334.53 188.523 334.53 193.533 334.53C193.794 334.553 194.047 334.636 194.271 334.773C194.495 334.91 194.684 335.097 194.824 335.32C197.371 340.847 201.82 344.057 207.56 345.695C207.67 345.695 207.73 345.891 207.976 346.213C197.643 353.583 193.091 363.942 192.93 376.39C192.769 388.838 196.641 399.443 207.178 407.551C206.023 407.619 205.361 407.704 204.707 407.704H30.2194C17.4831 407.704 8.30444 398.458 8.30444 385.721C8.30444 297.06 8.30444 208.401 8.30444 119.745V117.291H385.299V304.472L379.831 303.487C380.434 300.694 381.164 298.053 381.53 295.361C382.914 285.792 381.275 276.682 377.284 267.893C376.928 267 376.297 266.242 375.482 265.731C374.666 265.219 373.71 264.981 372.75 265.049C369.931 265.049 367.112 265.049 364.013 265.049V146.72C364.013 141.957 362.748 140.709 357.959 140.709C312.176 140.709 266.396 140.709 220.619 140.709C205.55 140.709 190.479 140.709 175.405 140.709C171.312 140.709 169.937 142.076 169.928 146.194C169.928 159.074 169.869 171.947 169.928 184.827C169.928 186.763 169.385 187.324 167.432 187.324C139.48 187.256 111.534 187.239 83.5931 187.273H36.0441C31.7478 187.273 30.4996 188.529 30.4996 192.834V369.02C30.4996 371.423 30.4996 373.826 30.4996 376.237C30.4996 379.735 32.0364 381.221 35.5941 381.221H172.773C176.933 381.221 178.164 379.973 178.164 375.753C178.164 362.949 178.164 350.142 178.164 337.332L178.173 334.53Z" fill="white"/>
<path d="M8.30444 108.673V57.6425C8.31293 44.8043 17.517 35.6511 30.3722 35.6511H70.4747V38.122C70.4747 46.0977 70.4747 54.0792 70.4747 62.0662C70.4747 70.1071 75.8749 75.4733 83.9412 75.5583C86.8338 75.5583 89.7348 75.5583 92.6443 75.5583C100.515 75.5583 105.924 70.0731 105.95 62.1596C105.975 54.2461 105.95 46.1713 105.95 38.1729V35.736H179.158V38.0286C179.158 46.0213 179.158 54.0141 179.158 62.0068C179.158 70.0731 184.533 75.4733 192.557 75.5158C195.605 75.5158 198.644 75.5158 201.684 75.5158C203.388 75.541 205.079 75.2242 206.657 74.5841C208.236 73.9441 209.67 72.9939 210.875 71.7898C212.08 70.5856 213.031 69.1519 213.672 67.5737C214.313 65.9954 214.631 64.3045 214.607 62.6012C214.667 54.4669 214.607 46.3326 214.607 38.1984V35.753H287.841V37.9691C287.841 45.9619 287.841 53.9546 287.841 61.9474C287.841 70.1411 293.216 75.5328 301.427 75.5328C304.398 75.5328 307.37 75.5328 310.342 75.5328C317.848 75.4394 323.282 70.0052 323.325 62.4653C323.375 54.4754 323.325 46.477 323.325 38.4871V35.6511H325.693C338.43 35.6511 351.166 35.6511 363.902 35.6511C376.087 35.6511 385.452 44.9232 385.486 57.0906C385.546 73.7157 385.486 90.3409 385.486 106.966C385.486 107.509 385.435 108.061 385.401 108.724L8.30444 108.673Z" fill="white"/>
<path d="M295.313 311.605C322.204 311.605 349.086 311.554 375.976 311.605C383.393 311.606 390.613 313.987 396.575 318.397C403.079 323.127 406.493 329.724 407.316 337.612C408.327 347.377 406.662 356.42 399.258 363.56C393.578 369.028 386.522 371.669 378.88 372.416C375.085 372.79 371.238 372.739 367.435 372.739C323.214 372.739 278.991 372.739 234.765 372.739C233.915 372.713 233.064 372.739 232.217 372.815C231.261 372.955 230.387 373.435 229.755 374.166C229.123 374.897 228.776 375.831 228.776 376.798C228.776 377.764 229.123 378.698 229.755 379.429C230.387 380.16 231.261 380.64 232.217 380.78C233.132 380.854 234.051 380.876 234.968 380.848C281.244 380.848 327.519 380.848 373.794 380.848C381.003 380.848 388.229 380.619 395.421 381.111C402.612 381.603 406.875 386.256 407.478 393.525C407.638 395.144 407.606 396.777 407.384 398.39C406.535 403.994 402.442 407.314 396.151 407.628C394.037 407.73 391.905 407.628 389.791 407.628C337.714 407.628 285.636 407.628 233.559 407.628C228.042 407.658 222.586 406.472 217.579 404.155C204.452 398.059 199.96 386.384 201.311 373.877C203.06 357.787 214.701 347.105 230.918 346.876C255.61 346.528 280.301 346.63 304.993 346.596C328.122 346.553 351.259 346.596 374.397 346.596C375.457 346.648 376.519 346.539 377.547 346.273C379.245 345.73 380.222 343.726 379.899 341.781C379.762 340.824 379.269 339.954 378.518 339.345C377.767 338.735 376.814 338.432 375.849 338.495C369.557 338.444 363.257 338.495 356.957 338.495H234.909C228.541 338.495 222.173 338.495 215.813 338.495C214.105 338.492 212.4 338.342 210.718 338.045C204.843 336.975 201.659 333.324 201.124 327.007C200.961 325.388 200.989 323.755 201.209 322.142C202.245 315.12 206.439 311.63 213.767 311.63C240.937 311.63 268.108 311.63 295.279 311.63L295.313 311.605Z" fill="white"/>
<path d="M123.5 233.54H85.512C85.4611 232.691 85.3846 231.952 85.3846 231.196C85.3846 220.099 85.3846 209.01 85.3846 197.912C85.3846 196.036 85.8432 195.365 87.8555 195.365C98.9446 195.458 110.042 195.441 121.14 195.365C122.906 195.365 123.602 195.73 123.585 197.691C123.492 208.857 123.543 220.031 123.543 231.196L123.5 233.54Z" fill="white"/>
<path d="M85.5205 326.455C85.4696 325.555 85.3931 324.859 85.3846 324.163C85.3846 313.065 85.3846 301.968 85.3846 290.87C85.3846 288.934 85.9366 288.323 87.881 288.374C98.9757 288.459 110.073 288.459 121.174 288.374C122.974 288.374 123.602 288.815 123.585 290.734C123.489 301.908 123.489 313.077 123.585 324.239C123.585 326.124 123.059 326.625 121.199 326.608C109.966 326.532 98.7238 326.608 87.4819 326.566C86.8875 326.566 86.3271 326.506 85.5205 326.455Z" fill="white"/>
<path d="M123.5 335.082V341.807C123.5 351.486 123.5 361.169 123.5 370.854C123.5 372.051 123.585 373.036 121.802 373.028C110 372.96 98.1973 373.028 86.395 372.977C86.1072 372.942 85.8231 372.883 85.5459 372.798V335.082H123.5Z" fill="white"/>
<path d="M224.881 187.009V149.14H262.598V187.009H224.881Z" fill="white"/>
<path d="M76.7325 326.438H38.999V288.552H76.7325V326.438Z" fill="white"/>
<path d="M85.5374 242.047H123.356V279.781H85.5374V242.047Z" fill="white"/>
<path d="M271.301 195.721H309.068V233.54H271.284L271.301 195.721Z" fill="white"/>
<path d="M132.033 335.006H169.818V372.849H132.033V335.006Z" fill="white"/>
<path d="M38.9735 279.823V242.073H76.724V279.823H38.9735Z" fill="white"/>
<path d="M224.932 195.713H262.657V233.489H224.932V195.713Z" fill="white"/>
<path d="M317.89 195.721H355.615V233.489H317.89V195.721Z" fill="white"/>
<path d="M169.741 242.082V279.815H132.016V242.082H169.741Z" fill="white"/>
<path d="M262.7 265.049C259.736 265.049 256.917 265.134 254.115 265.049C251.313 264.964 249.624 266.068 248.758 268.59C247.637 271.859 246.482 275.111 245.548 278.431C245.2 279.679 244.775 280.214 243.468 280.205C237.745 280.154 232.014 280.205 226.291 280.205C225.323 280.205 224.66 280.027 224.669 278.838C224.709 266.753 224.737 254.67 224.754 242.591C224.754 242.463 224.864 242.336 224.975 242.09H262.7V265.049Z" fill="white"/>
<path d="M313.169 303.258C308.866 303.248 304.663 301.962 301.092 299.562C297.52 297.162 294.741 293.756 293.106 289.776C291.471 285.795 291.054 281.42 291.907 277.202C292.76 272.985 294.845 269.115 297.899 266.083C300.952 263.051 304.836 260.993 309.06 260.17C313.283 259.347 317.656 259.795 321.624 261.458C325.593 263.121 328.979 265.924 331.354 269.512C333.729 273.1 334.986 277.312 334.966 281.615C334.943 287.375 332.635 292.89 328.548 296.948C324.46 301.007 318.929 303.276 313.169 303.258ZM309.068 274.338C309.068 276.453 309.068 278.584 309.068 280.698C309.027 281.516 309.217 282.329 309.616 283.044C310.016 283.759 310.609 284.346 311.327 284.74C315.182 286.956 319.028 289.206 322.934 291.312C323.861 291.793 324.912 291.982 325.948 291.855C326.766 291.733 327.52 291.346 328.097 290.754C328.674 290.163 329.04 289.398 329.141 288.578C329.317 287.772 329.226 286.931 328.883 286.18C328.54 285.43 327.963 284.811 327.239 284.417C324.465 282.719 321.649 281.1 318.79 279.56C318.311 279.355 317.912 279 317.652 278.548C317.391 278.097 317.285 277.573 317.347 277.055C317.423 274.092 317.423 271.112 317.347 268.157C317.377 267.048 316.972 265.971 316.218 265.157C315.464 264.343 314.422 263.856 313.314 263.801C311.03 263.733 309.179 265.61 309.068 268.191C309.017 270.237 309.068 272.284 309.068 274.338Z" fill="white"/>
<path d="M216.314 280.036C215.465 280.087 214.735 280.155 214.038 280.155C202.941 280.155 191.852 280.155 180.754 280.197C178.878 280.197 178.207 279.747 178.207 277.726C178.3 266.493 178.207 255.259 178.258 244.017C178.258 243.406 178.351 242.786 178.411 242.064H216.331L216.314 280.036ZM194.959 262.799C192.981 260.634 191.351 258.673 189.525 256.923C188.755 256.211 187.738 255.824 186.689 255.845C185.639 255.866 184.639 256.293 183.897 257.035C183.156 257.778 182.731 258.779 182.711 259.828C182.692 260.878 183.08 261.894 183.794 262.663C186.624 265.629 189.522 268.519 192.489 271.333C192.828 271.705 193.24 272.003 193.699 272.209C194.159 272.415 194.655 272.524 195.159 272.529C195.662 272.535 196.161 272.437 196.625 272.241C197.089 272.045 197.508 271.756 197.855 271.392C202.864 266.527 207.849 261.619 212.654 256.55C213.161 256.025 213.51 255.368 213.661 254.654C213.812 253.94 213.76 253.198 213.511 252.512C213.261 251.827 212.824 251.225 212.25 250.775C211.675 250.326 210.986 250.046 210.26 249.969C208.75 249.988 207.301 250.573 206.201 251.608C202.491 255.055 199.001 258.741 194.959 262.799Z" fill="white"/>
<path d="M178.309 186.976V149.149H216.271C216.322 149.828 216.424 150.507 216.424 151.187C216.424 162.428 216.424 173.679 216.424 184.921C216.424 186.704 215.838 187.205 214.115 187.188C202.873 187.128 191.631 187.188 180.389 187.188C179.718 187.154 179.039 187.043 178.309 186.976ZM194.187 169.425C192.251 167.311 190.671 165.417 188.905 163.702C187.012 161.86 184.745 161.877 183.055 163.524C182.643 163.892 182.314 164.344 182.088 164.849C181.862 165.354 181.746 165.9 181.746 166.453C181.746 167.006 181.862 167.553 182.088 168.057C182.314 168.562 182.643 169.014 183.055 169.382C185.789 172.213 188.586 175.006 191.444 177.763C193.312 179.546 195.46 179.563 197.303 177.763C202.143 173.025 206.965 168.253 211.618 163.328C212.039 162.796 212.346 162.183 212.518 161.527C212.691 160.871 212.725 160.186 212.62 159.516C211.958 156.23 208.222 155.364 205.675 157.818C201.922 161.469 198.305 165.23 194.161 169.425H194.187Z" fill="white"/>
<path d="M309.136 149.123C309.179 150.032 309.255 150.821 309.255 151.56C309.255 162.598 309.255 173.636 309.255 184.674C309.255 186.542 308.831 187.222 306.81 187.222C295.777 187.125 284.739 187.125 273.695 187.222C271.725 187.222 271.021 186.772 271.038 184.674C271.14 173.568 271.089 162.471 271.097 151.365C271.097 150.677 271.157 149.989 271.199 149.157L309.136 149.123ZM286.703 169.501C284.716 167.319 283.112 165.349 281.295 163.6C280.939 163.201 280.504 162.88 280.017 162.658C279.531 162.435 279.004 162.316 278.469 162.308C277.934 162.3 277.403 162.403 276.911 162.611C276.418 162.819 275.973 163.127 275.606 163.515C275.194 163.883 274.865 164.334 274.639 164.838C274.413 165.342 274.297 165.888 274.297 166.44C274.297 166.992 274.413 167.538 274.639 168.043C274.865 168.547 275.194 168.997 275.606 169.365C278.328 172.23 281.122 175.026 283.986 177.754C285.871 179.554 288.002 179.597 289.845 177.797C294.693 173.059 299.508 168.278 304.178 163.362C304.592 162.861 304.902 162.282 305.09 161.66C305.279 161.037 305.341 160.383 305.273 159.737C304.738 156.383 300.832 155.33 298.276 157.818C294.506 161.46 290.898 165.23 286.703 169.493V169.501Z" fill="white"/>
<path d="M169.818 326.455H132.025V288.552C132.696 288.51 133.375 288.425 134.063 288.425C145.169 288.425 156.283 288.425 167.39 288.374C169.385 288.374 170.047 288.858 170.03 290.921C169.92 302.027 169.979 313.133 169.971 324.239C169.971 324.961 169.886 325.657 169.818 326.455ZM147.326 309.542C145.466 307.461 143.87 305.483 142.07 303.725C141.696 303.344 141.251 303.041 140.76 302.832C140.27 302.623 139.743 302.513 139.209 302.508C138.676 302.503 138.147 302.603 137.652 302.802C137.157 303.002 136.706 303.297 136.326 303.67C135.945 304.044 135.641 304.488 135.433 304.979C135.224 305.47 135.114 305.997 135.108 306.531C135.103 307.064 135.203 307.593 135.403 308.088C135.602 308.583 135.897 309.033 136.27 309.414C139.038 312.329 141.883 315.16 144.804 317.905C146.544 319.552 148.659 319.654 150.34 318.024C155.299 313.201 160.189 308.308 165.012 303.343C165.397 302.971 165.7 302.524 165.903 302.029C166.105 301.534 166.203 301.002 166.19 300.467C166.176 299.932 166.051 299.406 165.824 298.922C165.596 298.438 165.271 298.006 164.868 297.654C163.17 296.058 161.03 296.05 159.162 297.654C158.253 298.444 157.464 299.352 156.615 300.202L147.326 309.542Z" fill="white"/>
<path d="M131.991 195.577H169.716V233.489H131.991V195.577ZM147.351 216.193C145.381 214.002 143.751 211.947 141.883 210.156C141.527 209.781 141.098 209.482 140.623 209.278C140.148 209.075 139.636 208.969 139.119 208.969C138.602 208.969 138.09 209.075 137.615 209.278C137.14 209.482 136.711 209.781 136.355 210.156C135.951 210.506 135.623 210.936 135.393 211.419C135.163 211.902 135.036 212.428 135.021 212.963C135.005 213.498 135.1 214.03 135.3 214.526C135.501 215.022 135.802 215.471 136.185 215.845C139.05 218.867 141.999 221.808 145.033 224.667C145.368 225.019 145.771 225.3 146.217 225.492C146.664 225.683 147.145 225.782 147.631 225.782C148.117 225.782 148.598 225.683 149.045 225.492C149.492 225.3 149.895 225.019 150.229 224.667C155.324 219.75 160.334 214.8 165.182 209.672C165.662 209.146 165.989 208.499 166.126 207.8C166.264 207.101 166.206 206.378 165.959 205.71C165.713 205.042 165.288 204.454 164.73 204.012C164.172 203.57 163.503 203.289 162.796 203.202C161.288 203.187 159.831 203.745 158.72 204.764C155.01 208.296 151.52 211.998 147.351 216.193Z" fill="white"/>
<path d="M178.411 195.721H216.229V233.531H178.411V195.721ZM194.976 216.099C193.006 213.951 191.376 211.998 189.551 210.249C188.796 209.483 187.769 209.049 186.694 209.041C185.619 209.033 184.585 209.452 183.819 210.207C183.054 210.961 182.619 211.989 182.611 213.064C182.603 214.138 183.022 215.172 183.777 215.938C186.536 218.859 189.389 221.703 192.268 224.48C194.119 226.254 196.233 226.178 198.135 224.48C199.544 223.198 200.852 221.805 202.194 220.455C205.59 217.059 209.037 213.713 212.383 210.266C214.82 207.719 213.648 203.66 210.285 203.329C208.777 203.332 207.326 203.909 206.227 204.942C202.516 208.347 199.018 212.032 194.976 216.099Z" fill="white"/>
<path d="M76.7749 195.594V233.489H38.999V195.594H76.7749ZM54.9364 215.972C53.0769 213.985 51.5401 212.236 49.8419 210.606C47.7446 208.551 45.4436 208.483 43.6775 210.266C41.9114 212.049 42.0303 214.333 44.0851 216.448C46.5559 218.995 49.0607 221.457 51.574 223.937C54.0873 226.416 56.0912 226.356 58.528 223.937C62.0433 220.464 65.5245 216.957 69.0143 213.459C70.1605 212.313 71.3493 211.2 72.4106 209.978C72.7903 209.603 73.0899 209.156 73.2913 208.663C73.4926 208.169 73.5915 207.64 73.582 207.107C73.5725 206.574 73.4547 206.049 73.2358 205.563C73.0169 205.077 72.7015 204.64 72.3087 204.28C70.6615 202.667 68.4794 202.65 66.6029 204.28C65.9066 204.875 65.2783 205.554 64.633 206.199L54.9364 215.972Z" fill="white"/>
<path d="M317.907 149.098H355.641V187.01H317.907V149.098ZM334.201 169.476C332.282 167.362 330.678 165.392 328.869 163.634C328.492 163.255 328.044 162.954 327.551 162.748C327.058 162.542 326.529 162.435 325.994 162.434C325.46 162.432 324.93 162.536 324.435 162.739C323.941 162.942 323.491 163.24 323.112 163.617C322.733 163.994 322.432 164.442 322.226 164.935C322.02 165.429 321.913 165.958 321.911 166.492C321.91 167.027 322.014 167.556 322.217 168.051C322.42 168.545 322.718 168.995 323.095 169.374C325.829 172.204 328.623 175.001 331.476 177.763C333.361 179.563 335.509 179.623 337.343 177.831C342.191 173.102 347.006 168.33 351.667 163.397C352.092 162.866 352.404 162.254 352.584 161.598C352.764 160.943 352.807 160.257 352.711 159.584C352.066 156.188 348.296 155.339 345.647 157.954C341.962 161.537 338.379 165.231 334.201 169.442V169.476Z" fill="white"/>
<path d="M38.9735 372.858V335.073H76.7664V372.858H38.9735ZM54.9109 356.173C52.9835 354.093 51.3872 352.208 49.6211 350.493C47.855 348.778 45.469 348.676 43.7709 350.34C43.3603 350.709 43.0319 351.16 42.8071 351.664C42.5823 352.168 42.4661 352.713 42.4661 353.265C42.4661 353.817 42.5823 354.363 42.8071 354.867C43.0319 355.371 43.3603 355.822 43.7709 356.19C46.5049 359.021 49.3012 361.814 52.1598 364.571C54.0193 366.345 56.1336 366.269 58.0355 364.571C59.3431 363.382 60.5828 362.091 61.797 360.843C65.2867 357.354 68.8359 353.906 72.2493 350.332C74.6946 347.784 73.5314 343.734 70.169 343.386C68.6616 343.387 67.2108 343.961 66.1104 344.991C62.4253 348.438 58.9356 352.123 54.9109 356.173Z" fill="white"/>
<path d="M78.7787 37.8332C78.7787 29.7669 78.7787 21.7034 78.7787 13.6427C78.7787 10.0086 80.307 8.46327 83.8732 8.44629C86.845 8.44629 89.8168 8.44629 92.7801 8.44629C95.7434 8.44629 97.6454 10.0935 97.6454 13.0993C97.6454 29.5829 97.6454 46.0609 97.6454 62.5332C97.6454 65.5475 95.9472 67.1692 92.848 67.2032C89.7489 67.2371 86.6242 67.2032 83.5081 67.2032C80.3919 67.2032 78.8041 65.505 78.7956 62.4398C78.7617 54.2376 78.7787 46.0354 78.7787 37.8332Z" fill="white"/>
<path d="M206.329 37.9266C206.329 45.9193 206.329 53.9092 206.329 61.8963C206.329 65.6663 204.809 67.1946 201.09 67.2116C198.118 67.2116 195.146 67.2116 192.174 67.2116C189.203 67.2116 187.47 65.5134 187.47 62.4482C187.47 46.0325 187.47 29.6168 187.47 13.2011C187.47 10.1444 189.169 8.46323 192.166 8.42927C195.35 8.42927 198.534 8.38681 201.71 8.42927C204.631 8.48021 206.329 10.1784 206.329 13.0993C206.329 21.3779 206.329 29.648 206.329 37.9266Z" fill="white"/>
<path d="M315.012 37.8249C315.012 45.8912 315.012 53.9547 315.012 62.0154C315.012 65.6325 313.458 67.1948 309.875 67.2118C306.835 67.2118 303.787 67.2118 300.747 67.2118C297.86 67.2118 296.162 65.5136 296.154 62.5503C296.154 46.0667 296.154 29.5887 296.154 13.1164C296.154 10.1955 297.852 8.49736 300.747 8.4549C303.931 8.41245 307.115 8.4549 310.299 8.4549C313.314 8.48038 315.012 10.1786 315.012 13.2098C315.012 21.4205 315.012 29.6227 315.012 37.8249Z" fill="white"/>
<path d="M192.743 326.039H178.309C178.249 325.343 178.156 324.732 178.156 324.12C178.156 312.938 178.156 301.755 178.156 290.581C178.156 288.883 178.504 288.212 180.364 288.229C191.682 288.306 203 288.289 214.327 288.229C215.949 288.229 216.586 288.62 216.535 290.361C216.416 294.53 216.492 298.69 216.492 303.097C209.997 303.19 203.849 304.09 198.942 308.701C194.034 313.311 192.913 319.561 192.743 326.039Z" fill="white"/>
<path d="M284.165 273.676C281.575 284.714 284.249 294.521 292.265 303.131C291.263 303.199 290.66 303.275 290.066 303.275C279.257 303.275 268.448 303.275 257.639 303.318C257.024 303.399 256.4 303.249 255.89 302.895C255.38 302.542 255.02 302.012 254.88 301.407C251.39 292.373 252.12 283.423 255.296 274.517C255.433 274.23 255.635 273.979 255.888 273.786C256.14 273.593 256.435 273.462 256.748 273.404C265.714 273.353 274.689 273.404 283.655 273.404C283.782 273.396 283.901 273.54 284.165 273.676Z" fill="white"/>
<path d="M334.201 303.114C342.191 294.521 344.866 284.731 342.208 273.396H348.152C355.08 273.396 362.012 273.396 368.946 273.396C369.956 273.396 370.805 273.353 371.255 274.644C374.346 283.61 375.034 292.568 371.493 301.585C371.086 302.638 370.644 303.368 369.277 303.36C357.959 303.301 346.64 303.36 335.314 303.318C335.093 303.267 334.881 303.207 334.201 303.114Z" fill="white"/>
<path d="M355.675 242.064V265.049H352.185C348.084 265.049 343.974 265.092 339.873 265.049C339.07 265.047 338.3 264.727 337.733 264.158C333.174 257.828 326.366 253.481 318.705 252.007C318.417 251.925 318.133 251.826 317.856 251.71V242.064H355.675Z" fill="white"/>
<path d="M309.068 242.098V251.523C306.606 252.27 304.195 252.831 301.91 253.731C296.803 255.728 292.38 259.156 289.174 263.606C288.861 264.102 288.417 264.502 287.891 264.761C287.365 265.02 286.778 265.129 286.194 265.075C281.261 265.007 276.319 265.075 271.233 265.075V242.149L309.068 242.098Z" fill="white"/>
<path d="M246.117 303.182H224.847V288.518C225.314 288.411 225.788 288.34 226.265 288.306C231.64 288.306 237.006 288.306 242.398 288.306C243.485 288.306 244.232 288.374 244.393 289.8C244.86 294.173 245.506 298.554 246.117 303.182Z" fill="white"/>
<path d="M309.068 274.338C309.068 272.283 309.017 270.237 309.068 268.191C309.153 265.644 311.004 263.733 313.314 263.801C314.423 263.854 315.468 264.34 316.224 265.154C316.979 265.968 317.386 267.046 317.355 268.157C317.432 271.12 317.432 274.1 317.355 277.055C317.293 277.573 317.4 278.096 317.66 278.548C317.92 279 318.32 279.355 318.799 279.56C321.663 281.105 324.479 282.724 327.247 284.417C327.972 284.811 328.549 285.43 328.892 286.18C329.235 286.93 329.325 287.772 329.149 288.577C329.049 289.398 328.682 290.162 328.105 290.754C327.529 291.346 326.774 291.733 325.957 291.855C324.92 291.982 323.869 291.793 322.942 291.312C319.037 289.206 315.19 286.956 311.335 284.74C310.615 284.347 310.021 283.76 309.62 283.045C309.219 282.33 309.028 281.517 309.068 280.698C309.068 278.575 309.068 276.452 309.068 274.338Z" fill="black"/>
<path d="M194.959 262.799C199.001 258.74 202.491 255.055 206.201 251.608C207.301 250.573 208.75 249.988 210.26 249.969C210.986 250.046 211.675 250.325 212.25 250.775C212.824 251.225 213.261 251.826 213.511 252.512C213.76 253.198 213.812 253.94 213.661 254.654C213.51 255.367 213.161 256.024 212.654 256.55C207.849 261.644 202.864 266.526 197.855 271.392C197.508 271.756 197.089 272.045 196.625 272.241C196.161 272.437 195.662 272.535 195.159 272.529C194.655 272.523 194.159 272.414 193.699 272.208C193.24 272.003 192.828 271.704 192.489 271.332C189.517 268.502 186.619 265.612 183.794 262.663C183.08 261.894 182.692 260.878 182.711 259.828C182.731 258.779 183.156 257.778 183.897 257.035C184.639 256.292 185.639 255.866 186.689 255.845C187.738 255.824 188.755 256.211 189.525 256.923C191.351 258.672 192.981 260.659 194.959 262.799Z" fill="black"/>
<path d="M194.161 169.425C198.305 165.23 201.922 161.469 205.658 157.835C208.205 155.364 211.941 156.23 212.603 159.533C212.709 160.203 212.674 160.888 212.501 161.544C212.329 162.2 212.023 162.813 211.602 163.345C206.949 168.27 202.126 173.042 197.286 177.78C195.443 179.58 193.295 179.563 191.427 177.78C188.569 175.057 185.772 172.264 183.038 169.399C182.626 169.031 182.297 168.579 182.071 168.074C181.845 167.57 181.729 167.023 181.729 166.47C181.729 165.917 181.845 165.37 182.071 164.866C182.297 164.361 182.626 163.909 183.038 163.541C184.736 161.893 186.995 161.842 188.888 163.719C190.646 165.417 192.225 167.311 194.161 169.425Z" fill="black"/>
<path d="M286.703 169.493C290.898 165.247 294.506 161.46 298.242 157.818C300.79 155.33 304.704 156.383 305.239 159.737C305.306 160.383 305.244 161.037 305.056 161.66C304.868 162.282 304.558 162.861 304.143 163.362C299.474 168.27 294.659 173.05 289.811 177.797C287.968 179.597 285.837 179.554 283.952 177.754C281.122 175.02 278.328 172.224 275.572 169.365C275.16 168.997 274.83 168.547 274.605 168.043C274.379 167.538 274.263 166.992 274.263 166.44C274.263 165.888 274.379 165.342 274.605 164.838C274.83 164.334 275.16 163.883 275.572 163.515C275.939 163.127 276.384 162.819 276.877 162.611C277.369 162.403 277.9 162.3 278.435 162.308C278.97 162.316 279.497 162.435 279.983 162.658C280.47 162.88 280.905 163.201 281.261 163.6C283.112 165.341 284.716 167.311 286.703 169.493Z" fill="black"/>
<path d="M147.343 309.541L156.606 300.244C157.455 299.395 158.304 298.546 159.153 297.697C161.021 296.058 163.195 296.066 164.859 297.697C165.262 298.048 165.588 298.48 165.815 298.964C166.043 299.448 166.167 299.975 166.181 300.509C166.195 301.044 166.097 301.576 165.894 302.071C165.692 302.566 165.388 303.014 165.004 303.385C160.181 308.344 155.29 313.238 150.331 318.066C148.633 319.696 146.536 319.595 144.795 317.947C141.88 315.179 139.036 312.349 136.262 309.456C135.888 309.076 135.594 308.625 135.394 308.13C135.195 307.636 135.095 307.106 135.1 306.573C135.105 306.04 135.215 305.512 135.424 305.022C135.633 304.531 135.936 304.086 136.317 303.712C136.698 303.339 137.149 303.044 137.643 302.845C138.138 302.645 138.667 302.545 139.201 302.55C139.734 302.555 140.261 302.666 140.752 302.874C141.243 303.083 141.688 303.387 142.061 303.768C143.887 305.483 145.483 307.461 147.343 309.541Z" fill="black"/>
<path d="M147.351 216.193C151.52 211.998 154.993 208.296 158.72 204.849C159.831 203.83 161.288 203.272 162.796 203.287C163.503 203.374 164.172 203.655 164.73 204.097C165.288 204.539 165.713 205.127 165.959 205.795C166.206 206.463 166.264 207.186 166.126 207.885C165.989 208.584 165.662 209.231 165.182 209.757C160.334 214.851 155.298 219.835 150.229 224.752C149.895 225.104 149.492 225.385 149.045 225.577C148.598 225.768 148.117 225.867 147.631 225.867C147.145 225.867 146.664 225.768 146.217 225.577C145.771 225.385 145.368 225.104 145.033 224.752C142.005 221.921 139.055 218.981 136.185 215.93C135.802 215.556 135.501 215.107 135.3 214.611C135.1 214.115 135.005 213.583 135.021 213.048C135.036 212.513 135.163 211.987 135.393 211.504C135.623 211.021 135.951 210.591 136.355 210.241C136.711 209.866 137.14 209.567 137.615 209.363C138.09 209.159 138.602 209.054 139.119 209.054C139.636 209.054 140.148 209.159 140.623 209.363C141.098 209.567 141.527 209.866 141.883 210.241C143.751 211.947 145.381 214.002 147.351 216.193Z" fill="black"/>
<path d="M194.976 216.099C199.018 212.032 202.516 208.347 206.227 204.891C207.326 203.858 208.777 203.281 210.285 203.278C213.682 203.609 214.819 207.651 212.383 210.215C209.071 213.688 205.59 217.008 202.194 220.404C200.852 221.754 199.544 223.147 198.135 224.429C196.233 226.169 194.119 226.229 192.268 224.429C189.355 221.652 186.502 218.808 183.777 215.887C183.022 215.121 182.603 214.087 182.611 213.013C182.619 211.938 183.054 210.91 183.819 210.156C184.585 209.401 185.619 208.982 186.694 208.99C187.769 208.998 188.796 209.432 189.551 210.198C191.376 211.998 193.006 213.96 194.976 216.099Z" fill="black"/>
<path d="M54.9362 215.989L64.6838 206.216C65.3291 205.57 65.9574 204.891 66.6536 204.297C68.5301 202.684 70.7123 202.701 72.3595 204.297C72.7523 204.657 73.0677 205.093 73.2866 205.579C73.5055 206.065 73.6233 206.591 73.6328 207.124C73.6423 207.657 73.5434 208.186 73.342 208.679C73.1407 209.173 72.841 209.62 72.4614 209.994C71.3916 211.217 70.2028 212.329 69.0651 213.475C65.5753 216.974 62.094 220.48 58.5788 223.953C56.1419 226.356 54.0787 226.348 51.6248 223.953C49.1709 221.559 46.5982 218.986 44.1528 216.507C42.098 214.393 41.9792 212.117 43.7453 210.325C45.5114 208.534 47.8124 208.627 49.9096 210.665C51.5399 212.261 53.0767 214.002 54.9362 215.989Z" fill="black"/>
<path d="M334.201 169.442C338.379 165.197 341.962 161.537 345.647 157.937C348.296 155.39 352.066 156.179 352.711 159.567C352.807 160.24 352.764 160.926 352.584 161.581C352.404 162.237 352.092 162.849 351.667 163.379C347.005 168.296 342.191 173.068 337.343 177.814C335.509 179.606 333.361 179.512 331.476 177.746C328.645 175.012 325.852 172.216 323.095 169.357C322.718 168.978 322.42 168.528 322.217 168.034C322.014 167.539 321.91 167.01 321.911 166.475C321.913 165.941 322.02 165.412 322.226 164.918C322.432 164.425 322.733 163.977 323.112 163.6C323.491 163.223 323.941 162.925 324.435 162.722C324.93 162.519 325.46 162.415 325.994 162.416C326.529 162.418 327.058 162.525 327.551 162.731C328.044 162.937 328.492 163.238 328.869 163.617C330.678 165.358 332.282 167.328 334.201 169.442Z" fill="black"/>
<path d="M54.9108 356.173C58.9354 352.123 62.4252 348.438 66.1357 344.982C67.2361 343.952 68.6869 343.378 70.1943 343.377C73.5907 343.726 74.72 347.759 72.2746 350.323C68.8783 353.898 65.3121 357.345 61.8223 360.835C60.5742 362.083 59.3685 363.382 58.0609 364.562C56.1589 366.26 54.0447 366.345 52.1852 364.562C49.3266 361.839 46.5303 359.046 43.7962 356.182C43.3856 355.813 43.0572 355.362 42.8324 354.858C42.6076 354.354 42.4915 353.808 42.4915 353.257C42.4915 352.705 42.6076 352.159 42.8324 351.655C43.0572 351.151 43.3856 350.7 43.7962 350.331C45.4944 348.633 47.7614 348.633 49.6464 350.484C51.5314 352.335 52.9833 354.059 54.9108 356.173Z" fill="black"/>
</svg>
