<svg width="416" height="414" viewBox="0 0 416 414" fill="none" xmlns="http://www.w3.org/2000/svg">
<path d="M114.35 286.398C110.385 286.145 106.42 286.398 102.793 285.555C93.5134 283.361 85.2462 276.107 86.5116 262.694C86.6803 261.175 85.7524 261.006 84.8244 260.5C77.6539 257.295 73.2673 251.896 72.4237 243.966C71.6645 237.133 73.436 230.722 77.4009 225.069C77.8227 224.479 78.2444 223.973 78.9193 222.961C70.8209 219.924 62.8911 216.887 54.7083 213.85C54.0335 215.537 53.4429 217.055 52.8524 218.489C51.6714 221.442 49.7311 222.37 46.8629 221.189C32.2689 215.706 17.6748 210.138 3.08069 204.486C-0.0405875 203.305 -0.715459 201.28 0.718642 197.653C10.8417 171.08 21.0491 144.422 31.1722 117.849C37.8365 100.387 44.5009 82.8404 51.2496 65.3781C52.9368 60.9915 54.4552 60.3166 59.0106 62.0038C72.9298 67.3184 86.9334 72.7174 100.853 78.032C104.649 79.4661 105.408 81.2376 103.974 85.0337C103.046 87.4802 102.118 89.9266 101.19 92.2886C101.106 92.4573 101.106 92.7104 101.021 92.9635C101.19 93.1322 101.359 93.3853 101.612 93.4696C111.735 97.2658 121.605 101.737 132.234 103.93C143.201 106.123 154.336 107.473 165.387 104.099C173.401 101.652 181.247 98.8686 189.176 96.3378C195.335 94.3976 201.408 92.2886 207.651 90.6858C214.653 88.9143 221.655 89.6735 228.403 92.0355C241.31 96.5909 254.217 101.231 267.04 105.87C275.56 108.992 284.164 110.004 293.022 107.473C293.866 107.22 294.709 106.883 295.722 106.545C295.637 106.039 295.553 105.702 295.384 105.28C294.625 102.496 295.469 100.724 298.252 99.6278C303.145 97.6876 308.122 95.8317 313.015 93.9758C313.69 93.7227 314.281 93.4696 315.124 93.1322C314.027 90.264 312.931 87.4802 311.918 84.7807C310.569 81.2376 311.412 79.3817 314.955 78.032C329.128 72.633 343.3 67.234 357.388 61.8351C361.353 60.3166 363.04 61.0758 364.558 64.9563C381.515 109.245 398.471 153.533 415.342 197.822C416.777 201.618 415.933 203.389 412.137 204.823C397.965 210.222 383.792 215.621 369.704 221.02C366.077 222.37 364.221 221.526 362.871 217.899C362.365 216.634 361.859 215.284 361.268 213.85C357.135 215.453 353.17 217.055 349.121 218.405C346.674 219.249 345.24 220.598 344.059 222.876C340.179 230.468 336.804 233.927 327.778 240.254C333.936 244.556 338.154 249.955 338.238 257.801C338.238 262.947 336.804 267.586 333.936 271.889C329.212 279.059 318.33 285.47 306.182 280.662C305.676 288.339 302.723 294.834 296.65 299.558C290.491 304.367 283.574 305.801 275.897 303.608C275.644 305.379 275.391 306.982 275.054 308.585C272.354 320.142 261.894 327.987 250.083 327.144C246.287 326.891 242.913 325.288 239.96 322.926C237.345 320.817 234.73 318.792 231.946 316.514C231.609 318.202 231.44 319.636 231.103 320.901C228.572 330.687 220.22 338.279 210.182 339.544C205.205 340.219 200.734 338.701 196.769 335.664C192.213 332.205 187.658 328.578 183.187 325.035C182.09 324.107 181.331 324.022 180.15 325.035C168.255 335.917 147.081 327.397 145.31 312.55C145.225 312.043 144.972 311.537 144.804 310.862C136.452 314.321 128.775 312.803 121.858 307.657C114.434 302.258 113.085 294.497 114.35 286.398ZM158.47 285.302C159.229 285.049 160.073 284.711 160.832 284.458C169.689 281.421 179.644 284.542 185.043 292.135C190.189 299.474 190.273 307.319 187.067 315.418C186.646 316.43 186.139 317.274 187.405 318.286C192.298 321.998 197.022 325.794 201.915 329.506C203.939 331.109 206.217 331.699 208.832 331.615C213.556 331.362 217.015 328.662 219.883 325.372C224.27 320.311 225.535 310.778 218.196 305.548C210.435 299.98 203.18 293.738 195.756 287.748C193.563 285.977 193.141 283.53 194.66 281.674C196.178 279.734 198.709 279.565 200.987 281.252C202.421 282.349 203.855 283.53 205.289 284.711C218.449 295.256 231.609 305.801 244.684 316.43C247.215 318.455 249.999 319.636 253.205 319.298C259.953 318.623 265.859 313.224 267.293 306.56C268.305 301.583 267.208 297.618 262.99 294.328C248.312 282.687 233.802 270.792 219.208 258.982C216.846 257.041 216.424 254.595 218.027 252.57C219.63 250.63 222.076 250.63 224.354 252.486C226.632 254.342 228.994 256.198 231.271 258.054C245.781 269.864 260.375 281.759 274.885 293.653C277.669 295.931 280.79 297.196 284.418 296.606C290.829 295.593 296.228 290.363 297.662 283.952C298.843 278.722 297.409 274.504 293.191 271.045C283.405 263.2 273.788 255.27 264.087 247.425C256.832 241.519 249.577 235.614 242.322 229.794C240.804 228.613 239.792 227.01 240.551 225.238C241.141 223.973 242.491 222.623 243.757 222.37C244.938 222.117 246.625 222.876 247.721 223.72C255.989 230.215 264.087 236.795 272.27 243.291C283.911 252.655 295.637 262.019 307.279 271.467C309.388 273.154 311.581 274.335 314.281 274.419C321.451 274.588 328.2 269.274 329.803 262.019C331.068 256.62 329.718 252.233 325.247 248.774C321.451 245.822 317.824 242.785 314.112 239.748C289.901 220.261 265.69 200.858 241.479 181.372C227.897 170.405 214.4 159.185 200.902 148.05C199.806 147.122 198.878 146.953 197.528 147.375C190.357 149.568 183.103 151.593 175.932 153.871C175.004 154.124 174.076 155.052 173.57 155.895C171.208 159.523 169.436 163.572 166.737 166.946C157.795 178.419 145.9 182.384 131.728 179.347C126.92 178.335 124.051 175.129 123.376 170.236C122.87 166.777 123.63 163.572 125.064 160.451C132.234 145.097 139.32 129.744 146.491 114.475C146.491 114.475 146.069 114.391 145.647 114.391C137.38 113.716 129.197 112.366 121.352 109.751C119.665 109.16 119.158 109.751 118.652 111.185C105.83 144.844 92.9229 178.503 80.016 212.247C79.7629 212.922 79.5942 213.681 79.3411 214.44C82.4624 215.959 85.4149 217.393 88.2831 218.996C97.0565 223.635 104.227 229.878 108.951 238.82C109.289 239.41 110.301 239.917 111.06 240.001C121.689 241.182 129.282 248.606 130.547 259.235C130.884 261.85 130.631 264.465 130.631 267.165C143.116 263.368 156.108 270.623 158.47 285.302ZM298.843 114.391C298.337 114.475 297.999 114.559 297.662 114.644C286.611 118.609 275.729 117.765 264.931 113.8C252.192 109.245 239.454 104.605 226.716 100.05C219.714 97.5189 212.712 97.2658 205.626 99.5435C191.117 104.268 176.691 108.992 162.266 113.8C156.614 115.656 152.48 119.368 150.034 124.935C144.129 137.927 138.139 150.834 132.234 163.825C131.728 164.922 131.306 166.187 131.222 167.452C130.969 169.814 131.728 170.911 134.006 171.333C142.273 172.936 149.781 171.502 156.276 165.934C161.085 161.716 164.206 156.317 166.568 150.496C167.496 148.219 168.93 147.038 171.208 146.363C180.066 143.832 188.839 141.217 197.612 138.517C199.974 137.758 201.746 138.18 203.602 139.698C217.184 150.749 230.765 161.8 244.431 172.683C248.649 176.057 252.867 179.6 257.507 182.131C267.208 187.445 277.5 189.048 288.129 185.168C294.034 183.059 298.843 179.347 303.23 175.045C305.17 173.189 307.616 173.189 309.219 174.876C310.822 176.563 310.737 179.01 308.882 180.865C302.386 187.53 294.794 192.507 285.514 194.447C281.381 195.291 277.078 195.375 272.86 195.797C273.198 196.134 273.704 196.556 274.21 196.978C288.635 208.704 303.061 220.345 317.402 231.987C320.523 234.518 320.523 234.518 324.066 232.577C329.887 229.372 333.683 224.31 336.804 218.658C337.564 217.308 337.564 216.212 337.057 214.693C325.247 183.818 313.437 153.027 301.627 122.152C300.867 119.621 299.94 117.09 298.843 114.391ZM406.822 198.159C390.541 155.473 374.26 113.125 357.978 70.4397C345.409 75.2481 333.093 79.9722 320.692 84.6963C337.057 127.466 353.254 169.899 369.536 212.416C382.105 207.607 394.337 202.883 406.822 198.159ZM95.3693 84.6963C94.5257 84.3589 93.9352 84.1058 93.2603 83.8527C82.4624 79.7191 71.6645 75.5856 60.8665 71.452C58.0827 70.3553 58.0827 70.3553 57.0704 73.1391C41.7171 113.21 26.4481 153.28 11.0948 193.351C10.5043 194.869 9.99812 196.472 9.32325 198.159C21.8084 202.967 34.0404 207.607 46.5255 212.416C62.8068 169.73 79.0037 127.298 95.3693 84.6963ZM111.566 106.039C106.926 104.268 102.54 102.58 97.9001 100.809C84.487 135.987 71.0739 170.995 57.5765 206.089C62.2163 207.86 66.6029 209.547 71.2427 211.319C84.7401 176.226 98.0688 141.301 111.566 106.039ZM318.077 100.893C313.437 102.665 309.05 104.352 304.411 106.123C317.824 141.301 331.237 176.31 344.65 211.403C349.374 209.632 353.76 207.945 358.316 206.173C344.903 170.995 331.574 136.071 318.077 100.893ZM122.448 262.947C122.448 255.186 118.99 250.208 113.169 248.353C107.433 246.497 101.359 248.521 97.9844 254.005C96.3816 256.704 95.2849 259.825 94.6101 262.947C93.429 268.43 96.0442 273.407 100.853 276.107C106.505 279.228 112.157 278.975 116.29 275.094C120.255 271.551 122.28 266.996 122.448 262.947ZM122.195 290.954C121.942 296.775 124.811 300.992 130.463 303.27C136.283 305.632 141.429 304.62 145.225 300.233C148.009 296.943 149.865 293.063 150.203 288.592C150.624 282.687 147.419 277.288 142.104 275.094C136.452 272.732 130.716 274.166 126.751 278.89C123.714 282.434 122.364 286.483 122.195 290.954ZM153.071 307.488C153.071 314.49 155.77 318.286 160.832 320.479C165.809 322.673 170.786 322.757 174.92 318.792C179.559 314.321 181.837 308.838 180.656 302.258C178.969 292.725 167.58 288.17 159.904 294.159C155.18 297.787 153.324 302.933 153.071 307.488ZM100.937 241.182C97.7313 235.53 93.2603 231.481 88.1988 228.106C86.9334 227.263 86.1742 227.263 85.2462 228.444C81.2814 233.084 79.7629 238.483 80.7752 244.472C81.4501 248.69 85.3306 252.402 89.1267 252.992C91.5731 247.846 95.3693 243.882 100.937 241.182Z" fill="black"/>
<path d="M186.139 78.6225C186.139 76.5135 187.405 75.4169 189.261 74.6576C197.95 71.1989 207.06 69.6805 216.424 69.9335C225.957 70.1866 234.983 72.5487 243.335 77.1884C245.106 78.2007 246.119 79.5505 245.781 81.6594C245.444 83.5153 244.263 84.8651 242.407 84.9494C241.141 85.0338 239.792 84.5276 238.695 83.9371C230.259 79.5505 221.317 77.6946 211.869 78.1164C205.12 78.4538 198.54 79.8035 192.213 82.2499C188.839 83.5153 186.055 81.8281 186.139 78.6225Z" fill="black"/>
<path d="M211.279 387.882C211.279 394.546 211.279 401.211 211.279 407.959C211.279 408.887 211.363 410.153 210.772 410.743C209.76 411.756 208.41 413.021 207.145 413.021C205.88 413.021 204.614 411.671 203.517 410.743C203.096 410.406 203.096 409.394 203.096 408.719C203.096 394.799 203.096 380.88 203.096 366.961C203.096 365.105 203.771 363.418 205.542 362.912C206.807 362.574 208.663 362.659 209.591 363.418C210.604 364.262 211.279 366.033 211.279 367.467C211.363 374.216 211.279 381.049 211.279 387.882Z" fill="black"/>
<path d="M203.096 25.3077C203.096 18.7277 203.096 12.0633 203.096 5.48333C203.096 4.63974 203.096 3.79615 203.349 2.95256C203.939 1.01231 205.373 0 207.229 0C209.085 0 210.435 1.01231 211.025 2.8682C211.194 3.29 211.278 3.79615 211.278 4.3023C211.278 18.3902 211.278 32.3938 211.278 46.4817C211.278 48.9281 209.423 50.6997 207.229 50.784C204.951 50.784 203.096 48.9281 203.096 46.3974C203.011 39.3956 203.096 32.3094 203.096 25.3077Z" fill="black"/>
<path d="M63.9035 354.392C62.6381 353.464 61.1197 352.789 60.6135 351.692C60.1074 350.511 60.5292 348.908 60.6979 347.559C60.7822 347.137 61.3727 346.715 61.7945 346.293C71.4115 336.676 81.0284 326.975 90.7296 317.358C93.176 314.912 96.1286 314.996 97.6471 317.442C98.8281 319.298 98.4907 321.07 96.466 323.095C88.705 330.94 80.8596 338.701 73.0986 346.462C71.1584 348.402 69.3025 350.427 67.2779 352.283C66.3499 353.042 65.2533 353.548 63.9035 354.392Z" fill="black"/>
<path d="M350.471 354.392C349.036 353.548 347.855 353.126 347.096 352.283C337.226 342.497 327.356 332.627 317.571 322.757C315.63 320.817 315.546 318.455 317.233 316.768C318.92 314.996 321.367 314.996 323.391 317.021C333.261 326.806 343.047 336.676 352.917 346.546C354.351 347.98 355.026 349.752 353.929 351.523C353.17 352.62 351.736 353.379 350.471 354.392Z" fill="black"/>
<path d="M63.4816 266.743C63.4816 268.514 62.638 269.864 61.0352 270.539C52.5993 273.998 44.1634 277.456 35.7275 280.831C33.5342 281.674 31.3408 280.662 30.5816 278.637C29.738 276.444 30.5816 274.335 32.9437 273.323C39.1862 270.708 45.4288 268.177 51.587 265.646C53.6959 264.802 55.8049 263.79 57.9982 263.031C60.7821 262.103 63.3972 263.959 63.4816 266.743Z" fill="black"/>
<path d="M376.959 282.94C376.622 282.855 375.778 282.687 375.019 282.349C367.174 279.059 359.413 275.769 351.567 272.479C348.783 271.298 347.687 269.189 348.699 266.827C349.627 264.634 351.905 263.79 354.52 264.887C362.618 268.261 370.632 271.636 378.731 275.094C380.924 276.022 381.852 277.794 381.43 279.734C381.093 281.759 379.574 282.94 376.959 282.94Z" fill="black"/>
<path d="M148.431 353.801C148.347 354.054 148.262 354.56 148.094 354.982C144.551 363.418 141.092 371.769 137.464 380.121C136.705 381.977 135.187 382.736 133.246 382.483C131.306 382.314 130.21 381.049 129.788 379.277C129.619 378.518 129.703 377.59 130.041 376.831C133.5 368.564 136.958 360.297 140.501 352.029C141.429 349.836 143.285 348.992 145.478 349.583C147.166 350.089 148.431 351.861 148.431 353.801Z" fill="black"/>
<path d="M281.043 378.687C281.043 381.049 279.862 382.568 277.838 382.989C275.982 383.411 274.21 382.652 273.367 380.712C272.017 377.759 270.92 374.807 269.655 371.77C267.546 366.539 265.353 361.225 263.244 355.995C262.569 354.307 262.316 352.536 263.75 351.355C264.762 350.511 266.449 349.921 267.63 350.174C268.727 350.427 270.077 351.608 270.583 352.705C274.041 360.719 277.247 368.902 280.537 377C280.875 377.675 280.959 378.434 281.043 378.687Z" fill="black"/>
<path d="M278.175 31.55C281.296 31.6344 282.983 34.4183 281.634 37.6239C278.934 44.2039 276.15 50.6995 273.367 57.1951C273.029 58.0387 272.692 58.8823 272.354 59.7259C271.173 62.341 269.064 63.3533 266.787 62.341C264.509 61.3287 263.75 59.1354 264.846 56.5203C266.533 52.3023 268.389 48.0844 270.077 43.9508C271.426 40.7452 272.776 37.4552 274.21 34.2495C275.054 32.478 276.319 31.55 278.175 31.55Z" fill="black"/>
<path d="M138.224 32.1409C138.814 32.647 140.501 33.4906 141.007 34.756C144.297 42.4327 147.419 50.1093 150.456 57.8703C151.384 60.2324 150.287 62.4257 148.094 63.1849C145.985 63.9442 143.876 63.1006 142.948 60.8229C139.742 53.2306 136.621 45.5539 133.584 37.8773C132.487 35.0091 134.427 32.1409 138.224 32.1409Z" fill="black"/>
<path d="M158.47 285.302C156.108 270.623 143.117 263.453 130.463 266.743C130.463 264.128 130.716 261.428 130.378 258.813C129.113 248.184 121.521 240.845 110.891 239.579C110.132 239.495 109.12 238.989 108.782 238.398C104.058 229.456 96.8878 223.214 88.1145 218.574C85.2463 217.055 82.2094 215.621 79.1725 214.018C79.4256 213.259 79.5943 212.5 79.8474 211.825C92.7543 178.166 105.661 144.507 118.484 110.763C119.074 109.329 119.496 108.823 121.183 109.329C129.113 111.944 137.211 113.294 145.479 113.969C145.9 113.969 146.322 114.053 146.322 114.053C139.236 129.322 132.066 144.675 124.895 160.029C123.461 163.15 122.702 166.356 123.208 169.814C123.967 174.792 126.835 177.913 131.559 178.925C145.732 181.962 157.542 178.082 166.568 166.524C169.183 163.15 171.039 159.101 173.401 155.473C173.908 154.63 174.835 153.702 175.763 153.449C182.934 151.255 190.104 149.146 197.359 146.953C198.709 146.531 199.637 146.7 200.734 147.628C214.231 158.763 227.728 169.983 241.31 180.95C265.437 200.437 289.732 219.839 313.943 239.326C317.655 242.279 321.282 245.4 325.079 248.352C329.55 251.811 330.815 256.282 329.634 261.597C327.947 268.767 321.198 274.166 314.112 273.998C311.412 273.913 309.135 272.732 307.11 271.045C295.469 261.681 283.827 252.233 272.101 242.869C263.918 236.289 255.82 229.709 247.553 223.298C246.456 222.454 244.769 221.695 243.588 221.948C242.323 222.201 240.973 223.551 240.382 224.816C239.623 226.588 240.635 228.191 242.154 229.372C249.409 235.277 256.664 241.182 263.918 247.003C273.62 254.848 283.321 262.778 293.022 270.623C297.24 273.998 298.674 278.3 297.493 283.53C296.144 289.857 290.66 295.172 284.249 296.184C280.621 296.775 277.5 295.509 274.716 293.231C260.207 281.337 245.613 269.527 231.103 257.632C228.825 255.776 226.547 253.92 224.185 252.064C221.823 250.208 219.461 250.293 217.858 252.149C216.171 254.089 216.593 256.62 219.04 258.56C233.634 270.37 248.143 282.265 262.822 293.906C267.04 297.281 268.136 301.246 267.124 306.138C265.69 312.803 259.785 318.202 253.036 318.877C249.83 319.214 247.047 318.033 244.516 316.008C231.356 305.463 218.196 294.919 205.12 284.289C203.686 283.108 202.252 282.012 200.818 280.831C198.54 279.059 196.01 279.228 194.491 281.252C193.057 283.108 193.479 285.639 195.588 287.326C203.011 293.316 210.266 299.643 218.027 305.126C225.451 310.356 224.185 319.889 219.714 324.95C216.846 328.24 213.387 330.94 208.663 331.193C206.133 331.362 203.771 330.687 201.746 329.084C196.937 325.372 192.129 321.492 187.236 317.864C185.886 316.852 186.477 316.008 186.899 314.996C190.104 306.898 190.02 299.052 184.874 291.713C179.475 284.121 169.521 280.999 160.663 284.036C159.988 284.711 159.229 284.964 158.47 285.302Z" fill="white"/>
<path d="M298.843 114.391C299.855 117.09 300.868 119.621 301.88 122.236C313.69 153.111 325.5 183.987 337.311 214.778C337.901 216.212 337.817 217.393 337.058 218.743C333.936 224.395 330.14 229.456 324.319 232.662C320.776 234.602 320.776 234.602 317.655 232.071C303.23 220.43 288.804 208.704 274.463 197.062C273.957 196.641 273.451 196.135 273.113 195.881C277.331 195.46 281.634 195.375 285.767 194.532C295.047 192.676 302.555 187.614 309.135 180.95C310.991 179.094 311.075 176.648 309.472 174.96C307.869 173.273 305.339 173.273 303.483 175.129C299.096 179.431 294.203 183.059 288.382 185.252C277.669 189.133 267.377 187.53 257.76 182.215C253.036 179.6 248.902 176.057 244.685 172.767C231.018 161.8 217.437 150.834 203.855 139.783C201.999 138.264 200.227 137.843 197.865 138.602C189.092 141.301 180.319 143.916 171.461 146.447C169.183 147.122 167.749 148.303 166.821 150.581C164.459 156.486 161.338 161.8 156.53 166.018C150.034 171.67 142.526 173.02 134.259 171.417C131.897 170.996 131.137 169.899 131.475 167.537C131.644 166.271 131.981 165.09 132.487 163.909C138.392 150.918 144.382 138.011 150.287 125.02C152.818 119.537 156.867 115.825 162.519 113.885C176.944 109.076 191.37 104.268 205.879 99.628C212.881 97.3503 219.967 97.6034 226.969 100.134C239.707 104.774 252.446 109.329 265.184 113.885C275.982 117.765 286.948 118.609 297.915 114.728C297.999 114.559 298.337 114.475 298.843 114.391Z" fill="white"/>
<path d="M406.822 198.159C394.422 202.883 382.19 207.607 369.536 212.416C353.254 169.899 337.058 127.466 320.692 84.6963C333.093 79.9723 345.409 75.2482 357.979 70.4397C374.26 113.125 390.541 155.473 406.822 198.159ZM374.26 181.372C375.272 183.987 376.116 186.771 377.465 189.301C378.393 190.904 380.249 191.326 382.105 190.567C383.877 189.807 385.058 187.952 384.552 186.18C383.877 183.818 383.117 181.54 382.105 179.263C381.262 177.491 379.574 176.901 377.634 177.322C375.778 177.66 374.597 179.347 374.26 181.372Z" fill="white"/>
<path d="M95.3693 84.6964C79.088 127.298 62.8911 169.73 46.5255 212.416C34.0404 207.692 21.8084 202.968 9.32324 198.159C9.91375 196.472 10.5043 194.869 11.0948 193.351C26.4481 153.28 41.717 113.21 57.0704 73.1392C58.0827 70.4397 58.0827 70.4397 60.8665 71.452C71.6644 75.5856 82.4624 79.7192 93.2603 83.8528C93.8508 84.1059 94.5257 84.3589 95.3693 84.6964ZM31.0035 186.602C31.3409 188.711 32.5219 190.314 34.3778 190.735C36.3181 191.157 38.0053 190.482 38.8488 188.795C39.8612 186.602 40.7047 184.24 41.2953 181.878C41.8014 180.022 40.6204 178.25 38.8488 177.491C36.993 176.732 35.1371 177.069 34.2091 178.757C32.8594 181.203 32.0158 183.987 31.0035 186.602Z" fill="white"/>
<path d="M111.566 106.039C98.0688 141.301 84.7401 176.226 71.327 211.403C66.7716 209.632 62.3006 207.945 57.6609 206.173C71.1583 170.996 84.487 135.987 97.9844 100.893C102.54 102.665 106.926 104.268 111.566 106.039Z" fill="white"/>
<path d="M318.077 100.893C331.574 136.071 344.903 170.996 358.316 206.173C353.845 207.86 349.374 209.632 344.65 211.403C331.237 176.31 317.824 141.301 304.411 106.124C309.05 104.352 313.437 102.665 318.077 100.893Z" fill="white"/>
<path d="M122.448 262.947C122.195 266.996 120.255 271.551 116.375 275.179C112.241 278.975 106.589 279.312 100.937 276.191C96.1285 273.576 93.5134 268.599 94.6944 263.031C95.3693 259.91 96.3816 256.789 98.0688 254.089C101.443 248.606 107.433 246.581 113.253 248.437C119.074 250.209 122.533 255.186 122.448 262.947Z" fill="white"/>
<path d="M122.195 290.954C122.449 286.483 123.798 282.434 126.666 278.975C130.631 274.251 136.368 272.817 142.02 275.179C147.334 277.372 150.54 282.771 150.118 288.676C149.781 293.147 147.925 296.943 145.141 300.318C141.429 304.789 136.199 305.717 130.378 303.355C124.811 301.077 121.942 296.775 122.195 290.954Z" fill="white"/>
<path d="M153.071 307.488C153.324 303.017 155.264 297.871 159.988 294.159C167.665 288.17 179.053 292.725 180.74 302.258C181.922 308.838 179.644 314.321 175.004 318.792C170.87 322.757 165.893 322.673 160.916 320.479C155.686 318.286 152.986 314.49 153.071 307.488Z" fill="white"/>
<path d="M100.937 241.182C95.3693 243.882 91.5731 247.847 89.0424 252.992C85.2462 252.402 81.3657 248.69 80.6908 244.472C79.6785 238.483 81.197 233.084 85.1619 228.444C86.1742 227.263 86.9334 227.263 88.1144 228.107C93.2603 231.481 97.7313 235.53 100.937 241.182Z" fill="white"/>
<path d="M374.26 181.372C374.597 179.263 375.778 177.66 377.634 177.238C379.574 176.816 381.262 177.407 382.105 179.178C383.117 181.372 383.961 183.734 384.552 186.096C385.058 187.867 383.877 189.723 382.105 190.482C380.249 191.326 378.393 190.904 377.465 189.217C376.116 186.855 375.356 184.071 374.26 181.372Z" fill="black"/>
<path d="M31.0034 186.602C32.0157 183.987 32.8593 181.203 34.2091 178.672C35.137 176.985 36.9929 176.648 38.8488 177.407C40.6203 178.166 41.8014 179.938 41.2952 181.793C40.6203 184.155 39.8611 186.518 38.8488 188.711C38.0052 190.482 36.318 191.157 34.3778 190.651C32.4375 190.314 31.2565 188.711 31.0034 186.602Z" fill="black"/>
</svg>
