<svg width="415" height="416" viewBox="0 0 415 416" fill="none" xmlns="http://www.w3.org/2000/svg">
<path d="M94.3361 345.82L80.3893 364.212C70.1497 377.734 59.9696 391.299 49.6452 404.754C39.0324 418.599 19.6817 419.821 7.69455 407.528C3.13138 402.809 0.416234 396.606 0.0440543 390.052C-0.328125 383.497 1.66745 377.027 5.66701 371.821C14.9988 359.317 24.5088 346.906 33.9424 334.494C45.6326 319.06 57.3256 303.614 69.0214 288.158C71.6174 284.764 73.4074 284.467 76.8177 287.029C81.5006 290.533 86.1495 294.062 91.0699 297.752L104.559 279.937C104.083 279.759 103.631 279.525 103.21 279.241C80.771 260.043 67.0278 235.84 62.8709 206.632C57.6621 169.83 67.961 137.491 92.9109 109.92C93.4464 109.38 93.8669 108.737 94.1469 108.03C94.4269 107.323 94.5605 106.566 94.5397 105.806C94.4888 80.0782 94.4888 54.3451 94.5397 28.6063C94.4614 22.0786 96.649 15.7257 100.73 10.6301C104.811 5.53459 110.532 2.01171 116.919 0.66179C118.99 0.216971 121.104 -0.00486226 123.222 8.08135e-05C184.733 8.08135e-05 246.235 0.0142199 307.729 0.0424981C318.257 0.0424981 327.792 3.51223 335.224 10.9522C357.66 33.3881 379.926 56.0107 402.022 78.8199C408.07 84.853 412.303 92.463 414.239 100.784C414.703 102.85 414.945 104.96 414.96 107.078C414.994 191.268 414.994 275.464 414.96 359.665C414.96 372.746 407.138 383.859 395.507 387.253C393.138 387.954 390.682 388.316 388.211 388.33C300.911 388.392 213.608 388.392 126.302 388.33C116.274 388.33 107.35 385.259 100.928 377.005C96.6351 371.491 95.1166 365.001 94.9214 358.163C94.8027 354.099 94.9214 350.027 94.9214 345.955L94.3361 345.82ZM102.82 100.249C126.93 80.5929 154.068 71.1084 184.617 72.7033C215.166 74.2982 241.456 86.1411 262.741 108.207C302.011 148.927 306.855 210.144 274.567 256.735C258.864 279.377 237.528 294.656 211.018 302.13C175.141 312.251 141.75 306.041 110.828 285.333C108.58 288.293 106.391 291.152 104.219 294.02L97.6531 302.724C102.616 306.473 107.409 310.079 112.177 313.752C115.154 316.017 115.434 317.994 113.203 320.946C110.192 324.959 107.121 328.929 104.151 332.967C103.604 333.68 103.28 334.539 103.218 335.436C103.218 343.487 103.066 351.554 103.286 359.605C103.558 369.429 108.953 376.436 118.115 378.981C120.768 379.696 123.503 380.058 126.251 380.059C146.891 380.144 167.54 380.11 188.18 380.11C254.622 380.11 321.076 380.11 387.541 380.11C395.948 380.11 401.666 376.012 404.847 368.53C406.041 365.594 406.646 362.452 406.629 359.283C406.719 276.575 406.745 193.867 406.705 111.159V108.436H382.952C365.628 108.436 348.314 108.436 330.991 108.436C319.207 108.436 311.131 102.845 308.085 92.3934C307.164 89.2083 306.69 85.9106 306.677 82.595C306.567 58.7735 306.618 34.9519 306.618 11.1304V8.30538H123.282C111.405 8.30538 102.803 16.8906 102.803 28.7251C102.803 51.5625 102.803 74.3971 102.803 97.229L102.82 100.249ZM178.67 80.7371C118.607 80.7371 69.7341 129.534 69.7595 189.47C69.6179 203.848 72.3256 218.112 77.7264 231.439C83.1272 244.765 91.114 256.89 101.226 267.113C111.338 277.336 123.374 285.455 136.641 291.002C149.908 296.548 164.141 299.411 178.521 299.427C192.9 299.443 207.14 296.61 220.418 291.093C233.697 285.576 245.751 277.483 255.886 267.282C266.02 257.081 274.033 244.973 279.463 231.659C284.893 218.344 287.632 204.086 287.521 189.707C287.513 129.508 238.758 80.7032 178.653 80.7286L178.67 80.7371ZM315.042 9.19615C314.974 9.7815 314.906 10.0445 314.906 10.3329C314.906 35.0622 314.736 59.7999 314.999 84.5292C315.093 93.1399 319.716 100.198 330.863 100.147C354.965 100.028 379.058 100.147 403.151 100.147H405.586C405.093 98.8917 404.737 97.9076 404.338 96.966C401.781 91.442 398.272 86.411 393.972 82.103C373.142 60.9339 352.312 39.7875 331.483 18.6637C327.017 14.0044 321.313 10.7193 315.042 9.19615ZM73.9843 295.224C73.3565 296.073 72.8814 296.624 72.4148 297.235C61.0753 312.217 49.7329 327.204 38.3877 342.197C29.5564 353.862 20.6488 365.459 11.9532 377.217C9.4267 380.579 8.09832 384.69 8.17981 388.895C8.26129 393.1 9.74796 397.157 12.4029 400.419C20.5046 410.548 35.3082 410.116 43.4014 399.418C63.4733 372.972 83.5084 346.501 103.507 320.004C103.871 319.521 104.168 318.986 104.584 318.308L73.9843 295.224Z" fill="black"/>
<path d="M36.1311 148.333C36.6788 148.296 37.2279 148.377 37.7412 148.572C38.2545 148.766 38.7199 149.069 39.1056 149.459C39.4913 149.85 39.7882 150.319 39.9762 150.835C40.1641 151.35 40.2387 151.901 40.1947 152.448C39.8469 156.359 38.8204 158.929 35.6815 159.005C35.1382 159.026 34.5963 158.938 34.0874 158.746C33.5786 158.554 33.1131 158.263 32.7181 157.89C32.3231 157.516 32.0066 157.067 31.7871 156.57C31.5677 156.073 31.4496 155.536 31.4398 154.993C31.338 151.15 33.3146 148.367 36.1311 148.333Z" fill="black"/>
<path d="M54.9136 116.605C54.8542 119.566 52.0716 122.857 49.6538 122.832C49.1072 122.837 48.5653 122.731 48.061 122.52C47.5567 122.309 47.1006 121.998 46.7205 121.605C46.3404 121.212 46.0441 120.746 45.8498 120.235C45.6555 119.724 45.5672 119.179 45.5903 118.633C45.6412 115.655 48.3728 112.414 50.85 112.406C51.3959 112.403 51.9368 112.511 52.4399 112.723C52.9431 112.935 53.3982 113.246 53.7778 113.638C54.1575 114.031 54.4538 114.496 54.649 115.006C54.8442 115.515 54.9342 116.06 54.9136 116.605Z" fill="black"/>
<path d="M28.2414 173.062C28.5044 169.279 30.1926 167.277 32.8988 167.591C35.0876 167.845 37.3781 169.89 36.3855 174.081C35.7069 176.905 34.1374 178.585 31.8299 178.322C29.3103 177.974 28.0039 176.108 28.2414 173.062Z" fill="black"/>
<path d="M48.9751 250.143C48.5509 252.281 47.5668 253.604 45.8107 254.181C44.9829 254.524 44.0595 254.557 43.2091 254.275C42.3587 253.993 41.6381 253.415 41.1788 252.646C40.4261 251.456 39.8543 250.16 39.4821 248.803C39.2596 247.974 39.3296 247.093 39.6804 246.31C40.0312 245.526 40.6412 244.888 41.4078 244.501C43.1045 243.458 44.9878 243.577 46.201 245.078C47.4141 246.58 48.0758 248.438 48.9751 250.143Z" fill="black"/>
<path d="M78.5739 85.5049C78.5739 87.8633 75.1805 91.3924 72.8306 91.4433C72.283 91.4697 71.7358 91.3846 71.222 91.1931C70.7083 91.0016 70.2389 90.7077 69.8422 90.3293C69.4456 89.9509 69.1299 89.4958 68.9145 88.9917C68.699 88.4875 68.5882 87.9449 68.5889 87.3967C68.5889 84.9619 71.8296 81.5261 74.2728 81.4582C75.375 81.4417 76.4404 81.8548 77.2432 82.6101C78.0461 83.3655 78.5233 84.4037 78.5739 85.5049Z" fill="black"/>
<path d="M59.9612 106.332C59.3096 106.317 58.6712 106.146 58.0998 105.832C57.5285 105.519 57.0411 105.072 56.6791 104.53C56.317 103.988 56.0908 103.367 56.0198 102.72C55.9487 102.072 56.0349 101.416 56.2709 100.809C57.3822 97.9244 59.7237 95.812 61.9124 96.2871C63.3073 96.5966 64.5254 97.4401 65.3058 98.637C66.7989 101.521 63.2443 106.442 59.9612 106.332Z" fill="black"/>
<path d="M46.4895 134.7C45.855 136.305 45.0621 137.842 44.1226 139.29C42.9943 140.8 41.1619 140.774 39.4991 139.977C38.7362 139.671 38.1033 139.109 37.7087 138.388C37.3141 137.667 37.1823 136.831 37.3358 136.024C37.6715 134.377 38.3257 132.812 39.2616 131.417C40.2966 129.89 42.0102 129.551 43.7917 130.238C45.5733 130.925 46.2689 132.198 46.4895 134.7Z" fill="black"/>
<path d="M33.3825 217.126C30.4472 217.126 28.7845 214.742 28.8354 210.678C28.8363 210.127 28.9475 209.581 29.1625 209.074C29.3775 208.566 29.6919 208.107 30.0872 207.723C30.4825 207.338 30.9507 207.037 31.4641 206.837C31.9776 206.636 32.526 206.54 33.0771 206.555C35.8851 206.606 37.6157 209.194 37.497 213.147C37.4973 213.681 37.3901 214.21 37.1817 214.701C36.9733 215.193 36.668 215.638 36.2841 216.009C35.9001 216.381 35.4453 216.671 34.9468 216.863C34.4483 217.054 33.9163 217.144 33.3825 217.126Z" fill="black"/>
<path d="M41.73 231.234C41.7809 233.855 40.5593 235.603 38.7354 236.018C36.9114 236.434 35.113 236.018 34.2392 234.169C33.5824 232.778 33.1637 231.287 33.0006 229.757C32.9169 228.832 33.1806 227.908 33.7404 227.167C34.3003 226.425 35.1161 225.918 36.0292 225.745C36.8878 225.492 37.8081 225.552 38.6266 225.914C39.4451 226.276 40.1089 226.916 40.4999 227.721C41.0114 228.854 41.423 230.029 41.73 231.234Z" fill="black"/>
<path d="M52.4361 261.35C54.7861 261.35 57.8231 264.904 57.8147 267.577C57.7794 268.678 57.317 269.722 56.5253 270.489C55.7336 271.255 54.6748 271.683 53.5729 271.683C51.2824 271.598 48.2199 267.916 48.3047 265.354C48.3755 264.294 48.8371 263.297 49.6003 262.557C50.3635 261.818 51.374 261.387 52.4361 261.35Z" fill="black"/>
<path d="M27.3845 192.676C27.3336 189.334 28.2329 187.713 30.3876 187.179C31.2099 186.942 32.087 186.979 32.886 187.285C33.6851 187.592 34.3626 188.15 34.816 188.876C35.8849 190.411 35.7916 194.814 34.6548 196.171C34.127 196.896 33.3638 197.415 32.4957 197.639C31.6276 197.864 30.7085 197.78 29.8956 197.401C27.622 196.502 27.2403 194.517 27.3845 192.676Z" fill="black"/>
<path d="M102.803 100.249V97.229C102.803 74.3915 102.803 51.5569 102.803 28.7251C102.803 16.8907 111.405 8.30542 123.282 8.30542H306.609V11.0965C306.609 34.918 306.558 58.7396 306.669 82.5611C306.681 85.8767 307.155 89.1744 308.077 92.3595C311.148 102.811 319.224 108.368 330.982 108.402C348.305 108.402 365.62 108.402 382.943 108.402H406.697V111.133C406.697 193.841 406.671 276.549 406.621 359.257C406.638 362.427 406.032 365.568 404.839 368.504C401.649 375.987 395.931 380.059 387.524 380.059C321.071 380.059 254.617 380.059 188.163 380.059C167.523 380.059 146.874 380.059 126.234 380.008C123.487 380.007 120.751 379.645 118.098 378.931C108.936 376.386 103.541 369.378 103.269 359.554C103.049 351.504 103.159 343.436 103.201 335.385C103.263 334.488 103.588 333.63 104.135 332.916C107.104 328.878 110.175 324.908 113.186 320.895C115.418 317.909 115.138 315.966 112.16 313.701C107.392 310.07 102.599 306.465 97.6362 302.673L104.202 293.969C106.374 291.101 108.563 288.242 110.811 285.282C141.733 305.99 175.124 312.2 211.001 302.079C237.511 294.605 258.847 279.326 274.55 256.684C306.847 210.093 301.994 148.944 262.724 108.156C241.456 86.0987 215.149 74.2219 184.6 72.6524C154.051 71.083 126.93 80.5929 102.803 100.249ZM298.032 310.495H236.952C236.316 310.461 235.679 310.461 235.043 310.495C233.985 310.543 232.986 310.997 232.255 311.762C231.523 312.528 231.115 313.546 231.115 314.605C231.115 315.664 231.523 316.682 232.255 317.447C232.986 318.213 233.985 318.667 235.043 318.715C235.608 318.749 236.174 318.749 236.739 318.715H359.037C362.871 318.715 364.975 317.188 364.916 314.473C364.857 311.759 362.821 310.418 359.079 310.418L298.032 310.495ZM325.383 271.471C313.8 271.471 302.206 271.471 290.601 271.471C288.735 271.471 287.072 271.802 286.011 273.507C284.213 276.433 286.359 279.742 290.151 279.759C300.459 279.759 310.775 279.759 321.082 279.759C333.943 279.759 346.798 279.759 359.648 279.759C361.514 279.759 363.185 279.42 364.237 277.714C366.044 274.788 363.898 271.479 360.106 271.471C348.551 271.471 336.971 271.471 325.383 271.471ZM338.498 151.854C331.092 151.854 323.678 151.854 316.263 151.854C313.608 151.854 311.759 153.551 311.682 155.867C311.674 156.436 311.781 157.001 311.999 157.528C312.217 158.054 312.54 158.531 312.948 158.928C313.356 159.325 313.841 159.634 314.373 159.838C314.906 160.041 315.474 160.133 316.043 160.108C330.861 160.154 345.684 160.154 360.513 160.108C361.334 160.146 362.147 159.937 362.848 159.51C363.549 159.082 364.107 158.454 364.449 157.708C365.866 154.789 363.728 151.862 360.106 151.837C352.92 151.854 345.726 151.854 338.498 151.854ZM338.6 200.871C345.738 200.871 352.869 200.871 359.996 200.871C362.922 200.871 364.89 199.175 364.89 196.723C364.89 194.271 362.931 192.608 359.996 192.592C355.618 192.592 351.241 192.592 346.863 192.592C337.113 192.592 327.368 192.592 317.629 192.592C315.839 192.592 314.041 192.863 313.294 194.585C312.787 195.846 312.716 197.24 313.091 198.547C313.667 200.32 315.373 200.897 317.214 200.897L338.6 200.871ZM338.931 230.75C331.661 230.75 324.382 230.75 317.112 230.75C314.465 230.75 312.607 232.447 312.531 234.763C312.521 235.333 312.628 235.898 312.845 236.425C313.062 236.952 313.385 237.429 313.794 237.827C314.202 238.224 314.688 238.534 315.22 238.736C315.753 238.939 316.322 239.03 316.891 239.004C331.432 239.055 345.975 239.055 360.522 239.004C361.34 239.043 362.152 238.836 362.852 238.41C363.552 237.983 364.108 237.357 364.449 236.612C365.875 233.702 363.728 230.759 360.106 230.733C353.073 230.75 346.015 230.75 338.957 230.75H338.931ZM259.416 81.2546C262.809 81.2546 266.202 81.2546 269.596 81.2546C272.607 81.2546 274.364 79.6173 274.321 77.0129C274.279 74.4085 272.548 72.9578 269.638 72.9578C262.948 72.9578 256.234 72.9578 249.499 72.9578C246.597 72.9578 244.621 74.7478 244.688 77.1996C244.756 79.6513 246.657 81.2292 249.448 81.2631C252.816 81.2886 256.09 81.2631 259.416 81.2546Z" fill="white"/>
<path d="M178.653 80.7285C238.758 80.7285 287.513 129.508 287.504 189.698C287.615 204.077 284.876 218.336 279.446 231.65C274.016 244.965 266.003 257.072 255.869 267.273C245.734 277.474 233.68 285.567 220.402 291.084C207.123 296.602 192.883 299.434 178.504 299.419C164.124 299.403 149.891 296.539 136.624 290.993C123.358 285.447 111.321 277.328 101.209 267.105C91.0971 256.881 83.1102 244.757 77.7095 231.43C72.3087 218.104 69.601 203.84 69.7426 189.461C69.7171 129.525 118.59 80.754 178.653 80.7285ZM138.917 163.977C138.861 169.937 140.346 175.81 143.226 181.028C143.58 181.851 144.202 182.531 144.99 182.956C145.779 183.381 146.688 183.527 147.57 183.37C148.466 183.286 149.302 182.882 149.925 182.232C150.548 181.583 150.916 180.731 150.963 179.832C150.947 178.643 150.635 177.477 150.055 176.439C147.58 171.516 146.623 165.969 147.306 160.501C147.989 155.033 150.28 149.892 153.89 145.729C165.86 131.748 188.57 130.874 202.084 143.888C204.551 146.272 206.518 149.124 207.869 152.278C209.22 155.431 209.929 158.822 209.955 162.253C209.98 165.683 209.321 169.084 208.016 172.257C206.711 175.43 204.787 178.311 202.356 180.731C199.904 183.158 197.054 185.168 194.458 187.459C190.912 190.572 187.154 193.525 183.989 197.003C178.517 203.009 175.217 210.11 175.073 218.415C175.031 221.087 176.473 222.801 178.763 222.971C181.232 223.149 182.886 221.69 183.251 218.941C183.429 217.609 183.421 216.252 183.684 214.945C185.211 207.505 189.75 202.025 195.374 197.283C199.853 193.508 204.663 190.063 208.786 185.932C220.952 173.741 221.469 152.957 209.864 140.291C199.251 128.702 185.796 124.707 170.458 127.252C152.405 130.297 138.908 146.136 138.917 163.977ZM183.879 243.721C183.879 241.176 182.182 239.259 179.858 239.225C178.725 239.321 177.668 239.836 176.894 240.669C176.12 241.502 175.684 242.593 175.672 243.73C175.659 244.867 176.07 245.968 176.825 246.818C177.581 247.668 178.625 248.206 179.756 248.328C182.114 248.396 183.871 246.436 183.854 243.755L183.879 243.721Z" fill="white"/>
<path d="M315.042 9.19604C321.313 10.7192 327.017 14.0043 331.483 18.6636C352.301 39.81 373.131 60.9508 393.972 82.0859C398.272 86.394 401.781 91.425 404.338 96.9489C404.771 97.8906 405.094 98.8746 405.586 100.13H403.151C379.058 100.13 354.965 100.045 330.863 100.13C319.716 100.181 315.093 93.1229 314.999 84.5122C314.736 59.7829 314.906 35.0451 314.906 10.3159C314.906 10.0614 314.974 9.7814 315.042 9.19604Z" fill="white"/>
<path d="M73.9844 295.224L104.61 318.325C104.194 318.969 103.897 319.504 103.532 320.021C83.4944 346.473 63.4508 372.941 43.4016 399.426C35.2829 410.124 20.4962 410.557 12.403 400.427C9.74603 397.165 8.25812 393.106 8.17663 388.9C8.09514 384.693 9.42475 380.58 11.9534 377.217C20.6489 365.459 29.5566 353.862 38.3878 342.197C49.6991 327.215 61.0415 312.228 72.415 297.235C72.8816 296.641 73.3566 296.072 73.9844 295.224Z" fill="white"/>
<path d="M298.032 310.494H359.113C362.854 310.494 364.882 311.911 364.95 314.549C365.018 317.188 362.905 318.791 359.071 318.791H236.739C236.174 318.825 235.608 318.825 235.043 318.791C233.985 318.743 232.986 318.289 232.255 317.524C231.523 316.758 231.115 315.74 231.115 314.681C231.115 313.622 231.523 312.604 232.255 311.838C232.986 311.073 233.985 310.619 235.043 310.571C235.678 310.537 236.316 310.537 236.951 310.571L298.032 310.494Z" fill="black"/>
<path d="M325.383 271.47C336.971 271.47 348.551 271.47 360.165 271.47C363.957 271.47 366.104 274.787 364.297 277.714C363.245 279.411 361.573 279.759 359.707 279.759C346.852 279.759 333.996 279.759 321.141 279.759C310.834 279.759 300.518 279.759 290.211 279.759C286.418 279.759 284.272 276.433 286.071 273.506C287.131 271.81 288.794 271.462 290.66 271.47C302.232 271.47 313.806 271.47 325.383 271.47Z" fill="black"/>
<path d="M338.498 151.854C345.701 151.854 352.92 151.854 360.106 151.854C363.728 151.854 365.866 154.806 364.449 157.724C364.107 158.471 363.549 159.099 362.848 159.526C362.147 159.954 361.334 160.163 360.513 160.125C345.689 160.125 330.866 160.125 316.043 160.125C315.474 160.149 314.905 160.057 314.373 159.854C313.841 159.651 313.356 159.342 312.948 158.945C312.539 158.547 312.217 158.071 311.999 157.545C311.781 157.018 311.674 156.453 311.682 155.883C311.758 153.584 313.608 151.879 316.263 151.871C323.703 151.854 331.118 151.854 338.498 151.854Z" fill="black"/>
<path d="M338.625 200.871H317.239C315.398 200.871 313.693 200.294 313.116 198.521C312.741 197.215 312.813 195.821 313.319 194.559C314.066 192.863 315.864 192.557 317.654 192.566C327.405 192.566 337.149 192.566 346.888 192.566C351.266 192.566 355.643 192.566 360.021 192.566C362.956 192.566 364.907 194.263 364.916 196.697C364.924 199.132 362.948 200.829 360.021 200.846C352.889 200.88 345.757 200.888 338.625 200.871Z" fill="black"/>
<path d="M338.956 230.75C346.015 230.75 353.073 230.75 360.165 230.75C363.787 230.75 365.934 233.719 364.508 236.629C364.167 237.374 363.611 238 362.911 238.427C362.211 238.853 361.399 239.06 360.581 239.021C346.029 239.021 331.485 239.021 316.95 239.021C316.381 239.047 315.812 238.956 315.28 238.753C314.747 238.55 314.261 238.241 313.853 237.844C313.444 237.446 313.121 236.969 312.904 236.442C312.687 235.915 312.58 235.35 312.59 234.78C312.666 232.489 314.524 230.775 317.171 230.767C324.407 230.75 331.711 230.75 338.956 230.75Z" fill="black"/>
<path d="M259.416 81.2545C256.09 81.2545 252.773 81.2545 249.448 81.2545C246.656 81.2545 244.748 79.5578 244.688 77.1909C244.629 74.8241 246.597 72.9492 249.498 72.9492C256.212 72.9492 262.925 72.9492 269.638 72.9492C272.548 72.9492 274.279 74.5102 274.313 77.0043C274.346 79.4984 272.616 81.1951 269.587 81.246C266.194 81.28 262.8 81.2545 259.416 81.2545Z" fill="black"/>
<path d="M138.916 163.977C138.916 146.161 152.405 130.297 170.458 127.277C185.821 124.732 199.251 128.703 209.872 140.299C221.477 152.965 220.96 173.75 208.795 185.94C204.672 190.072 199.862 193.516 195.382 197.291C189.758 202.034 185.202 207.514 183.692 214.954C183.429 216.26 183.438 217.618 183.259 218.95C182.895 221.698 181.24 223.191 178.772 222.979C176.481 222.81 175.039 221.096 175.081 218.424C175.226 210.118 178.526 203.018 183.998 197.011C187.162 193.533 190.92 190.581 194.466 187.467C197.062 185.177 199.913 183.166 202.364 180.74C204.795 178.32 206.72 175.439 208.024 172.266C209.329 169.093 209.988 165.692 209.963 162.261C209.938 158.831 209.229 155.44 207.877 152.286C206.526 149.133 204.559 146.281 202.093 143.896C188.579 130.883 165.868 131.757 153.898 145.737C150.289 149.9 147.997 155.042 147.314 160.51C146.631 165.977 147.588 171.525 150.064 176.447C150.644 177.486 150.956 178.652 150.971 179.841C150.925 180.74 150.556 181.591 149.933 182.241C149.31 182.89 148.474 183.294 147.578 183.378C146.696 183.535 145.787 183.39 144.998 182.964C144.21 182.539 143.588 181.86 143.235 181.037C140.349 175.817 138.862 169.941 138.916 163.977Z" fill="black"/>
<path d="M183.854 243.755C183.854 246.436 182.114 248.396 179.731 248.362C178.568 248.276 177.482 247.75 176.694 246.891C175.906 246.031 175.477 244.903 175.493 243.738C175.509 242.572 175.97 241.456 176.782 240.619C177.593 239.782 178.693 239.286 179.858 239.233C182.157 239.293 183.845 241.176 183.854 243.755Z" fill="black"/>
</svg>
