<svg width="512" height="512" viewBox="0 0 512 512" fill="none" xmlns="http://www.w3.org/2000/svg">
<path d="M220.636 440.674C216.734 443.438 215.108 443.112 212.507 438.235C205.841 426.04 199.174 413.846 192.671 401.489C170.233 358.728 147.796 315.966 125.521 273.205C113.489 250.117 101.457 226.866 89.4252 203.778C72.028 170.772 54.3055 137.766 36.9082 104.597C26.665 85.7367 16.5843 66.8761 6.66624 48.0155C3.90218 42.65 5.04032 40.6989 11.0562 40.6989C27.9657 40.5363 44.8752 42.1622 61.7847 42.65C71.3776 42.9752 80.8079 43.4629 90.4008 44.1133C109.099 45.2514 127.797 45.0888 146.495 46.227C160.315 46.8773 174.135 47.3651 187.956 48.0155C203.239 48.6659 218.523 49.1536 233.806 49.804C246.163 50.2918 258.52 50.9421 270.715 51.4299C287.949 52.0803 305.184 52.7306 322.256 53.381C336.239 53.8688 350.222 54.3566 364.042 55.1695C372.659 55.8199 381.439 55.0069 390.057 56.6328C394.121 57.4458 395.585 58.9091 393.959 62.8113C391.032 70.4531 387.618 77.9323 384.529 85.4115C374.123 109.963 363.879 134.514 353.311 158.903C344.043 180.365 334.45 201.827 324.857 223.126C314.614 246.214 304.371 269.14 294.128 292.228C284.697 313.527 275.105 334.827 265.512 355.964C254.293 380.84 243.074 405.554 231.693 430.43C229.416 435.471 226.977 440.511 224.376 445.551C223.888 446.689 223.4 448.803 221.449 447.99C219.661 447.177 219.011 445.389 219.986 443.438C220.474 442.625 220.799 441.649 220.636 440.674C221.124 440.674 221.449 440.674 221.124 440.023C220.962 440.186 220.799 440.511 220.636 440.674Z" fill="#F4DE4D"/>
<path d="M20.3239 179.064C23.9009 178.739 26.5024 180.69 29.1038 182.478C33.006 184.917 35.9327 188.494 39.9975 191.096C42.2737 192.559 44.2248 193.372 46.5011 192.234C48.6148 191.258 50.7285 191.258 52.1918 192.722C53.6551 194.022 53.0048 195.973 52.517 197.599C49.5903 207.843 46.1759 217.923 42.2737 227.841C41.1356 230.768 39.9975 231.744 36.0953 230.443C30.5672 228.492 25.0391 226.053 18.8606 226.215C17.5598 226.215 16.4217 225.728 15.121 225.24C12.6821 224.264 11.7066 221.013 7.96696 222.151C5.52809 222.801 2.76404 216.623 3.73959 213.208C6.01586 204.916 9.43028 196.949 12.6821 188.982C13.1699 187.844 13.8202 186.868 13.8202 185.73C14.1454 179.714 14.7958 178.901 20.3239 179.064Z" fill="#D36480"/>
<path d="M141.617 131.75C141.13 127.198 142.268 121.832 140.804 116.304C139.829 112.402 141.942 109.963 146.007 109.8C151.373 109.638 156.738 108.987 161.941 109.963C165.843 110.776 169.908 111.589 173.485 113.052C178.038 114.841 179.176 119.718 179.664 124.271C179.664 124.759 179.664 125.084 179.664 125.572C179.338 131.425 179.664 137.116 181.94 142.481C182.753 144.595 182.753 146.871 181.94 148.985C180.964 151.749 179.989 155.001 175.924 151.586C174.623 150.448 172.835 151.261 171.209 151.586C166.656 152.887 162.104 153.863 157.714 155.163C156.413 155.488 154.95 155.814 153.812 155.326C151.861 154.35 151.048 155.001 150.235 156.789C148.771 159.878 146.332 159.716 144.381 156.789C141.78 152.724 142.105 147.847 141.617 143.294C141.292 140.042 141.617 136.303 141.617 131.75Z" fill="#D36480"/>
<path d="M386.317 177.763C388.105 185.893 384.366 193.697 384.528 201.989C384.691 208.168 385.991 213.859 387.78 219.712C388.593 222.313 390.056 224.752 390.056 227.679C390.056 230.931 388.43 231.581 385.341 230.768C378.512 228.98 377.212 224.427 377.537 218.086C377.862 214.672 378.675 210.769 375.911 207.518C375.748 207.355 375.748 206.867 375.748 206.705C377.699 199.063 374.61 191.258 376.561 183.617C378.187 177.601 376.561 171.422 374.935 165.732C373.147 159.228 371.521 152.562 368.106 146.546C367.456 145.408 367.619 143.944 368.919 142.969C370.87 141.505 372.822 141.343 375.098 142.481C380.138 145.082 382.414 149.472 383.715 154.513C385.829 162.155 387.13 169.796 386.317 177.763Z" fill="#D36480"/>
<path d="M135.439 238.247C127.959 244.589 127.797 252.555 128.61 260.685C129.098 265.563 131.211 269.953 134.626 273.53C136.089 275.156 137.39 277.757 135.764 279.546C134.138 281.334 131.699 280.359 129.748 279.22C123.57 275.156 120.968 268.652 120.643 261.986C120.318 254.994 121.131 247.515 125.683 241.499C128.122 238.735 130.724 236.296 135.439 238.247Z" fill="#D36480"/>
<path d="M198.361 249.141C194.297 249.303 185.354 242.149 183.728 237.109C181.127 228.98 183.891 221.988 188.443 215.484C189.094 214.509 190.232 213.046 191.695 214.184C192.996 215.159 191.695 216.135 191.207 217.273C189.094 221.988 187.143 226.703 188.118 232.069C189.094 236.947 193.321 238.41 196.898 240.524C198.687 241.499 200.475 242.312 201.288 244.588C202.589 247.515 201.776 248.978 198.361 249.141Z" fill="#D36480"/>
<path d="M382.74 274.993C382.415 281.009 379.326 285.074 375.423 288.651C374.773 289.301 373.798 288.976 372.985 288.488C371.684 287.513 370.383 286.212 370.871 284.586C371.847 281.497 372.822 278.407 373.31 274.993C373.798 271.253 378.025 272.879 380.626 272.392C382.578 271.904 382.252 274.343 382.74 274.993Z" fill="#D36480"/>
<path d="M147.308 281.822C149.096 282.147 152.348 281.171 152.023 283.61C151.697 285.887 149.746 288.813 147.145 289.138C144.381 289.301 142.918 286.537 142.755 284.098C142.592 280.521 145.682 282.472 147.308 281.822Z" fill="#D36480"/>
<path d="M210.556 250.767C212.182 250.93 213.97 250.442 213.482 252.718C212.832 255.645 210.718 257.271 207.954 257.758C206.003 258.246 205.19 256.458 205.515 254.994C206.166 252.393 208.117 250.767 210.556 250.767Z" fill="#D36480"/>
<path d="M115.115 232.232C116.903 232.069 117.554 230.118 117.879 229.305C120.155 221.826 126.334 221.175 132.187 221.826C136.739 222.313 140.316 220.2 144.219 219.224C150.722 217.761 157.226 215.972 163.404 213.371C168.282 211.257 173.485 211.582 178.525 210.282C178.688 210.607 178.851 210.77 179.013 211.095C174.623 222.476 173.81 233.857 177.875 245.564C179.176 249.466 182.102 251.743 184.704 254.507C190.72 261.01 198.524 264.912 206.816 267.514C206.979 267.514 207.141 267.189 207.304 266.864L207.141 266.701C207.141 268.652 206.491 270.115 204.377 270.278C199.5 270.603 195.435 273.205 190.72 274.018C184.866 274.831 179.013 275.969 172.997 276.456C170.721 276.619 169.745 277.269 168.932 279.22C164.38 290.277 155.6 296.78 144.219 299.057C140.316 299.87 136.089 300.357 132.024 299.544C130.561 299.219 128.772 298.569 127.472 300.52C126.334 302.308 124.22 302.471 121.456 301.821C132.024 313.202 134.626 326.372 133.488 340.355C132.837 348.159 131.699 356.126 130.236 363.931C129.098 369.459 128.772 375.149 128.285 380.84C125.521 409.456 125.683 438.072 125.358 466.688C125.358 471.566 125.521 476.932 123.244 481.647C121.131 479.045 121.293 475.631 121.293 472.704C121.293 462.136 119.992 451.405 120.318 440.836C120.805 426.366 120.968 411.895 122.106 397.587C123.244 384.417 124.87 371.41 126.984 358.402C128.447 349.785 130.236 341.005 129.911 332.063C129.26 317.592 123.244 305.885 111.375 297.593C104.709 292.878 99.6686 286.537 96.2541 279.383C93.6527 273.692 95.116 267.189 95.6038 261.173C95.929 258.084 96.0915 254.994 96.0915 252.068C96.0915 250.767 97.2297 248.166 95.116 248.166C93.3275 248.166 90.5634 249.304 90.0757 251.58C88.4498 260.848 85.6857 269.953 88.1246 279.546C88.4498 280.846 88.1246 282.472 88.1246 284.261C84.385 283.285 83.2468 280.521 82.9216 277.432C82.4339 271.579 83.0842 265.725 84.0598 260.035C84.8727 256.132 85.6857 252.068 85.5231 248.003C85.3605 245.564 84.2224 245.727 82.7591 246.702C80.6454 248.166 79.182 249.954 79.0195 252.718C78.5317 260.197 76.2554 267.514 78.3691 275.156C79.5072 278.895 83.2468 281.172 83.4094 285.399C77.7187 284.749 73.1662 278.57 73.0036 270.928C72.841 264.262 73.6539 257.758 74.6295 251.255C74.7921 249.629 74.6295 247.84 74.6295 246.052C68.451 249.791 66.0121 256.132 67.1503 262.799C68.6136 271.416 73.0036 278.895 75.2799 287.187C75.605 288.488 75.7676 289.789 75.4425 291.74C65.687 282.147 64.2236 269.628 61.1344 257.596C57.8826 263.287 56.4193 269.465 55.4437 275.643C54.9559 278.733 57.2322 281.822 58.6955 284.749C65.3618 297.593 74.6295 308.649 81.4583 321.332C85.1979 328.16 85.5231 334.664 84.0598 341.656C81.6209 353.85 79.5072 366.044 77.231 378.076C72.5158 402.14 74.1417 426.203 73.8165 450.429C73.8165 451.73 74.7921 454.006 73.0036 454.169C71.0525 454.331 70.5647 451.893 70.4021 450.267C68.2884 433.845 67.8007 417.423 68.7762 401.001C69.7518 384.905 72.6784 368.808 76.2554 353.037C77.7187 346.533 79.5072 340.03 79.8324 333.526C80.1576 328.16 78.5317 322.795 74.9547 318.405C66.4999 307.999 57.5574 297.918 52.3545 285.236C51.3789 282.96 50.0782 280.846 51.5415 278.408C51.8667 278.082 52.0293 277.595 52.3545 277.269C51.7041 276.944 51.0537 277.107 50.7286 277.92C48.2897 273.205 51.3789 269.14 52.1919 264.75C52.6797 261.661 54.143 258.897 55.2811 255.97C57.2322 250.93 58.6955 249.954 64.2236 251.092C65.8496 251.417 65.687 250.604 66.1747 249.791C67.1503 248.003 68.1258 246.214 69.4266 244.751C74.1417 238.898 76.5806 239.06 79.5072 246.052C81.1331 243.776 83.0842 241.987 82.7591 238.735C82.5965 237.272 84.0598 236.459 85.8483 236.296C94.6282 235.158 103.083 231.744 111.863 230.443C114.302 230.443 114.79 230.768 115.115 232.232L114.952 232.069C106.985 236.947 98.3678 240.361 88.9375 241.337C88.4498 241.337 87.149 242.15 87.962 242.637C89.5879 243.613 89.5879 248.166 93.4901 244.914C96.7419 242.15 98.8556 243.613 100.319 247.678C100.807 249.466 100.807 251.092 100.807 252.881C100.969 258.571 100.319 264.262 99.0182 269.79C97.3923 277.757 101.945 283.285 106.335 288.813C111.213 294.829 116.415 300.845 125.521 297.106C125.683 297.106 125.846 296.78 126.659 296.13C125.846 295.642 125.033 295.317 124.382 294.667C115.44 285.236 110.887 273.855 110.4 260.848C110.237 250.767 111.375 241.337 115.115 232.232ZM165.681 270.441C165.681 269.302 165.681 268.002 165.681 266.864C165.681 266.376 165.193 265.725 165.193 265.238C162.917 252.718 155.6 243.125 146.332 234.67C141.78 230.606 136.577 228.167 130.073 228.655C121.293 229.305 117.228 231.906 115.44 239.873C114.302 244.751 113.651 249.791 113.489 254.832C113.001 266.701 117.228 277.432 124.22 286.374C128.447 291.903 132.512 299.382 142.593 296.13C158.364 291.09 165.03 286.049 165.681 270.441ZM147.796 222.964C160.315 225.403 163.892 234.996 167.957 244.589C172.184 254.344 172.672 264.262 171.046 274.993C178.2 271.579 185.679 270.603 193.159 268.164C171.534 254.994 169.258 236.134 176.087 214.347C166.981 218.574 157.551 220.2 147.796 222.964ZM142.105 223.939C156.738 236.459 166.819 250.604 168.932 269.302C169.583 256.132 165.518 244.263 159.014 233.045C155.437 226.703 149.259 225.565 142.105 223.939Z" fill="#1A1A1A"/>
<path d="M182.427 149.147C179.338 144.595 179.501 139.88 179.013 135.49C178.525 130.124 177.224 124.759 178.037 119.23C178.363 116.792 177.224 116.141 175.273 115.328C171.209 113.702 166.656 112.889 163.242 109.638C162.754 109.312 162.429 109.15 161.778 109.312C155.437 110.938 148.771 110.776 142.267 111.589C139.341 111.914 140.641 114.19 140.804 115.328C141.78 121.994 143.08 128.661 144.544 135.327C145.682 140.205 146.495 145.082 146.007 150.123C145.682 153.212 146.332 154.838 149.909 154.35C151.535 154.188 154.299 153.212 154.624 155.976C154.787 156.952 152.348 158.252 150.722 158.74C144.218 161.016 139.178 156.301 140.804 148.985C142.267 142.644 140.316 136.628 139.991 130.449C139.666 125.084 138.853 119.556 139.178 114.19C139.341 111.914 138.365 111.589 135.926 110.45C142.918 109.312 148.771 108.174 154.624 107.361C157.551 106.873 159.827 106.711 159.339 102.484C158.852 98.4187 162.429 97.7684 165.193 97.6058C170.558 97.4432 176.086 97.7684 181.452 98.5813C183.566 98.9065 185.354 100.532 186.817 97.6058C187.143 97.118 188.606 96.1425 190.72 96.9554C185.842 91.4273 180.964 87.3625 175.924 83.1351C174.948 85.8992 174.948 85.8992 181.94 96.7928C179.013 97.4432 179.013 97.4432 176.249 94.8417C173.485 92.4029 171.696 89.3136 170.233 86.0618C168.932 83.1351 169.908 80.8589 171.859 79.0704C173.81 77.2819 176.086 77.7696 178.363 79.0704C184.541 82.4848 188.931 87.8503 193.646 92.8906C194.947 94.3539 196.085 95.3295 198.524 95.6547C197.061 91.1021 194.622 87.0373 193.321 82.6474C192.508 79.8833 193.321 78.2574 194.947 76.3063C197.061 74.03 198.361 76.4689 199.825 77.1193C207.792 81.184 211.206 89.151 215.108 96.4676C222.913 111.101 228.441 126.71 234.457 141.993C235.595 144.92 236.895 146.708 240.473 146.221C243.724 145.895 246.651 147.684 249.415 148.985C261.772 154.675 274.454 160.041 285.673 169.309C280.958 168.821 277.706 166.707 274.292 164.919C263.235 159.228 252.504 152.887 240.473 149.31C239.497 148.985 238.521 148.659 237.546 148.822C233.644 149.635 232.018 147.359 230.717 144.27C223.726 127.035 217.385 109.475 208.605 92.8906C205.841 87.8503 203.076 82.6474 196.898 79.7207C198.524 87.5251 200.15 94.8417 203.727 101.345C207.304 107.686 212.507 113.052 215.596 120.694C212.019 120.043 211.694 117.605 210.556 115.979C208.442 112.727 206.654 109.312 204.54 106.061C199.662 98.4187 197.874 97.7684 188.768 100.045C182.265 101.671 175.599 101.345 169.095 100.532C166.656 100.207 163.892 99.882 162.916 101.996C161.616 104.76 163.892 106.873 166.331 108.174C172.184 111.426 178.525 113.377 185.029 114.19C191.37 115.166 195.922 118.092 198.849 123.458C201.613 128.823 204.052 134.351 206.328 139.88C208.93 146.546 205.841 151.098 199.012 152.399C191.37 153.862 183.728 154.35 175.924 154.025C173.647 154.025 171.534 154.188 170.883 156.626C170.233 159.228 172.835 159.553 174.298 160.203C177.712 161.667 181.452 161.504 185.029 161.829C196.085 162.967 206.979 161.504 217.71 159.39C224.539 158.09 228.116 162.48 231.53 166.707C239.172 176.463 247.627 185.73 255.593 195.161C264.211 205.241 272.503 215.484 280.958 225.728C282.421 227.516 284.86 228.654 285.348 232.394C278.681 227.354 274.617 221.175 269.414 215.972C263.398 209.794 258.195 202.802 252.342 196.461C243.237 186.706 233.644 177.113 224.376 167.52C222.913 165.894 221.287 165.406 219.336 165.732C212.507 166.545 205.678 167.357 198.849 168.333C195.597 168.821 192.345 167.845 189.256 167.357C183.24 166.382 176.737 167.032 171.209 163.293C168.282 161.342 165.193 159.553 166.331 155.488C167.469 151.749 170.396 150.448 174.46 150.448C182.265 150.611 190.069 150.773 197.711 149.635C203.889 148.822 206.979 145.895 203.889 139.392C201.288 133.701 198.199 128.336 195.272 122.97C193.484 119.881 186.33 116.954 183.24 117.605C181.127 118.092 182.102 119.718 182.102 120.856C182.427 130.124 182.427 139.229 182.427 149.147Z" fill="#1A1A1A"/>
<path d="M309.411 142.644C310.55 137.603 315.102 138.742 318.029 138.416C327.784 136.953 337.54 135.977 347.295 136.465C354.449 136.79 361.278 138.254 367.944 140.53C370.058 141.343 372.497 141.506 374.773 141.668C382.252 142.319 384.529 144.757 386.154 152.887C388.431 164.919 386.967 177.276 387.13 189.47C387.13 191.259 386.317 192.884 384.854 194.023C382.74 191.909 382.577 189.47 382.74 186.706C382.903 176.3 382.74 166.057 381.927 155.814C381.439 148.985 378.675 145.408 372.822 144.595C372.172 144.432 371.196 144.432 370.708 144.757C369.895 145.408 370.871 145.896 371.033 146.546C374.123 154.675 375.911 163.13 376.562 171.748C377.862 187.844 379.326 203.941 379.163 220.037C379.163 221.338 379.488 222.964 378.838 223.939C377.7 225.891 378.838 226.378 380.139 226.866C382.903 228.004 385.667 229.142 389.244 230.606C387.618 224.427 386.154 218.574 384.529 212.883C383.39 209.144 382.577 205.567 382.74 201.664C383.065 196.299 386.317 194.348 391.357 196.624C397.211 199.226 399.812 204.591 402.414 209.794C405.665 216.135 408.267 222.639 411.194 229.142C412.494 232.069 414.283 234.183 417.047 235.971C432.981 245.564 447.939 256.62 464.036 265.888C466.149 267.189 468.263 268.489 470.539 271.416C458.67 266.538 448.915 260.035 439.159 253.531C431.355 248.328 423.55 243.288 415.096 239.06C411.031 236.947 407.942 233.695 405.828 229.468C402.414 222.964 399.324 216.135 395.585 209.631C393.471 206.054 390.87 203.29 387.943 200.526C385.667 204.754 385.504 204.754 388.431 215.322C389.569 219.712 389.731 224.427 391.52 228.655C392.496 231.256 391.195 233.207 387.943 233.045C385.992 233.045 384.041 232.882 381.927 232.069C370.221 227.191 360.14 220.2 351.035 211.42C347.133 207.68 343.23 204.103 337.702 200.201C342.255 218.086 356.4 226.703 368.107 237.109C360.953 238.247 339.003 219.062 333.8 207.03L333.963 207.192C333.637 205.567 332.987 203.778 332.987 202.152C333.15 200.364 331.686 197.925 333.8 196.461C336.076 194.998 338.515 195.161 340.792 196.461C345.019 198.738 348.108 202.315 351.523 205.404C358.514 212.07 365.018 219.712 374.285 223.777C372.985 215.485 373.798 207.03 372.822 198.738C370.871 183.292 371.684 167.52 368.432 152.237C366.969 145.57 365.993 144.757 359.49 142.969C349.246 140.367 339.166 141.343 328.922 141.993C322.581 142.806 315.915 142.644 309.411 142.644Z" fill="#1A1A1A"/>
<path d="M182.265 466.526C184.704 463.599 187.468 460.835 190.395 458.396C198.849 451.405 207.792 445.064 213.157 434.82C215.921 429.78 216.734 424.902 215.921 419.862C213.482 403.115 208.117 387.344 200.475 372.06C190.882 353.037 182.102 333.526 170.071 315.966C168.77 314.015 167.307 312.226 166.006 310.438C163.892 307.511 164.38 305.072 167.469 303.121C175.761 297.918 182.428 291.252 187.305 282.635C188.118 281.171 189.744 279.058 191.207 280.033C193.321 281.497 193.321 284.586 191.858 286.862C188.769 291.577 185.517 296.13 181.127 299.544C178.038 302.146 175.274 305.398 171.534 307.023C169.258 307.999 170.396 309.788 171.209 310.926C179.176 321.169 185.517 332.55 191.533 344.094C203.402 366.857 216.247 389.132 221.612 414.659C225.026 430.755 219.173 442.625 207.141 452.218C199.987 457.908 192.183 462.461 184.379 467.013C183.728 467.176 183.24 467.339 182.265 466.526Z" fill="#1A1A1A"/>
<path d="M309.249 142.644C309.249 143.619 309.574 144.92 309.086 145.733C303.721 153.049 303.883 161.504 303.883 169.959C303.883 178.251 303.721 186.543 304.046 194.835C304.534 207.68 305.022 220.362 305.835 233.044C306.485 243.45 307.46 253.693 308.436 263.937C309.249 272.554 311.688 280.521 319.817 284.911C323.72 287.025 328.11 288 332.662 288.163C344.043 288.488 355.262 287.512 366.481 286.537C368.595 286.374 368.92 285.074 369.083 283.773C369.57 281.822 370.058 280.196 372.334 279.058C373.473 281.497 374.611 283.935 372.985 286.862C376.562 285.074 379.976 283.122 380.952 278.895C381.277 277.269 382.252 275.806 384.204 275.806C386.48 275.968 386.317 277.92 386.317 279.383C386.48 282.635 385.342 284.423 382.252 286.049C368.27 293.528 353.474 294.504 338.19 292.553C334.288 292.065 330.386 291.74 326.646 290.602C313.964 286.862 305.835 277.757 304.534 264.262C303.396 251.58 302.42 238.898 301.77 226.215C301.119 213.533 300.794 200.689 299.981 188.007C299.331 178.576 299.168 169.146 299.331 159.878C299.493 154.188 300.794 148.822 304.859 144.432C306.322 143.294 307.46 142.156 309.249 142.644C309.412 142.644 309.249 142.644 309.249 142.644Z" fill="#1A1A1A"/>
<path d="M322.581 61.9983C319.492 61.1853 317.215 59.0716 316.565 56.3076C316.077 54.0313 318.841 52.8931 320.63 51.5924C329.085 45.0888 337.539 38.5851 345.832 32.0815C349.734 28.9922 350.709 29.3174 353.799 33.2196C360.953 42.3247 368.269 51.4298 375.586 60.5349C379.325 65.0875 379.325 66.063 374.61 69.9652C365.505 77.607 356.4 85.0862 347.295 92.8906C345.832 94.0288 344.531 95.0043 343.23 93.2158C336.076 83.2977 327.296 74.3552 322.256 62.9738C321.931 62.3234 322.256 62.1609 322.581 61.9983C325.345 63.6242 327.784 65.7379 330.06 68.1767C334.45 72.8919 338.352 77.9322 342.417 82.9725C343.393 84.1107 344.206 87.0373 346.645 85.0862C355.262 78.2574 363.717 71.266 372.171 64.4371C365.18 56.4702 358.514 48.8284 351.847 41.024C349.896 38.7477 348.433 38.9103 346.157 40.5362C339.003 45.7391 331.849 50.942 324.532 55.9824C322.093 57.6083 320.63 59.0716 322.581 61.9983Z" fill="#1A1A1A"/>
<path d="M207.467 266.863C206.979 263.774 208.93 261.986 210.881 260.197C222.262 250.117 223.238 237.272 219.498 223.939C216.897 214.672 209.255 209.631 199.662 207.192C193.646 205.729 188.443 207.68 182.915 208.981C182.915 207.355 184.379 207.355 185.192 206.867C202.264 198.575 218.848 200.201 231.042 212.721C235.757 217.436 236.245 223.777 237.546 229.793C240.147 241.337 236.896 251.092 229.579 260.035C228.441 261.498 227.14 263.124 225.514 263.937C224.213 264.587 222.588 266.05 221.124 264.75C219.824 263.449 221.937 262.148 221.775 260.848C226.165 255.645 230.392 250.279 232.18 243.775C234.457 235.809 232.343 228.167 230.229 220.688C227.953 212.07 213.97 203.941 205.028 205.241C213.645 208.656 220.962 213.371 224.213 222.639C228.766 235.483 227.14 247.84 220.962 259.872C217.222 263.774 213.645 268.002 207.467 266.863C207.304 266.701 207.467 266.863 207.467 266.863Z" fill="#1A1A1A"/>
<path d="M142.105 303.772C144.869 308.324 145.682 312.714 145.844 317.104C146.657 329.461 148.121 341.818 148.771 354.338C149.421 368.158 152.185 381.978 155.112 395.636C157.063 404.578 159.014 413.521 159.99 422.463C161.453 435.471 170.558 442.462 181.614 445.226C185.354 446.202 189.256 446.527 193.158 447.015C194.459 447.177 195.435 447.665 195.597 449.128C195.76 450.754 194.784 450.592 193.646 450.754C181.777 451.242 170.883 448.641 162.103 439.861C156.25 434.007 154.949 426.203 153.974 418.561C152.511 406.529 149.421 394.66 147.308 382.791C145.844 374.987 144.706 367.02 144.056 359.053C142.918 345.72 142.592 332.55 140.804 319.218C140.316 314.177 140.641 309.137 142.105 303.772Z" fill="#1A1A1A"/>
<path d="M334.125 207.355C333.8 210.932 333.8 210.932 326.321 211.095C330.873 226.216 343.718 234.67 354.937 245.564C351.035 245.401 349.409 243.125 347.62 241.662C341.279 236.621 334.45 232.069 329.41 225.403C327.784 223.289 325.183 223.777 323.394 225.077C321.443 226.541 323.557 227.842 324.207 228.98C337.702 250.929 357.701 263.286 382.252 269.465C388.593 271.091 395.259 269.465 402.088 271.904C399.975 273.205 398.349 273.692 396.56 273.855C377.7 275.481 361.278 269.628 346.157 258.896C335.426 251.417 326.483 242.637 319.817 231.419C319.654 231.093 319.492 230.931 319.329 230.606C315.102 222.313 314.126 220.037 325.02 219.387C323.882 216.46 322.419 213.696 321.443 210.769C319.98 206.542 321.118 205.241 325.508 204.916C328.597 204.916 331.036 207.518 334.125 207.355C334.288 207.355 334.125 207.355 334.125 207.355Z" fill="#1A1A1A"/>
<path d="M285.348 430.105C277.869 415.635 271.528 401.164 264.861 386.368C258.52 402.302 252.504 417.748 246.489 433.194C246.001 434.333 246.489 436.284 244.212 435.471C241.773 434.658 241.773 433.52 242.586 431.081C247.139 419.212 251.366 407.18 255.919 395.148C257.707 390.27 259.658 385.555 261.447 380.677C262.097 379.052 262.91 377.751 264.699 377.588C266.487 377.426 266.812 379.052 267.138 380.19C273.804 395.961 281.446 411.407 287.299 427.504C288.762 431.406 287.949 432.219 284.047 432.707C273.966 434.007 264.048 435.796 254.13 437.422C252.83 437.584 251.529 437.91 250.228 437.747C248.765 437.747 247.627 436.609 247.301 435.471C247.139 433.845 248.602 433.682 249.903 433.357C257.382 431.731 265.187 431.731 272.828 430.918C276.893 430.593 280.795 429.292 285.348 430.105Z" fill="#1A1A1A"/>
<path d="M134.626 66.0632C133.975 80.2086 124.057 90.1267 112.676 90.1267C100.969 90.1267 92.5145 81.0216 92.1893 68.0143C91.8641 54.6818 102.27 46.3896 114.627 46.2271C125.846 46.0645 134.463 54.0314 134.626 66.0632ZM97.3922 67.8517C97.7174 78.2575 104.709 84.7612 112.351 84.9238C121.618 85.0864 131.699 74.5179 131.049 65.2502C130.398 56.6329 125.358 49.3163 114.139 49.4789C104.709 49.6415 97.2296 58.584 97.3922 67.8517Z" fill="#1A1A1A"/>
<path d="M34.3068 314.015C38.6968 312.389 42.5989 311.088 46.5011 309.787C47.9645 309.3 49.753 308.812 50.7285 310.763C51.5415 312.389 50.8911 313.69 49.753 314.99C45.5256 319.218 40.1601 320.844 34.632 321.819C30.8924 322.47 29.7542 318.893 28.9413 315.966C28.6161 314.828 28.9413 313.69 28.9413 312.389C23.4132 314.99 18.2102 317.429 12.8447 319.706C10.4059 320.681 8.94254 319.055 7.64181 317.104C4.38998 311.901 4.38998 305.885 3.41444 300.195C2.92666 297.756 1.78852 295.154 2.43889 292.553C2.60148 291.74 1.95111 290.602 3.08925 290.277C4.38998 289.951 4.87776 290.927 5.20294 292.065C6.34108 296.13 7.64181 300.032 8.77995 304.097C10.731 312.064 10.8936 312.389 17.7225 308.649C22.1124 306.21 26.8276 306.536 31.3801 305.398C33.1687 304.91 34.4694 306.698 34.4694 308.812C34.4694 310.113 34.3068 311.739 34.3068 314.015Z" fill="#1A1A1A"/>
<path d="M403.064 274.017C406.153 273.692 408.267 274.993 410.055 276.619C422.25 288 435.419 298.244 448.427 308.649C460.296 318.08 473.303 325.721 486.961 332.388C490.375 334.176 493.627 334.339 497.042 332.225C500.456 330.111 504.033 328.323 507.935 327.347C509.073 327.022 510.049 326.86 512 327.51C505.659 332.225 499.318 336.127 492.164 338.241C488.749 339.217 485.01 336.29 481.758 334.501C463.71 325.071 447.126 313.202 432.005 299.382C424.038 292.065 415.421 285.561 407.129 278.733C405.665 277.757 404.039 276.456 403.064 274.017Z" fill="#1A1A1A"/>
<path d="M45.2003 265.888C45.8507 265.888 46.3385 265.888 46.9888 265.888C47.8018 266.05 48.9399 265.4 49.2651 266.538C49.5903 267.514 48.6147 268.001 47.9644 268.489C43.2492 272.229 37.3959 272.717 31.7052 273.855C26.3397 274.993 26.5023 274.668 27.4779 280.033C27.8031 281.659 27.8031 283.448 25.3642 284.586C19.8361 287.187 13.9828 287.675 8.29209 288.976C6.99136 289.301 5.36545 288.976 5.20286 287.35C5.04027 285.887 6.50359 284.911 7.80432 284.748C13.0072 283.935 17.7224 281.822 22.6001 280.358C24.7138 279.708 24.8764 279.058 24.3886 277.432C22.6001 270.766 22.6001 270.603 29.1038 269.14C34.4693 267.839 39.8348 266.213 45.2003 265.888Z" fill="#1A1A1A"/>
<path d="M55.2813 194.51C53.1676 194.836 51.5417 196.461 49.7532 195.811C39.8351 191.909 29.7545 188.169 21.6249 181.015C20.9745 180.365 19.6738 179.715 20.4868 178.576C20.9745 177.926 21.9501 178.251 22.9256 178.576C32.0307 182.316 41.1359 185.893 50.241 189.633C52.1921 190.446 53.4928 192.397 55.2813 194.51Z" fill="#1A1A1A"/>
<path d="M56.9067 195.974C52.5168 207.68 46.6635 218.736 44.2246 230.931C44.062 232.069 43.5742 233.207 42.9239 234.183C42.1109 235.646 41.1354 237.76 38.8591 236.134C36.908 234.67 35.4447 231.744 37.2332 230.28C40.485 227.354 41.2979 223.452 42.9239 220.037C46.1757 212.883 49.9153 205.892 53.3297 198.738C53.9801 197.437 54.4678 194.998 56.9067 195.974Z" fill="#1A1A1A"/>
<path d="M17.7224 178.576C12.3568 189.307 8.61724 200.689 5.04023 212.07C4.55245 213.859 3.7395 215.972 1.13803 216.135C-0.000105262 207.518 12.682 178.576 17.7224 178.576Z" fill="#1A1A1A"/>
<path d="M0 218.086C11.2188 223.289 24.0635 222.964 34.3068 231.581C24.7139 231.906 0.487774 222.151 0 218.086Z" fill="#1A1A1A"/>
<path d="M178.363 210.282C178.688 209.957 179.176 209.794 179.501 209.469C179.826 210.282 179.664 210.769 178.851 211.095C178.851 210.769 178.688 210.444 178.363 210.282Z" fill="#1A1A1A"/>
<path d="M288.925 234.833C288.599 235.158 288.437 235.321 288.274 235.646C288.112 235.321 287.786 234.996 287.624 234.508C287.624 234.345 287.949 234.183 288.112 234.02C288.437 234.345 288.762 234.508 288.925 234.833Z" fill="#1A1A1A"/>
<path d="M354.449 246.865C354.612 246.54 354.774 246.214 354.774 246.052C355.1 246.214 355.587 246.377 355.913 246.702C355.75 246.865 355.587 247.353 355.587 247.353C355.262 247.19 354.937 247.027 354.449 246.865Z" fill="#1A1A1A"/>
</svg>
