<svg width="19" height="18" viewBox="0 0 19 18" fill="none" xmlns="http://www.w3.org/2000/svg">
<path fill-rule="evenodd" clip-rule="evenodd" d="M17.375 9.04745C17.375 4.69863 13.8488 1.17245 9.5 1.17245C5.15117 1.17245 1.625 4.69863 1.625 9.04745C1.625 12.9779 4.5043 16.2358 8.26953 16.8272V11.3245H6.26949V9.04745H8.26953V7.31249C8.26953 5.33917 9.44551 4.24827 11.2441 4.24827C12.1058 4.24827 13.0072 4.40226 13.0072 4.40226V6.34042H12.0137C11.036 6.34042 10.7301 6.94722 10.7301 7.57089V9.04745H12.914L12.5653 11.3245H10.7305V16.8279C14.4957 16.2369 17.375 12.979 17.375 9.04745V9.04745Z" fill="#F5DF4D"/>
</svg>
