<svg width="19" height="18" viewBox="0 0 19 18" fill="none" xmlns="http://www.w3.org/2000/svg">
<path d="M12.7811 2.43738C13.6506 2.43998 14.4838 2.78654 15.0986 3.40138C15.7135 4.01621 16.06 4.84936 16.0626 5.71887V12.2811C16.06 13.1506 15.7135 13.9838 15.0986 14.5986C14.4838 15.2135 13.6506 15.56 12.7811 15.5626H6.21887C5.34936 15.56 4.51621 15.2135 3.90138 14.5986C3.28654 13.9838 2.93998 13.1506 2.93738 12.2811V5.71887C2.93998 4.84936 3.28654 4.01621 3.90138 3.40138C4.51621 2.78654 5.34936 2.43998 6.21887 2.43738H12.7811V2.43738ZM12.7811 1.125H6.21887C3.69219 1.125 1.625 3.19219 1.625 5.71887V12.2811C1.625 14.8078 3.69219 16.875 6.21887 16.875H12.7811C15.3078 16.875 17.375 14.8078 17.375 12.2811V5.71887C17.375 3.19219 15.3078 1.125 12.7811 1.125V1.125Z" fill="#F5DF4D"/>
<path d="M13.7655 5.71887C13.5708 5.71887 13.3805 5.66114 13.2186 5.55298C13.0567 5.44481 12.9306 5.29107 12.8561 5.1112C12.7815 4.93133 12.7621 4.73341 12.8 4.54246C12.838 4.35151 12.9318 4.17611 13.0694 4.03844C13.2071 3.90077 13.3825 3.80702 13.5735 3.76904C13.7644 3.73105 13.9623 3.75055 14.1422 3.82505C14.3221 3.89956 14.4758 4.02573 14.584 4.18761C14.6921 4.34949 14.7499 4.53981 14.7499 4.7345C14.7501 4.86385 14.7249 4.99198 14.6755 5.11153C14.6261 5.23109 14.5536 5.33971 14.4622 5.43118C14.3707 5.52264 14.2621 5.59514 14.1425 5.64451C14.023 5.69388 13.8948 5.71915 13.7655 5.71887V5.71887ZM9.5 6.37489C10.0192 6.37489 10.5267 6.52885 10.9584 6.8173C11.3901 7.10575 11.7266 7.51574 11.9253 7.99542C12.124 8.4751 12.176 9.00292 12.0747 9.51214C11.9734 10.0214 11.7234 10.4891 11.3562 10.8562C10.9891 11.2234 10.5214 11.4734 10.0121 11.5747C9.50291 11.676 8.97508 11.624 8.49541 11.4253C8.01573 11.2266 7.60574 10.8901 7.31729 10.4584C7.02884 10.0267 6.87488 9.51921 6.87488 9.00001C6.87563 8.30401 7.15244 7.63674 7.64458 7.14459C8.13673 6.65245 8.804 6.37563 9.5 6.37489V6.37489ZM9.5 5.06251C8.72123 5.06251 7.95996 5.29344 7.31244 5.7261C6.66492 6.15875 6.16025 6.77371 5.86223 7.49319C5.56421 8.21268 5.48623 9.00438 5.63816 9.76818C5.79009 10.532 6.1651 11.2336 6.71577 11.7842C7.26644 12.3349 7.96803 12.7099 8.73183 12.8619C9.49563 13.0138 10.2873 12.9358 11.0068 12.6378C11.7263 12.3398 12.3412 11.8351 12.7739 11.1876C13.2066 10.5401 13.4375 9.77877 13.4375 9.00001C13.4375 7.95572 13.0226 6.9542 12.2842 6.21577C11.5458 5.47735 10.5443 5.06251 9.5 5.06251V5.06251Z" fill="#F5DF4D"/>
</svg>
