<svg width="19" height="18" viewBox="0 0 19 18" fill="none" xmlns="http://www.w3.org/2000/svg">
<path d="M17.9375 3.84961C17.3045 4.12466 16.6347 4.30586 15.9494 4.3875C16.6696 3.96576 17.2113 3.29575 17.4727 2.50313C16.7918 2.90131 16.048 3.18069 15.2734 3.3293C14.9471 2.98742 14.5548 2.71544 14.1202 2.5299C13.6856 2.34436 13.2178 2.24913 12.7453 2.25001C10.8321 2.25001 9.28379 3.77579 9.28379 5.65664C9.28243 5.91826 9.31241 6.1791 9.37309 6.43359C8.00118 6.36928 6.6578 6.01931 5.4289 5.40607C4.2 4.79283 3.11263 3.92983 2.23637 2.87227C1.92895 3.39052 1.76637 3.98182 1.76562 4.58438C1.76562 5.76563 2.38191 6.80977 3.3125 7.42148C2.76115 7.4084 2.22111 7.26247 1.7382 6.99609V7.03828C1.7382 8.69062 2.93352 10.0652 4.51555 10.3781C4.21805 10.4574 3.91148 10.4976 3.60359 10.4977C3.38513 10.498 3.16715 10.4768 2.95285 10.4344C3.39266 11.7879 4.6727 12.7723 6.18898 12.8004C4.95689 13.7499 3.4442 14.2631 1.88867 14.2594C1.61256 14.259 1.33671 14.2425 1.0625 14.2101C2.64495 15.2206 4.48441 15.7551 6.36195 15.75C12.7379 15.75 16.2212 10.5574 16.2212 6.05391C16.2212 5.90625 16.2173 5.7586 16.2103 5.61445C16.8864 5.13354 17.4713 4.5359 17.9375 3.84961V3.84961Z" fill="#F5DF4D"/>
</svg>
