<svg width="19" height="18" viewBox="0 0 19 18" fill="none" xmlns="http://www.w3.org/2000/svg">
<path d="M15.8469 3.22678C15.843 2.82591 15.6813 2.44272 15.3968 2.16027C15.1123 1.87783 14.728 1.71891 14.3271 1.71797L4.68434 1.6875C4.28387 1.68758 3.89977 1.84645 3.61625 2.12929C3.33273 2.41212 3.17292 2.79584 3.17188 3.19631V13.1438C3.17188 13.9755 3.85072 14.6063 4.68434 14.6063H12.9219L12.5258 13.2656L15.8469 16.3125V3.22678ZM11.6011 11.2489C11.6011 11.2489 11.3354 10.9323 11.1136 10.6602C12.0806 10.3879 12.4496 9.79219 12.4496 9.79219C12.184 9.96838 11.8993 10.114 11.6011 10.2264C11.2566 10.3694 10.8981 10.4755 10.5313 10.5429C9.89935 10.659 9.25133 10.6565 8.6203 10.5356C8.24911 10.4667 7.88581 10.3605 7.53591 10.2188C7.35081 10.1479 7.17082 10.0643 6.99723 9.9686C6.97498 9.95398 6.95305 9.94666 6.9308 9.93173C6.91587 9.92442 6.90856 9.91711 6.90034 9.91711C6.76749 9.84338 6.69376 9.79188 6.69376 9.79188C6.69376 9.79188 7.0478 10.3735 7.98502 10.6529C7.76352 10.9326 7.49052 11.2565 7.49052 11.2565C5.86013 11.205 5.2404 10.1453 5.2404 10.1453C5.2404 7.7974 6.30284 5.89127 6.30284 5.89127C7.36529 5.10366 8.36862 5.1259 8.36862 5.1259L8.44236 5.21426C7.11423 5.58963 6.50942 6.17098 6.50942 6.17098C6.50942 6.17098 6.67152 6.08262 6.94452 5.9647C7.73396 5.61888 8.36131 5.53052 8.6203 5.50127C8.66163 5.49268 8.70363 5.48769 8.74583 5.48634C9.24022 5.42219 9.7405 5.41728 10.2361 5.47172C11.0142 5.5611 11.768 5.79845 12.4569 6.17098C12.4569 6.17098 11.8741 5.61797 10.6197 5.2432L10.7229 5.12559C10.7229 5.12559 11.7336 5.10335 12.789 5.89219C12.789 5.89219 13.8515 7.79831 13.8515 10.1462C13.8515 10.1377 13.2314 11.1974 11.6011 11.2489Z" fill="#F5DF4D"/>
<path d="M8.17027 7.84219C7.7498 7.84219 7.41769 8.20294 7.41769 8.65175C7.41769 9.10055 7.75712 9.4613 8.17027 9.4613C8.59074 9.4613 8.92285 9.10086 8.92285 8.65175C8.93047 8.20203 8.59074 7.84219 8.17027 7.84219ZM10.8631 7.84219C10.4426 7.84219 10.1105 8.20294 10.1105 8.65175C10.1105 9.10055 10.4499 9.4613 10.8631 9.4613C11.2839 9.4613 11.6157 9.10086 11.6157 8.65175C11.6157 8.20264 11.2766 7.84219 10.8631 7.84219Z" fill="#F5DF4D"/>
</svg>
