<svg width="30" height="30" viewBox="0 0 30 30" fill="none" xmlns="http://www.w3.org/2000/svg">
<path fill-rule="evenodd" clip-rule="evenodd" d="M3.75 8.90625C3.75 8.1296 4.3796 7.5 5.15625 7.5H24.8438C25.6204 7.5 26.25 8.1296 26.25 8.90625C26.25 9.6829 25.6204 10.3125 24.8438 10.3125H5.15625C4.3796 10.3125 3.75 9.6829 3.75 8.90625ZM3.75 15C3.75 14.2233 4.3796 13.5938 5.15625 13.5938H24.8438C25.6204 13.5938 26.25 14.2233 26.25 15C26.25 15.7767 25.6204 16.4062 24.8438 16.4062H5.15625C4.3796 16.4062 3.75 15.7767 3.75 15ZM3.75 21.0938C3.75 20.3171 4.3796 19.6875 5.15625 19.6875H24.8438C25.6204 19.6875 26.25 20.3171 26.25 21.0938C26.25 21.8704 25.6204 22.5 24.8438 22.5H5.15625C4.3796 22.5 3.75 21.8704 3.75 21.0938Z" fill="#F5DF4D"/>
</svg>
