<svg width="512" height="512" viewBox="0 0 512 512" fill="none" xmlns="http://www.w3.org/2000/svg">
<path d="M187.225 137.883C190.729 135.17 193.668 131.892 196.946 128.952C206.668 120.135 216.05 110.979 225.771 102.162C237.188 91.7627 248.605 81.2501 259.796 70.6244C266.804 64.0681 273.813 57.738 280.595 50.9556C281.499 50.0513 282.404 49.26 283.534 48.6948C285.795 47.5645 287.603 47.6775 289.525 50.0513C293.934 55.7033 298.794 60.9031 303.542 66.3289C309.985 73.9025 316.428 81.5892 322.985 89.1628C327.732 94.8147 332.48 100.354 337.114 106.006C343.219 113.24 349.21 120.588 355.314 127.822C359.948 133.248 364.583 138.674 369.104 144.213C375.096 151.447 381.087 158.682 387.078 165.803C392.956 172.699 398.834 179.594 404.712 186.602C410.703 193.724 416.581 200.845 422.572 207.967C427.546 213.958 432.745 219.723 437.606 225.714C443.597 232.948 450.153 239.618 455.466 247.417C457.727 250.695 457.162 254.878 457.727 258.608C457.953 259.965 456.371 261.095 455.014 261.999C432.293 277.825 409.572 293.65 386.965 309.589C364.357 325.527 341.862 341.579 319.254 357.517C295.403 374.36 271.665 391.203 247.814 408.046C234.588 417.428 221.25 426.81 207.911 436.079C204.294 438.679 200.45 440.94 196.946 443.766C191.746 447.948 190.616 446.366 185.642 442.975C181.799 440.375 179.651 436.079 176.938 432.349C163.034 413.472 149.244 394.594 135.453 375.604C122.001 357.178 108.663 338.64 95.4372 320.101C82.2116 301.337 68.9861 282.572 55.7605 263.808C52.9345 259.852 53.3867 256.573 58.0213 255.443C62.0907 254.426 64.3515 251.487 67.0644 249C77.464 239.731 87.4114 230.009 97.698 220.514C104.932 213.845 112.167 207.175 119.401 200.619C120.193 199.941 120.758 199.15 121.436 198.358C123.019 198.471 123.584 199.828 124.488 200.732C127.766 204.01 131.384 207.062 134.888 209.662C139.975 213.28 146.079 215.766 152.522 216.558C154.33 216.784 155.8 217.575 157.496 217.801C165.182 219.045 172.417 218.366 178.408 212.714C179.99 211.132 182.364 211.019 183.947 209.436C190.842 202.541 197.172 195.193 200.903 185.924C202.033 182.985 202.711 180.046 202.372 176.881C202.259 175.525 202.485 174.168 202.937 172.925C203.955 169.986 203.842 167.16 202.259 164.56C199.546 160.038 198.303 154.951 196.607 149.978C195.703 147.265 194.346 145.117 191.746 143.535C189.825 142.178 188.242 140.256 187.225 137.883Z" fill="#574AE2"/>
<path d="M187.225 137.883C193.555 142.856 198.755 148.508 199.772 157.099C199.998 159.36 201.92 161.395 202.937 163.655C204.294 166.481 205.311 169.42 203.842 172.473C202.485 175.298 203.615 178.238 203.05 181.177C201.468 189.654 196.381 196.098 191.294 202.654C189.26 205.254 187.338 208.08 184.625 209.775C178.069 214.071 171.965 219.497 163.374 219.158C160.661 219.045 157.948 218.818 155.348 217.801C152.522 216.784 149.244 217.123 146.418 215.766C143.253 214.297 139.862 213.054 136.583 211.697C134.775 210.906 133.079 209.888 132.288 207.967C131.384 205.932 129.123 205.48 127.54 204.236C125.279 202.428 123.245 200.506 121.549 198.245C117.367 191.576 115.784 184.342 115.219 176.542C114.654 169.873 114.88 163.316 116.575 156.986C117.706 152.804 120.193 149.413 123.471 146.361C125.506 144.552 128.332 143.195 129.349 140.256C129.349 140.143 129.462 140.03 129.575 140.03C133.757 137.543 137.375 133.7 142.122 132.457C146.305 131.326 150.826 131.778 155.122 130.987C166.652 128.613 176.825 133.926 187.225 137.883Z" fill="#D26480"/>
<path d="M249.849 464C246.457 464 242.727 460.044 242.727 456.426C242.727 453.826 246.344 451.114 249.849 451C253.014 451 255.613 453.487 255.727 456.879C255.84 460.383 252.788 464 249.849 464Z" fill="#D26480"/>
<path d="M330.898 319.875C330.898 323.606 328.411 327.675 326.263 327.675C323.211 327.788 319.142 322.701 319.142 318.745C319.142 316.145 321.741 314.11 324.907 314.11C328.298 314.223 330.898 316.823 330.898 319.875Z" fill="#D36480"/>
<path d="M227.467 321.006C229.275 321.006 235.153 325.414 235.266 327.11C235.38 329.144 233.571 330.388 232.327 331.744C231.31 332.988 230.18 332.649 229.049 331.97C228.371 331.631 227.806 331.179 226.902 331.179C223.963 331.179 221.702 328.579 221.815 325.527C221.815 323.38 224.754 320.893 227.467 321.006Z" fill="#D36480"/>
<path d="M290.203 154.273C289.977 152.465 291.221 152.239 292.125 151.786C298.455 148.621 305.35 146.361 311.907 143.535C313.15 142.969 314.281 142.517 314.62 141.274C316.767 134.944 321.741 130.309 325.245 124.883C326.715 122.622 328.523 120.475 330.219 118.327C331.236 117.083 331.01 116.179 329.993 115.162C324.567 109.058 319.141 102.954 313.715 96.8494C313.263 96.3973 312.924 95.9451 312.472 95.493C311.342 94.4756 311.002 92.8931 311.907 91.9888C313.037 90.9714 314.168 92.3279 314.959 93.2322C320.837 100.015 326.602 106.91 332.367 113.692C334.401 116.066 333.949 118.101 332.028 120.362C327.28 126.24 322.645 132.231 318.011 138.222C317.446 138.9 316.202 139.578 316.993 140.482C317.672 141.161 318.915 140.596 319.819 140.143C325.358 137.543 331.01 135.283 336.888 133.248C348.079 129.405 359.27 125.561 370.461 121.379C374.304 119.909 378.6 119.457 382.782 118.892C388.886 117.988 394.086 120.701 398.608 123.979C404.033 127.935 409.346 132.231 412.624 138.335C415.111 142.969 416.355 147.943 416.694 153.369C417.598 168.403 412.285 181.403 403.129 192.82C395.895 201.863 386.399 208.645 375.548 213.053C366.278 216.897 357.009 220.966 347.288 223.453C345.14 224.018 342.992 224.47 340.506 225.036C342.653 227.636 344.914 230.122 345.931 233.514C346.836 236.453 346.044 238.487 344.236 240.409C342.653 241.991 341.636 243.122 342.427 245.835C343.558 249.452 341.636 253.295 341.749 257.139C341.749 258.156 340.619 259.286 339.601 259.399C337.001 259.739 338.245 260.643 339.036 261.66C340.732 263.808 342.766 265.73 344.914 267.425C347.062 269.121 346.723 270.703 345.253 272.625C342.427 276.355 339.488 279.973 336.097 283.251C329.202 290.033 323.324 297.72 317.672 305.519C316.88 306.537 315.75 307.328 314.62 308.119C311.681 309.928 311.794 310.606 314.62 312.754C317.559 315.015 320.837 316.484 324.115 318.067C328.297 320.101 328.75 321.458 325.019 324.397C317.785 330.049 312.811 337.962 305.69 343.613C304.333 344.631 304.898 345.196 305.803 345.987C307.498 347.57 309.872 348.926 310.776 350.961C312.924 355.37 316.202 353.787 319.367 353.448C322.532 352.996 325.471 353.222 329.315 354.239C326.376 355.709 324.002 354.917 321.854 355.03C302.524 356.387 291.786 375.377 296.081 391.09C299.585 403.863 311.002 412.68 323.098 412.228C339.94 411.55 353.505 396.629 351.131 379.447C350.34 373.23 347.401 367.804 342.879 363.395C342.54 363.056 342.088 362.717 341.749 362.378C341.184 361.7 340.619 361.021 341.41 360.23C342.088 359.665 342.653 360.23 343.332 360.682C346.723 363.282 349.21 366.673 350.792 370.63C355.766 383.629 352.94 396.855 342.653 406.237C326.263 421.045 302.411 413.245 295.177 396.29C288.96 381.482 294.16 364.187 309.194 356.5C311.342 355.37 311.002 354.804 309.646 353.674C307.611 351.865 305.803 349.718 303.542 348.135C301.281 346.666 300.942 343.953 303.09 342.483C307.837 338.979 311.455 334.57 315.298 330.162C317.559 327.675 320.385 325.753 323.098 323.719C324.793 322.475 325.245 321.458 322.871 320.327C318.463 318.293 314.054 316.258 310.324 312.98C308.403 311.284 308.176 309.476 310.437 308.006C316.089 304.389 319.48 298.624 323.55 293.65C328.071 288.224 332.819 283.025 337.567 277.825C339.375 275.79 341.297 273.755 342.992 271.608C343.558 270.816 344.01 270.251 342.992 269.573C339.488 267.538 337.34 264.034 334.062 261.547C333.045 262.791 334.628 265.051 332.593 265.73C331.01 266.295 329.315 265.843 327.958 265.051C327.054 264.486 326.715 265.164 326.376 265.73C326.15 266.182 326.15 266.747 326.037 267.199C324.567 272.286 323.663 272.738 319.141 270.138C316.767 268.782 315.524 268.443 314.054 271.495C309.307 280.99 305.35 290.824 299.925 299.98C293.594 310.606 287.49 321.232 281.273 331.97C275.056 342.822 268.387 353.448 262.961 364.752C262.17 366.447 261.265 368.143 260.361 369.839C260.022 370.404 259.457 371.195 258.665 370.856C257.761 370.517 258.1 369.725 258.439 369.047C262.17 361.474 264.883 353.448 269.178 346.1C272.682 340.109 275.847 333.892 279.238 327.788C284.664 318.18 289.977 308.458 295.742 299.076C301.733 289.129 306.481 278.503 311.455 268.103C312.246 266.521 311.794 265.73 310.437 264.938C306.594 262.678 303.09 260.078 298.681 258.269C302.072 257.026 304.446 258.834 306.707 260.304C308.176 261.208 309.872 261.66 311.115 263.017C312.246 264.26 313.15 263.582 313.715 262.452C314.168 261.434 314.959 260.869 315.863 259.852C316.315 260.982 316.993 261.886 316.88 262.678C316.202 266.182 318.576 267.651 321.063 269.121C322.645 270.138 323.324 270.138 323.889 268.217C325.697 262.112 325.132 256.573 318.915 252.956C317.333 252.052 315.976 250.809 314.281 250.13C312.472 249.339 311.568 247.756 310.098 246.513C310.889 245.609 312.02 245.722 312.698 246.061C318.011 248.661 323.324 251.148 326.15 256.8C326.602 257.591 327.054 258.608 326.941 259.399C326.263 263.017 328.41 263.808 331.462 264.034C331.462 260.078 332.028 256.008 331.576 251.939C331.236 248.887 328.863 247.304 326.715 245.609C324.68 243.913 322.419 242.67 320.159 241.2C318.576 240.07 317.898 238.374 317.107 236.34C312.811 240.409 308.176 243.913 304.333 248.096C303.429 249.113 303.994 249.452 304.898 250.13C307.498 252.052 311.002 252.617 312.811 255.669C310.776 256.121 310.776 256.121 309.872 255.556C309.307 255.217 308.855 254.878 308.289 254.539C306.142 253.521 304.107 252.052 301.959 251.826C299.359 251.6 298.794 254.765 297.099 256.234C291.334 261.66 286.36 267.651 279.351 271.721C270.761 276.694 259.457 275.112 253.24 268.669C249.396 264.599 249.396 260.643 253.353 256.687C259.683 250.356 265.9 244.026 272.23 237.696C272.343 237.583 272.343 237.47 272.456 237.357C265.448 232.157 257.761 228.314 249.509 225.488C248.04 224.923 246.57 224.244 245.101 223.679C242.84 222.775 241.257 222.888 240.014 225.262C239.449 221.418 241.031 219.949 244.422 221.079C254.483 224.357 264.317 227.862 273.247 233.627C274.717 234.644 275.847 234.531 277.091 233.061C286.925 221.644 298.116 211.471 308.629 200.732C311.794 197.567 312.359 193.611 313.037 189.428C313.828 185.133 313.263 180.724 314.394 176.542C315.185 173.151 316.654 170.099 318.689 167.725C322.08 163.882 325.019 159.473 331.123 158.343C329.654 160.603 328.297 162.299 326.602 163.769C321.741 167.951 317.785 172.812 316.315 179.255C315.637 182.194 315.524 185.246 315.298 188.298C314.733 194.176 313.602 199.602 308.742 204.01C301.055 211.019 293.934 218.479 286.812 226.053C284.099 228.879 281.612 231.818 278.899 234.531C277.43 236 277.882 236.453 279.578 237.244C286.021 240.409 292.351 243.687 298.681 246.965C300.151 247.756 301.055 247.191 302.185 246.174C308.855 239.957 315.185 233.627 323.098 228.766C328.75 225.262 334.967 223.227 341.297 221.644C350.566 219.384 359.383 215.766 368.313 212.375C375.887 209.549 383.234 206.158 389.791 201.41C401.434 192.933 409.233 181.855 412.851 167.838C413.868 163.882 414.546 159.925 414.32 155.856C413.868 147.604 411.494 140.256 405.051 134.604C401.434 131.439 398.042 128.161 393.747 125.9C388.773 123.188 383.913 123.64 378.713 124.77C369.217 126.805 360.513 131.439 351.131 134.039C336.323 138.109 322.419 144.326 308.063 149.413C301.62 150.43 295.968 152.239 290.203 154.273ZM267.482 270.929C272.23 271.042 275.395 269.121 278.56 267.199C285.569 262.904 290.542 256.46 296.42 250.922C297.777 249.565 297.212 249.113 295.742 248.435C289.412 245.496 283.082 242.444 276.752 239.279C275.056 238.374 274.039 238.6 272.795 239.844C266.691 246.174 260.022 252.052 254.483 258.834C252.448 261.321 252.335 263.017 254.822 265.504C258.552 269.234 263.3 270.477 267.482 270.929ZM340.506 240.635C341.975 238.6 342.54 236.566 341.749 234.079C340.732 230.914 337.793 228.992 336.888 225.714C336.888 225.601 336.323 225.488 336.097 225.488C328.976 227.636 322.419 230.575 316.88 235.661C324.906 241.2 335.419 244.478 333.836 257.704C334.854 256.913 335.419 256.234 335.758 256.347C339.827 257.478 338.358 254.426 338.584 252.617C338.697 252.052 338.471 251.374 338.697 250.808C340.845 245.27 337.68 240.522 332.593 237.47C330.445 236.226 326.941 235.887 326.489 231.818C332.48 233.401 336.662 236.792 340.506 240.635Z" fill="#1A1A1A"/>
<path d="M224.867 436.871C232.893 442.749 239.11 449.079 246.571 454.166C246.91 454.392 247.927 454.618 247.249 455.409C246.684 456.087 246.231 456.313 245.214 455.861C241.823 454.392 239.11 451.905 236.171 449.757C231.423 446.14 226.902 442.297 221.815 439.131C220.798 438.453 220.459 437.662 220.572 436.532C220.572 435.288 221.25 434.836 222.38 434.384C228.371 432.236 233.571 428.845 238.093 424.323C239.449 422.967 241.032 421.836 242.501 420.593C243.858 419.35 244.084 418.558 242.162 417.428C229.728 410.08 217.293 402.62 205.198 394.82C203.164 393.577 200.564 392.898 201.242 389.62C201.468 388.716 201.581 388.264 202.598 388.038C206.329 387.36 209.268 385.212 211.868 382.499C216.389 377.864 221.137 373.569 226.224 369.612C228.145 368.143 228.936 367.239 225.884 365.543C214.92 359.326 204.068 353.222 192.99 347.118C188.921 344.857 184.964 342.483 181.008 340.222C179.652 339.431 179.425 338.188 178.973 336.944C178.521 335.927 179.425 335.023 180.104 334.683C181.234 334.231 181.234 335.362 181.347 336.153C182.138 338.979 184.964 339.318 186.886 340.561C202.146 349.944 217.972 358.196 234.249 365.769C240.919 368.821 247.814 371.421 254.37 374.812C255.275 375.264 256.631 375.83 256.292 376.734C255.953 377.977 254.483 378.316 253.24 377.977C251.77 377.638 250.414 377.073 249.057 376.395C244.536 374.247 239.901 372.099 235.38 369.952C233.571 369.047 232.215 369.273 230.519 370.743C223.285 376.734 217.52 384.308 209.72 389.733C207.798 391.09 209.268 391.768 210.285 392.333C215.485 395.611 220.798 398.89 225.997 402.168C231.875 405.898 237.64 409.628 243.405 413.359C244.988 414.376 246.684 415.054 248.266 415.958C250.527 417.315 250.64 418.445 248.492 420.028C240.919 426.019 234.815 433.593 224.867 436.871Z" fill="#1A1A1A"/>
<path d="M322.645 361.474C335.306 362.039 344.914 371.082 344.575 383.516C344.236 396.968 334.175 405.785 320.611 405.785C308.968 405.672 298.681 395.951 299.02 382.273C299.359 370.969 309.759 361.248 322.645 361.474ZM337.114 390.525C337.341 391.768 335.984 391.768 335.532 392.559C334.628 394.029 335.758 394.933 336.549 395.724C337.567 396.855 338.132 395.498 338.584 394.82C339.714 392.898 340.958 391.09 340.958 388.716C339.149 388.603 338.923 391.09 337.114 390.525C339.601 388.603 341.523 386.229 341.862 382.951C342.088 380.125 341.41 379.56 338.697 380.69C337.906 381.029 337.114 381.142 336.323 381.368C330.332 382.838 330.558 382.725 332.593 388.49C333.497 391.203 334.628 392.22 337.114 390.525ZM326.941 368.143C326.602 367.013 328.524 364.978 325.585 364.413C319.48 363.282 313.828 364.413 308.742 367.917C306.481 369.499 306.029 370.743 307.95 373.23C309.533 375.151 310.55 375.83 312.924 374.925C316.202 373.795 319.593 372.778 322.985 372.438C325.924 372.099 328.071 371.873 326.941 368.143ZM318.576 395.385C322.872 395.159 326.489 394.594 329.993 393.69C331.123 393.351 332.819 393.125 332.141 391.429C331.123 388.829 330.332 385.664 328.41 384.081C326.602 382.725 323.55 384.308 321.063 384.986C320.611 385.099 320.046 385.099 319.593 385.325C317.898 386.003 315.75 385.777 314.507 387.247C313.489 388.603 315.072 390.072 314.846 391.655C314.507 394.933 316.315 395.724 318.576 395.385ZM322.08 404.202C326.489 403.863 331.236 402.507 335.08 398.663C335.758 397.985 336.662 397.194 335.419 396.403C334.289 395.724 334.854 393.012 332.367 393.916C327.393 395.611 322.306 396.629 317.107 396.629C316.315 396.629 315.75 396.855 315.524 397.759C314.168 402.281 314.959 403.524 319.82 403.976C320.272 404.089 320.837 404.202 322.08 404.202ZM327.958 380.012C327.732 379.221 327.732 377.751 327.619 376.395C327.393 374.473 326.715 373.117 324.228 374.134C322.193 374.925 319.933 375.377 317.785 375.943C311.342 377.638 311.455 377.525 313.263 383.629C313.715 385.212 314.507 385.664 315.976 385.212C319.593 384.194 323.324 383.177 326.941 382.273C327.732 381.934 328.41 381.821 327.958 380.012ZM313.263 392.898C312.246 387.247 312.472 386.681 306.933 388.151C306.029 388.377 305.124 388.49 304.333 388.942C303.429 389.394 301.733 388.829 301.846 390.525C301.959 391.994 302.751 393.125 304.107 393.464C306.594 394.142 309.081 394.481 311.568 395.046C313.037 395.385 313.376 394.481 313.263 392.898ZM300.829 386.116C300.603 387.586 300.829 388.603 302.751 388.038C305.011 387.36 307.272 386.681 309.533 386.229C311.002 385.89 311.455 385.325 310.889 383.855C310.437 382.725 310.324 381.482 309.872 380.351C309.646 379.673 309.194 379.108 308.29 379.108C305.916 379.221 301.168 383.629 300.829 386.116ZM331.236 381.029C333.836 379.899 336.775 380.351 339.375 379.447C340.053 379.221 341.297 379.56 341.41 378.429C341.523 377.299 340.619 376.395 339.601 376.169C337.68 375.717 335.871 374.473 333.836 374.473C332.254 374.473 330.106 372.778 329.315 374.36C328.637 375.83 329.541 378.09 329.88 380.012C329.88 380.577 330.219 381.368 331.236 381.029ZM339.036 373.682C336.775 370.404 334.402 368.369 331.576 366.673C329.993 365.656 328.976 366.447 328.863 367.578C328.637 369.047 327.393 371.308 329.654 372.099C332.254 372.891 335.306 373.117 339.036 373.682ZM300.829 382.386C302.864 380.69 304.559 379.221 306.255 377.864C306.933 377.299 308.177 377.073 307.611 375.83C306.933 374.473 306.368 373.004 305.124 372.099C304.785 371.76 304.333 372.325 304.107 372.665C302.298 375.49 301.055 378.543 300.829 382.386ZM313.715 400.133C314.055 397.872 313.263 396.629 311.002 396.403C309.646 396.29 308.177 395.724 306.82 395.385C306.255 395.272 305.577 394.933 305.238 395.611C304.898 396.29 305.464 396.742 305.916 397.194C307.498 399.003 309.42 400.359 311.455 401.489C313.15 402.62 314.168 402.62 313.715 400.133Z" fill="#1A1A1A"/>
<path d="M178.747 332.536C187.677 315.806 196.381 299.189 205.311 282.686C206.555 280.312 206.442 278.955 204.52 276.921C192.764 264.825 181.121 252.504 169.365 240.296C167.556 238.487 165.748 236.679 163.826 234.983C163.261 234.418 162.922 233.74 163.261 233.061C163.6 232.383 164.391 232.835 164.956 232.609C171.513 230.688 172.191 237.131 175.13 240.07C179.538 244.252 183.156 249.339 187.112 253.974C193.329 261.208 199.546 268.33 205.65 275.564C207.233 277.373 207.798 277.712 209.155 275.225C216.954 260.304 224.98 245.496 233.006 230.575C233.571 229.557 234.136 228.653 234.814 227.749C235.606 226.957 236.397 225.262 237.753 226.392C238.771 227.296 239.11 228.653 238.432 230.122C234.927 237.244 230.858 244.139 226.902 251.148C220.911 261.66 215.033 272.286 208.929 282.799C202.146 294.668 195.138 306.424 188.355 318.293C185.982 322.588 183.721 326.997 181.121 331.179C180.669 332.084 180.217 332.988 178.747 332.536Z" fill="#1A1A1A"/>
<path d="M221.363 329.031C221.363 331.857 219.102 333.553 218.085 335.814C217.971 335.927 217.745 336.153 217.632 336.266C217.745 336.266 217.971 336.266 218.085 336.379C220.119 338.64 221.815 338.527 223.171 335.814C223.623 335.023 223.85 334.118 224.98 334.118C224.98 334.457 224.98 334.796 224.98 335.136C224.98 336.379 224.189 337.17 223.397 337.962C223.058 338.414 221.815 338.753 222.719 339.544C223.397 340.109 224.189 340.901 225.319 339.77C226.789 338.414 227.919 336.605 229.954 335.701C230.406 339.092 227.806 340.788 225.997 342.37C223.85 344.179 221.476 342.37 219.78 340.901C217.067 338.64 213.902 337.057 210.963 335.136C209.267 334.118 208.137 332.536 208.928 330.84C211.528 325.414 213.224 319.536 217.632 315.015C218.763 313.884 220.232 313.658 221.137 314.676C224.867 318.519 229.954 320.214 234.475 322.701C235.832 323.493 236.849 324.284 236.058 326.545C235.04 329.258 233.345 331.518 232.214 334.005C231.536 335.701 230.519 334.457 230.067 334.231C227.128 332.875 224.641 330.84 222.041 328.918C221.928 328.579 221.702 328.466 221.476 328.579C221.363 328.579 221.476 328.805 221.363 329.031ZM219.893 323.38C222.606 324.058 223.171 321.571 223.963 320.101C224.867 318.519 222.719 318.632 222.041 318.067C220.571 316.597 219.554 317.615 218.763 319.197C218.198 320.44 216.728 321.797 219.328 322.475C219.78 322.475 220.571 322.814 219.893 323.38C217.18 322.362 215.485 323.04 215.259 326.319C216.389 326.771 217.632 326.771 218.763 327.11C220.911 327.901 221.702 325.414 219.893 323.38ZM225.206 319.762C225.206 321.571 224.98 322.927 224.076 324.171C222.154 326.545 222.945 328.127 225.658 329.144C226.223 329.371 226.789 329.597 227.241 329.936C228.484 331.066 229.954 331.97 231.423 332.762C232.101 331.292 232.667 329.71 233.571 328.24C234.475 326.771 234.362 325.866 232.667 324.962C230.18 323.606 228.032 321.797 225.206 319.762ZM219.667 329.71C219.78 329.031 219.441 328.805 218.763 328.805C217.18 328.805 215.598 328.805 214.015 328.579C212.546 328.353 212.659 330.275 211.98 331.179C211.528 331.857 211.415 332.536 212.433 333.101C213.676 333.779 215.146 335.475 216.05 334.683C217.632 333.553 218.537 331.405 219.667 329.71Z" fill="#1A1A1A"/>
<path d="M283.647 157.777C281.16 161.621 277.656 164.108 274.378 166.708C270.761 169.533 270.535 173.942 270.082 178.011C269.065 186.941 268.839 195.985 268.274 204.915C267.935 211.132 267.143 217.349 266.126 223.566C266.013 224.357 265.448 225.149 265.109 226.166C264.204 225.375 264.544 224.47 264.544 223.792C264.544 213.619 264.317 203.445 264.657 193.272C264.883 185.924 266.126 178.577 267.935 171.342C269.065 166.821 272.569 164.108 275.96 161.395C277.656 160.038 279.352 158.569 281.499 157.89C282.178 157.551 282.856 157.325 283.647 157.777Z" fill="#1A1A1A"/>
<path d="M244.423 348.248C247.136 342.709 249.622 337.396 252.335 332.197C252.787 331.405 253.579 329.823 254.822 330.614C255.727 331.179 255.161 332.423 254.596 333.44C252.335 337.509 250.188 341.692 247.814 345.648C247.249 346.779 246.457 348.022 244.423 348.248Z" fill="#1A1A1A"/>
<path d="M271.552 322.136C270.422 321.232 271.213 320.667 271.439 320.327C274.378 315.806 276.074 310.832 278.221 305.972C278.56 305.18 278.673 303.937 279.917 304.615C281.047 305.18 280.482 305.972 280.143 306.989C277.882 312.302 275.056 317.388 271.552 322.136Z" fill="#1A1A1A"/>
<path d="M257.987 322.588C260.248 317.954 261.831 312.867 265.448 308.798C266.578 311.737 262.17 320.214 257.987 322.588Z" fill="#1A1A1A"/>
<path d="M271.778 297.607C273.022 293.65 274.943 290.033 277.091 286.529C277.43 285.964 277.995 285.172 278.9 285.738C279.691 286.19 279.465 287.094 279.126 287.659C276.865 291.163 274.717 294.781 271.778 297.607Z" fill="#1A1A1A"/>
<path d="M281.612 277.712C282.404 275.564 283.082 273.303 283.986 271.156C284.212 270.59 284.777 269.799 285.569 270.138C286.36 270.477 286.247 271.495 286.021 272.06C285.23 274.321 283.873 276.355 281.612 277.712Z" fill="#1A1A1A"/>
<path d="M157.157 127.37C179.199 127.822 198.642 141.839 204.181 163.655C208.024 178.803 204.181 192.48 193.442 204.123C186.095 212.036 177.051 216.784 166.652 218.479C151.844 220.74 138.618 216.784 127.427 206.61C119.741 199.602 115.445 190.898 113.41 180.95C112.28 175.298 112.506 169.533 113.976 163.769C115.445 157.664 116.576 151.56 120.532 146.247C127.314 136.978 136.131 131.326 147.096 128.726C150.261 127.822 153.765 127.257 157.157 127.37ZM153.878 131.213C155.235 135.057 154.67 138.787 153.878 142.404C153.652 143.648 154.104 144.1 154.896 144.439C164.843 148.169 173.66 153.934 181.686 160.943C182.477 161.621 182.703 161.621 183.495 160.943C186.886 158.23 190.616 155.969 194.912 155.178C196.833 154.725 195.929 154.16 195.477 153.369C192.086 147.491 187.564 142.517 182.025 138.561C173.773 132.796 164.391 130.309 153.878 131.213ZM161.113 202.654C161.904 196.098 163.826 190.22 166.426 184.455C167.104 182.872 167.556 182.307 165.747 181.177C158.626 176.768 151.618 172.133 144.609 167.612C143.818 167.047 143.027 166.708 142.235 168.064C139.635 172.133 136.696 176.09 133.192 179.481C132.401 180.159 132.062 180.837 132.966 181.742C134.549 183.437 135.905 185.359 137.714 186.941C144.496 193.272 152.07 198.811 161.113 202.654ZM161.226 215.993C160.548 215.088 160.548 214.071 160.774 213.167C161.678 207.967 160.322 204.236 154.557 203.106C153.878 202.993 153.313 202.428 152.748 202.089C143.705 197.228 136.018 190.898 129.688 182.872C126.297 185.811 122.793 188.637 118.384 189.767C125.393 206.271 143.14 217.462 161.226 215.993ZM121.549 152.691C123.584 152.465 124.601 153.256 125.506 153.821C130.366 156.647 135.227 159.36 139.862 162.299C141.218 163.203 141.783 163.203 142.688 161.734C145.287 157.099 147.661 152.465 149.696 147.604C150.6 145.343 149.583 145.117 148.113 144.552C143.818 142.969 139.296 142.517 134.888 142.065C131.949 141.839 128.897 141.726 126.749 144.326C123.923 147.83 121.21 151.447 119.402 155.743C119.062 156.421 118.61 156.986 118.949 158.004C121.549 164.786 125.28 170.89 129.236 176.881C130.027 178.124 130.818 178.237 131.723 176.994C133.757 174.507 135.905 172.02 137.827 169.42C140.766 165.351 140.653 165.351 136.357 162.412C135.566 161.96 134.775 161.508 134.097 161.056C130.14 158.343 125.732 156.195 121.549 152.691ZM152.861 146.587C150.6 152.578 148.113 158.682 144.496 164.108C143.931 165.012 144.496 165.125 144.948 165.464C152.409 169.873 159.983 174.168 167.443 178.577C168.8 179.368 169.252 178.916 169.817 177.785C171.852 173.942 174.338 170.325 177.277 167.273C180.216 164.108 180.33 164.221 176.938 161.395C176.599 161.169 176.26 160.943 175.921 160.716C168.913 155.064 161.565 149.978 152.861 146.587ZM174.565 206.045C174.338 206.045 174.678 205.932 174.904 205.932C179.764 205.932 184.173 203.671 188.92 202.993C191.181 202.654 192.538 199.941 193.329 197.906C193.894 196.437 191.407 196.324 190.39 195.872C183.834 192.593 177.73 188.637 171.626 184.794C170.495 184.116 169.591 183.663 168.913 185.359C166.652 190.446 164.843 195.759 163.261 201.071C162.922 202.089 162.808 203.219 164.391 203.784C167.669 204.802 170.721 205.819 174.565 206.045ZM197.059 192.028C197.059 191.35 197.059 191.124 197.059 190.898C194.912 181.629 190.051 174.055 183.382 167.499C182.251 166.368 181.912 167.273 181.234 167.951C178.069 171.229 175.356 174.846 172.869 178.69C171.626 180.611 171.626 181.177 173.66 182.307C180.556 186.376 187.451 190.446 193.781 195.306C194.346 195.759 194.799 196.437 195.364 195.419C196.042 194.063 196.946 192.933 197.059 192.028ZM117.254 157.777C115.897 160.377 115.897 162.751 115.445 165.012C113.976 172.473 114.88 179.82 117.254 187.055C117.706 188.524 118.497 188.411 119.628 187.733C122.567 186.263 124.714 183.776 127.427 181.968C128.784 181.063 127.766 180.046 127.314 179.368C122.906 172.925 119.288 166.029 117.254 157.777ZM199.659 185.133C201.694 176.09 201.581 167.386 198.077 158.682C197.511 157.212 196.268 158.004 195.59 158.23C192.651 159.36 189.938 160.943 187.225 162.638C184.964 163.995 185.529 164.673 186.886 166.142C192.199 171.794 196.946 177.672 199.659 185.133ZM131.158 140.369C138.166 140.03 144.157 140.143 149.922 142.63C150.6 142.856 151.165 143.082 151.505 141.952C152.183 139.239 152.296 136.526 151.957 133.813C151.844 132.57 151.279 131.326 149.47 131.665C142.914 132.909 137.036 135.509 131.158 140.369ZM182.703 208.419C178.634 208.532 174.565 210.228 170.495 208.871C168.573 208.193 166.652 207.854 164.73 207.288C163.487 206.836 162.922 206.836 162.469 208.532C161.791 211.132 162.13 213.619 162.13 215.993C169.704 215.201 176.486 212.827 182.703 208.419Z" fill="#1A1A1A"/>
<path d="M186.66 120.022C175.695 114.823 164.73 113.466 153.087 115.049C138.731 116.97 126.862 123.64 117.254 134.265C108.889 143.535 103.802 154.499 102.107 167.047C100.185 181.968 102.785 195.759 111.489 208.08C119.967 220.062 131.384 227.975 146.305 230.348C169.026 233.853 187.903 226.505 203.05 209.775C210.737 201.297 215.598 191.124 216.954 179.481C217.18 177.672 217.406 175.864 217.519 174.055C217.519 172.925 217.519 171.229 219.102 171.342C220.572 171.455 221.702 172.586 221.589 174.394C221.137 183.437 218.763 191.915 214.467 199.828C204.633 217.801 189.486 229.331 169.478 233.287C151.731 236.792 135.114 232.948 120.645 221.418C110.019 213.053 103.35 202.315 100.185 189.315C97.133 176.655 98.3764 164.334 103.124 152.352C109.002 136.978 119.515 125.674 134.323 118.44C141.444 114.936 149.018 113.014 157.044 112.449C166.2 111.771 174.791 113.353 183.382 116.292C185.077 116.857 186.321 117.762 186.66 120.022Z" fill="#1A1A1A"/>
</svg>
